%TF.GenerationSoftware,KiCad,Pcbnew,9.0.6*%
%TF.CreationDate,2026-03-13T11:42:11-04:00*%
%TF.ProjectId,LMP_Circuit,4c4d505f-4369-4726-9375-69742e6b6963,rev?*%
%TF.SameCoordinates,Original*%
%TF.FileFunction,Soldermask,Bot*%
%TF.FilePolarity,Negative*%
%FSLAX46Y46*%
G04 Gerber Fmt 4.6, Leading zero omitted, Abs format (unit mm)*
G04 Created by KiCad (PCBNEW 9.0.6) date 2026-03-13 11:42:11*
%MOMM*%
%LPD*%
G01*
G04 APERTURE LIST*
G04 Aperture macros list*
%AMRoundRect*
0 Rectangle with rounded corners*
0 $1 Rounding radius*
0 $2 $3 $4 $5 $6 $7 $8 $9 X,Y pos of 4 corners*
0 Add a 4 corners polygon primitive as box body*
4,1,4,$2,$3,$4,$5,$6,$7,$8,$9,$2,$3,0*
0 Add four circle primitives for the rounded corners*
1,1,$1+$1,$2,$3*
1,1,$1+$1,$4,$5*
1,1,$1+$1,$6,$7*
1,1,$1+$1,$8,$9*
0 Add four rect primitives between the rounded corners*
20,1,$1+$1,$2,$3,$4,$5,0*
20,1,$1+$1,$4,$5,$6,$7,0*
20,1,$1+$1,$6,$7,$8,$9,0*
20,1,$1+$1,$8,$9,$2,$3,0*%
%AMFreePoly0*
4,1,37,0.800000,0.796148,0.878414,0.796148,1.032228,0.765552,1.177117,0.705537,1.307515,0.618408,1.418408,0.507515,1.505537,0.377117,1.565552,0.232228,1.596148,0.078414,1.596148,-0.078414,1.565552,-0.232228,1.505537,-0.377117,1.418408,-0.507515,1.307515,-0.618408,1.177117,-0.705537,1.032228,-0.765552,0.878414,-0.796148,0.800000,-0.796148,0.800000,-0.800000,-1.400000,-0.800000,
-1.403843,-0.796157,-1.439018,-0.796157,-1.511114,-0.766294,-1.566294,-0.711114,-1.596157,-0.639018,-1.596157,-0.603843,-1.600000,-0.600000,-1.600000,0.600000,-1.596157,0.603843,-1.596157,0.639018,-1.566294,0.711114,-1.511114,0.766294,-1.439018,0.796157,-1.403843,0.796157,-1.400000,0.800000,0.800000,0.800000,0.800000,0.796148,0.800000,0.796148,$1*%
%AMFreePoly1*
4,1,37,1.403843,0.796157,1.439018,0.796157,1.511114,0.766294,1.566294,0.711114,1.596157,0.639018,1.596157,0.603843,1.600000,0.600000,1.600000,-0.600000,1.596157,-0.603843,1.596157,-0.639018,1.566294,-0.711114,1.511114,-0.766294,1.439018,-0.796157,1.403843,-0.796157,1.400000,-0.800000,-0.800000,-0.800000,-0.800000,-0.796148,-0.878414,-0.796148,-1.032228,-0.765552,-1.177117,-0.705537,
-1.307515,-0.618408,-1.418408,-0.507515,-1.505537,-0.377117,-1.565552,-0.232228,-1.596148,-0.078414,-1.596148,0.078414,-1.565552,0.232228,-1.505537,0.377117,-1.418408,0.507515,-1.307515,0.618408,-1.177117,0.705537,-1.032228,0.765552,-0.878414,0.796148,-0.800000,0.796148,-0.800000,0.800000,1.400000,0.800000,1.403843,0.796157,1.403843,0.796157,$1*%
%AMFreePoly2*
4,1,37,0.603843,0.796157,0.639018,0.796157,0.711114,0.766294,0.766294,0.711114,0.796157,0.639018,0.796157,0.603843,0.800000,0.600000,0.800000,-0.600000,0.796157,-0.603843,0.796157,-0.639018,0.766294,-0.711114,0.711114,-0.766294,0.639018,-0.796157,0.603843,-0.796157,0.600000,-0.800000,0.000000,-0.800000,0.000000,-0.796148,-0.078414,-0.796148,-0.232228,-0.765552,-0.377117,-0.705537,
-0.507515,-0.618408,-0.618408,-0.507515,-0.705537,-0.377117,-0.765552,-0.232228,-0.796148,-0.078414,-0.796148,0.078414,-0.765552,0.232228,-0.705537,0.377117,-0.618408,0.507515,-0.507515,0.618408,-0.377117,0.705537,-0.232228,0.765552,-0.078414,0.796148,0.000000,0.796148,0.000000,0.800000,0.600000,0.800000,0.603843,0.796157,0.603843,0.796157,$1*%
%AMFreePoly3*
4,1,37,0.000000,0.796148,0.078414,0.796148,0.232228,0.765552,0.377117,0.705537,0.507515,0.618408,0.618408,0.507515,0.705537,0.377117,0.765552,0.232228,0.796148,0.078414,0.796148,-0.078414,0.765552,-0.232228,0.705537,-0.377117,0.618408,-0.507515,0.507515,-0.618408,0.377117,-0.705537,0.232228,-0.765552,0.078414,-0.796148,0.000000,-0.796148,0.000000,-0.800000,-0.600000,-0.800000,
-0.603843,-0.796157,-0.639018,-0.796157,-0.711114,-0.766294,-0.766294,-0.711114,-0.796157,-0.639018,-0.796157,-0.603843,-0.800000,-0.600000,-0.800000,0.600000,-0.796157,0.603843,-0.796157,0.639018,-0.766294,0.711114,-0.711114,0.766294,-0.639018,0.796157,-0.603843,0.796157,-0.600000,0.800000,0.000000,0.800000,0.000000,0.796148,0.000000,0.796148,$1*%
G04 Aperture macros list end*
%ADD10RoundRect,0.237500X0.237500X-0.250000X0.237500X0.250000X-0.237500X0.250000X-0.237500X-0.250000X0*%
%ADD11RoundRect,0.225000X0.250000X-0.225000X0.250000X0.225000X-0.250000X0.225000X-0.250000X-0.225000X0*%
%ADD12RoundRect,0.225000X-0.250000X0.225000X-0.250000X-0.225000X0.250000X-0.225000X0.250000X0.225000X0*%
%ADD13R,1.905000X1.905000*%
%ADD14C,1.905000*%
%ADD15R,3.500000X3.500000*%
%ADD16C,4.000000*%
%ADD17R,1.600000X1.600000*%
%ADD18O,1.600000X1.600000*%
%ADD19R,0.850000X0.850000*%
%ADD20C,0.850000*%
%ADD21RoundRect,0.250001X-0.949999X-0.949999X0.949999X-0.949999X0.949999X0.949999X-0.949999X0.949999X0*%
%ADD22C,2.400000*%
%ADD23C,2.200000*%
%ADD24C,1.850000*%
%ADD25FreePoly0,0.000000*%
%ADD26RoundRect,0.200000X-0.600000X-0.600000X0.600000X-0.600000X0.600000X0.600000X-0.600000X0.600000X0*%
%ADD27RoundRect,0.800000X-0.800000X-0.000010X0.800000X-0.000010X0.800000X0.000010X-0.800000X0.000010X0*%
%ADD28C,1.600000*%
%ADD29FreePoly1,0.000000*%
%ADD30FreePoly2,0.000000*%
%ADD31FreePoly3,0.000000*%
%ADD32RoundRect,0.237500X-0.237500X0.250000X-0.237500X-0.250000X0.237500X-0.250000X0.237500X0.250000X0*%
%ADD33R,1.899999X0.599999*%
%ADD34RoundRect,0.250001X-0.949999X0.949999X-0.949999X-0.949999X0.949999X-0.949999X0.949999X0.949999X0*%
G04 APERTURE END LIST*
D10*
%TO.C,R1*%
X63500000Y-90828500D03*
X63500000Y-89003500D03*
%TD*%
D11*
%TO.C,C8*%
X94996000Y-110503000D03*
X94996000Y-108953000D03*
%TD*%
D12*
%TO.C,C7*%
X107188000Y-125717000D03*
X107188000Y-127267000D03*
%TD*%
D13*
%TO.C,U4*%
X62737999Y-131825998D03*
D14*
X113538002Y-121666000D03*
X113538001Y-116585998D03*
X113538001Y-114046002D03*
X113538000Y-129286000D03*
X113538000Y-126746002D03*
X113538000Y-124205998D03*
X113537998Y-131826000D03*
X113537998Y-119126000D03*
X62737999Y-129286002D03*
X62738002Y-126746000D03*
X62737998Y-124206000D03*
X62738000Y-121666002D03*
X62738000Y-119125998D03*
X62738000Y-116586000D03*
X62738002Y-114046000D03*
X116078002Y-131826001D03*
X116078001Y-129286002D03*
X116078000Y-126746001D03*
X116078000Y-124206000D03*
X116077998Y-121665999D03*
X116078002Y-119125999D03*
X116077999Y-116586002D03*
X116078001Y-114045998D03*
%TD*%
D15*
%TO.C,J8*%
X69905000Y-79193000D03*
D16*
X64880000Y-74168000D03*
X64880000Y-84218000D03*
X74930000Y-74168000D03*
X74930000Y-84218000D03*
%TD*%
D17*
%TO.C,A3*%
X122671999Y-103124001D03*
D18*
X122672002Y-100583997D03*
X122671999Y-98044001D03*
X122671999Y-95504001D03*
X122672004Y-92964000D03*
X122671999Y-90424002D03*
X122671999Y-87884001D03*
X122671999Y-85344001D03*
X109971995Y-85343999D03*
X109971999Y-87884002D03*
X109971998Y-90424002D03*
X109972002Y-92964000D03*
X109972001Y-95504000D03*
X109971994Y-98043999D03*
X109971999Y-100584003D03*
X109972000Y-103124001D03*
%TD*%
D15*
%TO.C,J7*%
X86868000Y-79248000D03*
D16*
X81843000Y-74223000D03*
X81843000Y-84273000D03*
X91893000Y-74223000D03*
X91893000Y-84273000D03*
%TD*%
D19*
%TO.C,J1*%
X60706000Y-94488001D03*
D20*
X59706000Y-94488001D03*
%TD*%
D19*
%TO.C,J2*%
X60706000Y-97790000D03*
D20*
X59706000Y-97790000D03*
%TD*%
D12*
%TO.C,C4*%
X115062000Y-81026000D03*
X115062000Y-82576002D03*
%TD*%
D19*
%TO.C,J3*%
X60690000Y-101092000D03*
D20*
X59690000Y-101092000D03*
%TD*%
D21*
%TO.C,J12*%
X102870000Y-76454000D03*
D22*
X106369998Y-76454000D03*
%TD*%
D12*
%TO.C,C5*%
X118364000Y-81026000D03*
X118364000Y-82576002D03*
%TD*%
%TO.C,C1*%
X110490000Y-76935998D03*
X110490000Y-78486000D03*
%TD*%
D23*
%TO.C,A1*%
X76523001Y-138300002D03*
D24*
X76822999Y-135270000D03*
X81673002Y-135270001D03*
D23*
X81973001Y-138300002D03*
D25*
X69558001Y-138430002D03*
D26*
X70358001Y-138430002D03*
D27*
X69558002Y-135890003D03*
D28*
X70358002Y-135890002D03*
D29*
X69558000Y-133350003D03*
D30*
X70358001Y-133350002D03*
D27*
X69558000Y-130810004D03*
D28*
X70358000Y-130810001D03*
D27*
X69558001Y-128270002D03*
D28*
X70358001Y-128270002D03*
D27*
X69557998Y-125730003D03*
D28*
X70358002Y-125730004D03*
D27*
X69558001Y-123190003D03*
D28*
X70358001Y-123190002D03*
D29*
X69558000Y-120650001D03*
D30*
X70358003Y-120650000D03*
D27*
X69558002Y-118110000D03*
D28*
X70358003Y-118110003D03*
D27*
X69558001Y-115570002D03*
D28*
X70358001Y-115570002D03*
D27*
X69558001Y-113030002D03*
D28*
X70358002Y-113030002D03*
D27*
X69558000Y-110490003D03*
D28*
X70358000Y-110490004D03*
D29*
X69558001Y-107950002D03*
D30*
X70358002Y-107950005D03*
D27*
X69558001Y-105410001D03*
D28*
X70358001Y-105410002D03*
D27*
X69557999Y-102870000D03*
D28*
X70358002Y-102870001D03*
D27*
X69558001Y-100330001D03*
D28*
X70358001Y-100330002D03*
D27*
X69558003Y-97790002D03*
D28*
X70358001Y-97790000D03*
D29*
X69558002Y-95250001D03*
D30*
X70358001Y-95250002D03*
D27*
X69558002Y-92710001D03*
D28*
X70358000Y-92710000D03*
D27*
X69558001Y-90170002D03*
D28*
X70358001Y-90170002D03*
X88138001Y-90170002D03*
D27*
X88938001Y-90170002D03*
D28*
X88138000Y-92710002D03*
D27*
X88938000Y-92710001D03*
D31*
X88138001Y-95250002D03*
D25*
X88938002Y-95250001D03*
D28*
X88138002Y-97790003D03*
D27*
X88938002Y-97790000D03*
D28*
X88138001Y-100330002D03*
D27*
X88938001Y-100330002D03*
D28*
X88138000Y-102870000D03*
D27*
X88938004Y-102870001D03*
D28*
X88138001Y-105410002D03*
D27*
X88938001Y-105410001D03*
D31*
X88137999Y-107950004D03*
D25*
X88938002Y-107950003D03*
D28*
X88137999Y-110490001D03*
D27*
X88938000Y-110490004D03*
D28*
X88138001Y-113030002D03*
D27*
X88938001Y-113030002D03*
D28*
X88138000Y-115570002D03*
D27*
X88938001Y-115570002D03*
D28*
X88138002Y-118110000D03*
D27*
X88938002Y-118110001D03*
D31*
X88138000Y-120649999D03*
D25*
X88938001Y-120650002D03*
D28*
X88138001Y-123190002D03*
D27*
X88938001Y-123190003D03*
D28*
X88138000Y-125730003D03*
D27*
X88938003Y-125730004D03*
D28*
X88138001Y-128270002D03*
D27*
X88938001Y-128270003D03*
D28*
X88138001Y-130810004D03*
D27*
X88937999Y-130810002D03*
D31*
X88138001Y-133350002D03*
D25*
X88938000Y-133350003D03*
D28*
X88138002Y-135890004D03*
D27*
X88938000Y-135890003D03*
D28*
X88138001Y-138430002D03*
D27*
X88938001Y-138430002D03*
%TD*%
D10*
%TO.C,R6*%
X124714000Y-112672500D03*
X124714000Y-110847500D03*
%TD*%
D12*
%TO.C,C3*%
X125730000Y-81012999D03*
X125730000Y-82563001D03*
%TD*%
D32*
%TO.C,R10*%
X105918000Y-94083500D03*
X105918000Y-95908500D03*
%TD*%
D19*
%TO.C,J4*%
X60698002Y-103632001D03*
D20*
X59698002Y-103632001D03*
%TD*%
D10*
%TO.C,R11*%
X65278002Y-91948004D03*
X65278002Y-90123004D03*
%TD*%
D19*
%TO.C,J10*%
X65532000Y-98044000D03*
%TD*%
D12*
%TO.C,C2*%
X122428000Y-81012999D03*
X122428000Y-82563001D03*
%TD*%
D19*
%TO.C,J5*%
X60706000Y-90170000D03*
%TD*%
D21*
%TO.C,J6*%
X116952000Y-76200000D03*
D22*
X120451998Y-76200000D03*
X123952000Y-76200000D03*
%TD*%
D11*
%TO.C,C6*%
X105918000Y-90678000D03*
X105918000Y-89127998D03*
%TD*%
D33*
%TO.C,U3*%
X105664000Y-85077001D03*
X105664000Y-86346999D03*
X105664000Y-100316999D03*
X105664000Y-101586997D03*
X96164000Y-101586999D03*
X96164001Y-100316999D03*
X96164001Y-86346999D03*
X96164000Y-85076999D03*
%TD*%
D32*
%TO.C,R7*%
X110490000Y-125325500D03*
X110490000Y-127150500D03*
%TD*%
%TO.C,R9*%
X110998000Y-80621500D03*
X110998000Y-82446500D03*
%TD*%
D10*
%TO.C,R3*%
X92964000Y-106981000D03*
X92964000Y-105156000D03*
%TD*%
D33*
%TO.C,U1*%
X105842001Y-104775002D03*
X105842001Y-106045000D03*
X105842001Y-120015000D03*
X105842000Y-121285000D03*
X96342001Y-121285000D03*
X96342002Y-120015000D03*
X96342002Y-106045000D03*
X96342001Y-104775000D03*
%TD*%
D34*
%TO.C,J11*%
X122936000Y-118476000D03*
D22*
X122936000Y-121975998D03*
X122936000Y-125476000D03*
X122936002Y-128975999D03*
%TD*%
D19*
%TO.C,J9*%
X65278000Y-94488000D03*
%TD*%
D32*
%TO.C,R5*%
X122936000Y-110339500D03*
X122936000Y-112164500D03*
%TD*%
D10*
%TO.C,R8*%
X120142000Y-134516500D03*
X120142000Y-132691500D03*
%TD*%
M02*
