<?xml version="1.0" standalone="no"?>
 <!DOCTYPE svg PUBLIC "-//W3C//DTD SVG 1.1//EN" 
 "http://www.w3.org/Graphics/SVG/1.1/DTD/svg11.dtd"> 
<svg
  xmlns:svg="http://www.w3.org/2000/svg"
  xmlns="http://www.w3.org/2000/svg"
  xmlns:xlink="http://www.w3.org/1999/xlink"
  version="1.1"
  width="297.0022mm" height="210.0072mm" viewBox="0.0000 0.0000 297.0022 210.0072">
<title>SVG Image created as LMP_Circuit-NPTH-drl_map.svg date 2026/03/13 11:42:13 </title>
  <desc>Image generated by PCBNEW </desc>
<g style="fill:#000000; fill-opacity:1.0000;stroke:#000000; stroke-opacity:1.0000;
stroke-linecap:round; stroke-linejoin:round;"
 transform="translate(0 0) scale(1 1)">
<path style="fill:none; 
stroke:#000000; stroke-width:0.0828; stroke-opacity:1; 
stroke-linecap:round; stroke-linejoin:round;fill:none"
d="M 90.5403,5.0414
206.4619,5.0414
206.4619,120.9629
90.5403,120.9629
Z" /> 
</g>
<g style="fill:none; 
stroke:#000000; stroke-width:0.0828; stroke-opacity:1; 
stroke-linecap:round; stroke-linejoin:round;">
<circle cx="97.6910" cy="113.5638" r="2.4840" /> 
<circle cx="97.6910" cy="67.2946" r="2.4840" /> 
<circle cx="186.0232" cy="113.5638" r="2.4840" /> 
<circle cx="186.0232" cy="67.2946" r="2.4840" /> 
</g>
<g style="fill:none; 
stroke:#000000; stroke-width:0.3064; stroke-opacity:1; 
stroke-linecap:round; stroke-linejoin:round;">
<path d="M121.5874 109.3227
L124.6511 112.3864
" />
<path d="M124.6511 109.3227
L121.5874 112.3864
" />
<path d="M129.6191 109.3227
L132.6828 112.3864
" />
<path d="M132.6828 109.3227
L129.6191 112.3864
" />
</g>
<g style="fill:none; 
stroke:#000000; stroke-width:0.3643; stroke-opacity:1; 
stroke-linecap:round; stroke-linejoin:round;">
<circle cx="122.6225" cy="115.8723" r="1.8216" /> 
<circle cx="131.6478" cy="115.8723" r="1.8216" /> 
</g>
<g style="fill:none; 
stroke:#000000; stroke-width:0.2000; stroke-opacity:1; 
stroke-linecap:round; stroke-linejoin:round;">
<text x="92.4989" y="124.2043"
textLength="14.8667" font-size="2.6667" lengthAdjust="spacingAndGlyphs"
text-anchor="start" opacity="0" stroke-opacity="0">Drill Map:</text>
<g class="stroked-text"><desc>Drill Map:</desc>
<path d="M93.1067 124.1192
L93.1067 122.1192
" />
<path d="M93.1067 122.1192
L93.5829 122.1192
" />
<path d="M93.5829 122.1192
L93.8686 122.2144
" />
<path d="M93.8686 122.2144
L94.0591 122.4049
" />
<path d="M94.0591 122.4049
L94.1543 122.5953
" />
<path d="M94.1543 122.5953
L94.2496 122.9763
" />
<path d="M94.2496 122.9763
L94.2496 123.2620
" />
<path d="M94.2496 123.2620
L94.1543 123.6430
" />
<path d="M94.1543 123.6430
L94.0591 123.8334
" />
<path d="M94.0591 123.8334
L93.8686 124.0239
" />
<path d="M93.8686 124.0239
L93.5829 124.1192
" />
<path d="M93.5829 124.1192
L93.1067 124.1192
" />
<path d="M95.1067 124.1192
L95.1067 122.7858
" />
<path d="M95.1067 123.1668
L95.2019 122.9763
" />
<path d="M95.2019 122.9763
L95.2972 122.8811
" />
<path d="M95.2972 122.8811
L95.4877 122.7858
" />
<path d="M95.4877 122.7858
L95.6781 122.7858
" />
<path d="M96.3448 124.1192
L96.3448 122.7858
" />
<path d="M96.3448 122.1192
L96.2496 122.2144
" />
<path d="M96.2496 122.2144
L96.3448 122.3096
" />
<path d="M96.3448 122.3096
L96.4400 122.2144
" />
<path d="M96.4400 122.2144
L96.3448 122.1192
" />
<path d="M96.3448 122.1192
L96.3448 122.3096
" />
<path d="M97.5829 124.1192
L97.3924 124.0239
" />
<path d="M97.3924 124.0239
L97.2972 123.8334
" />
<path d="M97.2972 123.8334
L97.2972 122.1192
" />
<path d="M98.6305 124.1192
L98.4400 124.0239
" />
<path d="M98.4400 124.0239
L98.3448 123.8334
" />
<path d="M98.3448 123.8334
L98.3448 122.1192
" />
<path d="M100.9162 124.1192
L100.9162 122.1192
" />
<path d="M100.9162 122.1192
L101.5829 123.5477
" />
<path d="M101.5829 123.5477
L102.2496 122.1192
" />
<path d="M102.2496 122.1192
L102.2496 124.1192
" />
<path d="M104.0591 124.1192
L104.0591 123.0715
" />
<path d="M104.0591 123.0715
L103.9639 122.8811
" />
<path d="M103.9639 122.8811
L103.7734 122.7858
" />
<path d="M103.7734 122.7858
L103.3924 122.7858
" />
<path d="M103.3924 122.7858
L103.2019 122.8811
" />
<path d="M104.0591 124.0239
L103.8686 124.1192
" />
<path d="M103.8686 124.1192
L103.3924 124.1192
" />
<path d="M103.3924 124.1192
L103.2019 124.0239
" />
<path d="M103.2019 124.0239
L103.1067 123.8334
" />
<path d="M103.1067 123.8334
L103.1067 123.6430
" />
<path d="M103.1067 123.6430
L103.2019 123.4525
" />
<path d="M103.2019 123.4525
L103.3924 123.3573
" />
<path d="M103.3924 123.3573
L103.8686 123.3573
" />
<path d="M103.8686 123.3573
L104.0591 123.2620
" />
<path d="M105.0115 122.7858
L105.0115 124.7858
" />
<path d="M105.0115 122.8811
L105.2019 122.7858
" />
<path d="M105.2019 122.7858
L105.5829 122.7858
" />
<path d="M105.5829 122.7858
L105.7734 122.8811
" />
<path d="M105.7734 122.8811
L105.8686 122.9763
" />
<path d="M105.8686 122.9763
L105.9639 123.1668
" />
<path d="M105.9639 123.1668
L105.9639 123.7382
" />
<path d="M105.9639 123.7382
L105.8686 123.9287
" />
<path d="M105.8686 123.9287
L105.7734 124.0239
" />
<path d="M105.7734 124.0239
L105.5829 124.1192
" />
<path d="M105.5829 124.1192
L105.2019 124.1192
" />
<path d="M105.2019 124.1192
L105.0115 124.0239
" />
<path d="M106.8210 123.9287
L106.9162 124.0239
" />
<path d="M106.9162 124.0239
L106.8210 124.1192
" />
<path d="M106.8210 124.1192
L106.7258 124.0239
" />
<path d="M106.7258 124.0239
L106.8210 123.9287
" />
<path d="M106.8210 123.9287
L106.8210 124.1192
" />
<path d="M106.8210 122.8811
L106.9162 122.9763
" />
<path d="M106.9162 122.9763
L106.8210 123.0715
" />
<path d="M106.8210 123.0715
L106.7258 122.9763
" />
<path d="M106.7258 122.9763
L106.8210 122.8811
" />
<path d="M106.8210 122.8811
L106.8210 123.0715
" />
</g><path d="M88.4989 126.4043
L90.4989 128.4043
" />
<path d="M90.4989 126.4043
L88.4989 128.4043
" />
</g>
<g style="fill:none; 
stroke:#000000; stroke-width:0.2000; stroke-opacity:1; 
stroke-linecap:round; stroke-linejoin:round;">
<text x="92.4989" y="128.4043"
textLength="66.6762" font-size="2.6667" lengthAdjust="spacingAndGlyphs"
text-anchor="start" opacity="0" stroke-opacity="0">1.850mm / 0.0728" (2 holes) (not plated)</text>
<g class="stroked-text"><desc>1.850mm / 0.0728" (2 holes) (not plated)</desc>
<path d="M94.1543 128.3192
L93.0115 128.3192
" />
<path d="M93.5829 128.3192
L93.5829 126.3192
" />
<path d="M93.5829 126.3192
L93.3924 126.6049
" />
<path d="M93.3924 126.6049
L93.2019 126.7953
" />
<path d="M93.2019 126.7953
L93.0115 126.8906
" />
<path d="M95.0115 128.1287
L95.1067 128.2239
" />
<path d="M95.1067 128.2239
L95.0115 128.3192
" />
<path d="M95.0115 128.3192
L94.9162 128.2239
" />
<path d="M94.9162 128.2239
L95.0115 128.1287
" />
<path d="M95.0115 128.1287
L95.0115 128.3192
" />
<path d="M96.2496 127.1763
L96.0591 127.0811
" />
<path d="M96.0591 127.0811
L95.9639 126.9858
" />
<path d="M95.9639 126.9858
L95.8686 126.7953
" />
<path d="M95.8686 126.7953
L95.8686 126.7001
" />
<path d="M95.8686 126.7001
L95.9639 126.5096
" />
<path d="M95.9639 126.5096
L96.0591 126.4144
" />
<path d="M96.0591 126.4144
L96.2496 126.3192
" />
<path d="M96.2496 126.3192
L96.6305 126.3192
" />
<path d="M96.6305 126.3192
L96.8210 126.4144
" />
<path d="M96.8210 126.4144
L96.9162 126.5096
" />
<path d="M96.9162 126.5096
L97.0115 126.7001
" />
<path d="M97.0115 126.7001
L97.0115 126.7953
" />
<path d="M97.0115 126.7953
L96.9162 126.9858
" />
<path d="M96.9162 126.9858
L96.8210 127.0811
" />
<path d="M96.8210 127.0811
L96.6305 127.1763
" />
<path d="M96.6305 127.1763
L96.2496 127.1763
" />
<path d="M96.2496 127.1763
L96.0591 127.2715
" />
<path d="M96.0591 127.2715
L95.9639 127.3668
" />
<path d="M95.9639 127.3668
L95.8686 127.5573
" />
<path d="M95.8686 127.5573
L95.8686 127.9382
" />
<path d="M95.8686 127.9382
L95.9639 128.1287
" />
<path d="M95.9639 128.1287
L96.0591 128.2239
" />
<path d="M96.0591 128.2239
L96.2496 128.3192
" />
<path d="M96.2496 128.3192
L96.6305 128.3192
" />
<path d="M96.6305 128.3192
L96.8210 128.2239
" />
<path d="M96.8210 128.2239
L96.9162 128.1287
" />
<path d="M96.9162 128.1287
L97.0115 127.9382
" />
<path d="M97.0115 127.9382
L97.0115 127.5573
" />
<path d="M97.0115 127.5573
L96.9162 127.3668
" />
<path d="M96.9162 127.3668
L96.8210 127.2715
" />
<path d="M96.8210 127.2715
L96.6305 127.1763
" />
<path d="M98.8210 126.3192
L97.8686 126.3192
" />
<path d="M97.8686 126.3192
L97.7734 127.2715
" />
<path d="M97.7734 127.2715
L97.8686 127.1763
" />
<path d="M97.8686 127.1763
L98.0591 127.0811
" />
<path d="M98.0591 127.0811
L98.5353 127.0811
" />
<path d="M98.5353 127.0811
L98.7258 127.1763
" />
<path d="M98.7258 127.1763
L98.8210 127.2715
" />
<path d="M98.8210 127.2715
L98.9162 127.4620
" />
<path d="M98.9162 127.4620
L98.9162 127.9382
" />
<path d="M98.9162 127.9382
L98.8210 128.1287
" />
<path d="M98.8210 128.1287
L98.7258 128.2239
" />
<path d="M98.7258 128.2239
L98.5353 128.3192
" />
<path d="M98.5353 128.3192
L98.0591 128.3192
" />
<path d="M98.0591 128.3192
L97.8686 128.2239
" />
<path d="M97.8686 128.2239
L97.7734 128.1287
" />
<path d="M100.1543 126.3192
L100.3448 126.3192
" />
<path d="M100.3448 126.3192
L100.5353 126.4144
" />
<path d="M100.5353 126.4144
L100.6305 126.5096
" />
<path d="M100.6305 126.5096
L100.7258 126.7001
" />
<path d="M100.7258 126.7001
L100.8210 127.0811
" />
<path d="M100.8210 127.0811
L100.8210 127.5573
" />
<path d="M100.8210 127.5573
L100.7258 127.9382
" />
<path d="M100.7258 127.9382
L100.6305 128.1287
" />
<path d="M100.6305 128.1287
L100.5353 128.2239
" />
<path d="M100.5353 128.2239
L100.3448 128.3192
" />
<path d="M100.3448 128.3192
L100.1543 128.3192
" />
<path d="M100.1543 128.3192
L99.9639 128.2239
" />
<path d="M99.9639 128.2239
L99.8686 128.1287
" />
<path d="M99.8686 128.1287
L99.7734 127.9382
" />
<path d="M99.7734 127.9382
L99.6781 127.5573
" />
<path d="M99.6781 127.5573
L99.6781 127.0811
" />
<path d="M99.6781 127.0811
L99.7734 126.7001
" />
<path d="M99.7734 126.7001
L99.8686 126.5096
" />
<path d="M99.8686 126.5096
L99.9639 126.4144
" />
<path d="M99.9639 126.4144
L100.1543 126.3192
" />
<path d="M101.6781 128.3192
L101.6781 126.9858
" />
<path d="M101.6781 127.1763
L101.7734 127.0811
" />
<path d="M101.7734 127.0811
L101.9639 126.9858
" />
<path d="M101.9639 126.9858
L102.2496 126.9858
" />
<path d="M102.2496 126.9858
L102.4400 127.0811
" />
<path d="M102.4400 127.0811
L102.5353 127.2715
" />
<path d="M102.5353 127.2715
L102.5353 128.3192
" />
<path d="M102.5353 127.2715
L102.6305 127.0811
" />
<path d="M102.6305 127.0811
L102.8210 126.9858
" />
<path d="M102.8210 126.9858
L103.1067 126.9858
" />
<path d="M103.1067 126.9858
L103.2972 127.0811
" />
<path d="M103.2972 127.0811
L103.3924 127.2715
" />
<path d="M103.3924 127.2715
L103.3924 128.3192
" />
<path d="M104.3448 128.3192
L104.3448 126.9858
" />
<path d="M104.3448 127.1763
L104.4400 127.0811
" />
<path d="M104.4400 127.0811
L104.6305 126.9858
" />
<path d="M104.6305 126.9858
L104.9162 126.9858
" />
<path d="M104.9162 126.9858
L105.1067 127.0811
" />
<path d="M105.1067 127.0811
L105.2019 127.2715
" />
<path d="M105.2019 127.2715
L105.2019 128.3192
" />
<path d="M105.2019 127.2715
L105.2972 127.0811
" />
<path d="M105.2972 127.0811
L105.4877 126.9858
" />
<path d="M105.4877 126.9858
L105.7734 126.9858
" />
<path d="M105.7734 126.9858
L105.9639 127.0811
" />
<path d="M105.9639 127.0811
L106.0591 127.2715
" />
<path d="M106.0591 127.2715
L106.0591 128.3192
" />
<path d="M109.9639 126.2239
L108.2496 128.7953
" />
<path d="M112.5353 126.3192
L112.7258 126.3192
" />
<path d="M112.7258 126.3192
L112.9162 126.4144
" />
<path d="M112.9162 126.4144
L113.0115 126.5096
" />
<path d="M113.0115 126.5096
L113.1067 126.7001
" />
<path d="M113.1067 126.7001
L113.2020 127.0811
" />
<path d="M113.2020 127.0811
L113.2020 127.5573
" />
<path d="M113.2020 127.5573
L113.1067 127.9382
" />
<path d="M113.1067 127.9382
L113.0115 128.1287
" />
<path d="M113.0115 128.1287
L112.9162 128.2239
" />
<path d="M112.9162 128.2239
L112.7258 128.3192
" />
<path d="M112.7258 128.3192
L112.5353 128.3192
" />
<path d="M112.5353 128.3192
L112.3448 128.2239
" />
<path d="M112.3448 128.2239
L112.2496 128.1287
" />
<path d="M112.2496 128.1287
L112.1543 127.9382
" />
<path d="M112.1543 127.9382
L112.0591 127.5573
" />
<path d="M112.0591 127.5573
L112.0591 127.0811
" />
<path d="M112.0591 127.0811
L112.1543 126.7001
" />
<path d="M112.1543 126.7001
L112.2496 126.5096
" />
<path d="M112.2496 126.5096
L112.3448 126.4144
" />
<path d="M112.3448 126.4144
L112.5353 126.3192
" />
<path d="M114.0591 128.1287
L114.1543 128.2239
" />
<path d="M114.1543 128.2239
L114.0591 128.3192
" />
<path d="M114.0591 128.3192
L113.9639 128.2239
" />
<path d="M113.9639 128.2239
L114.0591 128.1287
" />
<path d="M114.0591 128.1287
L114.0591 128.3192
" />
<path d="M115.3924 126.3192
L115.5829 126.3192
" />
<path d="M115.5829 126.3192
L115.7734 126.4144
" />
<path d="M115.7734 126.4144
L115.8686 126.5096
" />
<path d="M115.8686 126.5096
L115.9639 126.7001
" />
<path d="M115.9639 126.7001
L116.0591 127.0811
" />
<path d="M116.0591 127.0811
L116.0591 127.5573
" />
<path d="M116.0591 127.5573
L115.9639 127.9382
" />
<path d="M115.9639 127.9382
L115.8686 128.1287
" />
<path d="M115.8686 128.1287
L115.7734 128.2239
" />
<path d="M115.7734 128.2239
L115.5829 128.3192
" />
<path d="M115.5829 128.3192
L115.3924 128.3192
" />
<path d="M115.3924 128.3192
L115.2020 128.2239
" />
<path d="M115.2020 128.2239
L115.1067 128.1287
" />
<path d="M115.1067 128.1287
L115.0115 127.9382
" />
<path d="M115.0115 127.9382
L114.9162 127.5573
" />
<path d="M114.9162 127.5573
L114.9162 127.0811
" />
<path d="M114.9162 127.0811
L115.0115 126.7001
" />
<path d="M115.0115 126.7001
L115.1067 126.5096
" />
<path d="M115.1067 126.5096
L115.2020 126.4144
" />
<path d="M115.2020 126.4144
L115.3924 126.3192
" />
<path d="M116.7258 126.3192
L118.0591 126.3192
" />
<path d="M118.0591 126.3192
L117.2020 128.3192
" />
<path d="M118.7258 126.5096
L118.8210 126.4144
" />
<path d="M118.8210 126.4144
L119.0115 126.3192
" />
<path d="M119.0115 126.3192
L119.4877 126.3192
" />
<path d="M119.4877 126.3192
L119.6781 126.4144
" />
<path d="M119.6781 126.4144
L119.7734 126.5096
" />
<path d="M119.7734 126.5096
L119.8686 126.7001
" />
<path d="M119.8686 126.7001
L119.8686 126.8906
" />
<path d="M119.8686 126.8906
L119.7734 127.1763
" />
<path d="M119.7734 127.1763
L118.6305 128.3192
" />
<path d="M118.6305 128.3192
L119.8686 128.3192
" />
<path d="M121.0115 127.1763
L120.8210 127.0811
" />
<path d="M120.8210 127.0811
L120.7258 126.9858
" />
<path d="M120.7258 126.9858
L120.6305 126.7953
" />
<path d="M120.6305 126.7953
L120.6305 126.7001
" />
<path d="M120.6305 126.7001
L120.7258 126.5096
" />
<path d="M120.7258 126.5096
L120.8210 126.4144
" />
<path d="M120.8210 126.4144
L121.0115 126.3192
" />
<path d="M121.0115 126.3192
L121.3924 126.3192
" />
<path d="M121.3924 126.3192
L121.5829 126.4144
" />
<path d="M121.5829 126.4144
L121.6781 126.5096
" />
<path d="M121.6781 126.5096
L121.7734 126.7001
" />
<path d="M121.7734 126.7001
L121.7734 126.7953
" />
<path d="M121.7734 126.7953
L121.6781 126.9858
" />
<path d="M121.6781 126.9858
L121.5829 127.0811
" />
<path d="M121.5829 127.0811
L121.3924 127.1763
" />
<path d="M121.3924 127.1763
L121.0115 127.1763
" />
<path d="M121.0115 127.1763
L120.8210 127.2715
" />
<path d="M120.8210 127.2715
L120.7258 127.3668
" />
<path d="M120.7258 127.3668
L120.6305 127.5573
" />
<path d="M120.6305 127.5573
L120.6305 127.9382
" />
<path d="M120.6305 127.9382
L120.7258 128.1287
" />
<path d="M120.7258 128.1287
L120.8210 128.2239
" />
<path d="M120.8210 128.2239
L121.0115 128.3192
" />
<path d="M121.0115 128.3192
L121.3924 128.3192
" />
<path d="M121.3924 128.3192
L121.5829 128.2239
" />
<path d="M121.5829 128.2239
L121.6781 128.1287
" />
<path d="M121.6781 128.1287
L121.7734 127.9382
" />
<path d="M121.7734 127.9382
L121.7734 127.5573
" />
<path d="M121.7734 127.5573
L121.6781 127.3668
" />
<path d="M121.6781 127.3668
L121.5829 127.2715
" />
<path d="M121.5829 127.2715
L121.3924 127.1763
" />
<path d="M122.5353 126.3192
L122.5353 126.7001
" />
<path d="M123.2972 126.3192
L123.2972 126.7001
" />
<path d="M126.2496 129.0811
L126.1543 128.9858
" />
<path d="M126.1543 128.9858
L125.9639 128.7001
" />
<path d="M125.9639 128.7001
L125.8686 128.5096
" />
<path d="M125.8686 128.5096
L125.7734 128.2239
" />
<path d="M125.7734 128.2239
L125.6781 127.7477
" />
<path d="M125.6781 127.7477
L125.6781 127.3668
" />
<path d="M125.6781 127.3668
L125.7734 126.8906
" />
<path d="M125.7734 126.8906
L125.8686 126.6049
" />
<path d="M125.8686 126.6049
L125.9639 126.4144
" />
<path d="M125.9639 126.4144
L126.1543 126.1287
" />
<path d="M126.1543 126.1287
L126.2496 126.0334
" />
<path d="M126.9162 126.5096
L127.0115 126.4144
" />
<path d="M127.0115 126.4144
L127.2020 126.3192
" />
<path d="M127.2020 126.3192
L127.6781 126.3192
" />
<path d="M127.6781 126.3192
L127.8686 126.4144
" />
<path d="M127.8686 126.4144
L127.9639 126.5096
" />
<path d="M127.9639 126.5096
L128.0591 126.7001
" />
<path d="M128.0591 126.7001
L128.0591 126.8906
" />
<path d="M128.0591 126.8906
L127.9639 127.1763
" />
<path d="M127.9639 127.1763
L126.8210 128.3192
" />
<path d="M126.8210 128.3192
L128.0591 128.3192
" />
<path d="M130.4401 128.3192
L130.4401 126.3192
" />
<path d="M131.2972 128.3192
L131.2972 127.2715
" />
<path d="M131.2972 127.2715
L131.2020 127.0811
" />
<path d="M131.2020 127.0811
L131.0115 126.9858
" />
<path d="M131.0115 126.9858
L130.7258 126.9858
" />
<path d="M130.7258 126.9858
L130.5353 127.0811
" />
<path d="M130.5353 127.0811
L130.4401 127.1763
" />
<path d="M132.5353 128.3192
L132.3448 128.2239
" />
<path d="M132.3448 128.2239
L132.2496 128.1287
" />
<path d="M132.2496 128.1287
L132.1543 127.9382
" />
<path d="M132.1543 127.9382
L132.1543 127.3668
" />
<path d="M132.1543 127.3668
L132.2496 127.1763
" />
<path d="M132.2496 127.1763
L132.3448 127.0811
" />
<path d="M132.3448 127.0811
L132.5353 126.9858
" />
<path d="M132.5353 126.9858
L132.8210 126.9858
" />
<path d="M132.8210 126.9858
L133.0115 127.0811
" />
<path d="M133.0115 127.0811
L133.1067 127.1763
" />
<path d="M133.1067 127.1763
L133.2020 127.3668
" />
<path d="M133.2020 127.3668
L133.2020 127.9382
" />
<path d="M133.2020 127.9382
L133.1067 128.1287
" />
<path d="M133.1067 128.1287
L133.0115 128.2239
" />
<path d="M133.0115 128.2239
L132.8210 128.3192
" />
<path d="M132.8210 128.3192
L132.5353 128.3192
" />
<path d="M134.3448 128.3192
L134.1543 128.2239
" />
<path d="M134.1543 128.2239
L134.0591 128.0334
" />
<path d="M134.0591 128.0334
L134.0591 126.3192
" />
<path d="M135.8686 128.2239
L135.6782 128.3192
" />
<path d="M135.6782 128.3192
L135.2972 128.3192
" />
<path d="M135.2972 128.3192
L135.1067 128.2239
" />
<path d="M135.1067 128.2239
L135.0115 128.0334
" />
<path d="M135.0115 128.0334
L135.0115 127.2715
" />
<path d="M135.0115 127.2715
L135.1067 127.0811
" />
<path d="M135.1067 127.0811
L135.2972 126.9858
" />
<path d="M135.2972 126.9858
L135.6782 126.9858
" />
<path d="M135.6782 126.9858
L135.8686 127.0811
" />
<path d="M135.8686 127.0811
L135.9639 127.2715
" />
<path d="M135.9639 127.2715
L135.9639 127.4620
" />
<path d="M135.9639 127.4620
L135.0115 127.6525
" />
<path d="M136.7258 128.2239
L136.9162 128.3192
" />
<path d="M136.9162 128.3192
L137.2972 128.3192
" />
<path d="M137.2972 128.3192
L137.4877 128.2239
" />
<path d="M137.4877 128.2239
L137.5829 128.0334
" />
<path d="M137.5829 128.0334
L137.5829 127.9382
" />
<path d="M137.5829 127.9382
L137.4877 127.7477
" />
<path d="M137.4877 127.7477
L137.2972 127.6525
" />
<path d="M137.2972 127.6525
L137.0115 127.6525
" />
<path d="M137.0115 127.6525
L136.8210 127.5573
" />
<path d="M136.8210 127.5573
L136.7258 127.3668
" />
<path d="M136.7258 127.3668
L136.7258 127.2715
" />
<path d="M136.7258 127.2715
L136.8210 127.0811
" />
<path d="M136.8210 127.0811
L137.0115 126.9858
" />
<path d="M137.0115 126.9858
L137.2972 126.9858
" />
<path d="M137.2972 126.9858
L137.4877 127.0811
" />
<path d="M138.2496 129.0811
L138.3448 128.9858
" />
<path d="M138.3448 128.9858
L138.5353 128.7001
" />
<path d="M138.5353 128.7001
L138.6305 128.5096
" />
<path d="M138.6305 128.5096
L138.7258 128.2239
" />
<path d="M138.7258 128.2239
L138.8210 127.7477
" />
<path d="M138.8210 127.7477
L138.8210 127.3668
" />
<path d="M138.8210 127.3668
L138.7258 126.8906
" />
<path d="M138.7258 126.8906
L138.6305 126.6049
" />
<path d="M138.6305 126.6049
L138.5353 126.4144
" />
<path d="M138.5353 126.4144
L138.3448 126.1287
" />
<path d="M138.3448 126.1287
L138.2496 126.0334
" />
<path d="M141.8686 129.0811
L141.7734 128.9858
" />
<path d="M141.7734 128.9858
L141.5829 128.7001
" />
<path d="M141.5829 128.7001
L141.4877 128.5096
" />
<path d="M141.4877 128.5096
L141.3924 128.2239
" />
<path d="M141.3924 128.2239
L141.2972 127.7477
" />
<path d="M141.2972 127.7477
L141.2972 127.3668
" />
<path d="M141.2972 127.3668
L141.3924 126.8906
" />
<path d="M141.3924 126.8906
L141.4877 126.6049
" />
<path d="M141.4877 126.6049
L141.5829 126.4144
" />
<path d="M141.5829 126.4144
L141.7734 126.1287
" />
<path d="M141.7734 126.1287
L141.8686 126.0334
" />
<path d="M142.6305 126.9858
L142.6305 128.3192
" />
<path d="M142.6305 127.1763
L142.7258 127.0811
" />
<path d="M142.7258 127.0811
L142.9162 126.9858
" />
<path d="M142.9162 126.9858
L143.2020 126.9858
" />
<path d="M143.2020 126.9858
L143.3924 127.0811
" />
<path d="M143.3924 127.0811
L143.4877 127.2715
" />
<path d="M143.4877 127.2715
L143.4877 128.3192
" />
<path d="M144.7258 128.3192
L144.5353 128.2239
" />
<path d="M144.5353 128.2239
L144.4401 128.1287
" />
<path d="M144.4401 128.1287
L144.3448 127.9382
" />
<path d="M144.3448 127.9382
L144.3448 127.3668
" />
<path d="M144.3448 127.3668
L144.4401 127.1763
" />
<path d="M144.4401 127.1763
L144.5353 127.0811
" />
<path d="M144.5353 127.0811
L144.7258 126.9858
" />
<path d="M144.7258 126.9858
L145.0115 126.9858
" />
<path d="M145.0115 126.9858
L145.2020 127.0811
" />
<path d="M145.2020 127.0811
L145.2972 127.1763
" />
<path d="M145.2972 127.1763
L145.3924 127.3668
" />
<path d="M145.3924 127.3668
L145.3924 127.9382
" />
<path d="M145.3924 127.9382
L145.2972 128.1287
" />
<path d="M145.2972 128.1287
L145.2020 128.2239
" />
<path d="M145.2020 128.2239
L145.0115 128.3192
" />
<path d="M145.0115 128.3192
L144.7258 128.3192
" />
<path d="M145.9639 126.9858
L146.7258 126.9858
" />
<path d="M146.2496 126.3192
L146.2496 128.0334
" />
<path d="M146.2496 128.0334
L146.3448 128.2239
" />
<path d="M146.3448 128.2239
L146.5353 128.3192
" />
<path d="M146.5353 128.3192
L146.7258 128.3192
" />
<path d="M148.9163 126.9858
L148.9163 128.9858
" />
<path d="M148.9163 127.0811
L149.1067 126.9858
" />
<path d="M149.1067 126.9858
L149.4877 126.9858
" />
<path d="M149.4877 126.9858
L149.6782 127.0811
" />
<path d="M149.6782 127.0811
L149.7734 127.1763
" />
<path d="M149.7734 127.1763
L149.8686 127.3668
" />
<path d="M149.8686 127.3668
L149.8686 127.9382
" />
<path d="M149.8686 127.9382
L149.7734 128.1287
" />
<path d="M149.7734 128.1287
L149.6782 128.2239
" />
<path d="M149.6782 128.2239
L149.4877 128.3192
" />
<path d="M149.4877 128.3192
L149.1067 128.3192
" />
<path d="M149.1067 128.3192
L148.9163 128.2239
" />
<path d="M151.0115 128.3192
L150.8210 128.2239
" />
<path d="M150.8210 128.2239
L150.7258 128.0334
" />
<path d="M150.7258 128.0334
L150.7258 126.3192
" />
<path d="M152.6305 128.3192
L152.6305 127.2715
" />
<path d="M152.6305 127.2715
L152.5353 127.0811
" />
<path d="M152.5353 127.0811
L152.3448 126.9858
" />
<path d="M152.3448 126.9858
L151.9639 126.9858
" />
<path d="M151.9639 126.9858
L151.7734 127.0811
" />
<path d="M152.6305 128.2239
L152.4401 128.3192
" />
<path d="M152.4401 128.3192
L151.9639 128.3192
" />
<path d="M151.9639 128.3192
L151.7734 128.2239
" />
<path d="M151.7734 128.2239
L151.6782 128.0334
" />
<path d="M151.6782 128.0334
L151.6782 127.8430
" />
<path d="M151.6782 127.8430
L151.7734 127.6525
" />
<path d="M151.7734 127.6525
L151.9639 127.5573
" />
<path d="M151.9639 127.5573
L152.4401 127.5573
" />
<path d="M152.4401 127.5573
L152.6305 127.4620
" />
<path d="M153.2972 126.9858
L154.0591 126.9858
" />
<path d="M153.5829 126.3192
L153.5829 128.0334
" />
<path d="M153.5829 128.0334
L153.6782 128.2239
" />
<path d="M153.6782 128.2239
L153.8686 128.3192
" />
<path d="M153.8686 128.3192
L154.0591 128.3192
" />
<path d="M155.4877 128.2239
L155.2972 128.3192
" />
<path d="M155.2972 128.3192
L154.9163 128.3192
" />
<path d="M154.9163 128.3192
L154.7258 128.2239
" />
<path d="M154.7258 128.2239
L154.6305 128.0334
" />
<path d="M154.6305 128.0334
L154.6305 127.2715
" />
<path d="M154.6305 127.2715
L154.7258 127.0811
" />
<path d="M154.7258 127.0811
L154.9163 126.9858
" />
<path d="M154.9163 126.9858
L155.2972 126.9858
" />
<path d="M155.2972 126.9858
L155.4877 127.0811
" />
<path d="M155.4877 127.0811
L155.5829 127.2715
" />
<path d="M155.5829 127.2715
L155.5829 127.4620
" />
<path d="M155.5829 127.4620
L154.6305 127.6525
" />
<path d="M157.2972 128.3192
L157.2972 126.3192
" />
<path d="M157.2972 128.2239
L157.1067 128.3192
" />
<path d="M157.1067 128.3192
L156.7258 128.3192
" />
<path d="M156.7258 128.3192
L156.5353 128.2239
" />
<path d="M156.5353 128.2239
L156.4401 128.1287
" />
<path d="M156.4401 128.1287
L156.3448 127.9382
" />
<path d="M156.3448 127.9382
L156.3448 127.3668
" />
<path d="M156.3448 127.3668
L156.4401 127.1763
" />
<path d="M156.4401 127.1763
L156.5353 127.0811
" />
<path d="M156.5353 127.0811
L156.7258 126.9858
" />
<path d="M156.7258 126.9858
L157.1067 126.9858
" />
<path d="M157.1067 126.9858
L157.2972 127.0811
" />
<path d="M158.0591 129.0811
L158.1543 128.9858
" />
<path d="M158.1543 128.9858
L158.3448 128.7001
" />
<path d="M158.3448 128.7001
L158.4401 128.5096
" />
<path d="M158.4401 128.5096
L158.5353 128.2239
" />
<path d="M158.5353 128.2239
L158.6305 127.7477
" />
<path d="M158.6305 127.7477
L158.6305 127.3668
" />
<path d="M158.6305 127.3668
L158.5353 126.8906
" />
<path d="M158.5353 126.8906
L158.4401 126.6049
" />
<path d="M158.4401 126.6049
L158.3448 126.4144
" />
<path d="M158.3448 126.4144
L158.1543 126.1287
" />
<path d="M158.1543 126.1287
L158.0591 126.0334
" />
</g><circle cx="89.4989" cy="130.6043" r="1.0000" /> 
</g>
<g style="fill:none; 
stroke:#000000; stroke-width:0.2000; stroke-opacity:1; 
stroke-linecap:round; stroke-linejoin:round;">
<text x="92.4989" y="131.6043"
textLength="66.6762" font-size="2.6667" lengthAdjust="spacingAndGlyphs"
text-anchor="start" opacity="0" stroke-opacity="0">2.200mm / 0.0866" (2 holes) (not plated)</text>
<g class="stroked-text"><desc>2.200mm / 0.0866" (2 holes) (not plated)</desc>
<path d="M93.0115 129.7096
L93.1067 129.6144
" />
<path d="M93.1067 129.6144
L93.2972 129.5192
" />
<path d="M93.2972 129.5192
L93.7734 129.5192
" />
<path d="M93.7734 129.5192
L93.9639 129.6144
" />
<path d="M93.9639 129.6144
L94.0591 129.7096
" />
<path d="M94.0591 129.7096
L94.1543 129.9001
" />
<path d="M94.1543 129.9001
L94.1543 130.0906
" />
<path d="M94.1543 130.0906
L94.0591 130.3763
" />
<path d="M94.0591 130.3763
L92.9162 131.5192
" />
<path d="M92.9162 131.5192
L94.1543 131.5192
" />
<path d="M95.0115 131.3287
L95.1067 131.4239
" />
<path d="M95.1067 131.4239
L95.0115 131.5192
" />
<path d="M95.0115 131.5192
L94.9162 131.4239
" />
<path d="M94.9162 131.4239
L95.0115 131.3287
" />
<path d="M95.0115 131.3287
L95.0115 131.5192
" />
<path d="M95.8686 129.7096
L95.9639 129.6144
" />
<path d="M95.9639 129.6144
L96.1543 129.5192
" />
<path d="M96.1543 129.5192
L96.6305 129.5192
" />
<path d="M96.6305 129.5192
L96.8210 129.6144
" />
<path d="M96.8210 129.6144
L96.9162 129.7096
" />
<path d="M96.9162 129.7096
L97.0115 129.9001
" />
<path d="M97.0115 129.9001
L97.0115 130.0906
" />
<path d="M97.0115 130.0906
L96.9162 130.3763
" />
<path d="M96.9162 130.3763
L95.7734 131.5192
" />
<path d="M95.7734 131.5192
L97.0115 131.5192
" />
<path d="M98.2496 129.5192
L98.4400 129.5192
" />
<path d="M98.4400 129.5192
L98.6305 129.6144
" />
<path d="M98.6305 129.6144
L98.7258 129.7096
" />
<path d="M98.7258 129.7096
L98.8210 129.9001
" />
<path d="M98.8210 129.9001
L98.9162 130.2811
" />
<path d="M98.9162 130.2811
L98.9162 130.7573
" />
<path d="M98.9162 130.7573
L98.8210 131.1382
" />
<path d="M98.8210 131.1382
L98.7258 131.3287
" />
<path d="M98.7258 131.3287
L98.6305 131.4239
" />
<path d="M98.6305 131.4239
L98.4400 131.5192
" />
<path d="M98.4400 131.5192
L98.2496 131.5192
" />
<path d="M98.2496 131.5192
L98.0591 131.4239
" />
<path d="M98.0591 131.4239
L97.9639 131.3287
" />
<path d="M97.9639 131.3287
L97.8686 131.1382
" />
<path d="M97.8686 131.1382
L97.7734 130.7573
" />
<path d="M97.7734 130.7573
L97.7734 130.2811
" />
<path d="M97.7734 130.2811
L97.8686 129.9001
" />
<path d="M97.8686 129.9001
L97.9639 129.7096
" />
<path d="M97.9639 129.7096
L98.0591 129.6144
" />
<path d="M98.0591 129.6144
L98.2496 129.5192
" />
<path d="M100.1543 129.5192
L100.3448 129.5192
" />
<path d="M100.3448 129.5192
L100.5353 129.6144
" />
<path d="M100.5353 129.6144
L100.6305 129.7096
" />
<path d="M100.6305 129.7096
L100.7258 129.9001
" />
<path d="M100.7258 129.9001
L100.8210 130.2811
" />
<path d="M100.8210 130.2811
L100.8210 130.7573
" />
<path d="M100.8210 130.7573
L100.7258 131.1382
" />
<path d="M100.7258 131.1382
L100.6305 131.3287
" />
<path d="M100.6305 131.3287
L100.5353 131.4239
" />
<path d="M100.5353 131.4239
L100.3448 131.5192
" />
<path d="M100.3448 131.5192
L100.1543 131.5192
" />
<path d="M100.1543 131.5192
L99.9639 131.4239
" />
<path d="M99.9639 131.4239
L99.8686 131.3287
" />
<path d="M99.8686 131.3287
L99.7734 131.1382
" />
<path d="M99.7734 131.1382
L99.6781 130.7573
" />
<path d="M99.6781 130.7573
L99.6781 130.2811
" />
<path d="M99.6781 130.2811
L99.7734 129.9001
" />
<path d="M99.7734 129.9001
L99.8686 129.7096
" />
<path d="M99.8686 129.7096
L99.9639 129.6144
" />
<path d="M99.9639 129.6144
L100.1543 129.5192
" />
<path d="M101.6781 131.5192
L101.6781 130.1858
" />
<path d="M101.6781 130.3763
L101.7734 130.2811
" />
<path d="M101.7734 130.2811
L101.9639 130.1858
" />
<path d="M101.9639 130.1858
L102.2496 130.1858
" />
<path d="M102.2496 130.1858
L102.4400 130.2811
" />
<path d="M102.4400 130.2811
L102.5353 130.4715
" />
<path d="M102.5353 130.4715
L102.5353 131.5192
" />
<path d="M102.5353 130.4715
L102.6305 130.2811
" />
<path d="M102.6305 130.2811
L102.8210 130.1858
" />
<path d="M102.8210 130.1858
L103.1067 130.1858
" />
<path d="M103.1067 130.1858
L103.2972 130.2811
" />
<path d="M103.2972 130.2811
L103.3924 130.4715
" />
<path d="M103.3924 130.4715
L103.3924 131.5192
" />
<path d="M104.3448 131.5192
L104.3448 130.1858
" />
<path d="M104.3448 130.3763
L104.4400 130.2811
" />
<path d="M104.4400 130.2811
L104.6305 130.1858
" />
<path d="M104.6305 130.1858
L104.9162 130.1858
" />
<path d="M104.9162 130.1858
L105.1067 130.2811
" />
<path d="M105.1067 130.2811
L105.2019 130.4715
" />
<path d="M105.2019 130.4715
L105.2019 131.5192
" />
<path d="M105.2019 130.4715
L105.2972 130.2811
" />
<path d="M105.2972 130.2811
L105.4877 130.1858
" />
<path d="M105.4877 130.1858
L105.7734 130.1858
" />
<path d="M105.7734 130.1858
L105.9639 130.2811
" />
<path d="M105.9639 130.2811
L106.0591 130.4715
" />
<path d="M106.0591 130.4715
L106.0591 131.5192
" />
<path d="M109.9639 129.4239
L108.2496 131.9953
" />
<path d="M112.5353 129.5192
L112.7258 129.5192
" />
<path d="M112.7258 129.5192
L112.9162 129.6144
" />
<path d="M112.9162 129.6144
L113.0115 129.7096
" />
<path d="M113.0115 129.7096
L113.1067 129.9001
" />
<path d="M113.1067 129.9001
L113.2020 130.2811
" />
<path d="M113.2020 130.2811
L113.2020 130.7573
" />
<path d="M113.2020 130.7573
L113.1067 131.1382
" />
<path d="M113.1067 131.1382
L113.0115 131.3287
" />
<path d="M113.0115 131.3287
L112.9162 131.4239
" />
<path d="M112.9162 131.4239
L112.7258 131.5192
" />
<path d="M112.7258 131.5192
L112.5353 131.5192
" />
<path d="M112.5353 131.5192
L112.3448 131.4239
" />
<path d="M112.3448 131.4239
L112.2496 131.3287
" />
<path d="M112.2496 131.3287
L112.1543 131.1382
" />
<path d="M112.1543 131.1382
L112.0591 130.7573
" />
<path d="M112.0591 130.7573
L112.0591 130.2811
" />
<path d="M112.0591 130.2811
L112.1543 129.9001
" />
<path d="M112.1543 129.9001
L112.2496 129.7096
" />
<path d="M112.2496 129.7096
L112.3448 129.6144
" />
<path d="M112.3448 129.6144
L112.5353 129.5192
" />
<path d="M114.0591 131.3287
L114.1543 131.4239
" />
<path d="M114.1543 131.4239
L114.0591 131.5192
" />
<path d="M114.0591 131.5192
L113.9639 131.4239
" />
<path d="M113.9639 131.4239
L114.0591 131.3287
" />
<path d="M114.0591 131.3287
L114.0591 131.5192
" />
<path d="M115.3924 129.5192
L115.5829 129.5192
" />
<path d="M115.5829 129.5192
L115.7734 129.6144
" />
<path d="M115.7734 129.6144
L115.8686 129.7096
" />
<path d="M115.8686 129.7096
L115.9639 129.9001
" />
<path d="M115.9639 129.9001
L116.0591 130.2811
" />
<path d="M116.0591 130.2811
L116.0591 130.7573
" />
<path d="M116.0591 130.7573
L115.9639 131.1382
" />
<path d="M115.9639 131.1382
L115.8686 131.3287
" />
<path d="M115.8686 131.3287
L115.7734 131.4239
" />
<path d="M115.7734 131.4239
L115.5829 131.5192
" />
<path d="M115.5829 131.5192
L115.3924 131.5192
" />
<path d="M115.3924 131.5192
L115.2020 131.4239
" />
<path d="M115.2020 131.4239
L115.1067 131.3287
" />
<path d="M115.1067 131.3287
L115.0115 131.1382
" />
<path d="M115.0115 131.1382
L114.9162 130.7573
" />
<path d="M114.9162 130.7573
L114.9162 130.2811
" />
<path d="M114.9162 130.2811
L115.0115 129.9001
" />
<path d="M115.0115 129.9001
L115.1067 129.7096
" />
<path d="M115.1067 129.7096
L115.2020 129.6144
" />
<path d="M115.2020 129.6144
L115.3924 129.5192
" />
<path d="M117.2020 130.3763
L117.0115 130.2811
" />
<path d="M117.0115 130.2811
L116.9162 130.1858
" />
<path d="M116.9162 130.1858
L116.8210 129.9953
" />
<path d="M116.8210 129.9953
L116.8210 129.9001
" />
<path d="M116.8210 129.9001
L116.9162 129.7096
" />
<path d="M116.9162 129.7096
L117.0115 129.6144
" />
<path d="M117.0115 129.6144
L117.2020 129.5192
" />
<path d="M117.2020 129.5192
L117.5829 129.5192
" />
<path d="M117.5829 129.5192
L117.7734 129.6144
" />
<path d="M117.7734 129.6144
L117.8686 129.7096
" />
<path d="M117.8686 129.7096
L117.9639 129.9001
" />
<path d="M117.9639 129.9001
L117.9639 129.9953
" />
<path d="M117.9639 129.9953
L117.8686 130.1858
" />
<path d="M117.8686 130.1858
L117.7734 130.2811
" />
<path d="M117.7734 130.2811
L117.5829 130.3763
" />
<path d="M117.5829 130.3763
L117.2020 130.3763
" />
<path d="M117.2020 130.3763
L117.0115 130.4715
" />
<path d="M117.0115 130.4715
L116.9162 130.5668
" />
<path d="M116.9162 130.5668
L116.8210 130.7573
" />
<path d="M116.8210 130.7573
L116.8210 131.1382
" />
<path d="M116.8210 131.1382
L116.9162 131.3287
" />
<path d="M116.9162 131.3287
L117.0115 131.4239
" />
<path d="M117.0115 131.4239
L117.2020 131.5192
" />
<path d="M117.2020 131.5192
L117.5829 131.5192
" />
<path d="M117.5829 131.5192
L117.7734 131.4239
" />
<path d="M117.7734 131.4239
L117.8686 131.3287
" />
<path d="M117.8686 131.3287
L117.9639 131.1382
" />
<path d="M117.9639 131.1382
L117.9639 130.7573
" />
<path d="M117.9639 130.7573
L117.8686 130.5668
" />
<path d="M117.8686 130.5668
L117.7734 130.4715
" />
<path d="M117.7734 130.4715
L117.5829 130.3763
" />
<path d="M119.6781 129.5192
L119.2972 129.5192
" />
<path d="M119.2972 129.5192
L119.1067 129.6144
" />
<path d="M119.1067 129.6144
L119.0115 129.7096
" />
<path d="M119.0115 129.7096
L118.8210 129.9953
" />
<path d="M118.8210 129.9953
L118.7258 130.3763
" />
<path d="M118.7258 130.3763
L118.7258 131.1382
" />
<path d="M118.7258 131.1382
L118.8210 131.3287
" />
<path d="M118.8210 131.3287
L118.9162 131.4239
" />
<path d="M118.9162 131.4239
L119.1067 131.5192
" />
<path d="M119.1067 131.5192
L119.4877 131.5192
" />
<path d="M119.4877 131.5192
L119.6781 131.4239
" />
<path d="M119.6781 131.4239
L119.7734 131.3287
" />
<path d="M119.7734 131.3287
L119.8686 131.1382
" />
<path d="M119.8686 131.1382
L119.8686 130.6620
" />
<path d="M119.8686 130.6620
L119.7734 130.4715
" />
<path d="M119.7734 130.4715
L119.6781 130.3763
" />
<path d="M119.6781 130.3763
L119.4877 130.2811
" />
<path d="M119.4877 130.2811
L119.1067 130.2811
" />
<path d="M119.1067 130.2811
L118.9162 130.3763
" />
<path d="M118.9162 130.3763
L118.8210 130.4715
" />
<path d="M118.8210 130.4715
L118.7258 130.6620
" />
<path d="M121.5829 129.5192
L121.2020 129.5192
" />
<path d="M121.2020 129.5192
L121.0115 129.6144
" />
<path d="M121.0115 129.6144
L120.9162 129.7096
" />
<path d="M120.9162 129.7096
L120.7258 129.9953
" />
<path d="M120.7258 129.9953
L120.6305 130.3763
" />
<path d="M120.6305 130.3763
L120.6305 131.1382
" />
<path d="M120.6305 131.1382
L120.7258 131.3287
" />
<path d="M120.7258 131.3287
L120.8210 131.4239
" />
<path d="M120.8210 131.4239
L121.0115 131.5192
" />
<path d="M121.0115 131.5192
L121.3924 131.5192
" />
<path d="M121.3924 131.5192
L121.5829 131.4239
" />
<path d="M121.5829 131.4239
L121.6781 131.3287
" />
<path d="M121.6781 131.3287
L121.7734 131.1382
" />
<path d="M121.7734 131.1382
L121.7734 130.6620
" />
<path d="M121.7734 130.6620
L121.6781 130.4715
" />
<path d="M121.6781 130.4715
L121.5829 130.3763
" />
<path d="M121.5829 130.3763
L121.3924 130.2811
" />
<path d="M121.3924 130.2811
L121.0115 130.2811
" />
<path d="M121.0115 130.2811
L120.8210 130.3763
" />
<path d="M120.8210 130.3763
L120.7258 130.4715
" />
<path d="M120.7258 130.4715
L120.6305 130.6620
" />
<path d="M122.5353 129.5192
L122.5353 129.9001
" />
<path d="M123.2972 129.5192
L123.2972 129.9001
" />
<path d="M126.2496 132.2811
L126.1543 132.1858
" />
<path d="M126.1543 132.1858
L125.9639 131.9001
" />
<path d="M125.9639 131.9001
L125.8686 131.7096
" />
<path d="M125.8686 131.7096
L125.7734 131.4239
" />
<path d="M125.7734 131.4239
L125.6781 130.9477
" />
<path d="M125.6781 130.9477
L125.6781 130.5668
" />
<path d="M125.6781 130.5668
L125.7734 130.0906
" />
<path d="M125.7734 130.0906
L125.8686 129.8049
" />
<path d="M125.8686 129.8049
L125.9639 129.6144
" />
<path d="M125.9639 129.6144
L126.1543 129.3287
" />
<path d="M126.1543 129.3287
L126.2496 129.2334
" />
<path d="M126.9162 129.7096
L127.0115 129.6144
" />
<path d="M127.0115 129.6144
L127.2020 129.5192
" />
<path d="M127.2020 129.5192
L127.6781 129.5192
" />
<path d="M127.6781 129.5192
L127.8686 129.6144
" />
<path d="M127.8686 129.6144
L127.9639 129.7096
" />
<path d="M127.9639 129.7096
L128.0591 129.9001
" />
<path d="M128.0591 129.9001
L128.0591 130.0906
" />
<path d="M128.0591 130.0906
L127.9639 130.3763
" />
<path d="M127.9639 130.3763
L126.8210 131.5192
" />
<path d="M126.8210 131.5192
L128.0591 131.5192
" />
<path d="M130.4401 131.5192
L130.4401 129.5192
" />
<path d="M131.2972 131.5192
L131.2972 130.4715
" />
<path d="M131.2972 130.4715
L131.2020 130.2811
" />
<path d="M131.2020 130.2811
L131.0115 130.1858
" />
<path d="M131.0115 130.1858
L130.7258 130.1858
" />
<path d="M130.7258 130.1858
L130.5353 130.2811
" />
<path d="M130.5353 130.2811
L130.4401 130.3763
" />
<path d="M132.5353 131.5192
L132.3448 131.4239
" />
<path d="M132.3448 131.4239
L132.2496 131.3287
" />
<path d="M132.2496 131.3287
L132.1543 131.1382
" />
<path d="M132.1543 131.1382
L132.1543 130.5668
" />
<path d="M132.1543 130.5668
L132.2496 130.3763
" />
<path d="M132.2496 130.3763
L132.3448 130.2811
" />
<path d="M132.3448 130.2811
L132.5353 130.1858
" />
<path d="M132.5353 130.1858
L132.8210 130.1858
" />
<path d="M132.8210 130.1858
L133.0115 130.2811
" />
<path d="M133.0115 130.2811
L133.1067 130.3763
" />
<path d="M133.1067 130.3763
L133.2020 130.5668
" />
<path d="M133.2020 130.5668
L133.2020 131.1382
" />
<path d="M133.2020 131.1382
L133.1067 131.3287
" />
<path d="M133.1067 131.3287
L133.0115 131.4239
" />
<path d="M133.0115 131.4239
L132.8210 131.5192
" />
<path d="M132.8210 131.5192
L132.5353 131.5192
" />
<path d="M134.3448 131.5192
L134.1543 131.4239
" />
<path d="M134.1543 131.4239
L134.0591 131.2334
" />
<path d="M134.0591 131.2334
L134.0591 129.5192
" />
<path d="M135.8686 131.4239
L135.6782 131.5192
" />
<path d="M135.6782 131.5192
L135.2972 131.5192
" />
<path d="M135.2972 131.5192
L135.1067 131.4239
" />
<path d="M135.1067 131.4239
L135.0115 131.2334
" />
<path d="M135.0115 131.2334
L135.0115 130.4715
" />
<path d="M135.0115 130.4715
L135.1067 130.2811
" />
<path d="M135.1067 130.2811
L135.2972 130.1858
" />
<path d="M135.2972 130.1858
L135.6782 130.1858
" />
<path d="M135.6782 130.1858
L135.8686 130.2811
" />
<path d="M135.8686 130.2811
L135.9639 130.4715
" />
<path d="M135.9639 130.4715
L135.9639 130.6620
" />
<path d="M135.9639 130.6620
L135.0115 130.8525
" />
<path d="M136.7258 131.4239
L136.9162 131.5192
" />
<path d="M136.9162 131.5192
L137.2972 131.5192
" />
<path d="M137.2972 131.5192
L137.4877 131.4239
" />
<path d="M137.4877 131.4239
L137.5829 131.2334
" />
<path d="M137.5829 131.2334
L137.5829 131.1382
" />
<path d="M137.5829 131.1382
L137.4877 130.9477
" />
<path d="M137.4877 130.9477
L137.2972 130.8525
" />
<path d="M137.2972 130.8525
L137.0115 130.8525
" />
<path d="M137.0115 130.8525
L136.8210 130.7573
" />
<path d="M136.8210 130.7573
L136.7258 130.5668
" />
<path d="M136.7258 130.5668
L136.7258 130.4715
" />
<path d="M136.7258 130.4715
L136.8210 130.2811
" />
<path d="M136.8210 130.2811
L137.0115 130.1858
" />
<path d="M137.0115 130.1858
L137.2972 130.1858
" />
<path d="M137.2972 130.1858
L137.4877 130.2811
" />
<path d="M138.2496 132.2811
L138.3448 132.1858
" />
<path d="M138.3448 132.1858
L138.5353 131.9001
" />
<path d="M138.5353 131.9001
L138.6305 131.7096
" />
<path d="M138.6305 131.7096
L138.7258 131.4239
" />
<path d="M138.7258 131.4239
L138.8210 130.9477
" />
<path d="M138.8210 130.9477
L138.8210 130.5668
" />
<path d="M138.8210 130.5668
L138.7258 130.0906
" />
<path d="M138.7258 130.0906
L138.6305 129.8049
" />
<path d="M138.6305 129.8049
L138.5353 129.6144
" />
<path d="M138.5353 129.6144
L138.3448 129.3287
" />
<path d="M138.3448 129.3287
L138.2496 129.2334
" />
<path d="M141.8686 132.2811
L141.7734 132.1858
" />
<path d="M141.7734 132.1858
L141.5829 131.9001
" />
<path d="M141.5829 131.9001
L141.4877 131.7096
" />
<path d="M141.4877 131.7096
L141.3924 131.4239
" />
<path d="M141.3924 131.4239
L141.2972 130.9477
" />
<path d="M141.2972 130.9477
L141.2972 130.5668
" />
<path d="M141.2972 130.5668
L141.3924 130.0906
" />
<path d="M141.3924 130.0906
L141.4877 129.8049
" />
<path d="M141.4877 129.8049
L141.5829 129.6144
" />
<path d="M141.5829 129.6144
L141.7734 129.3287
" />
<path d="M141.7734 129.3287
L141.8686 129.2334
" />
<path d="M142.6305 130.1858
L142.6305 131.5192
" />
<path d="M142.6305 130.3763
L142.7258 130.2811
" />
<path d="M142.7258 130.2811
L142.9162 130.1858
" />
<path d="M142.9162 130.1858
L143.2020 130.1858
" />
<path d="M143.2020 130.1858
L143.3924 130.2811
" />
<path d="M143.3924 130.2811
L143.4877 130.4715
" />
<path d="M143.4877 130.4715
L143.4877 131.5192
" />
<path d="M144.7258 131.5192
L144.5353 131.4239
" />
<path d="M144.5353 131.4239
L144.4401 131.3287
" />
<path d="M144.4401 131.3287
L144.3448 131.1382
" />
<path d="M144.3448 131.1382
L144.3448 130.5668
" />
<path d="M144.3448 130.5668
L144.4401 130.3763
" />
<path d="M144.4401 130.3763
L144.5353 130.2811
" />
<path d="M144.5353 130.2811
L144.7258 130.1858
" />
<path d="M144.7258 130.1858
L145.0115 130.1858
" />
<path d="M145.0115 130.1858
L145.2020 130.2811
" />
<path d="M145.2020 130.2811
L145.2972 130.3763
" />
<path d="M145.2972 130.3763
L145.3924 130.5668
" />
<path d="M145.3924 130.5668
L145.3924 131.1382
" />
<path d="M145.3924 131.1382
L145.2972 131.3287
" />
<path d="M145.2972 131.3287
L145.2020 131.4239
" />
<path d="M145.2020 131.4239
L145.0115 131.5192
" />
<path d="M145.0115 131.5192
L144.7258 131.5192
" />
<path d="M145.9639 130.1858
L146.7258 130.1858
" />
<path d="M146.2496 129.5192
L146.2496 131.2334
" />
<path d="M146.2496 131.2334
L146.3448 131.4239
" />
<path d="M146.3448 131.4239
L146.5353 131.5192
" />
<path d="M146.5353 131.5192
L146.7258 131.5192
" />
<path d="M148.9163 130.1858
L148.9163 132.1858
" />
<path d="M148.9163 130.2811
L149.1067 130.1858
" />
<path d="M149.1067 130.1858
L149.4877 130.1858
" />
<path d="M149.4877 130.1858
L149.6782 130.2811
" />
<path d="M149.6782 130.2811
L149.7734 130.3763
" />
<path d="M149.7734 130.3763
L149.8686 130.5668
" />
<path d="M149.8686 130.5668
L149.8686 131.1382
" />
<path d="M149.8686 131.1382
L149.7734 131.3287
" />
<path d="M149.7734 131.3287
L149.6782 131.4239
" />
<path d="M149.6782 131.4239
L149.4877 131.5192
" />
<path d="M149.4877 131.5192
L149.1067 131.5192
" />
<path d="M149.1067 131.5192
L148.9163 131.4239
" />
<path d="M151.0115 131.5192
L150.8210 131.4239
" />
<path d="M150.8210 131.4239
L150.7258 131.2334
" />
<path d="M150.7258 131.2334
L150.7258 129.5192
" />
<path d="M152.6305 131.5192
L152.6305 130.4715
" />
<path d="M152.6305 130.4715
L152.5353 130.2811
" />
<path d="M152.5353 130.2811
L152.3448 130.1858
" />
<path d="M152.3448 130.1858
L151.9639 130.1858
" />
<path d="M151.9639 130.1858
L151.7734 130.2811
" />
<path d="M152.6305 131.4239
L152.4401 131.5192
" />
<path d="M152.4401 131.5192
L151.9639 131.5192
" />
<path d="M151.9639 131.5192
L151.7734 131.4239
" />
<path d="M151.7734 131.4239
L151.6782 131.2334
" />
<path d="M151.6782 131.2334
L151.6782 131.0430
" />
<path d="M151.6782 131.0430
L151.7734 130.8525
" />
<path d="M151.7734 130.8525
L151.9639 130.7573
" />
<path d="M151.9639 130.7573
L152.4401 130.7573
" />
<path d="M152.4401 130.7573
L152.6305 130.6620
" />
<path d="M153.2972 130.1858
L154.0591 130.1858
" />
<path d="M153.5829 129.5192
L153.5829 131.2334
" />
<path d="M153.5829 131.2334
L153.6782 131.4239
" />
<path d="M153.6782 131.4239
L153.8686 131.5192
" />
<path d="M153.8686 131.5192
L154.0591 131.5192
" />
<path d="M155.4877 131.4239
L155.2972 131.5192
" />
<path d="M155.2972 131.5192
L154.9163 131.5192
" />
<path d="M154.9163 131.5192
L154.7258 131.4239
" />
<path d="M154.7258 131.4239
L154.6305 131.2334
" />
<path d="M154.6305 131.2334
L154.6305 130.4715
" />
<path d="M154.6305 130.4715
L154.7258 130.2811
" />
<path d="M154.7258 130.2811
L154.9163 130.1858
" />
<path d="M154.9163 130.1858
L155.2972 130.1858
" />
<path d="M155.2972 130.1858
L155.4877 130.2811
" />
<path d="M155.4877 130.2811
L155.5829 130.4715
" />
<path d="M155.5829 130.4715
L155.5829 130.6620
" />
<path d="M155.5829 130.6620
L154.6305 130.8525
" />
<path d="M157.2972 131.5192
L157.2972 129.5192
" />
<path d="M157.2972 131.4239
L157.1067 131.5192
" />
<path d="M157.1067 131.5192
L156.7258 131.5192
" />
<path d="M156.7258 131.5192
L156.5353 131.4239
" />
<path d="M156.5353 131.4239
L156.4401 131.3287
" />
<path d="M156.4401 131.3287
L156.3448 131.1382
" />
<path d="M156.3448 131.1382
L156.3448 130.5668
" />
<path d="M156.3448 130.5668
L156.4401 130.3763
" />
<path d="M156.4401 130.3763
L156.5353 130.2811
" />
<path d="M156.5353 130.2811
L156.7258 130.1858
" />
<path d="M156.7258 130.1858
L157.1067 130.1858
" />
<path d="M157.1067 130.1858
L157.2972 130.2811
" />
<path d="M158.0591 132.2811
L158.1543 132.1858
" />
<path d="M158.1543 132.1858
L158.3448 131.9001
" />
<path d="M158.3448 131.9001
L158.4401 131.7096
" />
<path d="M158.4401 131.7096
L158.5353 131.4239
" />
<path d="M158.5353 131.4239
L158.6305 130.9477
" />
<path d="M158.6305 130.9477
L158.6305 130.5668
" />
<path d="M158.6305 130.5668
L158.5353 130.0906
" />
<path d="M158.5353 130.0906
L158.4401 129.8049
" />
<path d="M158.4401 129.8049
L158.3448 129.6144
" />
<path d="M158.3448 129.6144
L158.1543 129.3287
" />
<path d="M158.1543 129.3287
L158.0591 129.2334
" />
</g></g> 
</svg>
