%TF.GenerationSoftware,KiCad,Pcbnew,9.0.6*%
%TF.CreationDate,2026-03-13T11:42:11-04:00*%
%TF.ProjectId,LMP_Circuit,4c4d505f-4369-4726-9375-69742e6b6963,rev?*%
%TF.SameCoordinates,Original*%
%TF.FileFunction,Copper,L1,Top*%
%TF.FilePolarity,Positive*%
%FSLAX46Y46*%
G04 Gerber Fmt 4.6, Leading zero omitted, Abs format (unit mm)*
G04 Created by KiCad (PCBNEW 9.0.6) date 2026-03-13 11:42:11*
%MOMM*%
%LPD*%
G01*
G04 APERTURE LIST*
G04 Aperture macros list*
%AMRoundRect*
0 Rectangle with rounded corners*
0 $1 Rounding radius*
0 $2 $3 $4 $5 $6 $7 $8 $9 X,Y pos of 4 corners*
0 Add a 4 corners polygon primitive as box body*
4,1,4,$2,$3,$4,$5,$6,$7,$8,$9,$2,$3,0*
0 Add four circle primitives for the rounded corners*
1,1,$1+$1,$2,$3*
1,1,$1+$1,$4,$5*
1,1,$1+$1,$6,$7*
1,1,$1+$1,$8,$9*
0 Add four rect primitives between the rounded corners*
20,1,$1+$1,$2,$3,$4,$5,0*
20,1,$1+$1,$4,$5,$6,$7,0*
20,1,$1+$1,$6,$7,$8,$9,0*
20,1,$1+$1,$8,$9,$2,$3,0*%
%AMFreePoly0*
4,1,37,0.603843,0.796157,0.639018,0.796157,0.711114,0.766294,0.766294,0.711114,0.796157,0.639018,0.796157,0.603843,0.800000,0.600000,0.800000,-0.600000,0.796157,-0.603843,0.796157,-0.639018,0.766294,-0.711114,0.711114,-0.766294,0.639018,-0.796157,0.603843,-0.796157,0.600000,-0.800000,0.000000,-0.800000,0.000000,-0.796148,-0.078414,-0.796148,-0.232228,-0.765552,-0.377117,-0.705537,
-0.507515,-0.618408,-0.618408,-0.507515,-0.705537,-0.377117,-0.765552,-0.232228,-0.796148,-0.078414,-0.796148,0.078414,-0.765552,0.232228,-0.705537,0.377117,-0.618408,0.507515,-0.507515,0.618408,-0.377117,0.705537,-0.232228,0.765552,-0.078414,0.796148,0.000000,0.796148,0.000000,0.800000,0.600000,0.800000,0.603843,0.796157,0.603843,0.796157,$1*%
%AMFreePoly1*
4,1,37,0.000000,0.796148,0.078414,0.796148,0.232228,0.765552,0.377117,0.705537,0.507515,0.618408,0.618408,0.507515,0.705537,0.377117,0.765552,0.232228,0.796148,0.078414,0.796148,-0.078414,0.765552,-0.232228,0.705537,-0.377117,0.618408,-0.507515,0.507515,-0.618408,0.377117,-0.705537,0.232228,-0.765552,0.078414,-0.796148,0.000000,-0.796148,0.000000,-0.800000,-0.600000,-0.800000,
-0.603843,-0.796157,-0.639018,-0.796157,-0.711114,-0.766294,-0.766294,-0.711114,-0.796157,-0.639018,-0.796157,-0.603843,-0.800000,-0.600000,-0.800000,0.600000,-0.796157,0.603843,-0.796157,0.639018,-0.766294,0.711114,-0.711114,0.766294,-0.639018,0.796157,-0.603843,0.796157,-0.600000,0.800000,0.000000,0.800000,0.000000,0.796148,0.000000,0.796148,$1*%
G04 Aperture macros list end*
%ADD10C,0.300000*%
%TA.AperFunction,NonConductor*%
%ADD11C,0.300000*%
%TD*%
%TA.AperFunction,NonConductor*%
%ADD12C,0.200000*%
%TD*%
%TA.AperFunction,SMDPad,CuDef*%
%ADD13R,1.900000X0.750000*%
%TD*%
%TA.AperFunction,ComponentPad*%
%ADD14R,1.905000X1.905000*%
%TD*%
%TA.AperFunction,ComponentPad*%
%ADD15C,1.905000*%
%TD*%
%TA.AperFunction,ComponentPad*%
%ADD16R,3.500000X3.500000*%
%TD*%
%TA.AperFunction,ComponentPad*%
%ADD17C,4.000000*%
%TD*%
%TA.AperFunction,ComponentPad*%
%ADD18R,1.600000X1.600000*%
%TD*%
%TA.AperFunction,ComponentPad*%
%ADD19O,1.600000X1.600000*%
%TD*%
%TA.AperFunction,ComponentPad*%
%ADD20R,0.850000X0.850000*%
%TD*%
%TA.AperFunction,ComponentPad*%
%ADD21C,0.850000*%
%TD*%
%TA.AperFunction,ComponentPad*%
%ADD22RoundRect,0.250001X-0.949999X-0.949999X0.949999X-0.949999X0.949999X0.949999X-0.949999X0.949999X0*%
%TD*%
%TA.AperFunction,ComponentPad*%
%ADD23C,2.400000*%
%TD*%
%TA.AperFunction,ComponentPad*%
%ADD24RoundRect,0.200000X-0.600000X-0.600000X0.600000X-0.600000X0.600000X0.600000X-0.600000X0.600000X0*%
%TD*%
%TA.AperFunction,ComponentPad*%
%ADD25C,1.600000*%
%TD*%
%TA.AperFunction,ComponentPad*%
%ADD26FreePoly0,0.000000*%
%TD*%
%TA.AperFunction,ComponentPad*%
%ADD27FreePoly1,0.000000*%
%TD*%
%TA.AperFunction,ComponentPad*%
%ADD28RoundRect,0.250001X-0.949999X0.949999X-0.949999X-0.949999X0.949999X-0.949999X0.949999X0.949999X0*%
%TD*%
%TA.AperFunction,ViaPad*%
%ADD29C,0.600000*%
%TD*%
%TA.AperFunction,Conductor*%
%ADD30C,0.200000*%
%TD*%
%TA.AperFunction,Conductor*%
%ADD31C,0.254000*%
%TD*%
%TA.AperFunction,Conductor*%
%ADD32C,0.508000*%
%TD*%
G04 APERTURE END LIST*
D10*
D11*
X135554328Y-107588285D02*
X135554328Y-106588285D01*
X135554328Y-106588285D02*
X137054328Y-107231142D01*
X135554328Y-105731142D02*
X135554328Y-105588285D01*
X135554328Y-105588285D02*
X135625757Y-105445428D01*
X135625757Y-105445428D02*
X135697185Y-105374000D01*
X135697185Y-105374000D02*
X135840042Y-105302571D01*
X135840042Y-105302571D02*
X136125757Y-105231142D01*
X136125757Y-105231142D02*
X136482900Y-105231142D01*
X136482900Y-105231142D02*
X136768614Y-105302571D01*
X136768614Y-105302571D02*
X136911471Y-105374000D01*
X136911471Y-105374000D02*
X136982900Y-105445428D01*
X136982900Y-105445428D02*
X137054328Y-105588285D01*
X137054328Y-105588285D02*
X137054328Y-105731142D01*
X137054328Y-105731142D02*
X136982900Y-105874000D01*
X136982900Y-105874000D02*
X136911471Y-105945428D01*
X136911471Y-105945428D02*
X136768614Y-106016857D01*
X136768614Y-106016857D02*
X136482900Y-106088285D01*
X136482900Y-106088285D02*
X136125757Y-106088285D01*
X136125757Y-106088285D02*
X135840042Y-106016857D01*
X135840042Y-106016857D02*
X135697185Y-105945428D01*
X135697185Y-105945428D02*
X135625757Y-105874000D01*
X135625757Y-105874000D02*
X135554328Y-105731142D01*
D12*
X127650000Y-141374000D02*
X138762420Y-141374000D01*
X138762420Y-71374000D02*
X127650000Y-71374000D01*
X138176000Y-141374000D02*
X138176000Y-71374000D01*
X138176000Y-141374000D02*
X137589579Y-140247496D01*
X138176000Y-141374000D02*
X138762421Y-140247496D01*
X138176000Y-71374000D02*
X138762421Y-72500504D01*
X138176000Y-71374000D02*
X137589579Y-72500504D01*
D10*
D11*
X90935714Y-146476328D02*
X91935714Y-146476328D01*
X91935714Y-146476328D02*
X91292857Y-147976328D01*
X92792857Y-146476328D02*
X92935714Y-146476328D01*
X92935714Y-146476328D02*
X93078571Y-146547757D01*
X93078571Y-146547757D02*
X93150000Y-146619185D01*
X93150000Y-146619185D02*
X93221428Y-146762042D01*
X93221428Y-146762042D02*
X93292857Y-147047757D01*
X93292857Y-147047757D02*
X93292857Y-147404900D01*
X93292857Y-147404900D02*
X93221428Y-147690614D01*
X93221428Y-147690614D02*
X93150000Y-147833471D01*
X93150000Y-147833471D02*
X93078571Y-147904900D01*
X93078571Y-147904900D02*
X92935714Y-147976328D01*
X92935714Y-147976328D02*
X92792857Y-147976328D01*
X92792857Y-147976328D02*
X92650000Y-147904900D01*
X92650000Y-147904900D02*
X92578571Y-147833471D01*
X92578571Y-147833471D02*
X92507142Y-147690614D01*
X92507142Y-147690614D02*
X92435714Y-147404900D01*
X92435714Y-147404900D02*
X92435714Y-147047757D01*
X92435714Y-147047757D02*
X92507142Y-146762042D01*
X92507142Y-146762042D02*
X92578571Y-146619185D01*
X92578571Y-146619185D02*
X92650000Y-146547757D01*
X92650000Y-146547757D02*
X92792857Y-146476328D01*
D12*
X127150000Y-141874000D02*
X127150000Y-149684420D01*
X57150000Y-149684420D02*
X57150000Y-141874000D01*
X127150000Y-149098000D02*
X57150000Y-149098000D01*
X127150000Y-149098000D02*
X126023496Y-149684421D01*
X127150000Y-149098000D02*
X126023496Y-148511579D01*
X57150000Y-149098000D02*
X58276504Y-148511579D01*
X57150000Y-149098000D02*
X58276504Y-149684421D01*
D13*
%TO.P,K1,1,A*%
%TO.N,GND*%
X94252000Y-90932000D03*
%TO.P,K1,2,K*%
%TO.N,Net-(K1-K)*%
X94252000Y-93472000D03*
%TO.P,K1,3,NC_1*%
%TO.N,unconnected-(K1-NC_1-Pad3)*%
X94252000Y-96012000D03*
%TO.P,K1,4,OUT_1*%
%TO.N,GND1*%
X102852000Y-96012000D03*
%TO.P,K1,5,NC_2*%
%TO.N,unconnected-(K1-NC_2-Pad5)*%
X102852000Y-93472000D03*
%TO.P,K1,6,OUT_2*%
%TO.N,Net-(K1-OUT_2)*%
X102852000Y-90932000D03*
%TD*%
D14*
%TO.P,U4,1,5V*%
%TO.N,+5V*%
X62737999Y-131825998D03*
D15*
%TO.P,U4,2,GND*%
%TO.N,GND*%
X113538002Y-121666000D03*
X113538001Y-116585998D03*
X113538001Y-114046002D03*
X113538000Y-129286000D03*
X113538000Y-126746002D03*
X113538000Y-124205998D03*
X113537998Y-131826000D03*
X113537998Y-119126000D03*
X62737999Y-129286002D03*
%TO.P,U4,3,SCLK*%
%TO.N,/SCLK*%
X62738002Y-126746000D03*
%TO.P,U4,4,DIN*%
%TO.N,/MOSI*%
X62737998Y-124206000D03*
%TO.P,U4,5,DOUT*%
%TO.N,/MISO*%
X62738000Y-121666002D03*
%TO.P,U4,6,DRDY*%
%TO.N,unconnected-(U4-DRDY-Pad6)*%
X62738000Y-119125998D03*
%TO.P,U4,7,CS*%
%TO.N,/CS*%
X62738000Y-116586000D03*
%TO.P,U4,8,RST*%
%TO.N,unconnected-(U4-RST-Pad8)*%
X62738002Y-114046000D03*
%TO.P,U4,9,A0*%
%TO.N,/Output_Meas*%
X116078002Y-131826001D03*
%TO.P,U4,10,A1*%
%TO.N,/Bias_Meas*%
X116078001Y-129286002D03*
%TO.P,U4,11,A2*%
%TO.N,unconnected-(U4-A2-Pad11)*%
X116078000Y-126746001D03*
%TO.P,U4,12,A3*%
%TO.N,unconnected-(U4-A3-Pad12)*%
X116078000Y-124206000D03*
%TO.P,U4,13,A4*%
%TO.N,unconnected-(U4-A4-Pad13)*%
X116077998Y-121665999D03*
%TO.P,U4,14,A5*%
%TO.N,unconnected-(U4-A5-Pad14)*%
X116078002Y-119125999D03*
%TO.P,U4,15,A6*%
%TO.N,unconnected-(U4-A6-Pad15)*%
X116077999Y-116586002D03*
%TO.P,U4,16,A7*%
%TO.N,unconnected-(U4-A7-Pad16)*%
X116078001Y-114045998D03*
%TD*%
D16*
%TO.P,J8,1,In*%
%TO.N,/Electrode-*%
X69905000Y-79193000D03*
D17*
%TO.P,J8,2,Ext*%
%TO.N,GND1*%
X64880000Y-74168000D03*
X64880000Y-84218000D03*
X74930000Y-74168000D03*
X74930000Y-84218000D03*
%TD*%
D18*
%TO.P,A3,1,GND*%
%TO.N,GND*%
X122671999Y-103124001D03*
D19*
%TO.P,A3,2,VDD*%
%TO.N,+3.3V*%
X122672002Y-100583997D03*
%TO.P,A3,3,1B*%
%TO.N,/1B*%
X122671999Y-98044001D03*
%TO.P,A3,4,1A*%
%TO.N,/1A*%
X122671999Y-95504001D03*
%TO.P,A3,5,2A*%
%TO.N,/2A*%
X122672004Y-92964000D03*
%TO.P,A3,6,2B*%
%TO.N,/2B*%
X122671999Y-90424002D03*
%TO.P,A3,7,GND*%
%TO.N,GND*%
X122671999Y-87884001D03*
%TO.P,A3,8,VMOT*%
%TO.N,28V*%
X122671999Y-85344001D03*
%TO.P,A3,9,~{ENABLE}*%
%TO.N,unconnected-(A3-~{ENABLE}-Pad9)*%
X109971995Y-85343999D03*
%TO.P,A3,10,MS1*%
%TO.N,unconnected-(A3-MS1-Pad10)*%
X109971999Y-87884002D03*
%TO.P,A3,11,MS2*%
%TO.N,unconnected-(A3-MS2-Pad11)*%
X109971998Y-90424002D03*
%TO.P,A3,12,MS3*%
%TO.N,unconnected-(A3-MS3-Pad12)*%
X109972002Y-92964000D03*
%TO.P,A3,13,~{RESET}*%
%TO.N,Net-(A3-~{RESET})*%
X109972001Y-95504000D03*
%TO.P,A3,14,~{SLEEP}*%
X109971994Y-98043999D03*
%TO.P,A3,15,STEP*%
%TO.N,Net-(A1-GPIO21)*%
X109971999Y-100584003D03*
%TO.P,A3,16,DIR*%
%TO.N,Net-(A1-GPIO22)*%
X109972000Y-103124001D03*
%TD*%
D16*
%TO.P,J7,1,In*%
%TO.N,/Bias_Sweep*%
X86868000Y-79248000D03*
D17*
%TO.P,J7,2,Ext*%
%TO.N,GND1*%
X81843000Y-74223000D03*
X81843000Y-84273000D03*
X91893000Y-74223000D03*
X91893000Y-84273000D03*
%TD*%
D20*
%TO.P,J1,1,Pin_1*%
%TO.N,/SCLK*%
X60706000Y-94488001D03*
D21*
%TO.P,J1,2,Pin_2*%
X59706000Y-94488001D03*
%TD*%
D20*
%TO.P,J2,1,Pin_1*%
%TO.N,/MOSI*%
X60706000Y-97790000D03*
D21*
%TO.P,J2,2,Pin_2*%
X59706000Y-97790000D03*
%TD*%
D20*
%TO.P,J3,1,Pin_1*%
%TO.N,/MISO*%
X60690000Y-101092000D03*
D21*
%TO.P,J3,2,Pin_2*%
X59690000Y-101092000D03*
%TD*%
D22*
%TO.P,J12,1,Pin_1*%
%TO.N,Probe_28V*%
X102870000Y-76454000D03*
D23*
%TO.P,J12,2,Pin_2*%
%TO.N,GND1*%
X106369998Y-76454000D03*
%TD*%
D24*
%TO.P,A1,1,GPIO0*%
%TO.N,/TX*%
X70358001Y-138430002D03*
D25*
%TO.P,A1,2,GPIO1*%
%TO.N,/RX*%
X70358002Y-135890002D03*
D26*
%TO.P,A1,3,GND*%
%TO.N,GND*%
X70358001Y-133350002D03*
D25*
%TO.P,A1,4,GPIO2*%
%TO.N,/Relay_Trigger*%
X70358000Y-130810001D03*
%TO.P,A1,5,GPIO3*%
%TO.N,unconnected-(A1-GPIO3-Pad5)_1*%
X70358001Y-128270002D03*
%TO.P,A1,6,GPIO4*%
%TO.N,/SCLK*%
X70358002Y-125730004D03*
%TO.P,A1,7,GPIO5*%
%TO.N,/MOSI*%
X70358001Y-123190002D03*
D26*
%TO.P,A1,8,GND*%
%TO.N,GND*%
X70358003Y-120650000D03*
D25*
%TO.P,A1,9,GPIO6*%
%TO.N,/MISO*%
X70358003Y-118110003D03*
%TO.P,A1,10,GPIO7*%
%TO.N,/CS*%
X70358001Y-115570002D03*
%TO.P,A1,11,GPIO8*%
%TO.N,unconnected-(A1-GPIO8-Pad11)*%
X70358002Y-113030002D03*
%TO.P,A1,12,GPIO9*%
%TO.N,unconnected-(A1-GPIO9-Pad12)_1*%
X70358000Y-110490004D03*
D26*
%TO.P,A1,13,GND*%
%TO.N,GND*%
X70358002Y-107950005D03*
D25*
%TO.P,A1,14,GPIO10*%
%TO.N,unconnected-(A1-GPIO10-Pad14)*%
X70358001Y-105410002D03*
%TO.P,A1,15,GPIO11*%
%TO.N,unconnected-(A1-GPIO11-Pad15)*%
X70358002Y-102870001D03*
%TO.P,A1,16,GPIO12*%
%TO.N,unconnected-(A1-GPIO12-Pad16)*%
X70358001Y-100330002D03*
%TO.P,A1,17,GPIO13*%
%TO.N,unconnected-(A1-GPIO13-Pad17)*%
X70358001Y-97790000D03*
D26*
%TO.P,A1,18,GND*%
%TO.N,GND*%
X70358001Y-95250002D03*
D25*
%TO.P,A1,19,GPIO14*%
%TO.N,unconnected-(A1-GPIO14-Pad19)_1*%
X70358000Y-92710000D03*
%TO.P,A1,20,GPIO15*%
%TO.N,/PhotoMos*%
X70358001Y-90170002D03*
%TO.P,A1,21,GPIO16*%
%TO.N,unconnected-(A1-GPIO16-Pad21)*%
X88138001Y-90170002D03*
%TO.P,A1,22,GPIO17*%
%TO.N,unconnected-(A1-GPIO17-Pad22)_1*%
X88138000Y-92710002D03*
D27*
%TO.P,A1,23,GND*%
%TO.N,GND*%
X88138001Y-95250002D03*
D25*
%TO.P,A1,24,GPIO18*%
%TO.N,unconnected-(A1-GPIO18-Pad24)*%
X88138002Y-97790003D03*
%TO.P,A1,25,GPIO19*%
%TO.N,unconnected-(A1-GPIO19-Pad25)*%
X88138001Y-100330002D03*
%TO.P,A1,26,GPIO20*%
%TO.N,unconnected-(A1-GPIO20-Pad26)_1*%
X88138000Y-102870000D03*
%TO.P,A1,27,GPIO21*%
%TO.N,Net-(A1-GPIO21)*%
X88138001Y-105410002D03*
D27*
%TO.P,A1,28,GND*%
%TO.N,GND*%
X88137999Y-107950004D03*
D25*
%TO.P,A1,29,GPIO22*%
%TO.N,Net-(A1-GPIO22)*%
X88137999Y-110490001D03*
%TO.P,A1,30,RUN*%
%TO.N,unconnected-(A1-RUN-Pad30)*%
X88138001Y-113030002D03*
%TO.P,A1,31,GPIO26_ADC0*%
%TO.N,unconnected-(A1-GPIO26_ADC0-Pad31)_1*%
X88138000Y-115570002D03*
%TO.P,A1,32,GPIO27_ADC1*%
%TO.N,unconnected-(A1-GPIO27_ADC1-Pad32)*%
X88138002Y-118110000D03*
D27*
%TO.P,A1,33,AGND*%
%TO.N,GND*%
X88138000Y-120649999D03*
D25*
%TO.P,A1,34,GPIO28_ADC2*%
%TO.N,unconnected-(A1-GPIO28_ADC2-Pad34)*%
X88138001Y-123190002D03*
%TO.P,A1,35,ADC_VREF*%
%TO.N,unconnected-(A1-ADC_VREF-Pad35)*%
X88138000Y-125730003D03*
%TO.P,A1,36,3V3*%
%TO.N,+3.3V*%
X88138001Y-128270002D03*
%TO.P,A1,37,3V3_EN*%
%TO.N,unconnected-(A1-3V3_EN-Pad37)*%
X88138001Y-130810004D03*
D27*
%TO.P,A1,38,GND*%
%TO.N,GND*%
X88138001Y-133350002D03*
D25*
%TO.P,A1,39,VSYS*%
%TO.N,unconnected-(A1-VSYS-Pad39)*%
X88138002Y-135890004D03*
%TO.P,A1,40,VBUS*%
%TO.N,+5V*%
X88138001Y-138430002D03*
%TD*%
D20*
%TO.P,J4,1,Pin_1*%
%TO.N,/CS*%
X60698002Y-103632001D03*
D21*
%TO.P,J4,2,Pin_2*%
X59698002Y-103632001D03*
%TD*%
D20*
%TO.P,J10,1,Pin_1*%
%TO.N,/RX*%
X65532000Y-98044000D03*
%TD*%
%TO.P,J5,1,Pin_1*%
%TO.N,/Relay_Trigger*%
X60706000Y-90170000D03*
%TD*%
D22*
%TO.P,J6,1,Pin_1*%
%TO.N,28V*%
X116952000Y-76200000D03*
D23*
%TO.P,J6,2,Pin_2*%
%TO.N,+5V*%
X120451998Y-76200000D03*
%TO.P,J6,3,Pin_3*%
%TO.N,GND*%
X123952000Y-76200000D03*
%TD*%
D28*
%TO.P,J11,1,Pin_1*%
%TO.N,/1B*%
X122936000Y-118476000D03*
D23*
%TO.P,J11,2,Pin_2*%
%TO.N,/1A*%
X122936000Y-121975998D03*
%TO.P,J11,3,Pin_3*%
%TO.N,/2A*%
X122936000Y-125476000D03*
%TO.P,J11,4,Pin_4*%
%TO.N,/2B*%
X122936002Y-128975999D03*
%TD*%
D20*
%TO.P,J9,1,Pin_1*%
%TO.N,/TX*%
X65278000Y-94488000D03*
%TD*%
D29*
%TO.N,Net-(K1-OUT_2)*%
X105918000Y-95908500D03*
%TO.N,GND1*%
X102852000Y-96012000D03*
%TO.N,Net-(K1-K)*%
X65278002Y-91948004D03*
%TO.N,28V*%
X98044000Y-101586999D03*
X98806000Y-111506000D03*
%TO.N,+5V*%
X123952000Y-81012999D03*
%TO.N,Probe_28V*%
X105664000Y-85077001D03*
X103378000Y-103632000D03*
%TD*%
D30*
%TO.N,Net-(K1-K)*%
X88979003Y-88199003D02*
X94252000Y-93472000D01*
X69027003Y-88199003D02*
X88979003Y-88199003D01*
X65278002Y-91948004D02*
X69027003Y-88199003D01*
%TO.N,Net-(K1-OUT_2)*%
X105918000Y-93998000D02*
X105918000Y-95908500D01*
X102852000Y-90932000D02*
X105918000Y-93998000D01*
%TO.N,GND*%
X95504000Y-92184000D02*
X94252000Y-90932000D01*
X94400998Y-95250002D02*
X95504000Y-94147000D01*
X88138001Y-95250002D02*
X94400998Y-95250002D01*
X95504000Y-94147000D02*
X95504000Y-92184000D01*
D31*
%TO.N,Probe_28V*%
X107188000Y-86601001D02*
X105664000Y-85077001D01*
X107188000Y-98806000D02*
X107188000Y-86601001D01*
X105918000Y-100076000D02*
X107188000Y-98806000D01*
X105918000Y-101092000D02*
X105918000Y-100076000D01*
X103378000Y-103632000D02*
X105918000Y-101092000D01*
%TO.N,/RX*%
X73713000Y-132535004D02*
X70358002Y-135890002D01*
X65532000Y-98044000D02*
X66406002Y-98918002D01*
X73713000Y-102089766D02*
X73713000Y-132535004D01*
X66406002Y-98918002D02*
X70541236Y-98918002D01*
X70541236Y-98918002D02*
X73713000Y-102089766D01*
%TO.N,/TX*%
X70825234Y-96662000D02*
X74168000Y-100004766D01*
X65278000Y-94488000D02*
X67452000Y-96662000D01*
X74168000Y-134620003D02*
X70358001Y-138430002D01*
X74168000Y-100004766D02*
X74168000Y-134620003D01*
X67452000Y-96662000D02*
X70825234Y-96662000D01*
%TO.N,Net-(A1-GPIO22)*%
X98288001Y-114808000D02*
X109972000Y-103124001D01*
X92455998Y-114808000D02*
X98288001Y-114808000D01*
X88137999Y-110490001D02*
X92455998Y-114808000D01*
%TO.N,Net-(A1-GPIO21)*%
X88138001Y-106347700D02*
X89270999Y-107480698D01*
X89270999Y-107480698D02*
X89270999Y-107558999D01*
X108844000Y-102992000D02*
X108844000Y-102656768D01*
X95250000Y-113538000D02*
X98298000Y-113538000D01*
X88138001Y-105410002D02*
X88138001Y-106347700D01*
X89270999Y-107558999D02*
X95250000Y-113538000D01*
X98298000Y-113538000D02*
X108844000Y-102992000D01*
X108844000Y-102656768D02*
X109971999Y-101528769D01*
X109971999Y-101528769D02*
X109971999Y-100584003D01*
%TO.N,28V*%
X98806000Y-111506000D02*
X98806000Y-102348999D01*
X98806000Y-102348999D02*
X98044000Y-101586999D01*
%TO.N,/MOSI*%
X71491003Y-107051003D02*
X71491003Y-122057000D01*
X60706000Y-97790000D02*
X69733005Y-106817005D01*
X71491003Y-122057000D02*
X70358001Y-123190002D01*
X71257005Y-106817005D02*
X71491003Y-107051003D01*
X69733005Y-106817005D02*
X71257005Y-106817005D01*
%TO.N,/SCLK*%
X60706000Y-96413235D02*
X68574766Y-104282001D01*
X68574766Y-104282001D02*
X70825234Y-104282002D01*
X70825234Y-104282002D02*
X72803000Y-106259768D01*
X72803000Y-106259768D02*
X72803000Y-123285006D01*
X60706000Y-94488001D02*
X60706000Y-96413235D01*
X72803000Y-123285006D02*
X70358002Y-125730004D01*
D32*
%TO.N,+5V*%
X63722996Y-135971948D02*
X62737999Y-134986951D01*
X63722996Y-137890996D02*
X63722996Y-135971948D01*
X115742053Y-139161002D02*
X88869001Y-139161002D01*
X125730000Y-82790999D02*
X125730000Y-129173055D01*
X88869001Y-139161002D02*
X88138001Y-138430002D01*
X88138001Y-138430002D02*
X85949003Y-140619000D01*
X85949003Y-140619000D02*
X66451000Y-140619000D01*
X125730000Y-129173055D02*
X115742053Y-139161002D01*
X123952000Y-81012999D02*
X125730000Y-82790999D01*
X66451000Y-140619000D02*
X63722996Y-137890996D01*
X62737999Y-134986951D02*
X62737999Y-131825998D01*
D31*
%TO.N,/Relay_Trigger*%
X73258000Y-127910001D02*
X73258000Y-104104002D01*
X70358000Y-130810001D02*
X73258000Y-127910001D01*
X70612000Y-101458002D02*
X67440002Y-101458002D01*
X67440002Y-101458002D02*
X63754000Y-97772000D01*
X63754000Y-97772000D02*
X63754000Y-93218000D01*
X63754000Y-93218000D02*
X60706000Y-90170000D01*
X73258000Y-104104002D02*
X70612000Y-101458002D01*
%TO.N,/2A*%
X122936000Y-125476000D02*
X119634000Y-122174000D01*
X119634000Y-96002004D02*
X122672004Y-92964000D01*
X119634000Y-122174000D02*
X119634000Y-96002004D01*
%TO.N,/1A*%
X120396000Y-119435998D02*
X120396000Y-97780000D01*
X120396000Y-97780000D02*
X122671999Y-95504001D01*
X122936000Y-121975998D02*
X120396000Y-119435998D01*
%TO.N,/1B*%
X123800002Y-117611998D02*
X123800002Y-99172004D01*
X123800002Y-99172004D02*
X122671999Y-98044001D01*
X122936000Y-118476000D02*
X123800002Y-117611998D01*
%TO.N,/2B*%
X118872000Y-94224001D02*
X118872000Y-124911997D01*
X118872000Y-124911997D02*
X122936002Y-128975999D01*
X122671999Y-90424002D02*
X118872000Y-94224001D01*
%TD*%
M02*
