%TF.GenerationSoftware,KiCad,Pcbnew,9.0.6*%
%TF.CreationDate,2026-03-13T11:42:11-04:00*%
%TF.ProjectId,LMP_Circuit,4c4d505f-4369-4726-9375-69742e6b6963,rev?*%
%TF.SameCoordinates,Original*%
%TF.FileFunction,Soldermask,Top*%
%TF.FilePolarity,Negative*%
%FSLAX46Y46*%
G04 Gerber Fmt 4.6, Leading zero omitted, Abs format (unit mm)*
G04 Created by KiCad (PCBNEW 9.0.6) date 2026-03-13 11:42:11*
%MOMM*%
%LPD*%
G01*
G04 APERTURE LIST*
G04 Aperture macros list*
%AMRoundRect*
0 Rectangle with rounded corners*
0 $1 Rounding radius*
0 $2 $3 $4 $5 $6 $7 $8 $9 X,Y pos of 4 corners*
0 Add a 4 corners polygon primitive as box body*
4,1,4,$2,$3,$4,$5,$6,$7,$8,$9,$2,$3,0*
0 Add four circle primitives for the rounded corners*
1,1,$1+$1,$2,$3*
1,1,$1+$1,$4,$5*
1,1,$1+$1,$6,$7*
1,1,$1+$1,$8,$9*
0 Add four rect primitives between the rounded corners*
20,1,$1+$1,$2,$3,$4,$5,0*
20,1,$1+$1,$4,$5,$6,$7,0*
20,1,$1+$1,$6,$7,$8,$9,0*
20,1,$1+$1,$8,$9,$2,$3,0*%
%AMFreePoly0*
4,1,37,0.603843,0.796157,0.639018,0.796157,0.711114,0.766294,0.766294,0.711114,0.796157,0.639018,0.796157,0.603843,0.800000,0.600000,0.800000,-0.600000,0.796157,-0.603843,0.796157,-0.639018,0.766294,-0.711114,0.711114,-0.766294,0.639018,-0.796157,0.603843,-0.796157,0.600000,-0.800000,0.000000,-0.800000,0.000000,-0.796148,-0.078414,-0.796148,-0.232228,-0.765552,-0.377117,-0.705537,
-0.507515,-0.618408,-0.618408,-0.507515,-0.705537,-0.377117,-0.765552,-0.232228,-0.796148,-0.078414,-0.796148,0.078414,-0.765552,0.232228,-0.705537,0.377117,-0.618408,0.507515,-0.507515,0.618408,-0.377117,0.705537,-0.232228,0.765552,-0.078414,0.796148,0.000000,0.796148,0.000000,0.800000,0.600000,0.800000,0.603843,0.796157,0.603843,0.796157,$1*%
%AMFreePoly1*
4,1,37,0.000000,0.796148,0.078414,0.796148,0.232228,0.765552,0.377117,0.705537,0.507515,0.618408,0.618408,0.507515,0.705537,0.377117,0.765552,0.232228,0.796148,0.078414,0.796148,-0.078414,0.765552,-0.232228,0.705537,-0.377117,0.618408,-0.507515,0.507515,-0.618408,0.377117,-0.705537,0.232228,-0.765552,0.078414,-0.796148,0.000000,-0.796148,0.000000,-0.800000,-0.600000,-0.800000,
-0.603843,-0.796157,-0.639018,-0.796157,-0.711114,-0.766294,-0.766294,-0.711114,-0.796157,-0.639018,-0.796157,-0.603843,-0.800000,-0.600000,-0.800000,0.600000,-0.796157,0.603843,-0.796157,0.639018,-0.766294,0.711114,-0.711114,0.766294,-0.639018,0.796157,-0.603843,0.796157,-0.600000,0.800000,0.000000,0.800000,0.000000,0.796148,0.000000,0.796148,$1*%
G04 Aperture macros list end*
%ADD10R,1.900000X0.750000*%
%ADD11R,1.905000X1.905000*%
%ADD12C,1.905000*%
%ADD13R,3.500000X3.500000*%
%ADD14C,4.000000*%
%ADD15R,1.600000X1.600000*%
%ADD16O,1.600000X1.600000*%
%ADD17R,0.850000X0.850000*%
%ADD18C,0.850000*%
%ADD19RoundRect,0.250001X-0.949999X-0.949999X0.949999X-0.949999X0.949999X0.949999X-0.949999X0.949999X0*%
%ADD20C,2.400000*%
%ADD21C,2.200000*%
%ADD22C,1.850000*%
%ADD23RoundRect,0.200000X-0.600000X-0.600000X0.600000X-0.600000X0.600000X0.600000X-0.600000X0.600000X0*%
%ADD24C,1.600000*%
%ADD25FreePoly0,0.000000*%
%ADD26FreePoly1,0.000000*%
%ADD27RoundRect,0.250001X-0.949999X0.949999X-0.949999X-0.949999X0.949999X-0.949999X0.949999X0.949999X0*%
G04 APERTURE END LIST*
D10*
%TO.C,K1*%
X94252000Y-90932000D03*
X94252000Y-93472000D03*
X94252000Y-96012000D03*
X102852000Y-96012000D03*
X102852000Y-93472000D03*
X102852000Y-90932000D03*
%TD*%
D11*
%TO.C,U4*%
X62737999Y-131825998D03*
D12*
X113538002Y-121666000D03*
X113538001Y-116585998D03*
X113538001Y-114046002D03*
X113538000Y-129286000D03*
X113538000Y-126746002D03*
X113538000Y-124205998D03*
X113537998Y-131826000D03*
X113537998Y-119126000D03*
X62737999Y-129286002D03*
X62738002Y-126746000D03*
X62737998Y-124206000D03*
X62738000Y-121666002D03*
X62738000Y-119125998D03*
X62738000Y-116586000D03*
X62738002Y-114046000D03*
X116078002Y-131826001D03*
X116078001Y-129286002D03*
X116078000Y-126746001D03*
X116078000Y-124206000D03*
X116077998Y-121665999D03*
X116078002Y-119125999D03*
X116077999Y-116586002D03*
X116078001Y-114045998D03*
%TD*%
D13*
%TO.C,J8*%
X69905000Y-79193000D03*
D14*
X64880000Y-74168000D03*
X64880000Y-84218000D03*
X74930000Y-74168000D03*
X74930000Y-84218000D03*
%TD*%
D15*
%TO.C,A3*%
X122671999Y-103124001D03*
D16*
X122672002Y-100583997D03*
X122671999Y-98044001D03*
X122671999Y-95504001D03*
X122672004Y-92964000D03*
X122671999Y-90424002D03*
X122671999Y-87884001D03*
X122671999Y-85344001D03*
X109971995Y-85343999D03*
X109971999Y-87884002D03*
X109971998Y-90424002D03*
X109972002Y-92964000D03*
X109972001Y-95504000D03*
X109971994Y-98043999D03*
X109971999Y-100584003D03*
X109972000Y-103124001D03*
%TD*%
D13*
%TO.C,J7*%
X86868000Y-79248000D03*
D14*
X81843000Y-74223000D03*
X81843000Y-84273000D03*
X91893000Y-74223000D03*
X91893000Y-84273000D03*
%TD*%
D17*
%TO.C,J1*%
X60706000Y-94488001D03*
D18*
X59706000Y-94488001D03*
%TD*%
D17*
%TO.C,J2*%
X60706000Y-97790000D03*
D18*
X59706000Y-97790000D03*
%TD*%
D17*
%TO.C,J3*%
X60690000Y-101092000D03*
D18*
X59690000Y-101092000D03*
%TD*%
D19*
%TO.C,J12*%
X102870000Y-76454000D03*
D20*
X106369998Y-76454000D03*
%TD*%
D21*
%TO.C,A1*%
X76523001Y-138300002D03*
D22*
X76822999Y-135270000D03*
X81673002Y-135270001D03*
D21*
X81973001Y-138300002D03*
D23*
X70358001Y-138430002D03*
D24*
X70358002Y-135890002D03*
D25*
X70358001Y-133350002D03*
D24*
X70358000Y-130810001D03*
X70358001Y-128270002D03*
X70358002Y-125730004D03*
X70358001Y-123190002D03*
D25*
X70358003Y-120650000D03*
D24*
X70358003Y-118110003D03*
X70358001Y-115570002D03*
X70358002Y-113030002D03*
X70358000Y-110490004D03*
D25*
X70358002Y-107950005D03*
D24*
X70358001Y-105410002D03*
X70358002Y-102870001D03*
X70358001Y-100330002D03*
X70358001Y-97790000D03*
D25*
X70358001Y-95250002D03*
D24*
X70358000Y-92710000D03*
X70358001Y-90170002D03*
X88138001Y-90170002D03*
X88138000Y-92710002D03*
D26*
X88138001Y-95250002D03*
D24*
X88138002Y-97790003D03*
X88138001Y-100330002D03*
X88138000Y-102870000D03*
X88138001Y-105410002D03*
D26*
X88137999Y-107950004D03*
D24*
X88137999Y-110490001D03*
X88138001Y-113030002D03*
X88138000Y-115570002D03*
X88138002Y-118110000D03*
D26*
X88138000Y-120649999D03*
D24*
X88138001Y-123190002D03*
X88138000Y-125730003D03*
X88138001Y-128270002D03*
X88138001Y-130810004D03*
D26*
X88138001Y-133350002D03*
D24*
X88138002Y-135890004D03*
X88138001Y-138430002D03*
%TD*%
D17*
%TO.C,J4*%
X60698002Y-103632001D03*
D18*
X59698002Y-103632001D03*
%TD*%
D17*
%TO.C,J10*%
X65532000Y-98044000D03*
%TD*%
%TO.C,J5*%
X60706000Y-90170000D03*
%TD*%
D19*
%TO.C,J6*%
X116952000Y-76200000D03*
D20*
X120451998Y-76200000D03*
X123952000Y-76200000D03*
%TD*%
D27*
%TO.C,J11*%
X122936000Y-118476000D03*
D20*
X122936000Y-121975998D03*
X122936000Y-125476000D03*
X122936002Y-128975999D03*
%TD*%
D17*
%TO.C,J9*%
X65278000Y-94488000D03*
%TD*%
M02*
