M48
; DRILL file {KiCad 9.0.6} date 2026-03-13T11:42:13-0400
; FORMAT={-:-/ absolute / metric / decimal}
; #@! TF.CreationDate,2026-03-13T11:42:13-04:00
; #@! TF.GenerationSoftware,Kicad,Pcbnew,9.0.6
; #@! TF.FileFunction,Plated,1,2,PTH
FMAT,2
METRIC
; #@! TA.AperFunction,Plated,PTH,ViaDrill
T1C0.300
; #@! TA.AperFunction,Plated,PTH,ComponentDrill
T2C0.500
; #@! TA.AperFunction,Plated,PTH,ComponentDrill
T3C0.800
; #@! TA.AperFunction,Plated,PTH,ComponentDrill
T4C1.000
; #@! TA.AperFunction,Plated,PTH,ComponentDrill
T5C1.100
; #@! TA.AperFunction,Plated,PTH,ComponentDrill
T6C1.200
; #@! TA.AperFunction,Plated,PTH,ComponentDrill
T7C1.500
%
G90
G05
T1
X65.278Y-91.948
X98.044Y-101.587
X98.806Y-111.506
X102.852Y-96.012
X103.378Y-103.632
X105.664Y-85.077
X105.918Y-95.908
X123.952Y-81.013
T2
X59.69Y-101.092
X59.698Y-103.632
X59.706Y-94.488
X59.706Y-97.79
X60.69Y-101.092
X60.698Y-103.632
X60.706Y-90.17
X60.706Y-94.488
X60.706Y-97.79
X65.278Y-94.488
X65.532Y-98.044
T3
X109.972Y-98.044
X109.972Y-85.344
X109.972Y-90.424
X109.972Y-87.884
X109.972Y-100.584
X109.972Y-103.124
X109.972Y-95.504
X109.972Y-92.964
X122.672Y-85.344
X122.672Y-87.884
X122.672Y-90.424
X122.672Y-95.504
X122.672Y-98.044
X122.672Y-103.124
X122.672Y-100.584
X122.672Y-92.964
T4
X62.738Y-124.206
X62.738Y-129.286
X62.738Y-131.826
X62.738Y-116.586
X62.738Y-119.126
X62.738Y-121.666
X62.738Y-114.046
X62.738Y-126.746
X70.358Y-92.71
X70.358Y-110.49
X70.358Y-130.81
X70.358Y-90.17
X70.358Y-95.25
X70.358Y-97.79
X70.358Y-100.33
X70.358Y-105.41
X70.358Y-115.57
X70.358Y-123.19
X70.358Y-128.27
X70.358Y-133.35
X70.358Y-138.43
X70.358Y-102.87
X70.358Y-107.95
X70.358Y-113.03
X70.358Y-125.73
X70.358Y-135.89
X70.358Y-118.11
X70.358Y-120.65
X88.138Y-107.95
X88.138Y-110.49
X88.138Y-92.71
X88.138Y-102.87
X88.138Y-115.57
X88.138Y-120.65
X88.138Y-125.73
X88.138Y-90.17
X88.138Y-95.25
X88.138Y-100.33
X88.138Y-105.41
X88.138Y-113.03
X88.138Y-123.19
X88.138Y-128.27
X88.138Y-130.81
X88.138Y-133.35
X88.138Y-138.43
X88.138Y-97.79
X88.138Y-118.11
X88.138Y-135.89
X113.538Y-119.126
X113.538Y-131.826
X113.538Y-124.206
X113.538Y-126.746
X113.538Y-129.286
X113.538Y-114.046
X113.538Y-116.586
X113.538Y-121.666
X116.078Y-121.666
X116.078Y-116.586
X116.078Y-124.206
X116.078Y-126.746
X116.078Y-114.046
X116.078Y-129.286
X116.078Y-119.126
X116.078Y-131.826
T5
X69.905Y-79.193
X86.868Y-79.248
T6
X102.87Y-76.454
X106.37Y-76.454
X116.952Y-76.2
X120.452Y-76.2
X122.936Y-118.476
X122.936Y-121.976
X122.936Y-125.476
X122.936Y-128.976
X123.952Y-76.2
T7
X64.88Y-74.168
X64.88Y-84.218
X74.93Y-74.168
X74.93Y-84.218
X81.843Y-74.223
X81.843Y-84.273
X91.893Y-74.223
X91.893Y-84.273
M30
