%TF.GenerationSoftware,KiCad,Pcbnew,9.0.6*%
%TF.CreationDate,2026-03-13T11:42:11-04:00*%
%TF.ProjectId,LMP_Circuit,4c4d505f-4369-4726-9375-69742e6b6963,rev?*%
%TF.SameCoordinates,Original*%
%TF.FileFunction,Legend,Top*%
%TF.FilePolarity,Positive*%
%FSLAX46Y46*%
G04 Gerber Fmt 4.6, Leading zero omitted, Abs format (unit mm)*
G04 Created by KiCad (PCBNEW 9.0.6) date 2026-03-13 11:42:11*
%MOMM*%
%LPD*%
G01*
G04 APERTURE LIST*
%ADD10C,0.254000*%
%ADD11C,0.100000*%
%ADD12C,0.150000*%
%ADD13C,0.200000*%
%ADD14C,0.120000*%
G04 APERTURE END LIST*
D10*
X97614618Y-94046318D02*
X97614618Y-92776318D01*
X98340333Y-94046318D02*
X97796047Y-93320603D01*
X98340333Y-92776318D02*
X97614618Y-93502032D01*
X99549857Y-94046318D02*
X98824142Y-94046318D01*
X99186999Y-94046318D02*
X99186999Y-92776318D01*
X99186999Y-92776318D02*
X99066047Y-92957746D01*
X99066047Y-92957746D02*
X98945095Y-93078699D01*
X98945095Y-93078699D02*
X98824142Y-93139175D01*
D11*
X81533904Y-123478580D02*
X81533904Y-122669057D01*
X81533904Y-122669057D02*
X81486285Y-122573819D01*
X81486285Y-122573819D02*
X81438666Y-122526200D01*
X81438666Y-122526200D02*
X81343428Y-122478580D01*
X81343428Y-122478580D02*
X81152952Y-122478580D01*
X81152952Y-122478580D02*
X81057714Y-122526200D01*
X81057714Y-122526200D02*
X81010095Y-122573819D01*
X81010095Y-122573819D02*
X80962476Y-122669057D01*
X80962476Y-122669057D02*
X80962476Y-123478580D01*
X80057714Y-123145247D02*
X80057714Y-122478580D01*
X80295809Y-123526200D02*
X80533904Y-122811914D01*
X80533904Y-122811914D02*
X79914857Y-122811914D01*
D12*
X75908819Y-79526333D02*
X76623104Y-79526333D01*
X76623104Y-79526333D02*
X76765961Y-79573952D01*
X76765961Y-79573952D02*
X76861200Y-79669190D01*
X76861200Y-79669190D02*
X76908819Y-79812047D01*
X76908819Y-79812047D02*
X76908819Y-79907285D01*
X76337390Y-78907285D02*
X76289771Y-79002523D01*
X76289771Y-79002523D02*
X76242152Y-79050142D01*
X76242152Y-79050142D02*
X76146914Y-79097761D01*
X76146914Y-79097761D02*
X76099295Y-79097761D01*
X76099295Y-79097761D02*
X76004057Y-79050142D01*
X76004057Y-79050142D02*
X75956438Y-79002523D01*
X75956438Y-79002523D02*
X75908819Y-78907285D01*
X75908819Y-78907285D02*
X75908819Y-78716809D01*
X75908819Y-78716809D02*
X75956438Y-78621571D01*
X75956438Y-78621571D02*
X76004057Y-78573952D01*
X76004057Y-78573952D02*
X76099295Y-78526333D01*
X76099295Y-78526333D02*
X76146914Y-78526333D01*
X76146914Y-78526333D02*
X76242152Y-78573952D01*
X76242152Y-78573952D02*
X76289771Y-78621571D01*
X76289771Y-78621571D02*
X76337390Y-78716809D01*
X76337390Y-78716809D02*
X76337390Y-78907285D01*
X76337390Y-78907285D02*
X76385009Y-79002523D01*
X76385009Y-79002523D02*
X76432628Y-79050142D01*
X76432628Y-79050142D02*
X76527866Y-79097761D01*
X76527866Y-79097761D02*
X76718342Y-79097761D01*
X76718342Y-79097761D02*
X76813580Y-79050142D01*
X76813580Y-79050142D02*
X76861200Y-79002523D01*
X76861200Y-79002523D02*
X76908819Y-78907285D01*
X76908819Y-78907285D02*
X76908819Y-78716809D01*
X76908819Y-78716809D02*
X76861200Y-78621571D01*
X76861200Y-78621571D02*
X76813580Y-78573952D01*
X76813580Y-78573952D02*
X76718342Y-78526333D01*
X76718342Y-78526333D02*
X76527866Y-78526333D01*
X76527866Y-78526333D02*
X76432628Y-78573952D01*
X76432628Y-78573952D02*
X76385009Y-78621571D01*
X76385009Y-78621571D02*
X76337390Y-78716809D01*
X115617714Y-100245104D02*
X116093904Y-100245104D01*
X115522476Y-100530819D02*
X115855809Y-99530819D01*
X115855809Y-99530819D02*
X116189142Y-100530819D01*
X116427238Y-99530819D02*
X117046285Y-99530819D01*
X117046285Y-99530819D02*
X116712952Y-99911771D01*
X116712952Y-99911771D02*
X116855809Y-99911771D01*
X116855809Y-99911771D02*
X116951047Y-99959390D01*
X116951047Y-99959390D02*
X116998666Y-100007009D01*
X116998666Y-100007009D02*
X117046285Y-100102247D01*
X117046285Y-100102247D02*
X117046285Y-100340342D01*
X117046285Y-100340342D02*
X116998666Y-100435580D01*
X116998666Y-100435580D02*
X116951047Y-100483200D01*
X116951047Y-100483200D02*
X116855809Y-100530819D01*
X116855809Y-100530819D02*
X116570095Y-100530819D01*
X116570095Y-100530819D02*
X116474857Y-100483200D01*
X116474857Y-100483200D02*
X116427238Y-100435580D01*
X79409819Y-79890333D02*
X80124104Y-79890333D01*
X80124104Y-79890333D02*
X80266961Y-79937952D01*
X80266961Y-79937952D02*
X80362200Y-80033190D01*
X80362200Y-80033190D02*
X80409819Y-80176047D01*
X80409819Y-80176047D02*
X80409819Y-80271285D01*
X79409819Y-79509380D02*
X79409819Y-78842714D01*
X79409819Y-78842714D02*
X80409819Y-79271285D01*
D13*
%TO.C,K1*%
X95552000Y-89072000D02*
X101552000Y-89072000D01*
X101552000Y-89072000D02*
X101552000Y-97872000D01*
X101552000Y-97872000D02*
X95552000Y-97872000D01*
X95552000Y-97872000D02*
X95552000Y-89072000D01*
X93302000Y-90207000D02*
X95202000Y-90207000D01*
D11*
%TO.C,U4*%
X58138000Y-138436000D02*
X58138001Y-107436000D01*
X60138002Y-105436001D02*
X116138000Y-105436002D01*
X116137998Y-140435999D02*
X60138000Y-140435998D01*
X118138000Y-107436000D02*
X118137999Y-138436000D01*
X58138001Y-107436000D02*
G75*
G02*
X60138002Y-105436001I1999999J0D01*
G01*
X60138000Y-140435998D02*
G75*
G02*
X58138002Y-138436000I0J1999998D01*
G01*
X116138000Y-105436002D02*
G75*
G02*
X118138000Y-107436000I5J-1999995D01*
G01*
X118137999Y-138436000D02*
G75*
G02*
X116137998Y-140435999I-1999992J-7D01*
G01*
X64008000Y-112618127D02*
X64008000Y-133253873D01*
X61468000Y-133253875D01*
X61468000Y-112618125D01*
X64008000Y-112618127D01*
X117348000Y-133096000D02*
X112268000Y-133096000D01*
X112268000Y-112776000D01*
X117348000Y-112776000D01*
X117348000Y-133096000D01*
D14*
%TO.C,J8*%
X64175000Y-76368000D02*
X64175000Y-82018000D01*
X67080000Y-84923000D02*
X72730000Y-84923000D01*
X69905000Y-73893000D02*
X69404999Y-74593000D01*
X69905000Y-73893000D02*
X70404999Y-74592998D01*
X72730000Y-73692999D02*
X67080001Y-73692997D01*
X75635000Y-82018000D02*
X75635000Y-76368000D01*
%TO.C,A3*%
X108571999Y-104524001D02*
X121402000Y-104524000D01*
X108572000Y-83943998D02*
X108571999Y-104524001D01*
X111241997Y-104524001D02*
X111242000Y-83944001D01*
X121402000Y-104524000D02*
X121402001Y-101854002D01*
X121402001Y-101854002D02*
X121401999Y-83944002D01*
X121402001Y-101854002D02*
X124071999Y-101854001D01*
X122671999Y-104524001D02*
X124072001Y-104524000D01*
X124071998Y-83944001D02*
X108572000Y-83943998D01*
X124071999Y-101854001D02*
X124071998Y-83944001D01*
X124072001Y-104524000D02*
X124071999Y-103124001D01*
%TO.C,J7*%
X81138000Y-76423000D02*
X81138000Y-82073000D01*
X84043000Y-84978000D02*
X89693000Y-84978000D01*
X86868000Y-73948000D02*
X86367999Y-74648000D01*
X86868000Y-73948000D02*
X87368001Y-74648000D01*
X89693000Y-73747999D02*
X84043000Y-73747999D01*
X92598000Y-82073000D02*
X92598000Y-76423000D01*
%TD*%
M02*
