%TF.GenerationSoftware,KiCad,Pcbnew,9.0.7-9.0.7~ubuntu24.04.1*%
%TF.CreationDate,2026-03-04T23:47:23-05:00*%
%TF.ProjectId,ROCKSAT_Modules_V1,524f434b-5341-4545-9f4d-6f64756c6573,rev?*%
%TF.SameCoordinates,Original*%
%TF.FileFunction,Soldermask,Top*%
%TF.FilePolarity,Negative*%
%FSLAX46Y46*%
G04 Gerber Fmt 4.6, Leading zero omitted, Abs format (unit mm)*
G04 Created by KiCad (PCBNEW 9.0.7-9.0.7~ubuntu24.04.1) date 2026-03-04 23:47:23*
%MOMM*%
%LPD*%
G01*
G04 APERTURE LIST*
G04 Aperture macros list*
%AMRoundRect*
0 Rectangle with rounded corners*
0 $1 Rounding radius*
0 $2 $3 $4 $5 $6 $7 $8 $9 X,Y pos of 4 corners*
0 Add a 4 corners polygon primitive as box body*
4,1,4,$2,$3,$4,$5,$6,$7,$8,$9,$2,$3,0*
0 Add four circle primitives for the rounded corners*
1,1,$1+$1,$2,$3*
1,1,$1+$1,$4,$5*
1,1,$1+$1,$6,$7*
1,1,$1+$1,$8,$9*
0 Add four rect primitives between the rounded corners*
20,1,$1+$1,$2,$3,$4,$5,0*
20,1,$1+$1,$4,$5,$6,$7,0*
20,1,$1+$1,$6,$7,$8,$9,0*
20,1,$1+$1,$8,$9,$2,$3,0*%
G04 Aperture macros list end*
%ADD10C,1.500000*%
%ADD11C,3.200000*%
%ADD12C,1.600000*%
%ADD13C,3.500000*%
%ADD14R,1.905000X2.000000*%
%ADD15O,1.905000X2.000000*%
%ADD16RoundRect,0.150000X-0.825000X-0.150000X0.825000X-0.150000X0.825000X0.150000X-0.825000X0.150000X0*%
%ADD17RoundRect,0.250000X0.650000X-0.650000X0.650000X0.650000X-0.650000X0.650000X-0.650000X-0.650000X0*%
%ADD18C,1.800000*%
%ADD19RoundRect,0.250000X-0.650000X0.650000X-0.650000X-0.650000X0.650000X-0.650000X0.650000X0.650000X0*%
%ADD20R,1.700000X1.700000*%
%ADD21C,1.700000*%
%ADD22C,2.000000*%
%ADD23RoundRect,0.102000X-0.754000X-0.754000X0.754000X-0.754000X0.754000X0.754000X-0.754000X0.754000X0*%
%ADD24C,1.712000*%
G04 APERTURE END LIST*
D10*
%TO.C,TP12*%
X173851200Y-120328000D03*
%TD*%
%TO.C,TP11*%
X162675200Y-113978000D03*
%TD*%
%TO.C,TP10*%
X133211200Y-94674000D03*
%TD*%
%TO.C,TP9*%
X172835200Y-91880000D03*
%TD*%
%TO.C,TP8*%
X187567200Y-105596000D03*
%TD*%
%TO.C,TP7*%
X132703200Y-107628000D03*
%TD*%
%TO.C,TP6*%
X125083200Y-92134000D03*
%TD*%
%TO.C,TP5*%
X163437200Y-125408000D03*
%TD*%
%TO.C,TP4*%
X163183200Y-108898000D03*
%TD*%
%TO.C,TP3*%
X189345200Y-93150000D03*
%TD*%
%TO.C,TP2*%
X190361200Y-100770000D03*
%TD*%
%TO.C,TP1*%
X187313200Y-88070000D03*
%TD*%
D11*
%TO.C,H1*%
X129655200Y-82990000D03*
%TD*%
D12*
%TO.C,C1*%
X184753200Y-106388000D03*
X182253200Y-106388000D03*
%TD*%
D13*
%TO.C,U1*%
X167755200Y-75052000D03*
D14*
X165215200Y-91712000D03*
D15*
X167755200Y-91712000D03*
X170295200Y-91712000D03*
%TD*%
D16*
%TO.C,U2*%
X168230200Y-111087000D03*
X168230200Y-112357000D03*
X168230200Y-113627000D03*
X168230200Y-114897000D03*
X173180200Y-114897000D03*
X173180200Y-113627000D03*
X173180200Y-112357000D03*
X173180200Y-111087000D03*
%TD*%
D17*
%TO.C,D1*%
X184011200Y-123122000D03*
D18*
X184011200Y-112962000D03*
%TD*%
D11*
%TO.C,H3*%
X172073200Y-129980000D03*
%TD*%
%TO.C,H4*%
X129655200Y-122360000D03*
%TD*%
D12*
%TO.C,R8*%
X167902200Y-101562000D03*
X167902200Y-109182000D03*
%TD*%
%TO.C,R9*%
X173871200Y-123660000D03*
X166251200Y-123660000D03*
%TD*%
D19*
%TO.C,D2*%
X180221200Y-109436000D03*
D18*
X180221200Y-119596000D03*
%TD*%
D20*
%TO.C,J1*%
X125845200Y-98230000D03*
D21*
X123305200Y-98230000D03*
X125845200Y-100770000D03*
X123305200Y-100770000D03*
X125845200Y-103310000D03*
X123305200Y-103310000D03*
X125845200Y-105850000D03*
X123305200Y-105850000D03*
X125845200Y-108390000D03*
X123305200Y-108390000D03*
%TD*%
D12*
%TO.C,C2*%
X131687200Y-89360000D03*
X131687200Y-91860000D03*
%TD*%
%TO.C,C3*%
X180455200Y-125896000D03*
X180455200Y-123396000D03*
%TD*%
%TO.C,C4*%
X176665200Y-113734000D03*
X176665200Y-111234000D03*
%TD*%
D11*
%TO.C,H2*%
X180455200Y-82736000D03*
%TD*%
D12*
%TO.C,R11*%
X187567200Y-108136000D03*
X187567200Y-115756000D03*
%TD*%
%TO.C,C5*%
X169319200Y-118072000D03*
X171819200Y-118072000D03*
%TD*%
%TO.C,R14*%
X172601200Y-101054000D03*
X172601200Y-108674000D03*
%TD*%
%TO.C,R7*%
X176157200Y-101562000D03*
X176157200Y-93942000D03*
%TD*%
D20*
%TO.C,J2*%
X179947200Y-102802000D03*
D21*
X182487200Y-102802000D03*
X179947200Y-100262000D03*
X182487200Y-100262000D03*
X179947200Y-97722000D03*
X182487200Y-97722000D03*
X179947200Y-95182000D03*
X182487200Y-95182000D03*
X179947200Y-92642000D03*
X182487200Y-92642000D03*
%TD*%
D12*
%TO.C,R10*%
X165489200Y-120358000D03*
X165489200Y-112738000D03*
%TD*%
D22*
%TO.C,U4*%
X138201200Y-74796000D03*
X138201200Y-131796000D03*
X158701200Y-74796000D03*
X158701200Y-131796000D03*
D23*
X138291200Y-94674000D03*
D24*
X138291200Y-97214000D03*
X138291200Y-99754000D03*
X138291200Y-102294000D03*
X138291200Y-104834000D03*
X138291200Y-107374000D03*
X138291200Y-109914000D03*
X138291200Y-112454000D03*
X138291200Y-114994000D03*
X138291200Y-117534000D03*
X138291200Y-120074000D03*
X138291200Y-122614000D03*
X138291200Y-125154000D03*
X138291200Y-127694000D03*
X158611200Y-127694000D03*
X158611200Y-125154000D03*
X158611200Y-122614000D03*
X158611200Y-120074000D03*
X158611200Y-117534000D03*
X158611200Y-114994000D03*
X158611200Y-112454000D03*
X158611200Y-109914000D03*
X158611200Y-107374000D03*
X158611200Y-104834000D03*
X158611200Y-102294000D03*
X158611200Y-99754000D03*
X158611200Y-97214000D03*
X158611200Y-94674000D03*
%TD*%
D12*
%TO.C,R13*%
X165235200Y-97879000D03*
X172855200Y-97879000D03*
%TD*%
%TO.C,R12*%
X176665200Y-123914000D03*
X176665200Y-116294000D03*
%TD*%
M02*
