M48
; DRILL file {KiCad 9.0.7-9.0.7~ubuntu24.04.1} date 2026-03-04T23:47:20-0500
; FORMAT={-:-/ absolute / metric / decimal}
; #@! TF.CreationDate,2026-03-04T23:47:20-05:00
; #@! TF.GenerationSoftware,Kicad,Pcbnew,9.0.7-9.0.7~ubuntu24.04.1
; #@! TF.FileFunction,Plated,1,2,PTH
FMAT,2
METRIC
; #@! TA.AperFunction,Plated,PTH,ViaDrill
T1C0.300
; #@! TA.AperFunction,Plated,PTH,ComponentDrill
T2C0.700
; #@! TA.AperFunction,Plated,PTH,ComponentDrill
T3C0.800
; #@! TA.AperFunction,Plated,PTH,ComponentDrill
T4C0.900
; #@! TA.AperFunction,Plated,PTH,ComponentDrill
T5C1.000
; #@! TA.AperFunction,Plated,PTH,ComponentDrill
T6C1.100
%
G90
G05
T1
X170.295Y-116.01
T2
X125.083Y-92.134
X132.703Y-107.628
X133.211Y-94.674
X162.675Y-113.978
X163.183Y-108.898
X163.437Y-125.408
X172.835Y-91.88
X173.851Y-120.328
X187.313Y-88.07
X187.567Y-105.596
X189.345Y-93.15
X190.361Y-100.77
T3
X131.687Y-89.36
X131.687Y-91.86
X165.235Y-97.879
X165.489Y-112.738
X165.489Y-120.358
X166.251Y-123.66
X167.902Y-101.562
X167.902Y-109.182
X169.319Y-118.072
X171.819Y-118.072
X172.601Y-101.054
X172.601Y-108.674
X172.855Y-97.879
X173.871Y-123.66
X176.157Y-93.942
X176.157Y-101.562
X176.665Y-111.234
X176.665Y-113.734
X176.665Y-116.294
X176.665Y-123.914
X180.455Y-123.396
X180.455Y-125.896
X182.253Y-106.388
X184.753Y-106.388
X187.567Y-108.136
X187.567Y-115.756
T4
X180.221Y-109.436
X180.221Y-119.596
X184.011Y-112.962
X184.011Y-123.122
T5
X123.305Y-98.23
X123.305Y-100.77
X123.305Y-103.31
X123.305Y-105.85
X123.305Y-108.39
X125.845Y-98.23
X125.845Y-100.77
X125.845Y-103.31
X125.845Y-105.85
X125.845Y-108.39
X138.291Y-94.674
X138.291Y-97.214
X138.291Y-99.754
X138.291Y-102.294
X138.291Y-104.834
X138.291Y-107.374
X138.291Y-109.914
X138.291Y-112.454
X138.291Y-114.994
X138.291Y-117.534
X138.291Y-120.074
X138.291Y-122.614
X138.291Y-125.154
X138.291Y-127.694
X158.611Y-94.674
X158.611Y-97.214
X158.611Y-99.754
X158.611Y-102.294
X158.611Y-104.834
X158.611Y-107.374
X158.611Y-109.914
X158.611Y-112.454
X158.611Y-114.994
X158.611Y-117.534
X158.611Y-120.074
X158.611Y-122.614
X158.611Y-125.154
X158.611Y-127.694
X179.947Y-92.642
X179.947Y-95.182
X179.947Y-97.722
X179.947Y-100.262
X179.947Y-102.802
X182.487Y-92.642
X182.487Y-95.182
X182.487Y-97.722
X182.487Y-100.262
X182.487Y-102.802
T6
X165.215Y-91.712
X167.755Y-91.712
X170.295Y-91.712
M30
