%TF.GenerationSoftware,KiCad,Pcbnew,9.0.7-9.0.7~ubuntu24.04.1*%
%TF.CreationDate,2026-03-04T23:47:23-05:00*%
%TF.ProjectId,ROCKSAT_Modules_V1,524f434b-5341-4545-9f4d-6f64756c6573,rev?*%
%TF.SameCoordinates,Original*%
%TF.FileFunction,Legend,Top*%
%TF.FilePolarity,Positive*%
%FSLAX46Y46*%
G04 Gerber Fmt 4.6, Leading zero omitted, Abs format (unit mm)*
G04 Created by KiCad (PCBNEW 9.0.7-9.0.7~ubuntu24.04.1) date 2026-03-04 23:47:23*
%MOMM*%
%LPD*%
G01*
G04 APERTURE LIST*
%ADD10C,0.100000*%
%ADD11C,0.150000*%
%ADD12C,0.120000*%
%ADD13C,0.127000*%
%ADD14C,0.200000*%
G04 APERTURE END LIST*
D10*
X178055200Y-88310000D02*
X178555200Y-88310000D01*
X177055200Y-104310000D02*
X178375627Y-100770000D01*
X178555200Y-88310000D02*
X179555200Y-91060000D01*
X127479084Y-101404419D02*
X127479084Y-100404419D01*
X127479084Y-100404419D02*
X127812417Y-101118704D01*
X127812417Y-101118704D02*
X128145750Y-100404419D01*
X128145750Y-100404419D02*
X128145750Y-101404419D01*
X128621941Y-101404419D02*
X128621941Y-100404419D01*
X129050512Y-101356800D02*
X129193369Y-101404419D01*
X129193369Y-101404419D02*
X129431464Y-101404419D01*
X129431464Y-101404419D02*
X129526702Y-101356800D01*
X129526702Y-101356800D02*
X129574321Y-101309180D01*
X129574321Y-101309180D02*
X129621940Y-101213942D01*
X129621940Y-101213942D02*
X129621940Y-101118704D01*
X129621940Y-101118704D02*
X129574321Y-101023466D01*
X129574321Y-101023466D02*
X129526702Y-100975847D01*
X129526702Y-100975847D02*
X129431464Y-100928228D01*
X129431464Y-100928228D02*
X129240988Y-100880609D01*
X129240988Y-100880609D02*
X129145750Y-100832990D01*
X129145750Y-100832990D02*
X129098131Y-100785371D01*
X129098131Y-100785371D02*
X129050512Y-100690133D01*
X129050512Y-100690133D02*
X129050512Y-100594895D01*
X129050512Y-100594895D02*
X129098131Y-100499657D01*
X129098131Y-100499657D02*
X129145750Y-100452038D01*
X129145750Y-100452038D02*
X129240988Y-100404419D01*
X129240988Y-100404419D02*
X129479083Y-100404419D01*
X129479083Y-100404419D02*
X129621940Y-100452038D01*
X130240988Y-100404419D02*
X130431464Y-100404419D01*
X130431464Y-100404419D02*
X130526702Y-100452038D01*
X130526702Y-100452038D02*
X130621940Y-100547276D01*
X130621940Y-100547276D02*
X130669559Y-100737752D01*
X130669559Y-100737752D02*
X130669559Y-101071085D01*
X130669559Y-101071085D02*
X130621940Y-101261561D01*
X130621940Y-101261561D02*
X130526702Y-101356800D01*
X130526702Y-101356800D02*
X130431464Y-101404419D01*
X130431464Y-101404419D02*
X130240988Y-101404419D01*
X130240988Y-101404419D02*
X130145750Y-101356800D01*
X130145750Y-101356800D02*
X130050512Y-101261561D01*
X130050512Y-101261561D02*
X130002893Y-101071085D01*
X130002893Y-101071085D02*
X130002893Y-100737752D01*
X130002893Y-100737752D02*
X130050512Y-100547276D01*
X130050512Y-100547276D02*
X130145750Y-100452038D01*
X130145750Y-100452038D02*
X130240988Y-100404419D01*
X127383846Y-107770419D02*
X128050512Y-108770419D01*
X128050512Y-107770419D02*
X127383846Y-108770419D01*
X184138438Y-99767419D02*
X184709866Y-99767419D01*
X184424152Y-100767419D02*
X184424152Y-99767419D01*
X184947962Y-99767419D02*
X185614628Y-100767419D01*
X185614628Y-99767419D02*
X184947962Y-100767419D01*
X185757486Y-100862657D02*
X186519390Y-100862657D01*
X186757486Y-100767419D02*
X186757486Y-99767419D01*
X187233676Y-100767419D02*
X187233676Y-99767419D01*
X187233676Y-99767419D02*
X187805104Y-100767419D01*
X187805104Y-100767419D02*
X187805104Y-99767419D01*
X180085274Y-104682419D02*
X179609084Y-104682419D01*
X179609084Y-104682419D02*
X179561465Y-105158609D01*
X179561465Y-105158609D02*
X179609084Y-105110990D01*
X179609084Y-105110990D02*
X179704322Y-105063371D01*
X179704322Y-105063371D02*
X179942417Y-105063371D01*
X179942417Y-105063371D02*
X180037655Y-105110990D01*
X180037655Y-105110990D02*
X180085274Y-105158609D01*
X180085274Y-105158609D02*
X180132893Y-105253847D01*
X180132893Y-105253847D02*
X180132893Y-105491942D01*
X180132893Y-105491942D02*
X180085274Y-105587180D01*
X180085274Y-105587180D02*
X180037655Y-105634800D01*
X180037655Y-105634800D02*
X179942417Y-105682419D01*
X179942417Y-105682419D02*
X179704322Y-105682419D01*
X179704322Y-105682419D02*
X179609084Y-105634800D01*
X179609084Y-105634800D02*
X179561465Y-105587180D01*
X180418608Y-104682419D02*
X180751941Y-105682419D01*
X180751941Y-105682419D02*
X181085274Y-104682419D01*
X127479084Y-106230419D02*
X127479084Y-105230419D01*
X127479084Y-105230419D02*
X127812417Y-105944704D01*
X127812417Y-105944704D02*
X128145750Y-105230419D01*
X128145750Y-105230419D02*
X128145750Y-106230419D01*
X128812417Y-105230419D02*
X129002893Y-105230419D01*
X129002893Y-105230419D02*
X129098131Y-105278038D01*
X129098131Y-105278038D02*
X129193369Y-105373276D01*
X129193369Y-105373276D02*
X129240988Y-105563752D01*
X129240988Y-105563752D02*
X129240988Y-105897085D01*
X129240988Y-105897085D02*
X129193369Y-106087561D01*
X129193369Y-106087561D02*
X129098131Y-106182800D01*
X129098131Y-106182800D02*
X129002893Y-106230419D01*
X129002893Y-106230419D02*
X128812417Y-106230419D01*
X128812417Y-106230419D02*
X128717179Y-106182800D01*
X128717179Y-106182800D02*
X128621941Y-106087561D01*
X128621941Y-106087561D02*
X128574322Y-105897085D01*
X128574322Y-105897085D02*
X128574322Y-105563752D01*
X128574322Y-105563752D02*
X128621941Y-105373276D01*
X128621941Y-105373276D02*
X128717179Y-105278038D01*
X128717179Y-105278038D02*
X128812417Y-105230419D01*
X129621941Y-106182800D02*
X129764798Y-106230419D01*
X129764798Y-106230419D02*
X130002893Y-106230419D01*
X130002893Y-106230419D02*
X130098131Y-106182800D01*
X130098131Y-106182800D02*
X130145750Y-106135180D01*
X130145750Y-106135180D02*
X130193369Y-106039942D01*
X130193369Y-106039942D02*
X130193369Y-105944704D01*
X130193369Y-105944704D02*
X130145750Y-105849466D01*
X130145750Y-105849466D02*
X130098131Y-105801847D01*
X130098131Y-105801847D02*
X130002893Y-105754228D01*
X130002893Y-105754228D02*
X129812417Y-105706609D01*
X129812417Y-105706609D02*
X129717179Y-105658990D01*
X129717179Y-105658990D02*
X129669560Y-105611371D01*
X129669560Y-105611371D02*
X129621941Y-105516133D01*
X129621941Y-105516133D02*
X129621941Y-105420895D01*
X129621941Y-105420895D02*
X129669560Y-105325657D01*
X129669560Y-105325657D02*
X129717179Y-105278038D01*
X129717179Y-105278038D02*
X129812417Y-105230419D01*
X129812417Y-105230419D02*
X130050512Y-105230419D01*
X130050512Y-105230419D02*
X130193369Y-105278038D01*
X130621941Y-106230419D02*
X130621941Y-105230419D01*
X184198057Y-95481704D02*
X184674247Y-95481704D01*
X184102819Y-95767419D02*
X184436152Y-94767419D01*
X184436152Y-94767419D02*
X184769485Y-95767419D01*
X185055200Y-95719800D02*
X185198057Y-95767419D01*
X185198057Y-95767419D02*
X185436152Y-95767419D01*
X185436152Y-95767419D02*
X185531390Y-95719800D01*
X185531390Y-95719800D02*
X185579009Y-95672180D01*
X185579009Y-95672180D02*
X185626628Y-95576942D01*
X185626628Y-95576942D02*
X185626628Y-95481704D01*
X185626628Y-95481704D02*
X185579009Y-95386466D01*
X185579009Y-95386466D02*
X185531390Y-95338847D01*
X185531390Y-95338847D02*
X185436152Y-95291228D01*
X185436152Y-95291228D02*
X185245676Y-95243609D01*
X185245676Y-95243609D02*
X185150438Y-95195990D01*
X185150438Y-95195990D02*
X185102819Y-95148371D01*
X185102819Y-95148371D02*
X185055200Y-95053133D01*
X185055200Y-95053133D02*
X185055200Y-94957895D01*
X185055200Y-94957895D02*
X185102819Y-94862657D01*
X185102819Y-94862657D02*
X185150438Y-94815038D01*
X185150438Y-94815038D02*
X185245676Y-94767419D01*
X185245676Y-94767419D02*
X185483771Y-94767419D01*
X185483771Y-94767419D02*
X185626628Y-94815038D01*
X186055200Y-95100752D02*
X186055200Y-96100752D01*
X186055200Y-95148371D02*
X186150438Y-95100752D01*
X186150438Y-95100752D02*
X186340914Y-95100752D01*
X186340914Y-95100752D02*
X186436152Y-95148371D01*
X186436152Y-95148371D02*
X186483771Y-95195990D01*
X186483771Y-95195990D02*
X186531390Y-95291228D01*
X186531390Y-95291228D02*
X186531390Y-95576942D01*
X186531390Y-95576942D02*
X186483771Y-95672180D01*
X186483771Y-95672180D02*
X186436152Y-95719800D01*
X186436152Y-95719800D02*
X186340914Y-95767419D01*
X186340914Y-95767419D02*
X186150438Y-95767419D01*
X186150438Y-95767419D02*
X186055200Y-95719800D01*
X187388533Y-95767419D02*
X187388533Y-95243609D01*
X187388533Y-95243609D02*
X187340914Y-95148371D01*
X187340914Y-95148371D02*
X187245676Y-95100752D01*
X187245676Y-95100752D02*
X187055200Y-95100752D01*
X187055200Y-95100752D02*
X186959962Y-95148371D01*
X187388533Y-95719800D02*
X187293295Y-95767419D01*
X187293295Y-95767419D02*
X187055200Y-95767419D01*
X187055200Y-95767419D02*
X186959962Y-95719800D01*
X186959962Y-95719800D02*
X186912343Y-95624561D01*
X186912343Y-95624561D02*
X186912343Y-95529323D01*
X186912343Y-95529323D02*
X186959962Y-95434085D01*
X186959962Y-95434085D02*
X187055200Y-95386466D01*
X187055200Y-95386466D02*
X187293295Y-95386466D01*
X187293295Y-95386466D02*
X187388533Y-95338847D01*
X187864724Y-95767419D02*
X187864724Y-95100752D01*
X187864724Y-95291228D02*
X187912343Y-95195990D01*
X187912343Y-95195990D02*
X187959962Y-95148371D01*
X187959962Y-95148371D02*
X188055200Y-95100752D01*
X188055200Y-95100752D02*
X188150438Y-95100752D01*
X188864724Y-95719800D02*
X188769486Y-95767419D01*
X188769486Y-95767419D02*
X188579010Y-95767419D01*
X188579010Y-95767419D02*
X188483772Y-95719800D01*
X188483772Y-95719800D02*
X188436153Y-95624561D01*
X188436153Y-95624561D02*
X188436153Y-95243609D01*
X188436153Y-95243609D02*
X188483772Y-95148371D01*
X188483772Y-95148371D02*
X188579010Y-95100752D01*
X188579010Y-95100752D02*
X188769486Y-95100752D01*
X188769486Y-95100752D02*
X188864724Y-95148371D01*
X188864724Y-95148371D02*
X188912343Y-95243609D01*
X188912343Y-95243609D02*
X188912343Y-95338847D01*
X188912343Y-95338847D02*
X188436153Y-95434085D01*
X117417982Y-100267419D02*
X117989410Y-100267419D01*
X117703696Y-101267419D02*
X117703696Y-100267419D01*
X118322744Y-101267419D02*
X118322744Y-100267419D01*
X118322744Y-100267419D02*
X118703696Y-100267419D01*
X118703696Y-100267419D02*
X118798934Y-100315038D01*
X118798934Y-100315038D02*
X118846553Y-100362657D01*
X118846553Y-100362657D02*
X118894172Y-100457895D01*
X118894172Y-100457895D02*
X118894172Y-100600752D01*
X118894172Y-100600752D02*
X118846553Y-100695990D01*
X118846553Y-100695990D02*
X118798934Y-100743609D01*
X118798934Y-100743609D02*
X118703696Y-100791228D01*
X118703696Y-100791228D02*
X118322744Y-100791228D01*
X119894172Y-101172180D02*
X119846553Y-101219800D01*
X119846553Y-101219800D02*
X119703696Y-101267419D01*
X119703696Y-101267419D02*
X119608458Y-101267419D01*
X119608458Y-101267419D02*
X119465601Y-101219800D01*
X119465601Y-101219800D02*
X119370363Y-101124561D01*
X119370363Y-101124561D02*
X119322744Y-101029323D01*
X119322744Y-101029323D02*
X119275125Y-100838847D01*
X119275125Y-100838847D02*
X119275125Y-100695990D01*
X119275125Y-100695990D02*
X119322744Y-100505514D01*
X119322744Y-100505514D02*
X119370363Y-100410276D01*
X119370363Y-100410276D02*
X119465601Y-100315038D01*
X119465601Y-100315038D02*
X119608458Y-100267419D01*
X119608458Y-100267419D02*
X119703696Y-100267419D01*
X119703696Y-100267419D02*
X119846553Y-100315038D01*
X119846553Y-100315038D02*
X119894172Y-100362657D01*
X120275125Y-101219800D02*
X120417982Y-101267419D01*
X120417982Y-101267419D02*
X120656077Y-101267419D01*
X120656077Y-101267419D02*
X120751315Y-101219800D01*
X120751315Y-101219800D02*
X120798934Y-101172180D01*
X120798934Y-101172180D02*
X120846553Y-101076942D01*
X120846553Y-101076942D02*
X120846553Y-100981704D01*
X120846553Y-100981704D02*
X120798934Y-100886466D01*
X120798934Y-100886466D02*
X120751315Y-100838847D01*
X120751315Y-100838847D02*
X120656077Y-100791228D01*
X120656077Y-100791228D02*
X120465601Y-100743609D01*
X120465601Y-100743609D02*
X120370363Y-100695990D01*
X120370363Y-100695990D02*
X120322744Y-100648371D01*
X120322744Y-100648371D02*
X120275125Y-100553133D01*
X120275125Y-100553133D02*
X120275125Y-100457895D01*
X120275125Y-100457895D02*
X120322744Y-100362657D01*
X120322744Y-100362657D02*
X120370363Y-100315038D01*
X120370363Y-100315038D02*
X120465601Y-100267419D01*
X120465601Y-100267419D02*
X120703696Y-100267419D01*
X120703696Y-100267419D02*
X120846553Y-100315038D01*
X121798934Y-101267419D02*
X121227506Y-101267419D01*
X121513220Y-101267419D02*
X121513220Y-100267419D01*
X121513220Y-100267419D02*
X121417982Y-100410276D01*
X121417982Y-100410276D02*
X121322744Y-100505514D01*
X121322744Y-100505514D02*
X121227506Y-100553133D01*
X175311465Y-87777657D02*
X175359084Y-87730038D01*
X175359084Y-87730038D02*
X175454322Y-87682419D01*
X175454322Y-87682419D02*
X175692417Y-87682419D01*
X175692417Y-87682419D02*
X175787655Y-87730038D01*
X175787655Y-87730038D02*
X175835274Y-87777657D01*
X175835274Y-87777657D02*
X175882893Y-87872895D01*
X175882893Y-87872895D02*
X175882893Y-87968133D01*
X175882893Y-87968133D02*
X175835274Y-88110990D01*
X175835274Y-88110990D02*
X175263846Y-88682419D01*
X175263846Y-88682419D02*
X175882893Y-88682419D01*
X176454322Y-88110990D02*
X176359084Y-88063371D01*
X176359084Y-88063371D02*
X176311465Y-88015752D01*
X176311465Y-88015752D02*
X176263846Y-87920514D01*
X176263846Y-87920514D02*
X176263846Y-87872895D01*
X176263846Y-87872895D02*
X176311465Y-87777657D01*
X176311465Y-87777657D02*
X176359084Y-87730038D01*
X176359084Y-87730038D02*
X176454322Y-87682419D01*
X176454322Y-87682419D02*
X176644798Y-87682419D01*
X176644798Y-87682419D02*
X176740036Y-87730038D01*
X176740036Y-87730038D02*
X176787655Y-87777657D01*
X176787655Y-87777657D02*
X176835274Y-87872895D01*
X176835274Y-87872895D02*
X176835274Y-87920514D01*
X176835274Y-87920514D02*
X176787655Y-88015752D01*
X176787655Y-88015752D02*
X176740036Y-88063371D01*
X176740036Y-88063371D02*
X176644798Y-88110990D01*
X176644798Y-88110990D02*
X176454322Y-88110990D01*
X176454322Y-88110990D02*
X176359084Y-88158609D01*
X176359084Y-88158609D02*
X176311465Y-88206228D01*
X176311465Y-88206228D02*
X176263846Y-88301466D01*
X176263846Y-88301466D02*
X176263846Y-88491942D01*
X176263846Y-88491942D02*
X176311465Y-88587180D01*
X176311465Y-88587180D02*
X176359084Y-88634800D01*
X176359084Y-88634800D02*
X176454322Y-88682419D01*
X176454322Y-88682419D02*
X176644798Y-88682419D01*
X176644798Y-88682419D02*
X176740036Y-88634800D01*
X176740036Y-88634800D02*
X176787655Y-88587180D01*
X176787655Y-88587180D02*
X176835274Y-88491942D01*
X176835274Y-88491942D02*
X176835274Y-88301466D01*
X176835274Y-88301466D02*
X176787655Y-88206228D01*
X176787655Y-88206228D02*
X176740036Y-88158609D01*
X176740036Y-88158609D02*
X176644798Y-88110990D01*
X177120989Y-87682419D02*
X177454322Y-88682419D01*
X177454322Y-88682419D02*
X177787655Y-87682419D01*
X184079010Y-102267419D02*
X184698057Y-102267419D01*
X184698057Y-102267419D02*
X184364724Y-102648371D01*
X184364724Y-102648371D02*
X184507581Y-102648371D01*
X184507581Y-102648371D02*
X184602819Y-102695990D01*
X184602819Y-102695990D02*
X184650438Y-102743609D01*
X184650438Y-102743609D02*
X184698057Y-102838847D01*
X184698057Y-102838847D02*
X184698057Y-103076942D01*
X184698057Y-103076942D02*
X184650438Y-103172180D01*
X184650438Y-103172180D02*
X184602819Y-103219800D01*
X184602819Y-103219800D02*
X184507581Y-103267419D01*
X184507581Y-103267419D02*
X184221867Y-103267419D01*
X184221867Y-103267419D02*
X184126629Y-103219800D01*
X184126629Y-103219800D02*
X184079010Y-103172180D01*
X185126629Y-103172180D02*
X185174248Y-103219800D01*
X185174248Y-103219800D02*
X185126629Y-103267419D01*
X185126629Y-103267419D02*
X185079010Y-103219800D01*
X185079010Y-103219800D02*
X185126629Y-103172180D01*
X185126629Y-103172180D02*
X185126629Y-103267419D01*
X185507581Y-102267419D02*
X186126628Y-102267419D01*
X186126628Y-102267419D02*
X185793295Y-102648371D01*
X185793295Y-102648371D02*
X185936152Y-102648371D01*
X185936152Y-102648371D02*
X186031390Y-102695990D01*
X186031390Y-102695990D02*
X186079009Y-102743609D01*
X186079009Y-102743609D02*
X186126628Y-102838847D01*
X186126628Y-102838847D02*
X186126628Y-103076942D01*
X186126628Y-103076942D02*
X186079009Y-103172180D01*
X186079009Y-103172180D02*
X186031390Y-103219800D01*
X186031390Y-103219800D02*
X185936152Y-103267419D01*
X185936152Y-103267419D02*
X185650438Y-103267419D01*
X185650438Y-103267419D02*
X185555200Y-103219800D01*
X185555200Y-103219800D02*
X185507581Y-103172180D01*
X186412343Y-102267419D02*
X186745676Y-103267419D01*
X186745676Y-103267419D02*
X187079009Y-102267419D01*
X118644173Y-97767419D02*
X119263220Y-97767419D01*
X119263220Y-97767419D02*
X118929887Y-98148371D01*
X118929887Y-98148371D02*
X119072744Y-98148371D01*
X119072744Y-98148371D02*
X119167982Y-98195990D01*
X119167982Y-98195990D02*
X119215601Y-98243609D01*
X119215601Y-98243609D02*
X119263220Y-98338847D01*
X119263220Y-98338847D02*
X119263220Y-98576942D01*
X119263220Y-98576942D02*
X119215601Y-98672180D01*
X119215601Y-98672180D02*
X119167982Y-98719800D01*
X119167982Y-98719800D02*
X119072744Y-98767419D01*
X119072744Y-98767419D02*
X118787030Y-98767419D01*
X118787030Y-98767419D02*
X118691792Y-98719800D01*
X118691792Y-98719800D02*
X118644173Y-98672180D01*
X119691792Y-98672180D02*
X119739411Y-98719800D01*
X119739411Y-98719800D02*
X119691792Y-98767419D01*
X119691792Y-98767419D02*
X119644173Y-98719800D01*
X119644173Y-98719800D02*
X119691792Y-98672180D01*
X119691792Y-98672180D02*
X119691792Y-98767419D01*
X120072744Y-97767419D02*
X120691791Y-97767419D01*
X120691791Y-97767419D02*
X120358458Y-98148371D01*
X120358458Y-98148371D02*
X120501315Y-98148371D01*
X120501315Y-98148371D02*
X120596553Y-98195990D01*
X120596553Y-98195990D02*
X120644172Y-98243609D01*
X120644172Y-98243609D02*
X120691791Y-98338847D01*
X120691791Y-98338847D02*
X120691791Y-98576942D01*
X120691791Y-98576942D02*
X120644172Y-98672180D01*
X120644172Y-98672180D02*
X120596553Y-98719800D01*
X120596553Y-98719800D02*
X120501315Y-98767419D01*
X120501315Y-98767419D02*
X120215601Y-98767419D01*
X120215601Y-98767419D02*
X120120363Y-98719800D01*
X120120363Y-98719800D02*
X120072744Y-98672180D01*
X120977506Y-97767419D02*
X121310839Y-98767419D01*
X121310839Y-98767419D02*
X121644172Y-97767419D01*
X117397982Y-105267419D02*
X117969410Y-105267419D01*
X117683696Y-106267419D02*
X117683696Y-105267419D01*
X118302744Y-106267419D02*
X118302744Y-105267419D01*
X118302744Y-105267419D02*
X118683696Y-105267419D01*
X118683696Y-105267419D02*
X118778934Y-105315038D01*
X118778934Y-105315038D02*
X118826553Y-105362657D01*
X118826553Y-105362657D02*
X118874172Y-105457895D01*
X118874172Y-105457895D02*
X118874172Y-105600752D01*
X118874172Y-105600752D02*
X118826553Y-105695990D01*
X118826553Y-105695990D02*
X118778934Y-105743609D01*
X118778934Y-105743609D02*
X118683696Y-105791228D01*
X118683696Y-105791228D02*
X118302744Y-105791228D01*
X119874172Y-106172180D02*
X119826553Y-106219800D01*
X119826553Y-106219800D02*
X119683696Y-106267419D01*
X119683696Y-106267419D02*
X119588458Y-106267419D01*
X119588458Y-106267419D02*
X119445601Y-106219800D01*
X119445601Y-106219800D02*
X119350363Y-106124561D01*
X119350363Y-106124561D02*
X119302744Y-106029323D01*
X119302744Y-106029323D02*
X119255125Y-105838847D01*
X119255125Y-105838847D02*
X119255125Y-105695990D01*
X119255125Y-105695990D02*
X119302744Y-105505514D01*
X119302744Y-105505514D02*
X119350363Y-105410276D01*
X119350363Y-105410276D02*
X119445601Y-105315038D01*
X119445601Y-105315038D02*
X119588458Y-105267419D01*
X119588458Y-105267419D02*
X119683696Y-105267419D01*
X119683696Y-105267419D02*
X119826553Y-105315038D01*
X119826553Y-105315038D02*
X119874172Y-105362657D01*
X120255125Y-106219800D02*
X120397982Y-106267419D01*
X120397982Y-106267419D02*
X120636077Y-106267419D01*
X120636077Y-106267419D02*
X120731315Y-106219800D01*
X120731315Y-106219800D02*
X120778934Y-106172180D01*
X120778934Y-106172180D02*
X120826553Y-106076942D01*
X120826553Y-106076942D02*
X120826553Y-105981704D01*
X120826553Y-105981704D02*
X120778934Y-105886466D01*
X120778934Y-105886466D02*
X120731315Y-105838847D01*
X120731315Y-105838847D02*
X120636077Y-105791228D01*
X120636077Y-105791228D02*
X120445601Y-105743609D01*
X120445601Y-105743609D02*
X120350363Y-105695990D01*
X120350363Y-105695990D02*
X120302744Y-105648371D01*
X120302744Y-105648371D02*
X120255125Y-105553133D01*
X120255125Y-105553133D02*
X120255125Y-105457895D01*
X120255125Y-105457895D02*
X120302744Y-105362657D01*
X120302744Y-105362657D02*
X120350363Y-105315038D01*
X120350363Y-105315038D02*
X120445601Y-105267419D01*
X120445601Y-105267419D02*
X120683696Y-105267419D01*
X120683696Y-105267419D02*
X120826553Y-105315038D01*
X121159887Y-105267419D02*
X121778934Y-105267419D01*
X121778934Y-105267419D02*
X121445601Y-105648371D01*
X121445601Y-105648371D02*
X121588458Y-105648371D01*
X121588458Y-105648371D02*
X121683696Y-105695990D01*
X121683696Y-105695990D02*
X121731315Y-105743609D01*
X121731315Y-105743609D02*
X121778934Y-105838847D01*
X121778934Y-105838847D02*
X121778934Y-106076942D01*
X121778934Y-106076942D02*
X121731315Y-106172180D01*
X121731315Y-106172180D02*
X121683696Y-106219800D01*
X121683696Y-106219800D02*
X121588458Y-106267419D01*
X121588458Y-106267419D02*
X121302744Y-106267419D01*
X121302744Y-106267419D02*
X121207506Y-106219800D01*
X121207506Y-106219800D02*
X121159887Y-106172180D01*
X127431465Y-103642800D02*
X127574322Y-103690419D01*
X127574322Y-103690419D02*
X127812417Y-103690419D01*
X127812417Y-103690419D02*
X127907655Y-103642800D01*
X127907655Y-103642800D02*
X127955274Y-103595180D01*
X127955274Y-103595180D02*
X128002893Y-103499942D01*
X128002893Y-103499942D02*
X128002893Y-103404704D01*
X128002893Y-103404704D02*
X127955274Y-103309466D01*
X127955274Y-103309466D02*
X127907655Y-103261847D01*
X127907655Y-103261847D02*
X127812417Y-103214228D01*
X127812417Y-103214228D02*
X127621941Y-103166609D01*
X127621941Y-103166609D02*
X127526703Y-103118990D01*
X127526703Y-103118990D02*
X127479084Y-103071371D01*
X127479084Y-103071371D02*
X127431465Y-102976133D01*
X127431465Y-102976133D02*
X127431465Y-102880895D01*
X127431465Y-102880895D02*
X127479084Y-102785657D01*
X127479084Y-102785657D02*
X127526703Y-102738038D01*
X127526703Y-102738038D02*
X127621941Y-102690419D01*
X127621941Y-102690419D02*
X127860036Y-102690419D01*
X127860036Y-102690419D02*
X128002893Y-102738038D01*
X129002893Y-103595180D02*
X128955274Y-103642800D01*
X128955274Y-103642800D02*
X128812417Y-103690419D01*
X128812417Y-103690419D02*
X128717179Y-103690419D01*
X128717179Y-103690419D02*
X128574322Y-103642800D01*
X128574322Y-103642800D02*
X128479084Y-103547561D01*
X128479084Y-103547561D02*
X128431465Y-103452323D01*
X128431465Y-103452323D02*
X128383846Y-103261847D01*
X128383846Y-103261847D02*
X128383846Y-103118990D01*
X128383846Y-103118990D02*
X128431465Y-102928514D01*
X128431465Y-102928514D02*
X128479084Y-102833276D01*
X128479084Y-102833276D02*
X128574322Y-102738038D01*
X128574322Y-102738038D02*
X128717179Y-102690419D01*
X128717179Y-102690419D02*
X128812417Y-102690419D01*
X128812417Y-102690419D02*
X128955274Y-102738038D01*
X128955274Y-102738038D02*
X129002893Y-102785657D01*
X129907655Y-103690419D02*
X129431465Y-103690419D01*
X129431465Y-103690419D02*
X129431465Y-102690419D01*
X130240989Y-103690419D02*
X130240989Y-102690419D01*
X130812417Y-103690419D02*
X130383846Y-103118990D01*
X130812417Y-102690419D02*
X130240989Y-103261847D01*
X175198057Y-104481704D02*
X175674247Y-104481704D01*
X175102819Y-104767419D02*
X175436152Y-103767419D01*
X175436152Y-103767419D02*
X175769485Y-104767419D01*
X176102819Y-104386466D02*
X176864724Y-104386466D01*
X176483771Y-104767419D02*
X176483771Y-104005514D01*
X127955274Y-97682419D02*
X127479084Y-97682419D01*
X127479084Y-97682419D02*
X127431465Y-98158609D01*
X127431465Y-98158609D02*
X127479084Y-98110990D01*
X127479084Y-98110990D02*
X127574322Y-98063371D01*
X127574322Y-98063371D02*
X127812417Y-98063371D01*
X127812417Y-98063371D02*
X127907655Y-98110990D01*
X127907655Y-98110990D02*
X127955274Y-98158609D01*
X127955274Y-98158609D02*
X128002893Y-98253847D01*
X128002893Y-98253847D02*
X128002893Y-98491942D01*
X128002893Y-98491942D02*
X127955274Y-98587180D01*
X127955274Y-98587180D02*
X127907655Y-98634800D01*
X127907655Y-98634800D02*
X127812417Y-98682419D01*
X127812417Y-98682419D02*
X127574322Y-98682419D01*
X127574322Y-98682419D02*
X127479084Y-98634800D01*
X127479084Y-98634800D02*
X127431465Y-98587180D01*
X128288608Y-97682419D02*
X128621941Y-98682419D01*
X128621941Y-98682419D02*
X128955274Y-97682419D01*
X184793295Y-92315038D02*
X184698057Y-92267419D01*
X184698057Y-92267419D02*
X184555200Y-92267419D01*
X184555200Y-92267419D02*
X184412343Y-92315038D01*
X184412343Y-92315038D02*
X184317105Y-92410276D01*
X184317105Y-92410276D02*
X184269486Y-92505514D01*
X184269486Y-92505514D02*
X184221867Y-92695990D01*
X184221867Y-92695990D02*
X184221867Y-92838847D01*
X184221867Y-92838847D02*
X184269486Y-93029323D01*
X184269486Y-93029323D02*
X184317105Y-93124561D01*
X184317105Y-93124561D02*
X184412343Y-93219800D01*
X184412343Y-93219800D02*
X184555200Y-93267419D01*
X184555200Y-93267419D02*
X184650438Y-93267419D01*
X184650438Y-93267419D02*
X184793295Y-93219800D01*
X184793295Y-93219800D02*
X184840914Y-93172180D01*
X184840914Y-93172180D02*
X184840914Y-92838847D01*
X184840914Y-92838847D02*
X184650438Y-92838847D01*
X185269486Y-93267419D02*
X185269486Y-92267419D01*
X185269486Y-92267419D02*
X185840914Y-93267419D01*
X185840914Y-93267419D02*
X185840914Y-92267419D01*
X186317105Y-93267419D02*
X186317105Y-92267419D01*
X186317105Y-92267419D02*
X186555200Y-92267419D01*
X186555200Y-92267419D02*
X186698057Y-92315038D01*
X186698057Y-92315038D02*
X186793295Y-92410276D01*
X186793295Y-92410276D02*
X186840914Y-92505514D01*
X186840914Y-92505514D02*
X186888533Y-92695990D01*
X186888533Y-92695990D02*
X186888533Y-92838847D01*
X186888533Y-92838847D02*
X186840914Y-93029323D01*
X186840914Y-93029323D02*
X186793295Y-93124561D01*
X186793295Y-93124561D02*
X186698057Y-93219800D01*
X186698057Y-93219800D02*
X186555200Y-93267419D01*
X186555200Y-93267419D02*
X186317105Y-93267419D01*
X184733676Y-98267419D02*
X184400343Y-97791228D01*
X184162248Y-98267419D02*
X184162248Y-97267419D01*
X184162248Y-97267419D02*
X184543200Y-97267419D01*
X184543200Y-97267419D02*
X184638438Y-97315038D01*
X184638438Y-97315038D02*
X184686057Y-97362657D01*
X184686057Y-97362657D02*
X184733676Y-97457895D01*
X184733676Y-97457895D02*
X184733676Y-97600752D01*
X184733676Y-97600752D02*
X184686057Y-97695990D01*
X184686057Y-97695990D02*
X184638438Y-97743609D01*
X184638438Y-97743609D02*
X184543200Y-97791228D01*
X184543200Y-97791228D02*
X184162248Y-97791228D01*
X185067010Y-97267419D02*
X185733676Y-98267419D01*
X185733676Y-97267419D02*
X185067010Y-98267419D01*
X185876534Y-98362657D02*
X186638438Y-98362657D01*
X186876534Y-98267419D02*
X186876534Y-97267419D01*
X187352724Y-98267419D02*
X187352724Y-97267419D01*
X187352724Y-97267419D02*
X187924152Y-98267419D01*
X187924152Y-98267419D02*
X187924152Y-97267419D01*
X119556696Y-108065038D02*
X119461458Y-108017419D01*
X119461458Y-108017419D02*
X119318601Y-108017419D01*
X119318601Y-108017419D02*
X119175744Y-108065038D01*
X119175744Y-108065038D02*
X119080506Y-108160276D01*
X119080506Y-108160276D02*
X119032887Y-108255514D01*
X119032887Y-108255514D02*
X118985268Y-108445990D01*
X118985268Y-108445990D02*
X118985268Y-108588847D01*
X118985268Y-108588847D02*
X119032887Y-108779323D01*
X119032887Y-108779323D02*
X119080506Y-108874561D01*
X119080506Y-108874561D02*
X119175744Y-108969800D01*
X119175744Y-108969800D02*
X119318601Y-109017419D01*
X119318601Y-109017419D02*
X119413839Y-109017419D01*
X119413839Y-109017419D02*
X119556696Y-108969800D01*
X119556696Y-108969800D02*
X119604315Y-108922180D01*
X119604315Y-108922180D02*
X119604315Y-108588847D01*
X119604315Y-108588847D02*
X119413839Y-108588847D01*
X120032887Y-109017419D02*
X120032887Y-108017419D01*
X120032887Y-108017419D02*
X120604315Y-109017419D01*
X120604315Y-109017419D02*
X120604315Y-108017419D01*
X121080506Y-109017419D02*
X121080506Y-108017419D01*
X121080506Y-108017419D02*
X121318601Y-108017419D01*
X121318601Y-108017419D02*
X121461458Y-108065038D01*
X121461458Y-108065038D02*
X121556696Y-108160276D01*
X121556696Y-108160276D02*
X121604315Y-108255514D01*
X121604315Y-108255514D02*
X121651934Y-108445990D01*
X121651934Y-108445990D02*
X121651934Y-108588847D01*
X121651934Y-108588847D02*
X121604315Y-108779323D01*
X121604315Y-108779323D02*
X121556696Y-108874561D01*
X121556696Y-108874561D02*
X121461458Y-108969800D01*
X121461458Y-108969800D02*
X121318601Y-109017419D01*
X121318601Y-109017419D02*
X121080506Y-109017419D01*
X117337982Y-102767419D02*
X117909410Y-102767419D01*
X117623696Y-103767419D02*
X117623696Y-102767419D01*
X118242744Y-103767419D02*
X118242744Y-102767419D01*
X118242744Y-102767419D02*
X118623696Y-102767419D01*
X118623696Y-102767419D02*
X118718934Y-102815038D01*
X118718934Y-102815038D02*
X118766553Y-102862657D01*
X118766553Y-102862657D02*
X118814172Y-102957895D01*
X118814172Y-102957895D02*
X118814172Y-103100752D01*
X118814172Y-103100752D02*
X118766553Y-103195990D01*
X118766553Y-103195990D02*
X118718934Y-103243609D01*
X118718934Y-103243609D02*
X118623696Y-103291228D01*
X118623696Y-103291228D02*
X118242744Y-103291228D01*
X119814172Y-103672180D02*
X119766553Y-103719800D01*
X119766553Y-103719800D02*
X119623696Y-103767419D01*
X119623696Y-103767419D02*
X119528458Y-103767419D01*
X119528458Y-103767419D02*
X119385601Y-103719800D01*
X119385601Y-103719800D02*
X119290363Y-103624561D01*
X119290363Y-103624561D02*
X119242744Y-103529323D01*
X119242744Y-103529323D02*
X119195125Y-103338847D01*
X119195125Y-103338847D02*
X119195125Y-103195990D01*
X119195125Y-103195990D02*
X119242744Y-103005514D01*
X119242744Y-103005514D02*
X119290363Y-102910276D01*
X119290363Y-102910276D02*
X119385601Y-102815038D01*
X119385601Y-102815038D02*
X119528458Y-102767419D01*
X119528458Y-102767419D02*
X119623696Y-102767419D01*
X119623696Y-102767419D02*
X119766553Y-102815038D01*
X119766553Y-102815038D02*
X119814172Y-102862657D01*
X120195125Y-103719800D02*
X120337982Y-103767419D01*
X120337982Y-103767419D02*
X120576077Y-103767419D01*
X120576077Y-103767419D02*
X120671315Y-103719800D01*
X120671315Y-103719800D02*
X120718934Y-103672180D01*
X120718934Y-103672180D02*
X120766553Y-103576942D01*
X120766553Y-103576942D02*
X120766553Y-103481704D01*
X120766553Y-103481704D02*
X120718934Y-103386466D01*
X120718934Y-103386466D02*
X120671315Y-103338847D01*
X120671315Y-103338847D02*
X120576077Y-103291228D01*
X120576077Y-103291228D02*
X120385601Y-103243609D01*
X120385601Y-103243609D02*
X120290363Y-103195990D01*
X120290363Y-103195990D02*
X120242744Y-103148371D01*
X120242744Y-103148371D02*
X120195125Y-103053133D01*
X120195125Y-103053133D02*
X120195125Y-102957895D01*
X120195125Y-102957895D02*
X120242744Y-102862657D01*
X120242744Y-102862657D02*
X120290363Y-102815038D01*
X120290363Y-102815038D02*
X120385601Y-102767419D01*
X120385601Y-102767419D02*
X120623696Y-102767419D01*
X120623696Y-102767419D02*
X120766553Y-102815038D01*
X121147506Y-102862657D02*
X121195125Y-102815038D01*
X121195125Y-102815038D02*
X121290363Y-102767419D01*
X121290363Y-102767419D02*
X121528458Y-102767419D01*
X121528458Y-102767419D02*
X121623696Y-102815038D01*
X121623696Y-102815038D02*
X121671315Y-102862657D01*
X121671315Y-102862657D02*
X121718934Y-102957895D01*
X121718934Y-102957895D02*
X121718934Y-103053133D01*
X121718934Y-103053133D02*
X121671315Y-103195990D01*
X121671315Y-103195990D02*
X121099887Y-103767419D01*
X121099887Y-103767419D02*
X121718934Y-103767419D01*
D11*
X128893295Y-79294819D02*
X128893295Y-78294819D01*
X128893295Y-78771009D02*
X129464723Y-78771009D01*
X129464723Y-79294819D02*
X129464723Y-78294819D01*
X130464723Y-79294819D02*
X129893295Y-79294819D01*
X130179009Y-79294819D02*
X130179009Y-78294819D01*
X130179009Y-78294819D02*
X130083771Y-78437676D01*
X130083771Y-78437676D02*
X129988533Y-78532914D01*
X129988533Y-78532914D02*
X129893295Y-78580533D01*
X184638533Y-109169580D02*
X184590914Y-109217200D01*
X184590914Y-109217200D02*
X184448057Y-109264819D01*
X184448057Y-109264819D02*
X184352819Y-109264819D01*
X184352819Y-109264819D02*
X184209962Y-109217200D01*
X184209962Y-109217200D02*
X184114724Y-109121961D01*
X184114724Y-109121961D02*
X184067105Y-109026723D01*
X184067105Y-109026723D02*
X184019486Y-108836247D01*
X184019486Y-108836247D02*
X184019486Y-108693390D01*
X184019486Y-108693390D02*
X184067105Y-108502914D01*
X184067105Y-108502914D02*
X184114724Y-108407676D01*
X184114724Y-108407676D02*
X184209962Y-108312438D01*
X184209962Y-108312438D02*
X184352819Y-108264819D01*
X184352819Y-108264819D02*
X184448057Y-108264819D01*
X184448057Y-108264819D02*
X184590914Y-108312438D01*
X184590914Y-108312438D02*
X184638533Y-108360057D01*
X185590914Y-109264819D02*
X185019486Y-109264819D01*
X185305200Y-109264819D02*
X185305200Y-108264819D01*
X185305200Y-108264819D02*
X185209962Y-108407676D01*
X185209962Y-108407676D02*
X185114724Y-108502914D01*
X185114724Y-108502914D02*
X185019486Y-108550533D01*
X166993295Y-70756819D02*
X166993295Y-71566342D01*
X166993295Y-71566342D02*
X167040914Y-71661580D01*
X167040914Y-71661580D02*
X167088533Y-71709200D01*
X167088533Y-71709200D02*
X167183771Y-71756819D01*
X167183771Y-71756819D02*
X167374247Y-71756819D01*
X167374247Y-71756819D02*
X167469485Y-71709200D01*
X167469485Y-71709200D02*
X167517104Y-71661580D01*
X167517104Y-71661580D02*
X167564723Y-71566342D01*
X167564723Y-71566342D02*
X167564723Y-70756819D01*
X168564723Y-71756819D02*
X167993295Y-71756819D01*
X168279009Y-71756819D02*
X168279009Y-70756819D01*
X168279009Y-70756819D02*
X168183771Y-70899676D01*
X168183771Y-70899676D02*
X168088533Y-70994914D01*
X168088533Y-70994914D02*
X167993295Y-71042533D01*
X169943295Y-109046819D02*
X169943295Y-109856342D01*
X169943295Y-109856342D02*
X169990914Y-109951580D01*
X169990914Y-109951580D02*
X170038533Y-109999200D01*
X170038533Y-109999200D02*
X170133771Y-110046819D01*
X170133771Y-110046819D02*
X170324247Y-110046819D01*
X170324247Y-110046819D02*
X170419485Y-109999200D01*
X170419485Y-109999200D02*
X170467104Y-109951580D01*
X170467104Y-109951580D02*
X170514723Y-109856342D01*
X170514723Y-109856342D02*
X170514723Y-109046819D01*
X170943295Y-109142057D02*
X170990914Y-109094438D01*
X170990914Y-109094438D02*
X171086152Y-109046819D01*
X171086152Y-109046819D02*
X171324247Y-109046819D01*
X171324247Y-109046819D02*
X171419485Y-109094438D01*
X171419485Y-109094438D02*
X171467104Y-109142057D01*
X171467104Y-109142057D02*
X171514723Y-109237295D01*
X171514723Y-109237295D02*
X171514723Y-109332533D01*
X171514723Y-109332533D02*
X171467104Y-109475390D01*
X171467104Y-109475390D02*
X170895676Y-110046819D01*
X170895676Y-110046819D02*
X171514723Y-110046819D01*
X187006019Y-119288094D02*
X186006019Y-119288094D01*
X186006019Y-119288094D02*
X186006019Y-119049999D01*
X186006019Y-119049999D02*
X186053638Y-118907142D01*
X186053638Y-118907142D02*
X186148876Y-118811904D01*
X186148876Y-118811904D02*
X186244114Y-118764285D01*
X186244114Y-118764285D02*
X186434590Y-118716666D01*
X186434590Y-118716666D02*
X186577447Y-118716666D01*
X186577447Y-118716666D02*
X186767923Y-118764285D01*
X186767923Y-118764285D02*
X186863161Y-118811904D01*
X186863161Y-118811904D02*
X186958400Y-118907142D01*
X186958400Y-118907142D02*
X187006019Y-119049999D01*
X187006019Y-119049999D02*
X187006019Y-119288094D01*
X187006019Y-117764285D02*
X187006019Y-118335713D01*
X187006019Y-118049999D02*
X186006019Y-118049999D01*
X186006019Y-118049999D02*
X186148876Y-118145237D01*
X186148876Y-118145237D02*
X186244114Y-118240475D01*
X186244114Y-118240475D02*
X186291733Y-118335713D01*
X187006019Y-122875904D02*
X186006019Y-122875904D01*
X187006019Y-122304476D02*
X186434590Y-122733047D01*
X186006019Y-122304476D02*
X186577447Y-122875904D01*
X171311295Y-126284819D02*
X171311295Y-125284819D01*
X171311295Y-125761009D02*
X171882723Y-125761009D01*
X171882723Y-126284819D02*
X171882723Y-125284819D01*
X172263676Y-125284819D02*
X172882723Y-125284819D01*
X172882723Y-125284819D02*
X172549390Y-125665771D01*
X172549390Y-125665771D02*
X172692247Y-125665771D01*
X172692247Y-125665771D02*
X172787485Y-125713390D01*
X172787485Y-125713390D02*
X172835104Y-125761009D01*
X172835104Y-125761009D02*
X172882723Y-125856247D01*
X172882723Y-125856247D02*
X172882723Y-126094342D01*
X172882723Y-126094342D02*
X172835104Y-126189580D01*
X172835104Y-126189580D02*
X172787485Y-126237200D01*
X172787485Y-126237200D02*
X172692247Y-126284819D01*
X172692247Y-126284819D02*
X172406533Y-126284819D01*
X172406533Y-126284819D02*
X172311295Y-126237200D01*
X172311295Y-126237200D02*
X172263676Y-126189580D01*
X128893295Y-118664819D02*
X128893295Y-117664819D01*
X128893295Y-118141009D02*
X129464723Y-118141009D01*
X129464723Y-118664819D02*
X129464723Y-117664819D01*
X130369485Y-117998152D02*
X130369485Y-118664819D01*
X130131390Y-117617200D02*
X129893295Y-118331485D01*
X129893295Y-118331485D02*
X130512342Y-118331485D01*
X166010019Y-105538666D02*
X165533828Y-105871999D01*
X166010019Y-106110094D02*
X165010019Y-106110094D01*
X165010019Y-106110094D02*
X165010019Y-105729142D01*
X165010019Y-105729142D02*
X165057638Y-105633904D01*
X165057638Y-105633904D02*
X165105257Y-105586285D01*
X165105257Y-105586285D02*
X165200495Y-105538666D01*
X165200495Y-105538666D02*
X165343352Y-105538666D01*
X165343352Y-105538666D02*
X165438590Y-105586285D01*
X165438590Y-105586285D02*
X165486209Y-105633904D01*
X165486209Y-105633904D02*
X165533828Y-105729142D01*
X165533828Y-105729142D02*
X165533828Y-106110094D01*
X165438590Y-104967237D02*
X165390971Y-105062475D01*
X165390971Y-105062475D02*
X165343352Y-105110094D01*
X165343352Y-105110094D02*
X165248114Y-105157713D01*
X165248114Y-105157713D02*
X165200495Y-105157713D01*
X165200495Y-105157713D02*
X165105257Y-105110094D01*
X165105257Y-105110094D02*
X165057638Y-105062475D01*
X165057638Y-105062475D02*
X165010019Y-104967237D01*
X165010019Y-104967237D02*
X165010019Y-104776761D01*
X165010019Y-104776761D02*
X165057638Y-104681523D01*
X165057638Y-104681523D02*
X165105257Y-104633904D01*
X165105257Y-104633904D02*
X165200495Y-104586285D01*
X165200495Y-104586285D02*
X165248114Y-104586285D01*
X165248114Y-104586285D02*
X165343352Y-104633904D01*
X165343352Y-104633904D02*
X165390971Y-104681523D01*
X165390971Y-104681523D02*
X165438590Y-104776761D01*
X165438590Y-104776761D02*
X165438590Y-104967237D01*
X165438590Y-104967237D02*
X165486209Y-105062475D01*
X165486209Y-105062475D02*
X165533828Y-105110094D01*
X165533828Y-105110094D02*
X165629066Y-105157713D01*
X165629066Y-105157713D02*
X165819542Y-105157713D01*
X165819542Y-105157713D02*
X165914780Y-105110094D01*
X165914780Y-105110094D02*
X165962400Y-105062475D01*
X165962400Y-105062475D02*
X166010019Y-104967237D01*
X166010019Y-104967237D02*
X166010019Y-104776761D01*
X166010019Y-104776761D02*
X165962400Y-104681523D01*
X165962400Y-104681523D02*
X165914780Y-104633904D01*
X165914780Y-104633904D02*
X165819542Y-104586285D01*
X165819542Y-104586285D02*
X165629066Y-104586285D01*
X165629066Y-104586285D02*
X165533828Y-104633904D01*
X165533828Y-104633904D02*
X165486209Y-104681523D01*
X165486209Y-104681523D02*
X165438590Y-104776761D01*
X169894533Y-126484819D02*
X169561200Y-126008628D01*
X169323105Y-126484819D02*
X169323105Y-125484819D01*
X169323105Y-125484819D02*
X169704057Y-125484819D01*
X169704057Y-125484819D02*
X169799295Y-125532438D01*
X169799295Y-125532438D02*
X169846914Y-125580057D01*
X169846914Y-125580057D02*
X169894533Y-125675295D01*
X169894533Y-125675295D02*
X169894533Y-125818152D01*
X169894533Y-125818152D02*
X169846914Y-125913390D01*
X169846914Y-125913390D02*
X169799295Y-125961009D01*
X169799295Y-125961009D02*
X169704057Y-126008628D01*
X169704057Y-126008628D02*
X169323105Y-126008628D01*
X170370724Y-126484819D02*
X170561200Y-126484819D01*
X170561200Y-126484819D02*
X170656438Y-126437200D01*
X170656438Y-126437200D02*
X170704057Y-126389580D01*
X170704057Y-126389580D02*
X170799295Y-126246723D01*
X170799295Y-126246723D02*
X170846914Y-126056247D01*
X170846914Y-126056247D02*
X170846914Y-125675295D01*
X170846914Y-125675295D02*
X170799295Y-125580057D01*
X170799295Y-125580057D02*
X170751676Y-125532438D01*
X170751676Y-125532438D02*
X170656438Y-125484819D01*
X170656438Y-125484819D02*
X170465962Y-125484819D01*
X170465962Y-125484819D02*
X170370724Y-125532438D01*
X170370724Y-125532438D02*
X170323105Y-125580057D01*
X170323105Y-125580057D02*
X170275486Y-125675295D01*
X170275486Y-125675295D02*
X170275486Y-125913390D01*
X170275486Y-125913390D02*
X170323105Y-126008628D01*
X170323105Y-126008628D02*
X170370724Y-126056247D01*
X170370724Y-126056247D02*
X170465962Y-126103866D01*
X170465962Y-126103866D02*
X170656438Y-126103866D01*
X170656438Y-126103866D02*
X170751676Y-126056247D01*
X170751676Y-126056247D02*
X170799295Y-126008628D01*
X170799295Y-126008628D02*
X170846914Y-125913390D01*
X182942019Y-111668094D02*
X181942019Y-111668094D01*
X181942019Y-111668094D02*
X181942019Y-111429999D01*
X181942019Y-111429999D02*
X181989638Y-111287142D01*
X181989638Y-111287142D02*
X182084876Y-111191904D01*
X182084876Y-111191904D02*
X182180114Y-111144285D01*
X182180114Y-111144285D02*
X182370590Y-111096666D01*
X182370590Y-111096666D02*
X182513447Y-111096666D01*
X182513447Y-111096666D02*
X182703923Y-111144285D01*
X182703923Y-111144285D02*
X182799161Y-111191904D01*
X182799161Y-111191904D02*
X182894400Y-111287142D01*
X182894400Y-111287142D02*
X182942019Y-111429999D01*
X182942019Y-111429999D02*
X182942019Y-111668094D01*
X182037257Y-110715713D02*
X181989638Y-110668094D01*
X181989638Y-110668094D02*
X181942019Y-110572856D01*
X181942019Y-110572856D02*
X181942019Y-110334761D01*
X181942019Y-110334761D02*
X181989638Y-110239523D01*
X181989638Y-110239523D02*
X182037257Y-110191904D01*
X182037257Y-110191904D02*
X182132495Y-110144285D01*
X182132495Y-110144285D02*
X182227733Y-110144285D01*
X182227733Y-110144285D02*
X182370590Y-110191904D01*
X182370590Y-110191904D02*
X182942019Y-110763332D01*
X182942019Y-110763332D02*
X182942019Y-110144285D01*
X182942019Y-109697904D02*
X181942019Y-109697904D01*
X182942019Y-109126476D02*
X182370590Y-109555047D01*
X181942019Y-109126476D02*
X182513447Y-109697904D01*
X124241866Y-94914819D02*
X124241866Y-95629104D01*
X124241866Y-95629104D02*
X124194247Y-95771961D01*
X124194247Y-95771961D02*
X124099009Y-95867200D01*
X124099009Y-95867200D02*
X123956152Y-95914819D01*
X123956152Y-95914819D02*
X123860914Y-95914819D01*
X125241866Y-95914819D02*
X124670438Y-95914819D01*
X124956152Y-95914819D02*
X124956152Y-94914819D01*
X124956152Y-94914819D02*
X124860914Y-95057676D01*
X124860914Y-95057676D02*
X124765676Y-95152914D01*
X124765676Y-95152914D02*
X124670438Y-95200533D01*
X134596780Y-90776666D02*
X134644400Y-90824285D01*
X134644400Y-90824285D02*
X134692019Y-90967142D01*
X134692019Y-90967142D02*
X134692019Y-91062380D01*
X134692019Y-91062380D02*
X134644400Y-91205237D01*
X134644400Y-91205237D02*
X134549161Y-91300475D01*
X134549161Y-91300475D02*
X134453923Y-91348094D01*
X134453923Y-91348094D02*
X134263447Y-91395713D01*
X134263447Y-91395713D02*
X134120590Y-91395713D01*
X134120590Y-91395713D02*
X133930114Y-91348094D01*
X133930114Y-91348094D02*
X133834876Y-91300475D01*
X133834876Y-91300475D02*
X133739638Y-91205237D01*
X133739638Y-91205237D02*
X133692019Y-91062380D01*
X133692019Y-91062380D02*
X133692019Y-90967142D01*
X133692019Y-90967142D02*
X133739638Y-90824285D01*
X133739638Y-90824285D02*
X133787257Y-90776666D01*
X133787257Y-90395713D02*
X133739638Y-90348094D01*
X133739638Y-90348094D02*
X133692019Y-90252856D01*
X133692019Y-90252856D02*
X133692019Y-90014761D01*
X133692019Y-90014761D02*
X133739638Y-89919523D01*
X133739638Y-89919523D02*
X133787257Y-89871904D01*
X133787257Y-89871904D02*
X133882495Y-89824285D01*
X133882495Y-89824285D02*
X133977733Y-89824285D01*
X133977733Y-89824285D02*
X134120590Y-89871904D01*
X134120590Y-89871904D02*
X134692019Y-90443332D01*
X134692019Y-90443332D02*
X134692019Y-89824285D01*
X179780533Y-128033580D02*
X179732914Y-128081200D01*
X179732914Y-128081200D02*
X179590057Y-128128819D01*
X179590057Y-128128819D02*
X179494819Y-128128819D01*
X179494819Y-128128819D02*
X179351962Y-128081200D01*
X179351962Y-128081200D02*
X179256724Y-127985961D01*
X179256724Y-127985961D02*
X179209105Y-127890723D01*
X179209105Y-127890723D02*
X179161486Y-127700247D01*
X179161486Y-127700247D02*
X179161486Y-127557390D01*
X179161486Y-127557390D02*
X179209105Y-127366914D01*
X179209105Y-127366914D02*
X179256724Y-127271676D01*
X179256724Y-127271676D02*
X179351962Y-127176438D01*
X179351962Y-127176438D02*
X179494819Y-127128819D01*
X179494819Y-127128819D02*
X179590057Y-127128819D01*
X179590057Y-127128819D02*
X179732914Y-127176438D01*
X179732914Y-127176438D02*
X179780533Y-127224057D01*
X180113867Y-127128819D02*
X180732914Y-127128819D01*
X180732914Y-127128819D02*
X180399581Y-127509771D01*
X180399581Y-127509771D02*
X180542438Y-127509771D01*
X180542438Y-127509771D02*
X180637676Y-127557390D01*
X180637676Y-127557390D02*
X180685295Y-127605009D01*
X180685295Y-127605009D02*
X180732914Y-127700247D01*
X180732914Y-127700247D02*
X180732914Y-127938342D01*
X180732914Y-127938342D02*
X180685295Y-128033580D01*
X180685295Y-128033580D02*
X180637676Y-128081200D01*
X180637676Y-128081200D02*
X180542438Y-128128819D01*
X180542438Y-128128819D02*
X180256724Y-128128819D01*
X180256724Y-128128819D02*
X180161486Y-128081200D01*
X180161486Y-128081200D02*
X180113867Y-128033580D01*
X176498533Y-109561580D02*
X176450914Y-109609200D01*
X176450914Y-109609200D02*
X176308057Y-109656819D01*
X176308057Y-109656819D02*
X176212819Y-109656819D01*
X176212819Y-109656819D02*
X176069962Y-109609200D01*
X176069962Y-109609200D02*
X175974724Y-109513961D01*
X175974724Y-109513961D02*
X175927105Y-109418723D01*
X175927105Y-109418723D02*
X175879486Y-109228247D01*
X175879486Y-109228247D02*
X175879486Y-109085390D01*
X175879486Y-109085390D02*
X175927105Y-108894914D01*
X175927105Y-108894914D02*
X175974724Y-108799676D01*
X175974724Y-108799676D02*
X176069962Y-108704438D01*
X176069962Y-108704438D02*
X176212819Y-108656819D01*
X176212819Y-108656819D02*
X176308057Y-108656819D01*
X176308057Y-108656819D02*
X176450914Y-108704438D01*
X176450914Y-108704438D02*
X176498533Y-108752057D01*
X177355676Y-108990152D02*
X177355676Y-109656819D01*
X177117581Y-108609200D02*
X176879486Y-109323485D01*
X176879486Y-109323485D02*
X177498533Y-109323485D01*
X179693295Y-79040819D02*
X179693295Y-78040819D01*
X179693295Y-78517009D02*
X180264723Y-78517009D01*
X180264723Y-79040819D02*
X180264723Y-78040819D01*
X180693295Y-78136057D02*
X180740914Y-78088438D01*
X180740914Y-78088438D02*
X180836152Y-78040819D01*
X180836152Y-78040819D02*
X181074247Y-78040819D01*
X181074247Y-78040819D02*
X181169485Y-78088438D01*
X181169485Y-78088438D02*
X181217104Y-78136057D01*
X181217104Y-78136057D02*
X181264723Y-78231295D01*
X181264723Y-78231295D02*
X181264723Y-78326533D01*
X181264723Y-78326533D02*
X181217104Y-78469390D01*
X181217104Y-78469390D02*
X180645676Y-79040819D01*
X180645676Y-79040819D02*
X181264723Y-79040819D01*
X190392019Y-112588857D02*
X189915828Y-112922190D01*
X190392019Y-113160285D02*
X189392019Y-113160285D01*
X189392019Y-113160285D02*
X189392019Y-112779333D01*
X189392019Y-112779333D02*
X189439638Y-112684095D01*
X189439638Y-112684095D02*
X189487257Y-112636476D01*
X189487257Y-112636476D02*
X189582495Y-112588857D01*
X189582495Y-112588857D02*
X189725352Y-112588857D01*
X189725352Y-112588857D02*
X189820590Y-112636476D01*
X189820590Y-112636476D02*
X189868209Y-112684095D01*
X189868209Y-112684095D02*
X189915828Y-112779333D01*
X189915828Y-112779333D02*
X189915828Y-113160285D01*
X190392019Y-111636476D02*
X190392019Y-112207904D01*
X190392019Y-111922190D02*
X189392019Y-111922190D01*
X189392019Y-111922190D02*
X189534876Y-112017428D01*
X189534876Y-112017428D02*
X189630114Y-112112666D01*
X189630114Y-112112666D02*
X189677733Y-112207904D01*
X190392019Y-110684095D02*
X190392019Y-111255523D01*
X190392019Y-110969809D02*
X189392019Y-110969809D01*
X189392019Y-110969809D02*
X189534876Y-111065047D01*
X189534876Y-111065047D02*
X189630114Y-111160285D01*
X189630114Y-111160285D02*
X189677733Y-111255523D01*
X170402533Y-120971580D02*
X170354914Y-121019200D01*
X170354914Y-121019200D02*
X170212057Y-121066819D01*
X170212057Y-121066819D02*
X170116819Y-121066819D01*
X170116819Y-121066819D02*
X169973962Y-121019200D01*
X169973962Y-121019200D02*
X169878724Y-120923961D01*
X169878724Y-120923961D02*
X169831105Y-120828723D01*
X169831105Y-120828723D02*
X169783486Y-120638247D01*
X169783486Y-120638247D02*
X169783486Y-120495390D01*
X169783486Y-120495390D02*
X169831105Y-120304914D01*
X169831105Y-120304914D02*
X169878724Y-120209676D01*
X169878724Y-120209676D02*
X169973962Y-120114438D01*
X169973962Y-120114438D02*
X170116819Y-120066819D01*
X170116819Y-120066819D02*
X170212057Y-120066819D01*
X170212057Y-120066819D02*
X170354914Y-120114438D01*
X170354914Y-120114438D02*
X170402533Y-120162057D01*
X171307295Y-120066819D02*
X170831105Y-120066819D01*
X170831105Y-120066819D02*
X170783486Y-120543009D01*
X170783486Y-120543009D02*
X170831105Y-120495390D01*
X170831105Y-120495390D02*
X170926343Y-120447771D01*
X170926343Y-120447771D02*
X171164438Y-120447771D01*
X171164438Y-120447771D02*
X171259676Y-120495390D01*
X171259676Y-120495390D02*
X171307295Y-120543009D01*
X171307295Y-120543009D02*
X171354914Y-120638247D01*
X171354914Y-120638247D02*
X171354914Y-120876342D01*
X171354914Y-120876342D02*
X171307295Y-120971580D01*
X171307295Y-120971580D02*
X171259676Y-121019200D01*
X171259676Y-121019200D02*
X171164438Y-121066819D01*
X171164438Y-121066819D02*
X170926343Y-121066819D01*
X170926343Y-121066819D02*
X170831105Y-121019200D01*
X170831105Y-121019200D02*
X170783486Y-120971580D01*
X170760019Y-106452857D02*
X170283828Y-106786190D01*
X170760019Y-107024285D02*
X169760019Y-107024285D01*
X169760019Y-107024285D02*
X169760019Y-106643333D01*
X169760019Y-106643333D02*
X169807638Y-106548095D01*
X169807638Y-106548095D02*
X169855257Y-106500476D01*
X169855257Y-106500476D02*
X169950495Y-106452857D01*
X169950495Y-106452857D02*
X170093352Y-106452857D01*
X170093352Y-106452857D02*
X170188590Y-106500476D01*
X170188590Y-106500476D02*
X170236209Y-106548095D01*
X170236209Y-106548095D02*
X170283828Y-106643333D01*
X170283828Y-106643333D02*
X170283828Y-107024285D01*
X170760019Y-105500476D02*
X170760019Y-106071904D01*
X170760019Y-105786190D02*
X169760019Y-105786190D01*
X169760019Y-105786190D02*
X169902876Y-105881428D01*
X169902876Y-105881428D02*
X169998114Y-105976666D01*
X169998114Y-105976666D02*
X170045733Y-106071904D01*
X170093352Y-104643333D02*
X170760019Y-104643333D01*
X169712400Y-104881428D02*
X170426685Y-105119523D01*
X170426685Y-105119523D02*
X170426685Y-104500476D01*
X176224533Y-92842819D02*
X175891200Y-92366628D01*
X175653105Y-92842819D02*
X175653105Y-91842819D01*
X175653105Y-91842819D02*
X176034057Y-91842819D01*
X176034057Y-91842819D02*
X176129295Y-91890438D01*
X176129295Y-91890438D02*
X176176914Y-91938057D01*
X176176914Y-91938057D02*
X176224533Y-92033295D01*
X176224533Y-92033295D02*
X176224533Y-92176152D01*
X176224533Y-92176152D02*
X176176914Y-92271390D01*
X176176914Y-92271390D02*
X176129295Y-92319009D01*
X176129295Y-92319009D02*
X176034057Y-92366628D01*
X176034057Y-92366628D02*
X175653105Y-92366628D01*
X176557867Y-91842819D02*
X177224533Y-91842819D01*
X177224533Y-91842819D02*
X176795962Y-92842819D01*
X182721866Y-89429819D02*
X182721866Y-90144104D01*
X182721866Y-90144104D02*
X182674247Y-90286961D01*
X182674247Y-90286961D02*
X182579009Y-90382200D01*
X182579009Y-90382200D02*
X182436152Y-90429819D01*
X182436152Y-90429819D02*
X182340914Y-90429819D01*
X183150438Y-89525057D02*
X183198057Y-89477438D01*
X183198057Y-89477438D02*
X183293295Y-89429819D01*
X183293295Y-89429819D02*
X183531390Y-89429819D01*
X183531390Y-89429819D02*
X183626628Y-89477438D01*
X183626628Y-89477438D02*
X183674247Y-89525057D01*
X183674247Y-89525057D02*
X183721866Y-89620295D01*
X183721866Y-89620295D02*
X183721866Y-89715533D01*
X183721866Y-89715533D02*
X183674247Y-89858390D01*
X183674247Y-89858390D02*
X183102819Y-90429819D01*
X183102819Y-90429819D02*
X183721866Y-90429819D01*
X163574019Y-117190857D02*
X163097828Y-117524190D01*
X163574019Y-117762285D02*
X162574019Y-117762285D01*
X162574019Y-117762285D02*
X162574019Y-117381333D01*
X162574019Y-117381333D02*
X162621638Y-117286095D01*
X162621638Y-117286095D02*
X162669257Y-117238476D01*
X162669257Y-117238476D02*
X162764495Y-117190857D01*
X162764495Y-117190857D02*
X162907352Y-117190857D01*
X162907352Y-117190857D02*
X163002590Y-117238476D01*
X163002590Y-117238476D02*
X163050209Y-117286095D01*
X163050209Y-117286095D02*
X163097828Y-117381333D01*
X163097828Y-117381333D02*
X163097828Y-117762285D01*
X163574019Y-116238476D02*
X163574019Y-116809904D01*
X163574019Y-116524190D02*
X162574019Y-116524190D01*
X162574019Y-116524190D02*
X162716876Y-116619428D01*
X162716876Y-116619428D02*
X162812114Y-116714666D01*
X162812114Y-116714666D02*
X162859733Y-116809904D01*
X162574019Y-115619428D02*
X162574019Y-115524190D01*
X162574019Y-115524190D02*
X162621638Y-115428952D01*
X162621638Y-115428952D02*
X162669257Y-115381333D01*
X162669257Y-115381333D02*
X162764495Y-115333714D01*
X162764495Y-115333714D02*
X162954971Y-115286095D01*
X162954971Y-115286095D02*
X163193066Y-115286095D01*
X163193066Y-115286095D02*
X163383542Y-115333714D01*
X163383542Y-115333714D02*
X163478780Y-115381333D01*
X163478780Y-115381333D02*
X163526400Y-115428952D01*
X163526400Y-115428952D02*
X163574019Y-115524190D01*
X163574019Y-115524190D02*
X163574019Y-115619428D01*
X163574019Y-115619428D02*
X163526400Y-115714666D01*
X163526400Y-115714666D02*
X163478780Y-115762285D01*
X163478780Y-115762285D02*
X163383542Y-115809904D01*
X163383542Y-115809904D02*
X163193066Y-115857523D01*
X163193066Y-115857523D02*
X162954971Y-115857523D01*
X162954971Y-115857523D02*
X162764495Y-115809904D01*
X162764495Y-115809904D02*
X162669257Y-115762285D01*
X162669257Y-115762285D02*
X162621638Y-115714666D01*
X162621638Y-115714666D02*
X162574019Y-115619428D01*
X138545295Y-69744819D02*
X138545295Y-70554342D01*
X138545295Y-70554342D02*
X138592914Y-70649580D01*
X138592914Y-70649580D02*
X138640533Y-70697200D01*
X138640533Y-70697200D02*
X138735771Y-70744819D01*
X138735771Y-70744819D02*
X138926247Y-70744819D01*
X138926247Y-70744819D02*
X139021485Y-70697200D01*
X139021485Y-70697200D02*
X139069104Y-70649580D01*
X139069104Y-70649580D02*
X139116723Y-70554342D01*
X139116723Y-70554342D02*
X139116723Y-69744819D01*
X140021485Y-70078152D02*
X140021485Y-70744819D01*
X139783390Y-69697200D02*
X139545295Y-70411485D01*
X139545295Y-70411485D02*
X140164342Y-70411485D01*
X142109961Y-125831104D02*
X142586151Y-125831104D01*
X142014723Y-126116819D02*
X142348056Y-125116819D01*
X142348056Y-125116819D02*
X142681389Y-126116819D01*
X143014723Y-126116819D02*
X143014723Y-125450152D01*
X143014723Y-125640628D02*
X143062342Y-125545390D01*
X143062342Y-125545390D02*
X143109961Y-125497771D01*
X143109961Y-125497771D02*
X143205199Y-125450152D01*
X143205199Y-125450152D02*
X143300437Y-125450152D01*
X144062342Y-126116819D02*
X144062342Y-125116819D01*
X144062342Y-126069200D02*
X143967104Y-126116819D01*
X143967104Y-126116819D02*
X143776628Y-126116819D01*
X143776628Y-126116819D02*
X143681390Y-126069200D01*
X143681390Y-126069200D02*
X143633771Y-126021580D01*
X143633771Y-126021580D02*
X143586152Y-125926342D01*
X143586152Y-125926342D02*
X143586152Y-125640628D01*
X143586152Y-125640628D02*
X143633771Y-125545390D01*
X143633771Y-125545390D02*
X143681390Y-125497771D01*
X143681390Y-125497771D02*
X143776628Y-125450152D01*
X143776628Y-125450152D02*
X143967104Y-125450152D01*
X143967104Y-125450152D02*
X144062342Y-125497771D01*
X144967104Y-125450152D02*
X144967104Y-126116819D01*
X144538533Y-125450152D02*
X144538533Y-125973961D01*
X144538533Y-125973961D02*
X144586152Y-126069200D01*
X144586152Y-126069200D02*
X144681390Y-126116819D01*
X144681390Y-126116819D02*
X144824247Y-126116819D01*
X144824247Y-126116819D02*
X144919485Y-126069200D01*
X144919485Y-126069200D02*
X144967104Y-126021580D01*
X145443295Y-126116819D02*
X145443295Y-125450152D01*
X145443295Y-125116819D02*
X145395676Y-125164438D01*
X145395676Y-125164438D02*
X145443295Y-125212057D01*
X145443295Y-125212057D02*
X145490914Y-125164438D01*
X145490914Y-125164438D02*
X145443295Y-125116819D01*
X145443295Y-125116819D02*
X145443295Y-125212057D01*
X145919485Y-125450152D02*
X145919485Y-126116819D01*
X145919485Y-125545390D02*
X145967104Y-125497771D01*
X145967104Y-125497771D02*
X146062342Y-125450152D01*
X146062342Y-125450152D02*
X146205199Y-125450152D01*
X146205199Y-125450152D02*
X146300437Y-125497771D01*
X146300437Y-125497771D02*
X146348056Y-125593009D01*
X146348056Y-125593009D02*
X146348056Y-126116819D01*
X146967104Y-126116819D02*
X146871866Y-126069200D01*
X146871866Y-126069200D02*
X146824247Y-126021580D01*
X146824247Y-126021580D02*
X146776628Y-125926342D01*
X146776628Y-125926342D02*
X146776628Y-125640628D01*
X146776628Y-125640628D02*
X146824247Y-125545390D01*
X146824247Y-125545390D02*
X146871866Y-125497771D01*
X146871866Y-125497771D02*
X146967104Y-125450152D01*
X146967104Y-125450152D02*
X147109961Y-125450152D01*
X147109961Y-125450152D02*
X147205199Y-125497771D01*
X147205199Y-125497771D02*
X147252818Y-125545390D01*
X147252818Y-125545390D02*
X147300437Y-125640628D01*
X147300437Y-125640628D02*
X147300437Y-125926342D01*
X147300437Y-125926342D02*
X147252818Y-126021580D01*
X147252818Y-126021580D02*
X147205199Y-126069200D01*
X147205199Y-126069200D02*
X147109961Y-126116819D01*
X147109961Y-126116819D02*
X146967104Y-126116819D01*
X147490914Y-126212057D02*
X148252818Y-126212057D01*
X148490914Y-126116819D02*
X148490914Y-125116819D01*
X148490914Y-125116819D02*
X148824247Y-125831104D01*
X148824247Y-125831104D02*
X149157580Y-125116819D01*
X149157580Y-125116819D02*
X149157580Y-126116819D01*
X149633771Y-126116819D02*
X149633771Y-125116819D01*
X150205199Y-126116819D02*
X149776628Y-125545390D01*
X150205199Y-125116819D02*
X149633771Y-125688247D01*
X151205199Y-126116819D02*
X150871866Y-125640628D01*
X150633771Y-126116819D02*
X150633771Y-125116819D01*
X150633771Y-125116819D02*
X151014723Y-125116819D01*
X151014723Y-125116819D02*
X151109961Y-125164438D01*
X151109961Y-125164438D02*
X151157580Y-125212057D01*
X151157580Y-125212057D02*
X151205199Y-125307295D01*
X151205199Y-125307295D02*
X151205199Y-125450152D01*
X151205199Y-125450152D02*
X151157580Y-125545390D01*
X151157580Y-125545390D02*
X151109961Y-125593009D01*
X151109961Y-125593009D02*
X151014723Y-125640628D01*
X151014723Y-125640628D02*
X150633771Y-125640628D01*
X151395676Y-126212057D02*
X152157580Y-126212057D01*
X152300438Y-125116819D02*
X152967104Y-125116819D01*
X152967104Y-125116819D02*
X152300438Y-126116819D01*
X152300438Y-126116819D02*
X152967104Y-126116819D01*
X153729009Y-126069200D02*
X153633771Y-126116819D01*
X153633771Y-126116819D02*
X153443295Y-126116819D01*
X153443295Y-126116819D02*
X153348057Y-126069200D01*
X153348057Y-126069200D02*
X153300438Y-125973961D01*
X153300438Y-125973961D02*
X153300438Y-125593009D01*
X153300438Y-125593009D02*
X153348057Y-125497771D01*
X153348057Y-125497771D02*
X153443295Y-125450152D01*
X153443295Y-125450152D02*
X153633771Y-125450152D01*
X153633771Y-125450152D02*
X153729009Y-125497771D01*
X153729009Y-125497771D02*
X153776628Y-125593009D01*
X153776628Y-125593009D02*
X153776628Y-125688247D01*
X153776628Y-125688247D02*
X153300438Y-125783485D01*
X154205200Y-126116819D02*
X154205200Y-125450152D01*
X154205200Y-125640628D02*
X154252819Y-125545390D01*
X154252819Y-125545390D02*
X154300438Y-125497771D01*
X154300438Y-125497771D02*
X154395676Y-125450152D01*
X154395676Y-125450152D02*
X154490914Y-125450152D01*
X154967105Y-126116819D02*
X154871867Y-126069200D01*
X154871867Y-126069200D02*
X154824248Y-126021580D01*
X154824248Y-126021580D02*
X154776629Y-125926342D01*
X154776629Y-125926342D02*
X154776629Y-125640628D01*
X154776629Y-125640628D02*
X154824248Y-125545390D01*
X154824248Y-125545390D02*
X154871867Y-125497771D01*
X154871867Y-125497771D02*
X154967105Y-125450152D01*
X154967105Y-125450152D02*
X155109962Y-125450152D01*
X155109962Y-125450152D02*
X155205200Y-125497771D01*
X155205200Y-125497771D02*
X155252819Y-125545390D01*
X155252819Y-125545390D02*
X155300438Y-125640628D01*
X155300438Y-125640628D02*
X155300438Y-125926342D01*
X155300438Y-125926342D02*
X155252819Y-126021580D01*
X155252819Y-126021580D02*
X155205200Y-126069200D01*
X155205200Y-126069200D02*
X155109962Y-126116819D01*
X155109962Y-126116819D02*
X154967105Y-126116819D01*
X168402342Y-95963819D02*
X168069009Y-95487628D01*
X167830914Y-95963819D02*
X167830914Y-94963819D01*
X167830914Y-94963819D02*
X168211866Y-94963819D01*
X168211866Y-94963819D02*
X168307104Y-95011438D01*
X168307104Y-95011438D02*
X168354723Y-95059057D01*
X168354723Y-95059057D02*
X168402342Y-95154295D01*
X168402342Y-95154295D02*
X168402342Y-95297152D01*
X168402342Y-95297152D02*
X168354723Y-95392390D01*
X168354723Y-95392390D02*
X168307104Y-95440009D01*
X168307104Y-95440009D02*
X168211866Y-95487628D01*
X168211866Y-95487628D02*
X167830914Y-95487628D01*
X169354723Y-95963819D02*
X168783295Y-95963819D01*
X169069009Y-95963819D02*
X169069009Y-94963819D01*
X169069009Y-94963819D02*
X168973771Y-95106676D01*
X168973771Y-95106676D02*
X168878533Y-95201914D01*
X168878533Y-95201914D02*
X168783295Y-95249533D01*
X169688057Y-94963819D02*
X170307104Y-94963819D01*
X170307104Y-94963819D02*
X169973771Y-95344771D01*
X169973771Y-95344771D02*
X170116628Y-95344771D01*
X170116628Y-95344771D02*
X170211866Y-95392390D01*
X170211866Y-95392390D02*
X170259485Y-95440009D01*
X170259485Y-95440009D02*
X170307104Y-95535247D01*
X170307104Y-95535247D02*
X170307104Y-95773342D01*
X170307104Y-95773342D02*
X170259485Y-95868580D01*
X170259485Y-95868580D02*
X170211866Y-95916200D01*
X170211866Y-95916200D02*
X170116628Y-95963819D01*
X170116628Y-95963819D02*
X169830914Y-95963819D01*
X169830914Y-95963819D02*
X169735676Y-95916200D01*
X169735676Y-95916200D02*
X169688057Y-95868580D01*
X176002342Y-126116819D02*
X175669009Y-125640628D01*
X175430914Y-126116819D02*
X175430914Y-125116819D01*
X175430914Y-125116819D02*
X175811866Y-125116819D01*
X175811866Y-125116819D02*
X175907104Y-125164438D01*
X175907104Y-125164438D02*
X175954723Y-125212057D01*
X175954723Y-125212057D02*
X176002342Y-125307295D01*
X176002342Y-125307295D02*
X176002342Y-125450152D01*
X176002342Y-125450152D02*
X175954723Y-125545390D01*
X175954723Y-125545390D02*
X175907104Y-125593009D01*
X175907104Y-125593009D02*
X175811866Y-125640628D01*
X175811866Y-125640628D02*
X175430914Y-125640628D01*
X176954723Y-126116819D02*
X176383295Y-126116819D01*
X176669009Y-126116819D02*
X176669009Y-125116819D01*
X176669009Y-125116819D02*
X176573771Y-125259676D01*
X176573771Y-125259676D02*
X176478533Y-125354914D01*
X176478533Y-125354914D02*
X176383295Y-125402533D01*
X177335676Y-125212057D02*
X177383295Y-125164438D01*
X177383295Y-125164438D02*
X177478533Y-125116819D01*
X177478533Y-125116819D02*
X177716628Y-125116819D01*
X177716628Y-125116819D02*
X177811866Y-125164438D01*
X177811866Y-125164438D02*
X177859485Y-125212057D01*
X177859485Y-125212057D02*
X177907104Y-125307295D01*
X177907104Y-125307295D02*
X177907104Y-125402533D01*
X177907104Y-125402533D02*
X177859485Y-125545390D01*
X177859485Y-125545390D02*
X177288057Y-126116819D01*
X177288057Y-126116819D02*
X177907104Y-126116819D01*
D12*
%TO.C,C1*%
X181483200Y-104968000D02*
X185523200Y-104968000D01*
X181483200Y-105689000D02*
X181483200Y-104968000D01*
X181483200Y-107808000D02*
X181483200Y-107087000D01*
X185523200Y-104968000D02*
X185523200Y-105689000D01*
X185523200Y-107087000D02*
X185523200Y-107808000D01*
X185523200Y-107808000D02*
X181483200Y-107808000D01*
%TO.C,U1*%
X162645200Y-72142000D02*
X172865200Y-72142000D01*
X162645200Y-88012000D02*
X162645200Y-72142000D01*
X162645200Y-88012000D02*
X172865200Y-88012000D01*
X164730200Y-88012000D02*
X164730200Y-90452000D01*
X165700200Y-88012000D02*
X165700200Y-90452000D01*
X167270200Y-88012000D02*
X167270200Y-90452000D01*
X168240200Y-88012000D02*
X168240200Y-90452000D01*
X169810200Y-88012000D02*
X169810200Y-90452000D01*
X170780200Y-88012000D02*
X170780200Y-90452000D01*
X172865200Y-88012000D02*
X172865200Y-72142000D01*
%TO.C,U2*%
X168645200Y-110432000D02*
X172765200Y-110432000D01*
X168645200Y-110527000D02*
X168645200Y-110432000D01*
X168645200Y-115552000D02*
X168645200Y-115457000D01*
X172765200Y-110432000D02*
X172765200Y-110527000D01*
X172765200Y-115457000D02*
X172765200Y-115552000D01*
X172765200Y-115552000D02*
X168645200Y-115552000D01*
X168105200Y-110522000D02*
X167865200Y-110192000D01*
X168345200Y-110192000D01*
X168105200Y-110522000D01*
G36*
X168105200Y-110522000D02*
G01*
X167865200Y-110192000D01*
X168345200Y-110192000D01*
X168105200Y-110522000D01*
G37*
%TO.C,D1*%
X182541200Y-119742000D02*
X185481200Y-119742000D01*
X182541200Y-119862000D02*
X185481200Y-119862000D01*
X182541200Y-119982000D02*
X185481200Y-119982000D01*
X184011200Y-114102000D02*
X184011200Y-115322000D01*
X184011200Y-121982000D02*
X184011200Y-120762000D01*
X182541200Y-120762000D02*
X185481200Y-120762000D01*
X185481200Y-115322000D01*
X182541200Y-115322000D01*
X182541200Y-120762000D01*
%TO.C,R8*%
X166532200Y-102102000D02*
X166532200Y-108642000D01*
X166532200Y-108642000D02*
X166862200Y-108642000D01*
X166862200Y-102102000D02*
X166532200Y-102102000D01*
X168942200Y-102102000D02*
X169272200Y-102102000D01*
X169272200Y-102102000D02*
X169272200Y-108642000D01*
X169272200Y-108642000D02*
X168942200Y-108642000D01*
%TO.C,R9*%
X166791200Y-122290000D02*
X166791200Y-122620000D01*
X166791200Y-125030000D02*
X166791200Y-124700000D01*
X173331200Y-122290000D02*
X166791200Y-122290000D01*
X173331200Y-122620000D02*
X173331200Y-122290000D01*
X173331200Y-124700000D02*
X173331200Y-125030000D01*
X173331200Y-125030000D02*
X166791200Y-125030000D01*
%TO.C,D2*%
X180221200Y-110576000D02*
X180221200Y-111796000D01*
X180221200Y-118456000D02*
X180221200Y-117236000D01*
X181691200Y-112576000D02*
X178751200Y-112576000D01*
X181691200Y-112696000D02*
X178751200Y-112696000D01*
X181691200Y-112816000D02*
X178751200Y-112816000D01*
X181691200Y-111796000D02*
X178751200Y-111796000D01*
X178751200Y-117236000D01*
X181691200Y-117236000D01*
X181691200Y-111796000D01*
%TO.C,J1*%
X121975200Y-96900000D02*
X121975200Y-109720000D01*
X121975200Y-96900000D02*
X124575200Y-96900000D01*
X121975200Y-109720000D02*
X127175200Y-109720000D01*
X124575200Y-96900000D02*
X124575200Y-99500000D01*
X124575200Y-99500000D02*
X127175200Y-99500000D01*
X125845200Y-96900000D02*
X127175200Y-96900000D01*
X127175200Y-96900000D02*
X127175200Y-98230000D01*
X127175200Y-99500000D02*
X127175200Y-109720000D01*
%TO.C,C2*%
X130267200Y-88590000D02*
X130988200Y-88590000D01*
X130267200Y-92630000D02*
X130267200Y-88590000D01*
X130988200Y-92630000D02*
X130267200Y-92630000D01*
X132386200Y-88590000D02*
X133107200Y-88590000D01*
X133107200Y-88590000D02*
X133107200Y-92630000D01*
X133107200Y-92630000D02*
X132386200Y-92630000D01*
%TO.C,C3*%
X179035200Y-122626000D02*
X179756200Y-122626000D01*
X179035200Y-126666000D02*
X179035200Y-122626000D01*
X179756200Y-126666000D02*
X179035200Y-126666000D01*
X181154200Y-122626000D02*
X181875200Y-122626000D01*
X181875200Y-122626000D02*
X181875200Y-126666000D01*
X181875200Y-126666000D02*
X181154200Y-126666000D01*
%TO.C,C4*%
X175245200Y-110464000D02*
X175966200Y-110464000D01*
X175245200Y-114504000D02*
X175245200Y-110464000D01*
X175966200Y-114504000D02*
X175245200Y-114504000D01*
X177364200Y-110464000D02*
X178085200Y-110464000D01*
X178085200Y-110464000D02*
X178085200Y-114504000D01*
X178085200Y-114504000D02*
X177364200Y-114504000D01*
%TO.C,R11*%
X186197200Y-108676000D02*
X186197200Y-115216000D01*
X186197200Y-115216000D02*
X186527200Y-115216000D01*
X186527200Y-108676000D02*
X186197200Y-108676000D01*
X188607200Y-108676000D02*
X188937200Y-108676000D01*
X188937200Y-108676000D02*
X188937200Y-115216000D01*
X188937200Y-115216000D02*
X188607200Y-115216000D01*
%TO.C,C5*%
X168549200Y-116652000D02*
X172589200Y-116652000D01*
X168549200Y-117373000D02*
X168549200Y-116652000D01*
X168549200Y-119492000D02*
X168549200Y-118771000D01*
X172589200Y-116652000D02*
X172589200Y-117373000D01*
X172589200Y-118771000D02*
X172589200Y-119492000D01*
X172589200Y-119492000D02*
X168549200Y-119492000D01*
%TO.C,R14*%
X171231200Y-101594000D02*
X171231200Y-108134000D01*
X171231200Y-108134000D02*
X171561200Y-108134000D01*
X171561200Y-101594000D02*
X171231200Y-101594000D01*
X173641200Y-101594000D02*
X173971200Y-101594000D01*
X173971200Y-101594000D02*
X173971200Y-108134000D01*
X173971200Y-108134000D02*
X173641200Y-108134000D01*
%TO.C,R7*%
X174787200Y-94482000D02*
X175117200Y-94482000D01*
X174787200Y-101022000D02*
X174787200Y-94482000D01*
X175117200Y-101022000D02*
X174787200Y-101022000D01*
X177197200Y-101022000D02*
X177527200Y-101022000D01*
X177527200Y-94482000D02*
X177197200Y-94482000D01*
X177527200Y-101022000D02*
X177527200Y-94482000D01*
%TO.C,J2*%
X178617200Y-101532000D02*
X178617200Y-91312000D01*
X178617200Y-104132000D02*
X178617200Y-102802000D01*
X179947200Y-104132000D02*
X178617200Y-104132000D01*
X181217200Y-101532000D02*
X178617200Y-101532000D01*
X181217200Y-104132000D02*
X181217200Y-101532000D01*
X183817200Y-91312000D02*
X178617200Y-91312000D01*
X183817200Y-104132000D02*
X181217200Y-104132000D01*
X183817200Y-104132000D02*
X183817200Y-91312000D01*
%TO.C,R10*%
X164119200Y-113278000D02*
X164449200Y-113278000D01*
X164119200Y-119818000D02*
X164119200Y-113278000D01*
X164449200Y-119818000D02*
X164119200Y-119818000D01*
X166529200Y-119818000D02*
X166859200Y-119818000D01*
X166859200Y-113278000D02*
X166529200Y-113278000D01*
X166859200Y-119818000D02*
X166859200Y-113278000D01*
D13*
%TO.C,U4*%
X135951200Y-131808000D02*
X135951200Y-74808000D01*
X138201200Y-72558000D02*
X158701200Y-72558000D01*
X158701200Y-134058000D02*
X138201200Y-134058000D01*
X160951200Y-74808000D02*
X160951200Y-131808000D01*
X135951200Y-74808000D02*
G75*
G02*
X138201200Y-72558000I2250001J-1D01*
G01*
X138201200Y-134058000D02*
G75*
G02*
X135951200Y-131808000I1J2250001D01*
G01*
X158701200Y-72558000D02*
G75*
G02*
X160951200Y-74808000I0J-2250000D01*
G01*
X160951200Y-131808000D02*
G75*
G02*
X158701200Y-134058000I-2250000J0D01*
G01*
D14*
X135154200Y-94674000D02*
G75*
G02*
X134954200Y-94674000I-100000J0D01*
G01*
X134954200Y-94674000D02*
G75*
G02*
X135154200Y-94674000I100000J0D01*
G01*
D12*
%TO.C,R13*%
X165775200Y-96509000D02*
X172315200Y-96509000D01*
X165775200Y-96839000D02*
X165775200Y-96509000D01*
X165775200Y-98919000D02*
X165775200Y-99249000D01*
X165775200Y-99249000D02*
X172315200Y-99249000D01*
X172315200Y-96509000D02*
X172315200Y-96839000D01*
X172315200Y-99249000D02*
X172315200Y-98919000D01*
%TO.C,R12*%
X175295200Y-116834000D02*
X175625200Y-116834000D01*
X175295200Y-123374000D02*
X175295200Y-116834000D01*
X175625200Y-123374000D02*
X175295200Y-123374000D01*
X177705200Y-123374000D02*
X178035200Y-123374000D01*
X178035200Y-116834000D02*
X177705200Y-116834000D01*
X178035200Y-123374000D02*
X178035200Y-116834000D01*
%TD*%
M02*
