%TF.GenerationSoftware,KiCad,Pcbnew,9.0.7-9.0.7~ubuntu24.04.1*%
%TF.CreationDate,2026-03-04T23:47:22-05:00*%
%TF.ProjectId,ROCKSAT_Modules_V1,524f434b-5341-4545-9f4d-6f64756c6573,rev?*%
%TF.SameCoordinates,Original*%
%TF.FileFunction,Copper,L1,Top*%
%TF.FilePolarity,Positive*%
%FSLAX46Y46*%
G04 Gerber Fmt 4.6, Leading zero omitted, Abs format (unit mm)*
G04 Created by KiCad (PCBNEW 9.0.7-9.0.7~ubuntu24.04.1) date 2026-03-04 23:47:22*
%MOMM*%
%LPD*%
G01*
G04 APERTURE LIST*
G04 Aperture macros list*
%AMRoundRect*
0 Rectangle with rounded corners*
0 $1 Rounding radius*
0 $2 $3 $4 $5 $6 $7 $8 $9 X,Y pos of 4 corners*
0 Add a 4 corners polygon primitive as box body*
4,1,4,$2,$3,$4,$5,$6,$7,$8,$9,$2,$3,0*
0 Add four circle primitives for the rounded corners*
1,1,$1+$1,$2,$3*
1,1,$1+$1,$4,$5*
1,1,$1+$1,$6,$7*
1,1,$1+$1,$8,$9*
0 Add four rect primitives between the rounded corners*
20,1,$1+$1,$2,$3,$4,$5,0*
20,1,$1+$1,$4,$5,$6,$7,0*
20,1,$1+$1,$6,$7,$8,$9,0*
20,1,$1+$1,$8,$9,$2,$3,0*%
G04 Aperture macros list end*
%TA.AperFunction,ComponentPad*%
%ADD10C,1.500000*%
%TD*%
%TA.AperFunction,ComponentPad*%
%ADD11C,1.600000*%
%TD*%
%TA.AperFunction,ComponentPad*%
%ADD12R,1.905000X2.000000*%
%TD*%
%TA.AperFunction,ComponentPad*%
%ADD13O,1.905000X2.000000*%
%TD*%
%TA.AperFunction,SMDPad,CuDef*%
%ADD14RoundRect,0.150000X-0.825000X-0.150000X0.825000X-0.150000X0.825000X0.150000X-0.825000X0.150000X0*%
%TD*%
%TA.AperFunction,ComponentPad*%
%ADD15RoundRect,0.250000X0.650000X-0.650000X0.650000X0.650000X-0.650000X0.650000X-0.650000X-0.650000X0*%
%TD*%
%TA.AperFunction,ComponentPad*%
%ADD16C,1.800000*%
%TD*%
%TA.AperFunction,ComponentPad*%
%ADD17RoundRect,0.250000X-0.650000X0.650000X-0.650000X-0.650000X0.650000X-0.650000X0.650000X0.650000X0*%
%TD*%
%TA.AperFunction,ComponentPad*%
%ADD18R,1.700000X1.700000*%
%TD*%
%TA.AperFunction,ComponentPad*%
%ADD19C,1.700000*%
%TD*%
%TA.AperFunction,ComponentPad*%
%ADD20R,1.508000X1.508000*%
%TD*%
%TA.AperFunction,ComponentPad*%
%ADD21C,1.508000*%
%TD*%
%TA.AperFunction,ViaPad*%
%ADD22C,0.600000*%
%TD*%
%TA.AperFunction,Conductor*%
%ADD23C,0.406400*%
%TD*%
%TA.AperFunction,Conductor*%
%ADD24C,0.762000*%
%TD*%
G04 APERTURE END LIST*
D10*
%TO.P,TP12,1,1*%
%TO.N,/U2A_Out*%
X173851200Y-120328000D03*
%TD*%
%TO.P,TP11,1,1*%
%TO.N,/FB_Filter*%
X162675200Y-113978000D03*
%TD*%
%TO.P,TP10,1,1*%
%TO.N,/A_Muon*%
X133211200Y-94674000D03*
%TD*%
%TO.P,TP9,1,1*%
%TO.N,/A_(+)*%
X172835200Y-91880000D03*
%TD*%
%TO.P,TP8,1,1*%
%TO.N,GND*%
X187567200Y-105596000D03*
%TD*%
%TO.P,TP7,1,1*%
%TO.N,/SCLK*%
X132703200Y-107628000D03*
%TD*%
%TO.P,TP6,1,1*%
%TO.N,/MISO*%
X125083200Y-92134000D03*
%TD*%
%TO.P,TP5,1,1*%
%TO.N,/MOSI*%
X163437200Y-125408000D03*
%TD*%
%TO.P,TP4,1,1*%
%TO.N,/TX_IN*%
X163183200Y-108898000D03*
%TD*%
%TO.P,TP3,1,1*%
%TO.N,/RX_IN*%
X189345200Y-93150000D03*
%TD*%
%TO.P,TP2,1,1*%
%TO.N,+3.3*%
X190361200Y-100770000D03*
%TD*%
%TO.P,TP1,1,1*%
%TO.N,+5V*%
X187313200Y-88070000D03*
%TD*%
D11*
%TO.P,C1,1*%
%TO.N,GND*%
X184753200Y-106388000D03*
%TO.P,C1,2*%
%TO.N,+5V*%
X182253200Y-106388000D03*
%TD*%
D12*
%TO.P,U1,1,VI*%
%TO.N,+28V*%
X165215200Y-91712000D03*
D13*
%TO.P,U1,2,GND*%
%TO.N,GND*%
X167755200Y-91712000D03*
%TO.P,U1,3,VO*%
%TO.N,+5V*%
X170295200Y-91712000D03*
%TD*%
D14*
%TO.P,U2,1*%
%TO.N,/U2A_Out*%
X168230200Y-111087000D03*
%TO.P,U2,2,-*%
%TO.N,/FB_Filter*%
X168230200Y-112357000D03*
%TO.P,U2,3,+*%
%TO.N,Net-(U2A-+)*%
X168230200Y-113627000D03*
%TO.P,U2,4,V-*%
%TO.N,GND*%
X168230200Y-114897000D03*
%TO.P,U2,5,+*%
%TO.N,/U2A_Out*%
X173180200Y-114897000D03*
%TO.P,U2,6,-*%
%TO.N,Net-(D2-A)*%
X173180200Y-113627000D03*
%TO.P,U2,7*%
%TO.N,Net-(D1-A)*%
X173180200Y-112357000D03*
%TO.P,U2,8,V+*%
%TO.N,+5V*%
X173180200Y-111087000D03*
%TD*%
D15*
%TO.P,D1,1,K*%
%TO.N,Net-(D1-K)*%
X184011200Y-123122000D03*
D16*
%TO.P,D1,2,A*%
%TO.N,Net-(D1-A)*%
X184011200Y-112962000D03*
%TD*%
D11*
%TO.P,R8,1*%
%TO.N,GND*%
X167902200Y-101562000D03*
%TO.P,R8,2*%
%TO.N,/U2A_Out*%
X167902200Y-109182000D03*
%TD*%
%TO.P,R9,1*%
%TO.N,/U2A_Out*%
X173871200Y-123660000D03*
%TO.P,R9,2*%
%TO.N,/FB_Filter*%
X166251200Y-123660000D03*
%TD*%
D17*
%TO.P,D2,1,K*%
%TO.N,Net-(D1-A)*%
X180221200Y-109436000D03*
D16*
%TO.P,D2,2,A*%
%TO.N,Net-(D2-A)*%
X180221200Y-119596000D03*
%TD*%
D18*
%TO.P,J1,1,Pin_1*%
%TO.N,+5V*%
X125845200Y-98230000D03*
D19*
%TO.P,J1,2,Pin_2*%
%TO.N,+3.3*%
X123305200Y-98230000D03*
%TO.P,J1,3,Pin_3*%
%TO.N,/MISO*%
X125845200Y-100770000D03*
%TO.P,J1,4,Pin_4*%
%TO.N,/TP_CS1*%
X123305200Y-100770000D03*
%TO.P,J1,5,Pin_5*%
%TO.N,/SCLK*%
X125845200Y-103310000D03*
%TO.P,J1,6,Pin_6*%
%TO.N,/TP_CS2*%
X123305200Y-103310000D03*
%TO.P,J1,7,Pin_7*%
%TO.N,/MOSI*%
X125845200Y-105850000D03*
%TO.P,J1,8,Pin_8*%
%TO.N,/TP_CS3*%
X123305200Y-105850000D03*
%TO.P,J1,9,Pin_9*%
%TO.N,unconnected-(J1-Pin_9-Pad9)*%
X125845200Y-108390000D03*
%TO.P,J1,10,Pin_10*%
%TO.N,GND*%
X123305200Y-108390000D03*
%TD*%
D11*
%TO.P,C2,1*%
%TO.N,GND*%
X131687200Y-89360000D03*
%TO.P,C2,2*%
%TO.N,+5V*%
X131687200Y-91860000D03*
%TD*%
%TO.P,C3,1*%
%TO.N,GND*%
X180455200Y-125896000D03*
%TO.P,C3,2*%
%TO.N,Net-(D1-K)*%
X180455200Y-123396000D03*
%TD*%
%TO.P,C4,1*%
%TO.N,Net-(C4-Pad1)*%
X176665200Y-113734000D03*
%TO.P,C4,2*%
%TO.N,Net-(D1-K)*%
X176665200Y-111234000D03*
%TD*%
%TO.P,R11,1*%
%TO.N,GND*%
X187567200Y-108136000D03*
%TO.P,R11,2*%
%TO.N,Net-(D2-A)*%
X187567200Y-115756000D03*
%TD*%
%TO.P,C5,1*%
%TO.N,/FB_Filter*%
X169319200Y-118072000D03*
%TO.P,C5,2*%
%TO.N,/U2A_Out*%
X171819200Y-118072000D03*
%TD*%
%TO.P,R14,1*%
%TO.N,Net-(D1-K)*%
X172601200Y-101054000D03*
%TO.P,R14,2*%
%TO.N,Net-(D2-A)*%
X172601200Y-108674000D03*
%TD*%
%TO.P,R7,1*%
%TO.N,Net-(U2A-+)*%
X176157200Y-101562000D03*
%TO.P,R7,2*%
%TO.N,/A_(+)*%
X176157200Y-93942000D03*
%TD*%
D18*
%TO.P,J2,1,Pin_1*%
%TO.N,+5V*%
X179947200Y-102802000D03*
D19*
%TO.P,J2,2,Pin_2*%
%TO.N,+3.3*%
X182487200Y-102802000D03*
%TO.P,J2,3,Pin_3*%
%TO.N,/A_(+)*%
X179947200Y-100262000D03*
%TO.P,J2,4,Pin_4*%
%TO.N,/TX_IN*%
X182487200Y-100262000D03*
%TO.P,J2,5,Pin_5*%
%TO.N,unconnected-(J2-Pin_5-Pad5)*%
X179947200Y-97722000D03*
%TO.P,J2,6,Pin_6*%
%TO.N,/RX_IN*%
X182487200Y-97722000D03*
%TO.P,J2,7,Pin_7*%
%TO.N,unconnected-(J2-Pin_7-Pad7)*%
X179947200Y-95182000D03*
%TO.P,J2,8,Pin_8*%
%TO.N,/A_Spare1*%
X182487200Y-95182000D03*
%TO.P,J2,9,Pin_9*%
%TO.N,+28V*%
X179947200Y-92642000D03*
%TO.P,J2,10,Pin_10*%
%TO.N,GND*%
X182487200Y-92642000D03*
%TD*%
D11*
%TO.P,R10,1*%
%TO.N,GND*%
X165489200Y-120358000D03*
%TO.P,R10,2*%
%TO.N,/FB_Filter*%
X165489200Y-112738000D03*
%TD*%
D20*
%TO.P,U4,1,AREF*%
%TO.N,unconnected-(U4-AREF-Pad1)*%
X138291200Y-94674000D03*
D21*
%TO.P,U4,2,A0/D15*%
%TO.N,/A_Muon*%
X138291200Y-97214000D03*
%TO.P,U4,3,A1/D16*%
%TO.N,/A_Spare1*%
X138291200Y-99754000D03*
%TO.P,U4,4,A2/D17*%
%TO.N,unconnected-(U4-A2{slash}D17-Pad4)*%
X138291200Y-102294000D03*
%TO.P,U4,5,A3/D18~*%
%TO.N,unconnected-(U4-A3{slash}D18~-Pad5)*%
X138291200Y-104834000D03*
%TO.P,U4,6,A4/D19~*%
%TO.N,unconnected-(U4-A4{slash}D19~-Pad6)*%
X138291200Y-107374000D03*
%TO.P,U4,7,A5/D20*%
%TO.N,unconnected-(U4-A5{slash}D20-Pad7)*%
X138291200Y-109914000D03*
%TO.P,U4,8,A6/D21*%
%TO.N,unconnected-(U4-A6{slash}D21-Pad8)*%
X138291200Y-112454000D03*
%TO.P,U4,9,D0~*%
%TO.N,unconnected-(U4-D0~-Pad9)*%
X138291200Y-114994000D03*
%TO.P,U4,10,D1~*%
%TO.N,/TP_CS1*%
X138291200Y-117534000D03*
%TO.P,U4,11,D2~*%
%TO.N,/TP_CS2*%
X138291200Y-120074000D03*
%TO.P,U4,12,D3~*%
%TO.N,/TP_CS3*%
X138291200Y-122614000D03*
%TO.P,U4,13,D4~*%
%TO.N,unconnected-(U4-D4~-Pad13)*%
X138291200Y-125154000D03*
%TO.P,U4,14,D5~*%
%TO.N,unconnected-(U4-D5~-Pad14)*%
X138291200Y-127694000D03*
%TO.P,U4,15,D6~*%
%TO.N,unconnected-(U4-D6~-Pad15)*%
X158611200Y-127694000D03*
%TO.P,U4,16,D7~*%
%TO.N,unconnected-(U4-D7~-Pad16)*%
X158611200Y-125154000D03*
%TO.P,U4,17,D8~/COPI*%
%TO.N,/MOSI*%
X158611200Y-122614000D03*
%TO.P,U4,18,D9/SCK*%
%TO.N,/SCLK*%
X158611200Y-120074000D03*
%TO.P,U4,19,D10~/CIPO*%
%TO.N,/MISO*%
X158611200Y-117534000D03*
%TO.P,U4,20,D11/SDA*%
%TO.N,unconnected-(U4-D11{slash}SDA-Pad20)*%
X158611200Y-114994000D03*
%TO.P,U4,21,D12~/SCL*%
%TO.N,unconnected-(U4-D12~{slash}SCL-Pad21)*%
X158611200Y-112454000D03*
%TO.P,U4,22,D13/RX*%
%TO.N,/TX_IN*%
X158611200Y-109914000D03*
%TO.P,U4,23,D14/TX*%
%TO.N,/RX_IN*%
X158611200Y-107374000D03*
%TO.P,U4,24,RESET*%
%TO.N,unconnected-(U4-RESET-Pad24)*%
X158611200Y-104834000D03*
%TO.P,U4,25,GND*%
%TO.N,GND*%
X158611200Y-102294000D03*
%TO.P,U4,26,+3V3*%
%TO.N,+3.3*%
X158611200Y-99754000D03*
%TO.P,U4,27,VIN*%
%TO.N,unconnected-(U4-VIN-Pad27)*%
X158611200Y-97214000D03*
%TO.P,U4,28,+5V*%
%TO.N,+5V*%
X158611200Y-94674000D03*
%TD*%
D11*
%TO.P,R13,1*%
%TO.N,/A_Muon*%
X165235200Y-97879000D03*
%TO.P,R13,2*%
%TO.N,Net-(C4-Pad1)*%
X172855200Y-97879000D03*
%TD*%
%TO.P,R12,1*%
%TO.N,GND*%
X176665200Y-123914000D03*
%TO.P,R12,2*%
%TO.N,Net-(C4-Pad1)*%
X176665200Y-116294000D03*
%TD*%
D22*
%TO.N,GND*%
X170295200Y-116010000D03*
%TD*%
D23*
%TO.N,/TX_IN*%
X158611200Y-109914000D02*
X162167200Y-109914000D01*
X162167200Y-109914000D02*
X163183200Y-108898000D01*
%TO.N,/U2A_Out*%
X173871200Y-123660000D02*
X173871200Y-120348000D01*
X173871200Y-120348000D02*
X173851200Y-120328000D01*
%TO.N,/MOSI*%
X158611200Y-122614000D02*
X161405200Y-125408000D01*
X161405200Y-125408000D02*
X163437200Y-125408000D01*
%TO.N,/A_(+)*%
X176157200Y-93942000D02*
X174897200Y-93942000D01*
X174897200Y-93942000D02*
X172835200Y-91880000D01*
D24*
%TO.N,+5V*%
X181016200Y-89139000D02*
X186244200Y-89139000D01*
X186244200Y-89139000D02*
X187313200Y-88070000D01*
X181979200Y-104834000D02*
X181379200Y-104234000D01*
X158611200Y-94674000D02*
X164146200Y-89139000D01*
X177879200Y-106388000D02*
X182253200Y-106388000D01*
X181016200Y-89139000D02*
X186551200Y-94674000D01*
X170295200Y-91712000D02*
X167333200Y-94674000D01*
X164146200Y-89139000D02*
X181016200Y-89139000D01*
X182253200Y-106388000D02*
X182253200Y-105108000D01*
X183503200Y-104834000D02*
X181979200Y-104834000D01*
X125845200Y-98230000D02*
X125845200Y-97702000D01*
X186551200Y-94674000D02*
X186551200Y-101786000D01*
X181379200Y-104234000D02*
X179947200Y-102802000D01*
X186551200Y-101786000D02*
X183503200Y-104834000D01*
X182253200Y-105108000D02*
X181379200Y-104234000D01*
X155797200Y-91860000D02*
X158611200Y-94674000D01*
X167333200Y-94674000D02*
X158611200Y-94674000D01*
X173180200Y-111087000D02*
X177879200Y-106388000D01*
X125845200Y-97702000D02*
X131687200Y-91860000D01*
X131687200Y-91860000D02*
X155797200Y-91860000D01*
%TO.N,GND*%
X169182200Y-114897000D02*
X170295200Y-116010000D01*
X168230200Y-114897000D02*
X169182200Y-114897000D01*
D23*
%TO.N,+3.3*%
X124559400Y-99484200D02*
X134383057Y-99484200D01*
X123305200Y-98230000D02*
X124559400Y-99484200D01*
X134383057Y-99484200D02*
X137811457Y-96055800D01*
X137811457Y-96055800D02*
X154913000Y-96055800D01*
X154913000Y-96055800D02*
X158611200Y-99754000D01*
%TO.N,/SCLK*%
X125845200Y-103310000D02*
X134227200Y-103310000D01*
X134227200Y-103310000D02*
X137133000Y-106215800D01*
X137133000Y-106215800D02*
X144753000Y-106215800D01*
X144753000Y-106215800D02*
X158611200Y-120074000D01*
%TO.N,/MISO*%
X125845200Y-100770000D02*
X134735200Y-100770000D01*
X137417400Y-103452200D02*
X144529400Y-103452200D01*
X134735200Y-100770000D02*
X137417400Y-103452200D01*
X144529400Y-103452200D02*
X158611200Y-117534000D01*
%TO.N,/MOSI*%
X125845200Y-105850000D02*
X133719200Y-105850000D01*
X133719200Y-105850000D02*
X136625000Y-108755800D01*
X125845200Y-105850000D02*
X126353200Y-106358000D01*
X136625000Y-108755800D02*
X144753000Y-108755800D01*
X144753000Y-108755800D02*
X158611200Y-122614000D01*
%TO.N,Net-(D1-K)*%
X180455200Y-123396000D02*
X183737200Y-123396000D01*
X183737200Y-123396000D02*
X184011200Y-123122000D01*
%TO.N,Net-(C4-Pad1)*%
X176665200Y-116294000D02*
X176665200Y-113734000D01*
%TO.N,Net-(D1-A)*%
X173277200Y-112454000D02*
X177203200Y-112454000D01*
X180485200Y-109436000D02*
X184011200Y-112962000D01*
X173180200Y-112357000D02*
X173277200Y-112454000D01*
X180221200Y-109436000D02*
X180485200Y-109436000D01*
X177203200Y-112454000D02*
X180221200Y-109436000D01*
%TO.N,Net-(D2-A)*%
X178264204Y-119596000D02*
X180221200Y-119596000D01*
X173180200Y-113627000D02*
X172205201Y-113627000D01*
X180221200Y-119596000D02*
X183727200Y-119596000D01*
X183727200Y-119596000D02*
X187567200Y-115756000D01*
X174559400Y-115891196D02*
X178264204Y-119596000D01*
X171801000Y-109474200D02*
X172601200Y-108674000D01*
X173180200Y-113627000D02*
X173673114Y-113627000D01*
X172205201Y-113627000D02*
X171801000Y-113222799D01*
X174559400Y-114513286D02*
X174559400Y-115891196D01*
X173673114Y-113627000D02*
X174559400Y-114513286D01*
X171801000Y-113222799D02*
X171801000Y-109474200D01*
%TO.N,/A_(+)*%
X184154000Y-101516200D02*
X185535200Y-100135000D01*
X185535200Y-96456293D02*
X183006707Y-93927800D01*
X183006707Y-93927800D02*
X176171400Y-93927800D01*
X176171400Y-93927800D02*
X176157200Y-93942000D01*
X185535200Y-100135000D02*
X185535200Y-96456293D01*
X181201400Y-101516200D02*
X184154000Y-101516200D01*
X179947200Y-100262000D02*
X181201400Y-101516200D01*
%TO.N,Net-(U2A-+)*%
X174740200Y-107120000D02*
X176157200Y-105703000D01*
X164285000Y-111096204D02*
X168261204Y-107120000D01*
X176157200Y-105703000D02*
X176157200Y-101562000D01*
X165153204Y-114105000D02*
X164285000Y-113236796D01*
X164285000Y-113236796D02*
X164285000Y-111096204D01*
X167752200Y-114105000D02*
X165153204Y-114105000D01*
X168230200Y-113627000D02*
X167752200Y-114105000D01*
X168261204Y-107120000D02*
X174740200Y-107120000D01*
%TO.N,/A_Muon*%
X138291200Y-97214000D02*
X141989400Y-100912200D01*
X162202000Y-100912200D02*
X165235200Y-97879000D01*
X141989400Y-100912200D02*
X162202000Y-100912200D01*
%TO.N,/TP_CS1*%
X126364707Y-107135800D02*
X126856907Y-107628000D01*
X124575200Y-105596000D02*
X124575200Y-106385307D01*
X124591000Y-102055800D02*
X124591000Y-105580200D01*
X124575200Y-106385307D02*
X125325693Y-107135800D01*
X123305200Y-100770000D02*
X124591000Y-102055800D01*
X126861200Y-107628000D02*
X132845400Y-113612200D01*
X138941400Y-113612200D02*
X140831200Y-115502000D01*
X139815200Y-117534000D02*
X138291200Y-117534000D01*
X132845400Y-113612200D02*
X138941400Y-113612200D01*
X125325693Y-107135800D02*
X126364707Y-107135800D01*
X126856907Y-107628000D02*
X126861200Y-107628000D01*
X140831200Y-115502000D02*
X140831200Y-116518000D01*
X140831200Y-116518000D02*
X139815200Y-117534000D01*
X124591000Y-105580200D02*
X124575200Y-105596000D01*
%TO.N,/TP_CS3*%
X123305200Y-105850000D02*
X122051000Y-107104200D01*
X122051000Y-108909507D02*
X135755493Y-122614000D01*
X122051000Y-107104200D02*
X122051000Y-108909507D01*
X135755493Y-122614000D02*
X138291200Y-122614000D01*
%TO.N,/TP_CS2*%
X121443600Y-105171600D02*
X123305200Y-103310000D01*
X139449400Y-121232200D02*
X139449400Y-123093743D01*
X121443600Y-109161100D02*
X121443600Y-105171600D01*
X138770943Y-123772200D02*
X136054700Y-123772200D01*
X136054700Y-123772200D02*
X121443600Y-109161100D01*
X139449400Y-123093743D02*
X138770943Y-123772200D01*
X138291200Y-120074000D02*
X139449400Y-121232200D01*
%TO.N,/FB_Filter*%
X165489200Y-112738000D02*
X167849200Y-112738000D01*
X167849200Y-112738000D02*
X168230200Y-112357000D01*
X169319200Y-120592000D02*
X166251200Y-123660000D01*
X169319200Y-118072000D02*
X169319200Y-120592000D01*
%TO.N,/U2A_Out*%
X168230200Y-109510000D02*
X167902200Y-109182000D01*
X171819200Y-116258000D02*
X173180200Y-114897000D01*
X173180200Y-114897000D02*
X172205201Y-114897000D01*
X171819200Y-121608000D02*
X173871200Y-123660000D01*
X171193600Y-111946000D02*
X170334600Y-111087000D01*
X171193600Y-113885399D02*
X171193600Y-111946000D01*
X171819200Y-118072000D02*
X171819200Y-116258000D01*
X170334600Y-111087000D02*
X168230200Y-111087000D01*
X172205201Y-114897000D02*
X171193600Y-113885399D01*
X168230200Y-111087000D02*
X168230200Y-109510000D01*
X171819200Y-118072000D02*
X171819200Y-121608000D01*
D24*
%TO.N,+28V*%
X166825200Y-90102000D02*
X165215200Y-91712000D01*
X177407200Y-90102000D02*
X166825200Y-90102000D01*
X179947200Y-92642000D02*
X177407200Y-90102000D01*
D23*
%TO.N,/RX_IN*%
X158611200Y-107374000D02*
X169549000Y-96436200D01*
X169549000Y-96436200D02*
X181201400Y-96436200D01*
X181201400Y-96436200D02*
X182487200Y-97722000D01*
%TO.N,/TX_IN*%
X158611200Y-109150004D02*
X168753404Y-99007800D01*
X173429396Y-99007800D02*
X181233000Y-99007800D01*
X168753404Y-99007800D02*
X172281004Y-99007800D01*
X172356404Y-99083200D02*
X173353996Y-99083200D01*
X181233000Y-99007800D02*
X182487200Y-100262000D01*
X173353996Y-99083200D02*
X173429396Y-99007800D01*
X172281004Y-99007800D02*
X172356404Y-99083200D01*
X158611200Y-109914000D02*
X158611200Y-109150004D01*
%TD*%
M02*
