%TF.GenerationSoftware,KiCad,Pcbnew,9.0.7-9.0.7~ubuntu24.04.1*%
%TF.CreationDate,2026-03-04T23:47:23-05:00*%
%TF.ProjectId,ROCKSAT_Modules_V1,524f434b-5341-4545-9f4d-6f64756c6573,rev?*%
%TF.SameCoordinates,Original*%
%TF.FileFunction,Copper,L2,Bot*%
%TF.FilePolarity,Positive*%
%FSLAX46Y46*%
G04 Gerber Fmt 4.6, Leading zero omitted, Abs format (unit mm)*
G04 Created by KiCad (PCBNEW 9.0.7-9.0.7~ubuntu24.04.1) date 2026-03-04 23:47:23*
%MOMM*%
%LPD*%
G01*
G04 APERTURE LIST*
G04 Aperture macros list*
%AMRoundRect*
0 Rectangle with rounded corners*
0 $1 Rounding radius*
0 $2 $3 $4 $5 $6 $7 $8 $9 X,Y pos of 4 corners*
0 Add a 4 corners polygon primitive as box body*
4,1,4,$2,$3,$4,$5,$6,$7,$8,$9,$2,$3,0*
0 Add four circle primitives for the rounded corners*
1,1,$1+$1,$2,$3*
1,1,$1+$1,$4,$5*
1,1,$1+$1,$6,$7*
1,1,$1+$1,$8,$9*
0 Add four rect primitives between the rounded corners*
20,1,$1+$1,$2,$3,$4,$5,0*
20,1,$1+$1,$4,$5,$6,$7,0*
20,1,$1+$1,$6,$7,$8,$9,0*
20,1,$1+$1,$8,$9,$2,$3,0*%
G04 Aperture macros list end*
%TA.AperFunction,ComponentPad*%
%ADD10C,1.500000*%
%TD*%
%TA.AperFunction,ComponentPad*%
%ADD11C,1.600000*%
%TD*%
%TA.AperFunction,ComponentPad*%
%ADD12R,1.905000X2.000000*%
%TD*%
%TA.AperFunction,ComponentPad*%
%ADD13O,1.905000X2.000000*%
%TD*%
%TA.AperFunction,ComponentPad*%
%ADD14RoundRect,0.250000X0.650000X-0.650000X0.650000X0.650000X-0.650000X0.650000X-0.650000X-0.650000X0*%
%TD*%
%TA.AperFunction,ComponentPad*%
%ADD15C,1.800000*%
%TD*%
%TA.AperFunction,ComponentPad*%
%ADD16RoundRect,0.250000X-0.650000X0.650000X-0.650000X-0.650000X0.650000X-0.650000X0.650000X0.650000X0*%
%TD*%
%TA.AperFunction,ComponentPad*%
%ADD17R,1.700000X1.700000*%
%TD*%
%TA.AperFunction,ComponentPad*%
%ADD18C,1.700000*%
%TD*%
%TA.AperFunction,ComponentPad*%
%ADD19R,1.508000X1.508000*%
%TD*%
%TA.AperFunction,ComponentPad*%
%ADD20C,1.508000*%
%TD*%
%TA.AperFunction,ViaPad*%
%ADD21C,0.600000*%
%TD*%
%TA.AperFunction,Conductor*%
%ADD22C,0.406400*%
%TD*%
%TA.AperFunction,Conductor*%
%ADD23C,0.200000*%
%TD*%
G04 APERTURE END LIST*
D10*
%TO.P,TP12,1,1*%
%TO.N,/U2A_Out*%
X173851200Y-120328000D03*
%TD*%
%TO.P,TP11,1,1*%
%TO.N,/FB_Filter*%
X162675200Y-113978000D03*
%TD*%
%TO.P,TP10,1,1*%
%TO.N,/A_Muon*%
X133211200Y-94674000D03*
%TD*%
%TO.P,TP9,1,1*%
%TO.N,/A_(+)*%
X172835200Y-91880000D03*
%TD*%
%TO.P,TP8,1,1*%
%TO.N,GND*%
X187567200Y-105596000D03*
%TD*%
%TO.P,TP7,1,1*%
%TO.N,/SCLK*%
X132703200Y-107628000D03*
%TD*%
%TO.P,TP6,1,1*%
%TO.N,/MISO*%
X125083200Y-92134000D03*
%TD*%
%TO.P,TP5,1,1*%
%TO.N,/MOSI*%
X163437200Y-125408000D03*
%TD*%
%TO.P,TP4,1,1*%
%TO.N,/TX_IN*%
X163183200Y-108898000D03*
%TD*%
%TO.P,TP3,1,1*%
%TO.N,/RX_IN*%
X189345200Y-93150000D03*
%TD*%
%TO.P,TP2,1,1*%
%TO.N,+3.3*%
X190361200Y-100770000D03*
%TD*%
%TO.P,TP1,1,1*%
%TO.N,+5V*%
X187313200Y-88070000D03*
%TD*%
D11*
%TO.P,C1,1*%
%TO.N,GND*%
X184753200Y-106388000D03*
%TO.P,C1,2*%
%TO.N,+5V*%
X182253200Y-106388000D03*
%TD*%
D12*
%TO.P,U1,1,VI*%
%TO.N,+28V*%
X165215200Y-91712000D03*
D13*
%TO.P,U1,2,GND*%
%TO.N,GND*%
X167755200Y-91712000D03*
%TO.P,U1,3,VO*%
%TO.N,+5V*%
X170295200Y-91712000D03*
%TD*%
D14*
%TO.P,D1,1,K*%
%TO.N,Net-(D1-K)*%
X184011200Y-123122000D03*
D15*
%TO.P,D1,2,A*%
%TO.N,Net-(D1-A)*%
X184011200Y-112962000D03*
%TD*%
D11*
%TO.P,R8,1*%
%TO.N,GND*%
X167902200Y-101562000D03*
%TO.P,R8,2*%
%TO.N,/U2A_Out*%
X167902200Y-109182000D03*
%TD*%
%TO.P,R9,1*%
%TO.N,/U2A_Out*%
X173871200Y-123660000D03*
%TO.P,R9,2*%
%TO.N,/FB_Filter*%
X166251200Y-123660000D03*
%TD*%
D16*
%TO.P,D2,1,K*%
%TO.N,Net-(D1-A)*%
X180221200Y-109436000D03*
D15*
%TO.P,D2,2,A*%
%TO.N,Net-(D2-A)*%
X180221200Y-119596000D03*
%TD*%
D17*
%TO.P,J1,1,Pin_1*%
%TO.N,+5V*%
X125845200Y-98230000D03*
D18*
%TO.P,J1,2,Pin_2*%
%TO.N,+3.3*%
X123305200Y-98230000D03*
%TO.P,J1,3,Pin_3*%
%TO.N,/MISO*%
X125845200Y-100770000D03*
%TO.P,J1,4,Pin_4*%
%TO.N,/TP_CS1*%
X123305200Y-100770000D03*
%TO.P,J1,5,Pin_5*%
%TO.N,/SCLK*%
X125845200Y-103310000D03*
%TO.P,J1,6,Pin_6*%
%TO.N,/TP_CS2*%
X123305200Y-103310000D03*
%TO.P,J1,7,Pin_7*%
%TO.N,/MOSI*%
X125845200Y-105850000D03*
%TO.P,J1,8,Pin_8*%
%TO.N,/TP_CS3*%
X123305200Y-105850000D03*
%TO.P,J1,9,Pin_9*%
%TO.N,unconnected-(J1-Pin_9-Pad9)*%
X125845200Y-108390000D03*
%TO.P,J1,10,Pin_10*%
%TO.N,GND*%
X123305200Y-108390000D03*
%TD*%
D11*
%TO.P,C2,1*%
%TO.N,GND*%
X131687200Y-89360000D03*
%TO.P,C2,2*%
%TO.N,+5V*%
X131687200Y-91860000D03*
%TD*%
%TO.P,C3,1*%
%TO.N,GND*%
X180455200Y-125896000D03*
%TO.P,C3,2*%
%TO.N,Net-(D1-K)*%
X180455200Y-123396000D03*
%TD*%
%TO.P,C4,1*%
%TO.N,Net-(C4-Pad1)*%
X176665200Y-113734000D03*
%TO.P,C4,2*%
%TO.N,Net-(D1-K)*%
X176665200Y-111234000D03*
%TD*%
%TO.P,R11,1*%
%TO.N,GND*%
X187567200Y-108136000D03*
%TO.P,R11,2*%
%TO.N,Net-(D2-A)*%
X187567200Y-115756000D03*
%TD*%
%TO.P,C5,1*%
%TO.N,/FB_Filter*%
X169319200Y-118072000D03*
%TO.P,C5,2*%
%TO.N,/U2A_Out*%
X171819200Y-118072000D03*
%TD*%
%TO.P,R14,1*%
%TO.N,Net-(D1-K)*%
X172601200Y-101054000D03*
%TO.P,R14,2*%
%TO.N,Net-(D2-A)*%
X172601200Y-108674000D03*
%TD*%
%TO.P,R7,1*%
%TO.N,Net-(U2A-+)*%
X176157200Y-101562000D03*
%TO.P,R7,2*%
%TO.N,/A_(+)*%
X176157200Y-93942000D03*
%TD*%
D17*
%TO.P,J2,1,Pin_1*%
%TO.N,+5V*%
X179947200Y-102802000D03*
D18*
%TO.P,J2,2,Pin_2*%
%TO.N,+3.3*%
X182487200Y-102802000D03*
%TO.P,J2,3,Pin_3*%
%TO.N,/A_(+)*%
X179947200Y-100262000D03*
%TO.P,J2,4,Pin_4*%
%TO.N,/TX_IN*%
X182487200Y-100262000D03*
%TO.P,J2,5,Pin_5*%
%TO.N,unconnected-(J2-Pin_5-Pad5)*%
X179947200Y-97722000D03*
%TO.P,J2,6,Pin_6*%
%TO.N,/RX_IN*%
X182487200Y-97722000D03*
%TO.P,J2,7,Pin_7*%
%TO.N,unconnected-(J2-Pin_7-Pad7)*%
X179947200Y-95182000D03*
%TO.P,J2,8,Pin_8*%
%TO.N,/A_Spare1*%
X182487200Y-95182000D03*
%TO.P,J2,9,Pin_9*%
%TO.N,+28V*%
X179947200Y-92642000D03*
%TO.P,J2,10,Pin_10*%
%TO.N,GND*%
X182487200Y-92642000D03*
%TD*%
D11*
%TO.P,R10,1*%
%TO.N,GND*%
X165489200Y-120358000D03*
%TO.P,R10,2*%
%TO.N,/FB_Filter*%
X165489200Y-112738000D03*
%TD*%
D19*
%TO.P,U4,1,AREF*%
%TO.N,unconnected-(U4-AREF-Pad1)*%
X138291200Y-94674000D03*
D20*
%TO.P,U4,2,A0/D15*%
%TO.N,/A_Muon*%
X138291200Y-97214000D03*
%TO.P,U4,3,A1/D16*%
%TO.N,/A_Spare1*%
X138291200Y-99754000D03*
%TO.P,U4,4,A2/D17*%
%TO.N,unconnected-(U4-A2{slash}D17-Pad4)*%
X138291200Y-102294000D03*
%TO.P,U4,5,A3/D18~*%
%TO.N,unconnected-(U4-A3{slash}D18~-Pad5)*%
X138291200Y-104834000D03*
%TO.P,U4,6,A4/D19~*%
%TO.N,unconnected-(U4-A4{slash}D19~-Pad6)*%
X138291200Y-107374000D03*
%TO.P,U4,7,A5/D20*%
%TO.N,unconnected-(U4-A5{slash}D20-Pad7)*%
X138291200Y-109914000D03*
%TO.P,U4,8,A6/D21*%
%TO.N,unconnected-(U4-A6{slash}D21-Pad8)*%
X138291200Y-112454000D03*
%TO.P,U4,9,D0~*%
%TO.N,unconnected-(U4-D0~-Pad9)*%
X138291200Y-114994000D03*
%TO.P,U4,10,D1~*%
%TO.N,/TP_CS1*%
X138291200Y-117534000D03*
%TO.P,U4,11,D2~*%
%TO.N,/TP_CS2*%
X138291200Y-120074000D03*
%TO.P,U4,12,D3~*%
%TO.N,/TP_CS3*%
X138291200Y-122614000D03*
%TO.P,U4,13,D4~*%
%TO.N,unconnected-(U4-D4~-Pad13)*%
X138291200Y-125154000D03*
%TO.P,U4,14,D5~*%
%TO.N,unconnected-(U4-D5~-Pad14)*%
X138291200Y-127694000D03*
%TO.P,U4,15,D6~*%
%TO.N,unconnected-(U4-D6~-Pad15)*%
X158611200Y-127694000D03*
%TO.P,U4,16,D7~*%
%TO.N,unconnected-(U4-D7~-Pad16)*%
X158611200Y-125154000D03*
%TO.P,U4,17,D8~/COPI*%
%TO.N,/MOSI*%
X158611200Y-122614000D03*
%TO.P,U4,18,D9/SCK*%
%TO.N,/SCLK*%
X158611200Y-120074000D03*
%TO.P,U4,19,D10~/CIPO*%
%TO.N,/MISO*%
X158611200Y-117534000D03*
%TO.P,U4,20,D11/SDA*%
%TO.N,unconnected-(U4-D11{slash}SDA-Pad20)*%
X158611200Y-114994000D03*
%TO.P,U4,21,D12~/SCL*%
%TO.N,unconnected-(U4-D12~{slash}SCL-Pad21)*%
X158611200Y-112454000D03*
%TO.P,U4,22,D13/RX*%
%TO.N,/TX_IN*%
X158611200Y-109914000D03*
%TO.P,U4,23,D14/TX*%
%TO.N,/RX_IN*%
X158611200Y-107374000D03*
%TO.P,U4,24,RESET*%
%TO.N,unconnected-(U4-RESET-Pad24)*%
X158611200Y-104834000D03*
%TO.P,U4,25,GND*%
%TO.N,GND*%
X158611200Y-102294000D03*
%TO.P,U4,26,+3V3*%
%TO.N,+3.3*%
X158611200Y-99754000D03*
%TO.P,U4,27,VIN*%
%TO.N,unconnected-(U4-VIN-Pad27)*%
X158611200Y-97214000D03*
%TO.P,U4,28,+5V*%
%TO.N,+5V*%
X158611200Y-94674000D03*
%TD*%
D11*
%TO.P,R13,1*%
%TO.N,/A_Muon*%
X165235200Y-97879000D03*
%TO.P,R13,2*%
%TO.N,Net-(C4-Pad1)*%
X172855200Y-97879000D03*
%TD*%
%TO.P,R12,1*%
%TO.N,GND*%
X176665200Y-123914000D03*
%TO.P,R12,2*%
%TO.N,Net-(C4-Pad1)*%
X176665200Y-116294000D03*
%TD*%
D21*
%TO.N,GND*%
X170295200Y-116010000D03*
%TD*%
D22*
%TO.N,/A_Muon*%
X138291200Y-97214000D02*
X135751200Y-94674000D01*
X135751200Y-94674000D02*
X133211200Y-94674000D01*
%TO.N,/FB_Filter*%
X166236200Y-114989000D02*
X169319200Y-118072000D01*
X166236200Y-114989000D02*
X165225200Y-113978000D01*
X165225200Y-113978000D02*
X162675200Y-113978000D01*
%TO.N,/MISO*%
X125845200Y-100770000D02*
X127099400Y-99515800D01*
X127099400Y-99515800D02*
X127099400Y-94150200D01*
X127099400Y-94150200D02*
X125083200Y-92134000D01*
D23*
%TO.N,/SCLK*%
X132703200Y-107628000D02*
X128385200Y-103310000D01*
X128385200Y-103310000D02*
X125845200Y-103310000D01*
D22*
%TO.N,+3.3*%
X182487200Y-102802000D02*
X184519200Y-100770000D01*
X184519200Y-100770000D02*
X190361200Y-100770000D01*
%TO.N,/RX_IN*%
X182487200Y-97722000D02*
X187059200Y-93150000D01*
X187059200Y-93150000D02*
X189345200Y-93150000D01*
%TO.N,+3.3*%
X158611200Y-99754000D02*
X161690400Y-96674800D01*
X161690400Y-96674800D02*
X174586293Y-96674800D01*
X174586293Y-96674800D02*
X179427693Y-101516200D01*
X181201400Y-101516200D02*
X182487200Y-102802000D01*
X179427693Y-101516200D02*
X181201400Y-101516200D01*
%TO.N,Net-(D1-K)*%
X180455200Y-123396000D02*
X177869400Y-120810200D01*
X176665200Y-105118000D02*
X172601200Y-101054000D01*
X177869400Y-112438200D02*
X176665200Y-111234000D01*
X177869400Y-120810200D02*
X177869400Y-112438200D01*
X176665200Y-111234000D02*
X176665200Y-105118000D01*
%TO.N,Net-(C4-Pad1)*%
X176665200Y-113734000D02*
X175375200Y-112444000D01*
X175375200Y-112444000D02*
X175375200Y-105530996D01*
X171397000Y-99337200D02*
X172855200Y-97879000D01*
X171397000Y-101552796D02*
X171397000Y-99337200D01*
X175375200Y-105530996D02*
X171397000Y-101552796D01*
%TO.N,/FB_Filter*%
X165489200Y-112738000D02*
X165489200Y-114242000D01*
X165489200Y-114242000D02*
X166236200Y-114989000D01*
%TO.N,/A_Spare1*%
X162046206Y-95460000D02*
X161816206Y-95690000D01*
X181201400Y-93896200D02*
X177814396Y-93896200D01*
X159233143Y-95690000D02*
X159090943Y-95832200D01*
X177814396Y-93896200D02*
X176560196Y-92642000D01*
X174217000Y-92642000D02*
X171399000Y-95460000D01*
X171399000Y-95460000D02*
X162046206Y-95460000D01*
X182487200Y-95182000D02*
X181201400Y-93896200D01*
X161816206Y-95690000D02*
X159233143Y-95690000D01*
X176560196Y-92642000D02*
X174217000Y-92642000D01*
X159090943Y-95832200D02*
X158131457Y-95832200D01*
X158131457Y-95832200D02*
X157989257Y-95690000D01*
X144387200Y-95690000D02*
X140323200Y-99754000D01*
X140323200Y-99754000D02*
X138291200Y-99754000D01*
X157989257Y-95690000D02*
X144387200Y-95690000D01*
%TD*%
%TA.AperFunction,Conductor*%
%TO.N,GND*%
G36*
X124646644Y-106503999D02*
G01*
X124685686Y-106549056D01*
X124690151Y-106557820D01*
X124815090Y-106729786D01*
X124965413Y-106880109D01*
X125137382Y-107005050D01*
X125146146Y-107009516D01*
X125196942Y-107057491D01*
X125213736Y-107125312D01*
X125191198Y-107191447D01*
X125146146Y-107230484D01*
X125137382Y-107234949D01*
X124965413Y-107359890D01*
X124815090Y-107510213D01*
X124690149Y-107682182D01*
X124685402Y-107691499D01*
X124637427Y-107742293D01*
X124569605Y-107759087D01*
X124503471Y-107736548D01*
X124464434Y-107691495D01*
X124459826Y-107682452D01*
X124420470Y-107628282D01*
X124420469Y-107628282D01*
X123788162Y-108260590D01*
X123771125Y-108197007D01*
X123705299Y-108082993D01*
X123612207Y-107989901D01*
X123498193Y-107924075D01*
X123434609Y-107907037D01*
X124066916Y-107274728D01*
X124012747Y-107235373D01*
X124012747Y-107235372D01*
X124003700Y-107230763D01*
X123952906Y-107182788D01*
X123936112Y-107114966D01*
X123958651Y-107048832D01*
X124003708Y-107009793D01*
X124013016Y-107005051D01*
X124156987Y-106900451D01*
X124184986Y-106880109D01*
X124184988Y-106880106D01*
X124184992Y-106880104D01*
X124335304Y-106729792D01*
X124335306Y-106729788D01*
X124335309Y-106729786D01*
X124460248Y-106557820D01*
X124460247Y-106557820D01*
X124460251Y-106557816D01*
X124464714Y-106549054D01*
X124512688Y-106498259D01*
X124580508Y-106481463D01*
X124646644Y-106503999D01*
G37*
%TD.AperFunction*%
%TA.AperFunction,Conductor*%
G36*
X166510550Y-69032109D02*
G01*
X177458535Y-74261568D01*
X177492914Y-74285922D01*
X180048519Y-76850041D01*
X185518962Y-82338708D01*
X185544513Y-82376028D01*
X187435359Y-86645285D01*
X187444508Y-86714553D01*
X187414757Y-86777772D01*
X187355549Y-86814870D01*
X187321981Y-86819500D01*
X187214778Y-86819500D01*
X187020373Y-86850290D01*
X186833170Y-86911117D01*
X186657794Y-87000476D01*
X186566941Y-87066485D01*
X186498554Y-87116172D01*
X186498552Y-87116174D01*
X186498551Y-87116174D01*
X186359374Y-87255351D01*
X186359374Y-87255352D01*
X186359372Y-87255354D01*
X186309685Y-87323741D01*
X186243676Y-87414594D01*
X186154317Y-87589970D01*
X186093490Y-87777173D01*
X186062700Y-87971577D01*
X186062700Y-88168422D01*
X186093490Y-88362826D01*
X186154317Y-88550029D01*
X186197142Y-88634077D01*
X186243676Y-88725405D01*
X186359372Y-88884646D01*
X186498554Y-89023828D01*
X186657795Y-89139524D01*
X186740655Y-89181743D01*
X186833170Y-89228882D01*
X186833172Y-89228882D01*
X186833175Y-89228884D01*
X186921806Y-89257682D01*
X187020373Y-89289709D01*
X187214778Y-89320500D01*
X187214783Y-89320500D01*
X187411622Y-89320500D01*
X187606026Y-89289709D01*
X187793225Y-89228884D01*
X187968605Y-89139524D01*
X188127846Y-89023828D01*
X188250172Y-88901501D01*
X188311491Y-88868019D01*
X188381183Y-88873003D01*
X188437117Y-88914874D01*
X188451228Y-88938970D01*
X189694223Y-91745473D01*
X189703372Y-91814741D01*
X189673621Y-91877960D01*
X189614413Y-91915058D01*
X189561448Y-91918161D01*
X189443624Y-91899500D01*
X189443617Y-91899500D01*
X189246783Y-91899500D01*
X189246778Y-91899500D01*
X189052373Y-91930290D01*
X188865170Y-91991117D01*
X188689794Y-92080476D01*
X188605115Y-92142000D01*
X188530554Y-92196172D01*
X188530552Y-92196174D01*
X188530551Y-92196174D01*
X188391374Y-92335351D01*
X188391372Y-92335354D01*
X188367752Y-92367865D01*
X188347902Y-92395186D01*
X188292572Y-92437851D01*
X188247584Y-92446300D01*
X186989889Y-92446300D01*
X186919418Y-92460318D01*
X186884182Y-92467327D01*
X186863972Y-92471347D01*
X186853936Y-92473343D01*
X186853933Y-92473344D01*
X186725876Y-92526386D01*
X186610616Y-92603400D01*
X186572018Y-92641999D01*
X186512600Y-92701417D01*
X184049381Y-95164636D01*
X183988058Y-95198121D01*
X183918366Y-95193137D01*
X183862433Y-95151265D01*
X183838016Y-95085801D01*
X183837700Y-95076955D01*
X183837700Y-95075713D01*
X183820267Y-94965648D01*
X183804446Y-94865757D01*
X183738757Y-94663588D01*
X183642251Y-94474184D01*
X183642249Y-94474181D01*
X183642248Y-94474179D01*
X183517309Y-94302213D01*
X183366986Y-94151890D01*
X183195017Y-94026949D01*
X183185704Y-94022204D01*
X183134907Y-93974230D01*
X183118112Y-93906409D01*
X183140649Y-93840274D01*
X183185707Y-93801232D01*
X183194755Y-93796622D01*
X183248916Y-93757270D01*
X183248917Y-93757270D01*
X182616608Y-93124962D01*
X182680193Y-93107925D01*
X182794207Y-93042099D01*
X182887299Y-92949007D01*
X182953125Y-92834993D01*
X182970162Y-92771409D01*
X183602470Y-93403717D01*
X183602470Y-93403716D01*
X183641822Y-93349554D01*
X183738295Y-93160217D01*
X183803957Y-92958130D01*
X183803957Y-92958127D01*
X183837200Y-92748246D01*
X183837200Y-92535753D01*
X183803957Y-92325872D01*
X183803957Y-92325869D01*
X183738295Y-92123782D01*
X183641824Y-91934449D01*
X183602470Y-91880282D01*
X183602469Y-91880282D01*
X182970162Y-92512590D01*
X182953125Y-92449007D01*
X182887299Y-92334993D01*
X182794207Y-92241901D01*
X182680193Y-92176075D01*
X182616609Y-92159037D01*
X183248916Y-91526728D01*
X183194750Y-91487375D01*
X183005417Y-91390904D01*
X182803329Y-91325242D01*
X182593446Y-91292000D01*
X182380954Y-91292000D01*
X182171072Y-91325242D01*
X182171069Y-91325242D01*
X181968982Y-91390904D01*
X181779639Y-91487380D01*
X181725482Y-91526727D01*
X181725482Y-91526728D01*
X182357791Y-92159037D01*
X182294207Y-92176075D01*
X182180193Y-92241901D01*
X182087101Y-92334993D01*
X182021275Y-92449007D01*
X182004237Y-92512591D01*
X181371928Y-91880282D01*
X181371927Y-91880282D01*
X181332580Y-91934440D01*
X181332576Y-91934446D01*
X181327960Y-91943505D01*
X181279981Y-91994297D01*
X181212159Y-92011087D01*
X181146026Y-91988543D01*
X181106994Y-91943493D01*
X181102251Y-91934184D01*
X181102249Y-91934181D01*
X181102248Y-91934179D01*
X180977309Y-91762213D01*
X180826986Y-91611890D01*
X180655020Y-91486951D01*
X180465614Y-91390444D01*
X180465613Y-91390443D01*
X180465612Y-91390443D01*
X180263443Y-91324754D01*
X180263441Y-91324753D01*
X180263440Y-91324753D01*
X180102157Y-91299208D01*
X180053487Y-91291500D01*
X179840913Y-91291500D01*
X179792242Y-91299208D01*
X179630960Y-91324753D01*
X179428785Y-91390444D01*
X179239379Y-91486951D01*
X179067413Y-91611890D01*
X178917090Y-91762213D01*
X178792151Y-91934179D01*
X178695644Y-92123585D01*
X178629953Y-92325760D01*
X178606578Y-92473344D01*
X178596700Y-92535713D01*
X178596700Y-92748287D01*
X178606734Y-92811644D01*
X178629935Y-92958127D01*
X178629954Y-92958243D01*
X178644242Y-93002217D01*
X178653329Y-93030182D01*
X178655324Y-93100023D01*
X178619244Y-93159856D01*
X178556543Y-93190684D01*
X178535398Y-93192500D01*
X178157240Y-93192500D01*
X178090201Y-93172815D01*
X178069559Y-93156181D01*
X177111136Y-92197758D01*
X177111116Y-92197736D01*
X177008781Y-92095401D01*
X176893519Y-92018386D01*
X176765462Y-91965344D01*
X176765454Y-91965342D01*
X176761496Y-91964555D01*
X176757538Y-91963767D01*
X176757534Y-91963765D01*
X176757534Y-91963766D01*
X176691494Y-91950630D01*
X176629505Y-91938299D01*
X176629504Y-91938299D01*
X176490888Y-91938299D01*
X176484774Y-91938299D01*
X176484754Y-91938300D01*
X174292442Y-91938300D01*
X174286313Y-91938299D01*
X174286309Y-91938299D01*
X174209699Y-91938299D01*
X174142659Y-91918614D01*
X174096905Y-91865809D01*
X174096903Y-91865798D01*
X174085700Y-91814299D01*
X174085700Y-91781577D01*
X174054909Y-91587173D01*
X173994082Y-91399970D01*
X173939068Y-91292000D01*
X173904724Y-91224595D01*
X173789028Y-91065354D01*
X173649846Y-90926172D01*
X173490605Y-90810476D01*
X173475664Y-90802863D01*
X173315229Y-90721117D01*
X173128026Y-90660290D01*
X172933622Y-90629500D01*
X172933617Y-90629500D01*
X172736783Y-90629500D01*
X172736778Y-90629500D01*
X172542373Y-90660290D01*
X172355170Y-90721117D01*
X172179794Y-90810476D01*
X172100582Y-90868028D01*
X172020554Y-90926172D01*
X172020552Y-90926174D01*
X172020551Y-90926174D01*
X171881371Y-91065354D01*
X171847066Y-91112571D01*
X171791735Y-91155236D01*
X171722122Y-91161214D01*
X171660327Y-91128607D01*
X171636264Y-91095979D01*
X171593875Y-91012786D01*
X171537917Y-90902962D01*
X171403486Y-90717934D01*
X171241766Y-90556214D01*
X171056738Y-90421783D01*
X170852955Y-90317950D01*
X170635448Y-90247278D01*
X170450012Y-90217908D01*
X170409554Y-90211500D01*
X170180846Y-90211500D01*
X170140388Y-90217908D01*
X169954953Y-90247278D01*
X169954950Y-90247278D01*
X169737444Y-90317950D01*
X169533661Y-90421783D01*
X169428725Y-90498024D01*
X169348634Y-90556214D01*
X169348632Y-90556216D01*
X169348631Y-90556216D01*
X169186916Y-90717931D01*
X169186909Y-90717940D01*
X169125207Y-90802864D01*
X169069877Y-90845530D01*
X169000263Y-90851508D01*
X168938469Y-90818901D01*
X168924572Y-90802863D01*
X168863107Y-90718263D01*
X168863102Y-90718257D01*
X168701442Y-90556597D01*
X168516476Y-90422211D01*
X168312768Y-90318417D01*
X168095324Y-90247765D01*
X168005200Y-90233490D01*
X168005200Y-91221252D01*
X167967492Y-91199482D01*
X167827609Y-91162000D01*
X167682791Y-91162000D01*
X167542908Y-91199482D01*
X167505200Y-91221252D01*
X167505200Y-90233490D01*
X167505199Y-90233490D01*
X167415075Y-90247765D01*
X167197631Y-90318417D01*
X166993919Y-90422213D01*
X166811139Y-90555010D01*
X166745332Y-90578490D01*
X166677279Y-90562664D01*
X166628584Y-90512558D01*
X166622075Y-90498033D01*
X166611496Y-90469669D01*
X166611495Y-90469667D01*
X166611493Y-90469664D01*
X166525247Y-90354455D01*
X166525244Y-90354452D01*
X166410035Y-90268206D01*
X166410028Y-90268202D01*
X166275182Y-90217908D01*
X166275183Y-90217908D01*
X166215583Y-90211501D01*
X166215581Y-90211500D01*
X166215573Y-90211500D01*
X166215564Y-90211500D01*
X164214829Y-90211500D01*
X164214823Y-90211501D01*
X164155216Y-90217908D01*
X164020371Y-90268202D01*
X164020364Y-90268206D01*
X163905155Y-90354452D01*
X163905152Y-90354455D01*
X163818906Y-90469664D01*
X163818902Y-90469671D01*
X163768608Y-90604517D01*
X163762201Y-90664116D01*
X163762200Y-90664135D01*
X163762200Y-92759870D01*
X163762201Y-92759876D01*
X163768608Y-92819483D01*
X163818902Y-92954328D01*
X163818906Y-92954335D01*
X163905152Y-93069544D01*
X163905155Y-93069547D01*
X164020364Y-93155793D01*
X164020371Y-93155797D01*
X164155217Y-93206091D01*
X164155216Y-93206091D01*
X164162144Y-93206835D01*
X164214827Y-93212500D01*
X166215572Y-93212499D01*
X166275183Y-93206091D01*
X166410031Y-93155796D01*
X166525246Y-93069546D01*
X166611496Y-92954331D01*
X166622072Y-92925974D01*
X166663940Y-92870041D01*
X166729404Y-92845622D01*
X166797677Y-92860472D01*
X166811140Y-92868988D01*
X166993923Y-93001788D01*
X167197629Y-93105582D01*
X167415071Y-93176234D01*
X167505200Y-93190509D01*
X167505200Y-92202747D01*
X167542908Y-92224518D01*
X167682791Y-92262000D01*
X167827609Y-92262000D01*
X167967492Y-92224518D01*
X168005200Y-92202747D01*
X168005200Y-93190508D01*
X168095328Y-93176234D01*
X168312770Y-93105582D01*
X168516476Y-93001788D01*
X168701442Y-92867402D01*
X168863105Y-92705739D01*
X168924571Y-92621137D01*
X168979901Y-92578470D01*
X169049514Y-92572491D01*
X169111309Y-92605096D01*
X169125207Y-92621134D01*
X169186914Y-92706066D01*
X169348634Y-92867786D01*
X169533662Y-93002217D01*
X169701683Y-93087828D01*
X169737444Y-93106049D01*
X169954951Y-93176721D01*
X169954952Y-93176721D01*
X169954955Y-93176722D01*
X170180846Y-93212500D01*
X170180847Y-93212500D01*
X170409553Y-93212500D01*
X170409554Y-93212500D01*
X170635445Y-93176722D01*
X170635448Y-93176721D01*
X170635449Y-93176721D01*
X170852955Y-93106049D01*
X170852955Y-93106048D01*
X170852958Y-93106048D01*
X171056738Y-93002217D01*
X171241766Y-92867786D01*
X171403486Y-92706066D01*
X171537917Y-92521038D01*
X171537921Y-92521031D01*
X171540462Y-92516886D01*
X171541479Y-92517509D01*
X171585617Y-92470768D01*
X171653437Y-92453967D01*
X171719573Y-92476500D01*
X171758620Y-92521558D01*
X171761082Y-92526389D01*
X171765676Y-92535405D01*
X171881372Y-92694646D01*
X172020554Y-92833828D01*
X172179795Y-92949524D01*
X172262655Y-92991743D01*
X172355170Y-93038882D01*
X172355172Y-93038882D01*
X172355175Y-93038884D01*
X172505799Y-93087825D01*
X172517285Y-93091557D01*
X172574960Y-93130995D01*
X172602158Y-93195354D01*
X172590243Y-93264200D01*
X172566647Y-93297169D01*
X171143837Y-94719981D01*
X171082514Y-94753466D01*
X171056156Y-94756300D01*
X162121648Y-94756300D01*
X162121628Y-94756299D01*
X162115514Y-94756299D01*
X161976897Y-94756299D01*
X161976895Y-94756299D01*
X161840949Y-94783341D01*
X161840941Y-94783343D01*
X161712882Y-94836386D01*
X161597620Y-94913401D01*
X161597619Y-94913402D01*
X161561043Y-94949980D01*
X161499721Y-94983466D01*
X161473361Y-94986300D01*
X159977060Y-94986300D01*
X159910021Y-94966615D01*
X159864266Y-94913811D01*
X159854322Y-94844653D01*
X159854587Y-94842902D01*
X159865700Y-94772736D01*
X159865700Y-94575263D01*
X159834810Y-94380236D01*
X159811625Y-94308882D01*
X159773791Y-94192439D01*
X159684144Y-94016499D01*
X159676686Y-94006234D01*
X159568084Y-93856753D01*
X159428446Y-93717115D01*
X159268704Y-93601058D01*
X159268703Y-93601057D01*
X159268701Y-93601056D01*
X159092761Y-93511409D01*
X159082325Y-93508018D01*
X158904963Y-93450389D01*
X158709936Y-93419500D01*
X158709931Y-93419500D01*
X158512469Y-93419500D01*
X158512464Y-93419500D01*
X158317436Y-93450389D01*
X158129641Y-93511408D01*
X157953695Y-93601058D01*
X157793953Y-93717115D01*
X157654315Y-93856753D01*
X157538258Y-94016495D01*
X157448608Y-94192441D01*
X157387589Y-94380236D01*
X157356700Y-94575263D01*
X157356700Y-94772736D01*
X157367813Y-94842902D01*
X157358858Y-94912196D01*
X157313862Y-94965648D01*
X157247110Y-94986287D01*
X157245340Y-94986300D01*
X144462643Y-94986300D01*
X144462623Y-94986299D01*
X144456509Y-94986299D01*
X144317892Y-94986299D01*
X144317890Y-94986299D01*
X144181943Y-95013341D01*
X144181935Y-95013343D01*
X144053876Y-95066386D01*
X143938616Y-95143400D01*
X143889608Y-95192408D01*
X143840600Y-95241417D01*
X143840597Y-95241420D01*
X141944349Y-97137669D01*
X140068037Y-99013981D01*
X140006714Y-99047466D01*
X139980356Y-99050300D01*
X139393760Y-99050300D01*
X139326721Y-99030615D01*
X139293441Y-98999184D01*
X139287701Y-98991284D01*
X139274822Y-98973557D01*
X139248082Y-98936751D01*
X139108446Y-98797115D01*
X138948705Y-98681058D01*
X138942319Y-98677804D01*
X138778793Y-98594482D01*
X138728000Y-98546510D01*
X138711205Y-98478689D01*
X138733742Y-98412554D01*
X138778793Y-98373517D01*
X138948701Y-98286944D01*
X139012745Y-98240414D01*
X139108446Y-98170884D01*
X139108448Y-98170881D01*
X139108452Y-98170879D01*
X139248079Y-98031252D01*
X139248081Y-98031248D01*
X139248084Y-98031246D01*
X139333443Y-97913757D01*
X139364144Y-97871501D01*
X139453791Y-97695561D01*
X139514810Y-97507763D01*
X139519486Y-97478241D01*
X139545700Y-97312736D01*
X139545700Y-97115263D01*
X139514810Y-96920236D01*
X139490543Y-96845552D01*
X139453791Y-96732439D01*
X139364144Y-96556499D01*
X139326965Y-96505326D01*
X139248084Y-96396753D01*
X139108450Y-96257119D01*
X139108445Y-96257115D01*
X138964890Y-96152817D01*
X138922224Y-96097488D01*
X138916245Y-96027874D01*
X138948850Y-95966079D01*
X139009689Y-95931722D01*
X139037775Y-95928499D01*
X139093071Y-95928499D01*
X139093072Y-95928499D01*
X139152683Y-95922091D01*
X139287531Y-95871796D01*
X139402746Y-95785546D01*
X139488996Y-95670331D01*
X139539291Y-95535483D01*
X139545700Y-95475873D01*
X139545699Y-93872128D01*
X139539291Y-93812517D01*
X139536638Y-93805405D01*
X139488997Y-93677671D01*
X139488993Y-93677664D01*
X139402747Y-93562455D01*
X139402744Y-93562452D01*
X139287535Y-93476206D01*
X139287528Y-93476202D01*
X139152682Y-93425908D01*
X139152683Y-93425908D01*
X139093083Y-93419501D01*
X139093081Y-93419500D01*
X139093073Y-93419500D01*
X139093064Y-93419500D01*
X137489329Y-93419500D01*
X137489323Y-93419501D01*
X137429716Y-93425908D01*
X137294871Y-93476202D01*
X137294864Y-93476206D01*
X137179655Y-93562452D01*
X137179652Y-93562455D01*
X137093406Y-93677664D01*
X137093402Y-93677671D01*
X137043108Y-93812517D01*
X137037339Y-93866181D01*
X137036701Y-93872123D01*
X137036700Y-93872135D01*
X137036700Y-94664956D01*
X137017015Y-94731995D01*
X136964211Y-94777750D01*
X136895053Y-94787694D01*
X136831497Y-94758669D01*
X136825019Y-94752637D01*
X136302140Y-94229758D01*
X136302120Y-94229736D01*
X136199785Y-94127401D01*
X136084523Y-94050386D01*
X135956464Y-93997343D01*
X135956456Y-93997341D01*
X135820510Y-93970299D01*
X135820508Y-93970299D01*
X135681892Y-93970299D01*
X135675778Y-93970299D01*
X135675758Y-93970300D01*
X134308816Y-93970300D01*
X134241777Y-93950615D01*
X134208498Y-93919186D01*
X134199215Y-93906409D01*
X134165028Y-93859354D01*
X134025846Y-93720172D01*
X133866605Y-93604476D01*
X133859893Y-93601056D01*
X133691229Y-93515117D01*
X133504026Y-93454290D01*
X133309622Y-93423500D01*
X133309617Y-93423500D01*
X133112783Y-93423500D01*
X133112778Y-93423500D01*
X132918373Y-93454290D01*
X132731170Y-93515117D01*
X132555794Y-93604476D01*
X132510395Y-93637461D01*
X132396554Y-93720172D01*
X132396552Y-93720174D01*
X132396551Y-93720174D01*
X132257374Y-93859351D01*
X132257374Y-93859352D01*
X132257372Y-93859354D01*
X132213901Y-93919186D01*
X132141676Y-94018594D01*
X132052317Y-94193970D01*
X131991490Y-94381173D01*
X131960700Y-94575577D01*
X131960700Y-94772422D01*
X131991490Y-94966826D01*
X132052317Y-95154029D01*
X132120725Y-95288286D01*
X132141676Y-95329405D01*
X132257372Y-95488646D01*
X132396554Y-95627828D01*
X132555795Y-95743524D01*
X132586991Y-95759419D01*
X132731170Y-95832882D01*
X132731172Y-95832882D01*
X132731175Y-95832884D01*
X132831517Y-95865487D01*
X132918373Y-95893709D01*
X133112778Y-95924500D01*
X133112783Y-95924500D01*
X133309622Y-95924500D01*
X133504026Y-95893709D01*
X133516007Y-95889816D01*
X133691225Y-95832884D01*
X133866605Y-95743524D01*
X134025846Y-95627828D01*
X134165028Y-95488646D01*
X134208499Y-95428813D01*
X134263828Y-95386149D01*
X134308816Y-95377700D01*
X135408356Y-95377700D01*
X135475395Y-95397385D01*
X135496037Y-95414019D01*
X137013980Y-96931962D01*
X137047465Y-96993285D01*
X137048773Y-97039040D01*
X137036700Y-97115269D01*
X137036700Y-97312736D01*
X137067589Y-97507763D01*
X137102665Y-97615714D01*
X137128609Y-97695561D01*
X137218256Y-97871501D01*
X137218258Y-97871504D01*
X137334315Y-98031246D01*
X137473953Y-98170884D01*
X137569655Y-98240414D01*
X137633699Y-98286944D01*
X137803604Y-98373516D01*
X137854399Y-98421490D01*
X137871194Y-98489311D01*
X137848656Y-98555446D01*
X137803604Y-98594483D01*
X137646521Y-98674522D01*
X137633695Y-98681058D01*
X137473953Y-98797115D01*
X137334315Y-98936753D01*
X137218258Y-99096495D01*
X137128608Y-99272441D01*
X137067589Y-99460236D01*
X137036700Y-99655263D01*
X137036700Y-99852736D01*
X137067589Y-100047763D01*
X137117894Y-100202583D01*
X137128609Y-100235561D01*
X137218256Y-100411501D01*
X137218258Y-100411504D01*
X137334315Y-100571246D01*
X137473953Y-100710884D01*
X137613817Y-100812499D01*
X137633699Y-100826944D01*
X137803604Y-100913516D01*
X137854399Y-100961490D01*
X137871194Y-101029311D01*
X137848656Y-101095446D01*
X137803604Y-101134483D01*
X137658447Y-101208446D01*
X137633695Y-101221058D01*
X137473953Y-101337115D01*
X137334315Y-101476753D01*
X137218258Y-101636495D01*
X137128608Y-101812441D01*
X137067589Y-102000236D01*
X137036700Y-102195263D01*
X137036700Y-102392736D01*
X137067589Y-102587763D01*
X137125899Y-102767220D01*
X137128609Y-102775561D01*
X137216653Y-102948355D01*
X137218258Y-102951504D01*
X137334315Y-103111246D01*
X137473953Y-103250884D01*
X137569655Y-103320414D01*
X137633699Y-103366944D01*
X137803604Y-103453516D01*
X137854399Y-103501490D01*
X137871194Y-103569311D01*
X137848656Y-103635446D01*
X137803604Y-103674483D01*
X137646521Y-103754522D01*
X137633695Y-103761058D01*
X137473953Y-103877115D01*
X137334315Y-104016753D01*
X137218258Y-104176495D01*
X137128608Y-104352441D01*
X137067589Y-104540236D01*
X137036700Y-104735263D01*
X137036700Y-104932736D01*
X137067589Y-105127763D01*
X137128608Y-105315558D01*
X137128609Y-105315561D01*
X137218256Y-105491501D01*
X137218258Y-105491504D01*
X137334315Y-105651246D01*
X137473953Y-105790884D01*
X137608957Y-105888968D01*
X137633699Y-105906944D01*
X137803604Y-105993516D01*
X137854399Y-106041490D01*
X137871194Y-106109311D01*
X137848656Y-106175446D01*
X137803604Y-106214483D01*
X137646521Y-106294522D01*
X137633695Y-106301058D01*
X137473953Y-106417115D01*
X137334315Y-106556753D01*
X137218258Y-106716495D01*
X137128608Y-106892441D01*
X137067589Y-107080236D01*
X137036700Y-107275263D01*
X137036700Y-107472736D01*
X137067589Y-107667763D01*
X137120818Y-107831582D01*
X137128609Y-107855561D01*
X137198326Y-107992386D01*
X137218258Y-108031504D01*
X137334315Y-108191246D01*
X137473953Y-108330884D01*
X137593819Y-108417970D01*
X137633699Y-108446944D01*
X137803604Y-108533516D01*
X137854399Y-108581490D01*
X137871194Y-108649311D01*
X137848656Y-108715446D01*
X137803604Y-108754483D01*
X137646521Y-108834522D01*
X137633695Y-108841058D01*
X137473953Y-108957115D01*
X137334315Y-109096753D01*
X137218258Y-109256495D01*
X137128608Y-109432441D01*
X137067589Y-109620236D01*
X137036700Y-109815263D01*
X137036700Y-110012736D01*
X137067589Y-110207763D01*
X137095702Y-110294284D01*
X137128609Y-110395561D01*
X137218256Y-110571501D01*
X137218258Y-110571504D01*
X137334315Y-110731246D01*
X137473953Y-110870884D01*
X137623434Y-110979486D01*
X137633699Y-110986944D01*
X137803604Y-111073516D01*
X137854399Y-111121490D01*
X137871194Y-111189311D01*
X137848656Y-111255446D01*
X137803604Y-111294483D01*
X137646521Y-111374522D01*
X137633695Y-111381058D01*
X137473953Y-111497115D01*
X137334315Y-111636753D01*
X137218258Y-111796495D01*
X137128608Y-111972441D01*
X137067589Y-112160236D01*
X137036700Y-112355263D01*
X137036700Y-112552736D01*
X137067589Y-112747763D01*
X137128608Y-112935558D01*
X137128609Y-112935561D01*
X137218256Y-113111501D01*
X137218258Y-113111504D01*
X137334315Y-113271246D01*
X137473953Y-113410884D01*
X137585225Y-113491726D01*
X137633699Y-113526944D01*
X137803604Y-113613516D01*
X137854399Y-113661490D01*
X137871194Y-113729311D01*
X137848656Y-113795446D01*
X137803604Y-113834483D01*
X137680089Y-113897419D01*
X137633695Y-113921058D01*
X137473953Y-114037115D01*
X137334315Y-114176753D01*
X137218258Y-114336495D01*
X137218256Y-114336499D01*
X137141305Y-114487523D01*
X137128608Y-114512441D01*
X137067589Y-114700236D01*
X137036700Y-114895263D01*
X137036700Y-115092736D01*
X137067589Y-115287763D01*
X137119258Y-115446781D01*
X137128609Y-115475561D01*
X137198326Y-115612386D01*
X137218258Y-115651504D01*
X137334315Y-115811246D01*
X137473953Y-115950884D01*
X137623434Y-116059486D01*
X137633699Y-116066944D01*
X137803604Y-116153516D01*
X137854399Y-116201490D01*
X137871194Y-116269311D01*
X137848656Y-116335446D01*
X137803604Y-116374483D01*
X137679714Y-116437610D01*
X137633695Y-116461058D01*
X137473953Y-116577115D01*
X137334315Y-116716753D01*
X137218258Y-116876495D01*
X137128608Y-117052441D01*
X137067589Y-117240236D01*
X137036700Y-117435263D01*
X137036700Y-117632736D01*
X137067589Y-117827763D01*
X137113689Y-117969642D01*
X137128609Y-118015561D01*
X137218256Y-118191501D01*
X137218258Y-118191504D01*
X137334315Y-118351246D01*
X137473953Y-118490884D01*
X137623434Y-118599486D01*
X137633699Y-118606944D01*
X137803604Y-118693516D01*
X137854399Y-118741490D01*
X137871194Y-118809311D01*
X137848656Y-118875446D01*
X137803604Y-118914483D01*
X137646521Y-118994522D01*
X137633695Y-119001058D01*
X137473953Y-119117115D01*
X137334315Y-119256753D01*
X137218258Y-119416495D01*
X137128608Y-119592441D01*
X137067589Y-119780236D01*
X137036700Y-119975263D01*
X137036700Y-120172736D01*
X137067589Y-120367763D01*
X137128439Y-120555037D01*
X137128609Y-120555561D01*
X137208092Y-120711553D01*
X137218258Y-120731504D01*
X137334315Y-120891246D01*
X137473953Y-121030884D01*
X137620373Y-121137262D01*
X137633699Y-121146944D01*
X137803604Y-121233516D01*
X137854399Y-121281490D01*
X137871194Y-121349311D01*
X137848656Y-121415446D01*
X137803604Y-121454483D01*
X137646521Y-121534522D01*
X137633695Y-121541058D01*
X137473953Y-121657115D01*
X137334315Y-121796753D01*
X137218258Y-121956495D01*
X137128608Y-122132441D01*
X137067589Y-122320236D01*
X137036700Y-122515263D01*
X137036700Y-122712736D01*
X137067589Y-122907763D01*
X137121524Y-123073757D01*
X137128609Y-123095561D01*
X137218256Y-123271501D01*
X137218258Y-123271504D01*
X137334315Y-123431246D01*
X137473953Y-123570884D01*
X137570331Y-123640905D01*
X137633699Y-123686944D01*
X137803604Y-123773516D01*
X137854399Y-123821490D01*
X137871194Y-123889311D01*
X137848656Y-123955446D01*
X137803604Y-123994483D01*
X137658549Y-124068394D01*
X137633695Y-124081058D01*
X137473953Y-124197115D01*
X137334315Y-124336753D01*
X137218258Y-124496495D01*
X137128608Y-124672441D01*
X137067589Y-124860236D01*
X137036700Y-125055263D01*
X137036700Y-125252736D01*
X137067589Y-125447763D01*
X137114319Y-125591582D01*
X137128609Y-125635561D01*
X137187173Y-125750497D01*
X137218258Y-125811504D01*
X137334315Y-125971246D01*
X137473953Y-126110884D01*
X137597187Y-126200417D01*
X137633699Y-126226944D01*
X137803604Y-126313516D01*
X137854399Y-126361490D01*
X137871194Y-126429311D01*
X137848656Y-126495446D01*
X137803604Y-126534483D01*
X137646521Y-126614522D01*
X137633695Y-126621058D01*
X137473953Y-126737115D01*
X137334315Y-126876753D01*
X137218258Y-127036495D01*
X137128608Y-127212441D01*
X137067589Y-127400236D01*
X137036700Y-127595263D01*
X137036700Y-127792736D01*
X137067589Y-127987763D01*
X137128608Y-128175558D01*
X137128609Y-128175561D01*
X137218256Y-128351501D01*
X137218258Y-128351504D01*
X137334315Y-128511246D01*
X137473953Y-128650884D01*
X137620373Y-128757262D01*
X137633699Y-128766944D01*
X137809639Y-128856591D01*
X137934837Y-128897270D01*
X137997436Y-128917610D01*
X138192464Y-128948500D01*
X138192469Y-128948500D01*
X138389936Y-128948500D01*
X138584963Y-128917610D01*
X138772761Y-128856591D01*
X138948701Y-128766944D01*
X139067619Y-128680546D01*
X139108446Y-128650884D01*
X139108448Y-128650881D01*
X139108452Y-128650879D01*
X139248079Y-128511252D01*
X139248081Y-128511248D01*
X139248084Y-128511246D01*
X139341903Y-128382113D01*
X139364144Y-128351501D01*
X139453791Y-128175561D01*
X139514810Y-127987763D01*
X139545700Y-127792736D01*
X139545700Y-127595263D01*
X139514810Y-127400236D01*
X139494470Y-127337637D01*
X139453791Y-127212439D01*
X139364144Y-127036499D01*
X139343336Y-127007859D01*
X139248084Y-126876753D01*
X139108446Y-126737115D01*
X138948705Y-126621058D01*
X138942319Y-126617804D01*
X138778793Y-126534482D01*
X138728000Y-126486510D01*
X138711205Y-126418689D01*
X138733742Y-126352554D01*
X138778793Y-126313517D01*
X138948701Y-126226944D01*
X139066160Y-126141606D01*
X139108446Y-126110884D01*
X139108448Y-126110881D01*
X139108452Y-126110879D01*
X139248079Y-125971252D01*
X139248081Y-125971248D01*
X139248084Y-125971246D01*
X139302753Y-125895999D01*
X139364144Y-125811501D01*
X139453791Y-125635561D01*
X139514810Y-125447763D01*
X139536696Y-125309583D01*
X139545700Y-125252736D01*
X139545700Y-125055263D01*
X139514810Y-124860236D01*
X139465602Y-124708791D01*
X139453791Y-124672439D01*
X139364144Y-124496499D01*
X139356686Y-124486234D01*
X139248084Y-124336753D01*
X139108446Y-124197115D01*
X138948705Y-124081058D01*
X138923851Y-124068394D01*
X138778793Y-123994482D01*
X138728000Y-123946510D01*
X138711205Y-123878689D01*
X138733742Y-123812554D01*
X138778793Y-123773517D01*
X138948701Y-123686944D01*
X139012069Y-123640905D01*
X139108446Y-123570884D01*
X139108448Y-123570881D01*
X139108452Y-123570879D01*
X139248079Y-123431252D01*
X139248081Y-123431248D01*
X139248084Y-123431246D01*
X139348053Y-123293648D01*
X139364144Y-123271501D01*
X139453791Y-123095561D01*
X139514810Y-122907763D01*
X139531539Y-122802141D01*
X139545700Y-122712736D01*
X139545700Y-122515263D01*
X139514810Y-122320236D01*
X139472747Y-122190780D01*
X139453791Y-122132439D01*
X139364144Y-121956499D01*
X139350185Y-121937286D01*
X139248084Y-121796753D01*
X139108446Y-121657115D01*
X138948705Y-121541058D01*
X138942319Y-121537804D01*
X138778793Y-121454482D01*
X138728000Y-121406510D01*
X138711205Y-121338689D01*
X138733742Y-121272554D01*
X138778793Y-121233517D01*
X138948701Y-121146944D01*
X139035444Y-121083922D01*
X139108446Y-121030884D01*
X139108448Y-121030881D01*
X139108452Y-121030879D01*
X139248079Y-120891252D01*
X139248081Y-120891248D01*
X139248084Y-120891246D01*
X139301253Y-120818064D01*
X139364144Y-120731501D01*
X139453791Y-120555561D01*
X139514810Y-120367763D01*
X139516356Y-120358000D01*
X139545700Y-120172736D01*
X139545700Y-119975263D01*
X139514810Y-119780236D01*
X139490761Y-119706221D01*
X139453791Y-119592439D01*
X139364144Y-119416499D01*
X139351187Y-119398665D01*
X139248084Y-119256753D01*
X139108446Y-119117115D01*
X138948705Y-119001058D01*
X138942319Y-118997804D01*
X138778793Y-118914482D01*
X138728000Y-118866510D01*
X138711205Y-118798689D01*
X138733742Y-118732554D01*
X138778793Y-118693517D01*
X138948701Y-118606944D01*
X138997873Y-118571219D01*
X139108446Y-118490884D01*
X139108448Y-118490881D01*
X139108452Y-118490879D01*
X139248079Y-118351252D01*
X139248081Y-118351248D01*
X139248084Y-118351246D01*
X139298979Y-118281192D01*
X139364144Y-118191501D01*
X139453791Y-118015561D01*
X139514810Y-117827763D01*
X139535251Y-117698706D01*
X139545700Y-117632736D01*
X139545700Y-117435263D01*
X139514810Y-117240236D01*
X139455110Y-117056500D01*
X139453791Y-117052439D01*
X139364144Y-116876499D01*
X139356686Y-116866234D01*
X139248084Y-116716753D01*
X139108446Y-116577115D01*
X138948705Y-116461058D01*
X138902686Y-116437610D01*
X138778793Y-116374482D01*
X138728000Y-116326510D01*
X138711205Y-116258689D01*
X138733742Y-116192554D01*
X138778793Y-116153517D01*
X138948701Y-116066944D01*
X138969112Y-116052114D01*
X139108446Y-115950884D01*
X139108448Y-115950881D01*
X139108452Y-115950879D01*
X139248079Y-115811252D01*
X139248081Y-115811248D01*
X139248084Y-115811246D01*
X139298979Y-115741192D01*
X139364144Y-115651501D01*
X139453791Y-115475561D01*
X139514810Y-115287763D01*
X139519718Y-115256776D01*
X139545700Y-115092736D01*
X139545700Y-114895263D01*
X139514810Y-114700236D01*
X139466249Y-114550781D01*
X139453791Y-114512439D01*
X139364144Y-114336499D01*
X139356686Y-114326234D01*
X139248084Y-114176753D01*
X139108446Y-114037115D01*
X138948705Y-113921058D01*
X138902311Y-113897419D01*
X138778793Y-113834482D01*
X138728000Y-113786510D01*
X138711205Y-113718689D01*
X138733742Y-113652554D01*
X138778793Y-113613517D01*
X138948701Y-113526944D01*
X139096431Y-113419613D01*
X139108446Y-113410884D01*
X139108448Y-113410881D01*
X139108452Y-113410879D01*
X139248079Y-113271252D01*
X139248081Y-113271248D01*
X139248084Y-113271246D01*
X139326473Y-113163351D01*
X139364144Y-113111501D01*
X139453791Y-112935561D01*
X139514810Y-112747763D01*
X139518019Y-112727500D01*
X139545700Y-112552736D01*
X139545700Y-112355263D01*
X139514810Y-112160236D01*
X139478875Y-112049641D01*
X139453791Y-111972439D01*
X139364144Y-111796499D01*
X139340667Y-111764185D01*
X139248084Y-111636753D01*
X139108446Y-111497115D01*
X138948705Y-111381058D01*
X138942319Y-111377804D01*
X138778793Y-111294482D01*
X138728000Y-111246510D01*
X138711205Y-111178689D01*
X138733742Y-111112554D01*
X138778793Y-111073517D01*
X138948701Y-110986944D01*
X139020608Y-110934701D01*
X139108446Y-110870884D01*
X139108448Y-110870881D01*
X139108452Y-110870879D01*
X139248079Y-110731252D01*
X139248081Y-110731248D01*
X139248084Y-110731246D01*
X139298979Y-110661192D01*
X139364144Y-110571501D01*
X139453791Y-110395561D01*
X139514810Y-110207763D01*
X139520163Y-110173966D01*
X139545700Y-110012736D01*
X139545700Y-109815263D01*
X139514810Y-109620236D01*
X139471367Y-109486534D01*
X139453791Y-109432439D01*
X139364144Y-109256499D01*
X139334338Y-109215474D01*
X139248084Y-109096753D01*
X139108446Y-108957115D01*
X138948705Y-108841058D01*
X138942319Y-108837804D01*
X138778793Y-108754482D01*
X138728000Y-108706510D01*
X138711205Y-108638689D01*
X138733742Y-108572554D01*
X138778793Y-108533517D01*
X138948701Y-108446944D01*
X138988581Y-108417970D01*
X139108446Y-108330884D01*
X139108448Y-108330881D01*
X139108452Y-108330879D01*
X139248079Y-108191252D01*
X139248081Y-108191248D01*
X139248084Y-108191246D01*
X139298979Y-108121192D01*
X139364144Y-108031501D01*
X139453791Y-107855561D01*
X139514810Y-107667763D01*
X139518019Y-107647500D01*
X139545700Y-107472736D01*
X139545700Y-107275263D01*
X139514810Y-107080236D01*
X139471982Y-106948426D01*
X139453791Y-106892439D01*
X139364144Y-106716499D01*
X139346648Y-106692417D01*
X139248084Y-106556753D01*
X139108446Y-106417115D01*
X138948705Y-106301058D01*
X138942319Y-106297804D01*
X138778793Y-106214482D01*
X138728000Y-106166510D01*
X138711205Y-106098689D01*
X138733742Y-106032554D01*
X138778793Y-105993517D01*
X138948701Y-105906944D01*
X139057402Y-105827969D01*
X139108446Y-105790884D01*
X139108448Y-105790881D01*
X139108452Y-105790879D01*
X139248079Y-105651252D01*
X139248081Y-105651248D01*
X139248084Y-105651246D01*
X139321699Y-105549922D01*
X139364144Y-105491501D01*
X139453791Y-105315561D01*
X139514810Y-105127763D01*
X139522188Y-105081179D01*
X139545700Y-104932736D01*
X139545700Y-104735263D01*
X139514810Y-104540236D01*
X139490380Y-104465048D01*
X139453791Y-104352439D01*
X139364144Y-104176499D01*
X139346707Y-104152499D01*
X139248084Y-104016753D01*
X139108446Y-103877115D01*
X138948705Y-103761058D01*
X138942319Y-103757804D01*
X138778793Y-103674482D01*
X138728000Y-103626510D01*
X138711205Y-103558689D01*
X138733742Y-103492554D01*
X138778793Y-103453517D01*
X138948701Y-103366944D01*
X139012745Y-103320414D01*
X139108446Y-103250884D01*
X139108448Y-103250881D01*
X139108452Y-103250879D01*
X139248079Y-103111252D01*
X139248081Y-103111248D01*
X139248084Y-103111246D01*
X139333443Y-102993757D01*
X139364144Y-102951501D01*
X139453791Y-102775561D01*
X139514810Y-102587763D01*
X139521879Y-102543134D01*
X139545700Y-102392736D01*
X139545700Y-102195263D01*
X139514810Y-102000236D01*
X139483582Y-101904127D01*
X139453791Y-101812439D01*
X139364144Y-101636499D01*
X139338359Y-101601009D01*
X139248084Y-101476753D01*
X139108446Y-101337115D01*
X138948705Y-101221058D01*
X138923953Y-101208446D01*
X138778793Y-101134482D01*
X138728000Y-101086510D01*
X138711205Y-101018689D01*
X138733742Y-100952554D01*
X138778793Y-100913517D01*
X138948701Y-100826944D01*
X138969112Y-100812114D01*
X139108446Y-100710884D01*
X139108448Y-100710881D01*
X139108452Y-100710879D01*
X139248079Y-100571252D01*
X139293441Y-100508815D01*
X139348771Y-100466149D01*
X139393760Y-100457700D01*
X140247758Y-100457700D01*
X140247778Y-100457701D01*
X140253892Y-100457701D01*
X140392510Y-100457701D01*
X140483968Y-100439507D01*
X140528462Y-100430657D01*
X140656527Y-100377611D01*
X140670475Y-100368290D01*
X140670480Y-100368289D01*
X140670480Y-100368288D01*
X140695719Y-100351423D01*
X140771783Y-100300600D01*
X140869800Y-100202583D01*
X140869801Y-100202581D01*
X140876867Y-100195515D01*
X140876869Y-100195511D01*
X144642363Y-96430019D01*
X144703686Y-96396534D01*
X144730044Y-96393700D01*
X157418856Y-96393700D01*
X157485895Y-96413385D01*
X157531650Y-96466189D01*
X157541594Y-96535347D01*
X157529341Y-96573995D01*
X157448608Y-96732441D01*
X157387589Y-96920236D01*
X157356700Y-97115263D01*
X157356700Y-97312736D01*
X157387589Y-97507763D01*
X157422665Y-97615714D01*
X157448609Y-97695561D01*
X157538256Y-97871501D01*
X157538258Y-97871504D01*
X157654315Y-98031246D01*
X157793953Y-98170884D01*
X157889655Y-98240414D01*
X157953699Y-98286944D01*
X158123604Y-98373516D01*
X158174399Y-98421490D01*
X158191194Y-98489311D01*
X158168656Y-98555446D01*
X158123604Y-98594483D01*
X157966521Y-98674522D01*
X157953695Y-98681058D01*
X157793953Y-98797115D01*
X157654315Y-98936753D01*
X157538258Y-99096495D01*
X157448608Y-99272441D01*
X157387589Y-99460236D01*
X157356700Y-99655263D01*
X157356700Y-99852736D01*
X157387589Y-100047763D01*
X157437894Y-100202583D01*
X157448609Y-100235561D01*
X157538256Y-100411501D01*
X157538258Y-100411504D01*
X157654315Y-100571246D01*
X157793953Y-100710884D01*
X157953694Y-100826941D01*
X157953696Y-100826942D01*
X157953699Y-100826944D01*
X158124156Y-100913797D01*
X158174949Y-100961768D01*
X158191744Y-101029589D01*
X158169207Y-101095724D01*
X158124154Y-101134763D01*
X157953967Y-101221479D01*
X157953960Y-101221483D01*
X157918210Y-101247456D01*
X157918210Y-101247457D01*
X158481791Y-101811037D01*
X158418207Y-101828075D01*
X158304193Y-101893901D01*
X158211101Y-101986993D01*
X158145275Y-102101007D01*
X158128237Y-102164590D01*
X157564657Y-101601010D01*
X157564656Y-101601010D01*
X157538683Y-101636760D01*
X157538682Y-101636762D01*
X157449073Y-101812626D01*
X157388076Y-102000353D01*
X157357200Y-102195302D01*
X157357200Y-102392697D01*
X157388076Y-102587646D01*
X157449073Y-102775373D01*
X157538683Y-102951239D01*
X157564657Y-102986988D01*
X157564657Y-102986989D01*
X158128237Y-102423409D01*
X158145275Y-102486993D01*
X158211101Y-102601007D01*
X158304193Y-102694099D01*
X158418207Y-102759925D01*
X158481790Y-102776962D01*
X157918209Y-103340541D01*
X157918210Y-103340542D01*
X157953955Y-103366512D01*
X157953968Y-103366520D01*
X158124153Y-103453235D01*
X158174949Y-103501210D01*
X158191744Y-103569031D01*
X158169206Y-103635166D01*
X158124154Y-103674203D01*
X157962389Y-103756627D01*
X157953695Y-103761058D01*
X157793953Y-103877115D01*
X157654315Y-104016753D01*
X157538258Y-104176495D01*
X157448608Y-104352441D01*
X157387589Y-104540236D01*
X157356700Y-104735263D01*
X157356700Y-104932736D01*
X157387589Y-105127763D01*
X157448608Y-105315558D01*
X157448609Y-105315561D01*
X157538256Y-105491501D01*
X157538258Y-105491504D01*
X157654315Y-105651246D01*
X157793953Y-105790884D01*
X157928957Y-105888968D01*
X157953699Y-105906944D01*
X158123604Y-105993516D01*
X158174399Y-106041490D01*
X158191194Y-106109311D01*
X158168656Y-106175446D01*
X158123604Y-106214483D01*
X157966521Y-106294522D01*
X157953695Y-106301058D01*
X157793953Y-106417115D01*
X157654315Y-106556753D01*
X157538258Y-106716495D01*
X157448608Y-106892441D01*
X157387589Y-107080236D01*
X157356700Y-107275263D01*
X157356700Y-107472736D01*
X157387589Y-107667763D01*
X157440818Y-107831582D01*
X157448609Y-107855561D01*
X157518326Y-107992386D01*
X157538258Y-108031504D01*
X157654315Y-108191246D01*
X157793953Y-108330884D01*
X157913819Y-108417970D01*
X157953699Y-108446944D01*
X158123604Y-108533516D01*
X158174399Y-108581490D01*
X158191194Y-108649311D01*
X158168656Y-108715446D01*
X158123604Y-108754483D01*
X157966521Y-108834522D01*
X157953695Y-108841058D01*
X157793953Y-108957115D01*
X157654315Y-109096753D01*
X157538258Y-109256495D01*
X157448608Y-109432441D01*
X157387589Y-109620236D01*
X157356700Y-109815263D01*
X157356700Y-110012736D01*
X157387589Y-110207763D01*
X157415702Y-110294284D01*
X157448609Y-110395561D01*
X157538256Y-110571501D01*
X157538258Y-110571504D01*
X157654315Y-110731246D01*
X157793953Y-110870884D01*
X157943434Y-110979486D01*
X157953699Y-110986944D01*
X158123604Y-111073516D01*
X158174399Y-111121490D01*
X158191194Y-111189311D01*
X158168656Y-111255446D01*
X158123604Y-111294483D01*
X157966521Y-111374522D01*
X157953695Y-111381058D01*
X157793953Y-111497115D01*
X157654315Y-111636753D01*
X157538258Y-111796495D01*
X157448608Y-111972441D01*
X157387589Y-112160236D01*
X157356700Y-112355263D01*
X157356700Y-112552736D01*
X157387589Y-112747763D01*
X157448608Y-112935558D01*
X157448609Y-112935561D01*
X157538256Y-113111501D01*
X157538258Y-113111504D01*
X157654315Y-113271246D01*
X157793953Y-113410884D01*
X157905225Y-113491726D01*
X157953699Y-113526944D01*
X158123604Y-113613516D01*
X158174399Y-113661490D01*
X158191194Y-113729311D01*
X158168656Y-113795446D01*
X158123604Y-113834483D01*
X158000089Y-113897419D01*
X157953695Y-113921058D01*
X157793953Y-114037115D01*
X157654315Y-114176753D01*
X157538258Y-114336495D01*
X157538256Y-114336499D01*
X157461305Y-114487523D01*
X157448608Y-114512441D01*
X157387589Y-114700236D01*
X157356700Y-114895263D01*
X157356700Y-115092736D01*
X157387589Y-115287763D01*
X157439258Y-115446781D01*
X157448609Y-115475561D01*
X157518326Y-115612386D01*
X157538258Y-115651504D01*
X157654315Y-115811246D01*
X157793953Y-115950884D01*
X157943434Y-116059486D01*
X157953699Y-116066944D01*
X158123604Y-116153516D01*
X158174399Y-116201490D01*
X158191194Y-116269311D01*
X158168656Y-116335446D01*
X158123604Y-116374483D01*
X157999714Y-116437610D01*
X157953695Y-116461058D01*
X157793953Y-116577115D01*
X157654315Y-116716753D01*
X157538258Y-116876495D01*
X157448608Y-117052441D01*
X157387589Y-117240236D01*
X157356700Y-117435263D01*
X157356700Y-117632736D01*
X157387589Y-117827763D01*
X157433689Y-117969642D01*
X157448609Y-118015561D01*
X157538256Y-118191501D01*
X157538258Y-118191504D01*
X157654315Y-118351246D01*
X157793953Y-118490884D01*
X157943434Y-118599486D01*
X157953699Y-118606944D01*
X158123604Y-118693516D01*
X158174399Y-118741490D01*
X158191194Y-118809311D01*
X158168656Y-118875446D01*
X158123604Y-118914483D01*
X157966521Y-118994522D01*
X157953695Y-119001058D01*
X157793953Y-119117115D01*
X157654315Y-119256753D01*
X157538258Y-119416495D01*
X157448608Y-119592441D01*
X157387589Y-119780236D01*
X157356700Y-119975263D01*
X157356700Y-120172736D01*
X157387589Y-120367763D01*
X157448439Y-120555037D01*
X157448609Y-120555561D01*
X157528092Y-120711553D01*
X157538258Y-120731504D01*
X157654315Y-120891246D01*
X157793953Y-121030884D01*
X157940373Y-121137262D01*
X157953699Y-121146944D01*
X158123604Y-121233516D01*
X158174399Y-121281490D01*
X158191194Y-121349311D01*
X158168656Y-121415446D01*
X158123604Y-121454483D01*
X157966521Y-121534522D01*
X157953695Y-121541058D01*
X157793953Y-121657115D01*
X157654315Y-121796753D01*
X157538258Y-121956495D01*
X157448608Y-122132441D01*
X157387589Y-122320236D01*
X157356700Y-122515263D01*
X157356700Y-122712736D01*
X157387589Y-122907763D01*
X157441524Y-123073757D01*
X157448609Y-123095561D01*
X157538256Y-123271501D01*
X157538258Y-123271504D01*
X157654315Y-123431246D01*
X157793953Y-123570884D01*
X157890331Y-123640905D01*
X157953699Y-123686944D01*
X158123604Y-123773516D01*
X158174399Y-123821490D01*
X158191194Y-123889311D01*
X158168656Y-123955446D01*
X158123604Y-123994483D01*
X157978549Y-124068394D01*
X157953695Y-124081058D01*
X157793953Y-124197115D01*
X157654315Y-124336753D01*
X157538258Y-124496495D01*
X157448608Y-124672441D01*
X157387589Y-124860236D01*
X157356700Y-125055263D01*
X157356700Y-125252736D01*
X157387589Y-125447763D01*
X157434319Y-125591582D01*
X157448609Y-125635561D01*
X157507173Y-125750497D01*
X157538258Y-125811504D01*
X157654315Y-125971246D01*
X157793953Y-126110884D01*
X157917187Y-126200417D01*
X157953699Y-126226944D01*
X158123604Y-126313516D01*
X158174399Y-126361490D01*
X158191194Y-126429311D01*
X158168656Y-126495446D01*
X158123604Y-126534483D01*
X157966521Y-126614522D01*
X157953695Y-126621058D01*
X157793953Y-126737115D01*
X157654315Y-126876753D01*
X157538258Y-127036495D01*
X157448608Y-127212441D01*
X157387589Y-127400236D01*
X157356700Y-127595263D01*
X157356700Y-127792736D01*
X157387589Y-127987763D01*
X157448608Y-128175558D01*
X157448609Y-128175561D01*
X157538256Y-128351501D01*
X157538258Y-128351504D01*
X157654315Y-128511246D01*
X157793953Y-128650884D01*
X157940373Y-128757262D01*
X157953699Y-128766944D01*
X158129639Y-128856591D01*
X158254837Y-128897270D01*
X158317436Y-128917610D01*
X158512464Y-128948500D01*
X158512469Y-128948500D01*
X158709936Y-128948500D01*
X158904963Y-128917610D01*
X159092761Y-128856591D01*
X159268701Y-128766944D01*
X159387619Y-128680546D01*
X159428446Y-128650884D01*
X159428448Y-128650881D01*
X159428452Y-128650879D01*
X159568079Y-128511252D01*
X159568081Y-128511248D01*
X159568084Y-128511246D01*
X159661903Y-128382113D01*
X159684144Y-128351501D01*
X159773791Y-128175561D01*
X159834810Y-127987763D01*
X159865700Y-127792736D01*
X159865700Y-127595263D01*
X159834810Y-127400236D01*
X159814470Y-127337637D01*
X159773791Y-127212439D01*
X159684144Y-127036499D01*
X159681024Y-127032205D01*
X159658426Y-127001100D01*
X159568084Y-126876753D01*
X159428446Y-126737115D01*
X159268705Y-126621058D01*
X159262319Y-126617804D01*
X159098793Y-126534482D01*
X159048000Y-126486510D01*
X159031205Y-126418689D01*
X159053742Y-126352554D01*
X159098793Y-126313517D01*
X159268701Y-126226944D01*
X159386160Y-126141606D01*
X159428446Y-126110884D01*
X159428448Y-126110881D01*
X159428452Y-126110879D01*
X159568079Y-125971252D01*
X159568081Y-125971248D01*
X159568084Y-125971246D01*
X159622753Y-125895999D01*
X159684144Y-125811501D01*
X159773791Y-125635561D01*
X159834810Y-125447763D01*
X159856696Y-125309583D01*
X159856697Y-125309577D01*
X162186700Y-125309577D01*
X162186700Y-125506422D01*
X162217490Y-125700826D01*
X162278317Y-125888029D01*
X162334512Y-125998317D01*
X162367676Y-126063405D01*
X162483372Y-126222646D01*
X162622554Y-126361828D01*
X162781795Y-126477524D01*
X162864655Y-126519743D01*
X162957170Y-126566882D01*
X162957172Y-126566882D01*
X162957175Y-126566884D01*
X162989414Y-126577359D01*
X163144373Y-126627709D01*
X163338778Y-126658500D01*
X163338783Y-126658500D01*
X163535622Y-126658500D01*
X163730026Y-126627709D01*
X163747836Y-126621922D01*
X163917225Y-126566884D01*
X164092605Y-126477524D01*
X164251846Y-126361828D01*
X164391028Y-126222646D01*
X164506724Y-126063405D01*
X164596084Y-125888025D01*
X164656909Y-125700826D01*
X164667246Y-125635561D01*
X164687700Y-125506422D01*
X164687700Y-125309577D01*
X164656909Y-125115173D01*
X164606652Y-124960500D01*
X164596084Y-124927975D01*
X164596082Y-124927972D01*
X164596082Y-124927970D01*
X164522797Y-124784141D01*
X164506724Y-124752595D01*
X164391028Y-124593354D01*
X164251846Y-124454172D01*
X164092605Y-124338476D01*
X164044568Y-124314000D01*
X163917229Y-124249117D01*
X163730026Y-124188290D01*
X163535622Y-124157500D01*
X163535617Y-124157500D01*
X163338783Y-124157500D01*
X163338778Y-124157500D01*
X163144373Y-124188290D01*
X162957170Y-124249117D01*
X162781794Y-124338476D01*
X162745687Y-124364710D01*
X162622554Y-124454172D01*
X162622552Y-124454174D01*
X162622551Y-124454174D01*
X162483374Y-124593351D01*
X162483374Y-124593352D01*
X162483372Y-124593354D01*
X162477657Y-124601220D01*
X162367676Y-124752594D01*
X162278317Y-124927970D01*
X162217490Y-125115173D01*
X162186700Y-125309577D01*
X159856697Y-125309577D01*
X159860540Y-125285313D01*
X159860540Y-125285312D01*
X159865700Y-125252735D01*
X159865700Y-125055263D01*
X159834810Y-124860236D01*
X159785602Y-124708791D01*
X159773791Y-124672439D01*
X159684144Y-124496499D01*
X159676686Y-124486234D01*
X159568084Y-124336753D01*
X159428446Y-124197115D01*
X159268705Y-124081058D01*
X159243851Y-124068394D01*
X159098793Y-123994482D01*
X159048000Y-123946510D01*
X159031205Y-123878689D01*
X159053742Y-123812554D01*
X159098793Y-123773517D01*
X159268701Y-123686944D01*
X159332069Y-123640905D01*
X159428446Y-123570884D01*
X159428448Y-123570881D01*
X159428452Y-123570879D01*
X159441683Y-123557648D01*
X164950700Y-123557648D01*
X164950700Y-123762351D01*
X164982722Y-123964534D01*
X165045981Y-124159223D01*
X165088777Y-124243213D01*
X165137316Y-124338476D01*
X165138915Y-124341613D01*
X165259228Y-124507213D01*
X165403986Y-124651971D01*
X165558949Y-124764556D01*
X165569590Y-124772287D01*
X165656408Y-124816523D01*
X165751976Y-124865218D01*
X165751978Y-124865218D01*
X165751981Y-124865220D01*
X165856337Y-124899127D01*
X165946665Y-124928477D01*
X165955713Y-124929910D01*
X166148848Y-124960500D01*
X166148849Y-124960500D01*
X166353551Y-124960500D01*
X166353552Y-124960500D01*
X166555734Y-124928477D01*
X166750419Y-124865220D01*
X166932810Y-124772287D01*
X167037123Y-124696500D01*
X167098413Y-124651971D01*
X167098415Y-124651968D01*
X167098419Y-124651966D01*
X167243166Y-124507219D01*
X167243168Y-124507215D01*
X167243171Y-124507213D01*
X167329804Y-124387971D01*
X167363487Y-124341610D01*
X167456420Y-124159219D01*
X167519677Y-123964534D01*
X167551700Y-123762352D01*
X167551700Y-123557648D01*
X172570700Y-123557648D01*
X172570700Y-123762351D01*
X172602722Y-123964534D01*
X172665981Y-124159223D01*
X172708777Y-124243213D01*
X172757316Y-124338476D01*
X172758915Y-124341613D01*
X172879228Y-124507213D01*
X173023986Y-124651971D01*
X173178949Y-124764556D01*
X173189590Y-124772287D01*
X173276408Y-124816523D01*
X173371976Y-124865218D01*
X173371978Y-124865218D01*
X173371981Y-124865220D01*
X173476337Y-124899127D01*
X173566665Y-124928477D01*
X173575713Y-124929910D01*
X173768848Y-124960500D01*
X173768849Y-124960500D01*
X173973551Y-124960500D01*
X173973552Y-124960500D01*
X174175734Y-124928477D01*
X174370419Y-124865220D01*
X174552810Y-124772287D01*
X174627909Y-124717725D01*
X174718413Y-124651971D01*
X174718415Y-124651968D01*
X174718419Y-124651966D01*
X174863166Y-124507219D01*
X174863168Y-124507215D01*
X174863171Y-124507213D01*
X174949804Y-124387971D01*
X174983487Y-124341610D01*
X175076420Y-124159219D01*
X175126173Y-124006093D01*
X175165610Y-123948418D01*
X175229969Y-123921220D01*
X175298815Y-123933135D01*
X175350291Y-123980379D01*
X175366577Y-124025014D01*
X175397209Y-124218417D01*
X175460444Y-124413031D01*
X175553341Y-124595350D01*
X175553347Y-124595359D01*
X175585723Y-124639921D01*
X175585724Y-124639922D01*
X176265200Y-123960446D01*
X176265200Y-123966661D01*
X176292459Y-124068394D01*
X176345120Y-124159606D01*
X176419594Y-124234080D01*
X176510806Y-124286741D01*
X176612539Y-124314000D01*
X176618753Y-124314000D01*
X175939276Y-124993474D01*
X175983850Y-125025859D01*
X176166168Y-125118755D01*
X176360782Y-125181990D01*
X176562883Y-125214000D01*
X176767517Y-125214000D01*
X176969617Y-125181990D01*
X177164231Y-125118755D01*
X177346549Y-125025859D01*
X177391121Y-124993474D01*
X176711647Y-124314000D01*
X176717861Y-124314000D01*
X176819594Y-124286741D01*
X176910806Y-124234080D01*
X176985280Y-124159606D01*
X177037941Y-124068394D01*
X177065200Y-123966661D01*
X177065200Y-123960448D01*
X177744674Y-124639922D01*
X177744674Y-124639921D01*
X177777059Y-124595349D01*
X177869955Y-124413031D01*
X177933190Y-124218417D01*
X177965200Y-124016317D01*
X177965200Y-123811682D01*
X177933190Y-123609582D01*
X177869955Y-123414968D01*
X177777059Y-123232650D01*
X177744674Y-123188077D01*
X177744674Y-123188076D01*
X177065200Y-123867551D01*
X177065200Y-123861339D01*
X177037941Y-123759606D01*
X176985280Y-123668394D01*
X176910806Y-123593920D01*
X176819594Y-123541259D01*
X176717861Y-123514000D01*
X176711646Y-123514000D01*
X177391122Y-122834524D01*
X177391121Y-122834523D01*
X177346559Y-122802147D01*
X177346550Y-122802141D01*
X177164231Y-122709244D01*
X176969617Y-122646009D01*
X176767517Y-122614000D01*
X176562883Y-122614000D01*
X176360782Y-122646009D01*
X176166168Y-122709244D01*
X175983844Y-122802143D01*
X175939277Y-122834523D01*
X175939277Y-122834524D01*
X176618754Y-123514000D01*
X176612539Y-123514000D01*
X176510806Y-123541259D01*
X176419594Y-123593920D01*
X176345120Y-123668394D01*
X176292459Y-123759606D01*
X176265200Y-123861339D01*
X176265200Y-123867553D01*
X175585724Y-123188077D01*
X175585723Y-123188077D01*
X175553343Y-123232644D01*
X175460444Y-123414968D01*
X175410738Y-123567947D01*
X175371300Y-123625622D01*
X175306941Y-123652820D01*
X175238095Y-123640905D01*
X175186619Y-123593660D01*
X175170334Y-123549026D01*
X175169104Y-123541259D01*
X175139677Y-123355466D01*
X175076420Y-123160781D01*
X175076418Y-123160778D01*
X175076418Y-123160776D01*
X174983487Y-122978390D01*
X174966252Y-122954668D01*
X174966251Y-122954665D01*
X174863171Y-122812786D01*
X174718413Y-122668028D01*
X174552813Y-122547715D01*
X174552812Y-122547714D01*
X174552810Y-122547713D01*
X174489123Y-122515263D01*
X174370423Y-122454781D01*
X174175734Y-122391522D01*
X174001195Y-122363878D01*
X173973552Y-122359500D01*
X173768848Y-122359500D01*
X173744529Y-122363351D01*
X173566665Y-122391522D01*
X173371976Y-122454781D01*
X173189586Y-122547715D01*
X173023986Y-122668028D01*
X172879228Y-122812786D01*
X172758915Y-122978386D01*
X172665981Y-123160776D01*
X172602722Y-123355465D01*
X172570700Y-123557648D01*
X167551700Y-123557648D01*
X167519677Y-123355466D01*
X167456420Y-123160781D01*
X167456418Y-123160778D01*
X167456418Y-123160776D01*
X167412079Y-123073757D01*
X167363487Y-122978390D01*
X167348191Y-122957337D01*
X167243171Y-122812786D01*
X167098413Y-122668028D01*
X166932813Y-122547715D01*
X166932812Y-122547714D01*
X166932810Y-122547713D01*
X166869123Y-122515263D01*
X166750423Y-122454781D01*
X166555734Y-122391522D01*
X166381195Y-122363878D01*
X166353552Y-122359500D01*
X166148848Y-122359500D01*
X166124529Y-122363351D01*
X165946665Y-122391522D01*
X165751976Y-122454781D01*
X165569586Y-122547715D01*
X165403986Y-122668028D01*
X165259228Y-122812786D01*
X165138915Y-122978386D01*
X165045981Y-123160776D01*
X164982722Y-123355465D01*
X164950700Y-123557648D01*
X159441683Y-123557648D01*
X159568079Y-123431252D01*
X159568081Y-123431248D01*
X159568084Y-123431246D01*
X159668053Y-123293648D01*
X159684144Y-123271501D01*
X159773791Y-123095561D01*
X159834810Y-122907763D01*
X159851539Y-122802141D01*
X159865700Y-122712736D01*
X159865700Y-122515263D01*
X159834810Y-122320236D01*
X159792747Y-122190780D01*
X159773791Y-122132439D01*
X159684144Y-121956499D01*
X159670185Y-121937286D01*
X159568084Y-121796753D01*
X159428446Y-121657115D01*
X159268704Y-121541058D01*
X159268703Y-121541057D01*
X159268701Y-121541056D01*
X159098793Y-121454482D01*
X159048000Y-121406510D01*
X159031205Y-121338689D01*
X159053742Y-121272555D01*
X159053743Y-121272554D01*
X159098793Y-121233517D01*
X159268701Y-121146944D01*
X159355444Y-121083922D01*
X159428446Y-121030884D01*
X159428448Y-121030881D01*
X159428452Y-121030879D01*
X159568079Y-120891252D01*
X159568081Y-120891248D01*
X159568084Y-120891246D01*
X159621253Y-120818064D01*
X159684144Y-120731501D01*
X159773791Y-120555561D01*
X159834810Y-120367763D01*
X159852562Y-120255682D01*
X164189200Y-120255682D01*
X164189200Y-120460317D01*
X164221209Y-120662417D01*
X164284444Y-120857031D01*
X164377341Y-121039350D01*
X164377347Y-121039359D01*
X164409723Y-121083921D01*
X164409724Y-121083922D01*
X165089200Y-120404446D01*
X165089200Y-120410661D01*
X165116459Y-120512394D01*
X165169120Y-120603606D01*
X165243594Y-120678080D01*
X165334806Y-120730741D01*
X165436539Y-120758000D01*
X165442753Y-120758000D01*
X164763276Y-121437474D01*
X164807850Y-121469859D01*
X164990168Y-121562755D01*
X165184782Y-121625990D01*
X165386883Y-121658000D01*
X165591517Y-121658000D01*
X165793617Y-121625990D01*
X165988231Y-121562755D01*
X166170549Y-121469859D01*
X166215121Y-121437474D01*
X165535647Y-120758000D01*
X165541861Y-120758000D01*
X165643594Y-120730741D01*
X165734806Y-120678080D01*
X165809280Y-120603606D01*
X165861941Y-120512394D01*
X165889200Y-120410661D01*
X165889200Y-120404447D01*
X166568674Y-121083921D01*
X166601059Y-121039349D01*
X166693955Y-120857031D01*
X166757190Y-120662417D01*
X166789200Y-120460317D01*
X166789200Y-120255681D01*
X166787367Y-120244108D01*
X166785065Y-120229577D01*
X172600700Y-120229577D01*
X172600700Y-120426422D01*
X172631490Y-120620826D01*
X172692317Y-120808029D01*
X172736069Y-120893896D01*
X172781676Y-120983405D01*
X172897372Y-121142646D01*
X173036554Y-121281828D01*
X173195795Y-121397524D01*
X173274202Y-121437474D01*
X173371170Y-121486882D01*
X173371172Y-121486882D01*
X173371175Y-121486884D01*
X173471517Y-121519487D01*
X173558373Y-121547709D01*
X173752778Y-121578500D01*
X173752783Y-121578500D01*
X173949622Y-121578500D01*
X174144026Y-121547709D01*
X174331225Y-121486884D01*
X174506605Y-121397524D01*
X174665846Y-121281828D01*
X174805028Y-121142646D01*
X174920724Y-120983405D01*
X175010084Y-120808025D01*
X175070909Y-120620826D01*
X175073582Y-120603947D01*
X175101700Y-120426422D01*
X175101700Y-120229577D01*
X175070909Y-120035173D01*
X175042687Y-119948317D01*
X175010084Y-119847975D01*
X175010082Y-119847972D01*
X175010082Y-119847970D01*
X174962943Y-119755455D01*
X174920724Y-119672595D01*
X174805028Y-119513354D01*
X174665846Y-119374172D01*
X174506605Y-119258476D01*
X174482396Y-119246141D01*
X174331229Y-119169117D01*
X174144026Y-119108290D01*
X173949622Y-119077500D01*
X173949617Y-119077500D01*
X173752783Y-119077500D01*
X173752778Y-119077500D01*
X173558373Y-119108290D01*
X173371170Y-119169117D01*
X173195794Y-119258476D01*
X173168201Y-119278524D01*
X173036554Y-119374172D01*
X173036552Y-119374174D01*
X173036551Y-119374174D01*
X172897374Y-119513351D01*
X172897374Y-119513352D01*
X172897372Y-119513354D01*
X172847685Y-119581741D01*
X172781676Y-119672594D01*
X172692317Y-119847970D01*
X172631490Y-120035173D01*
X172600700Y-120229577D01*
X166785065Y-120229577D01*
X166757190Y-120053582D01*
X166693955Y-119858968D01*
X166601059Y-119676650D01*
X166568674Y-119632077D01*
X166568674Y-119632076D01*
X165889200Y-120311551D01*
X165889200Y-120305339D01*
X165861941Y-120203606D01*
X165809280Y-120112394D01*
X165734806Y-120037920D01*
X165643594Y-119985259D01*
X165541861Y-119958000D01*
X165535646Y-119958000D01*
X166215122Y-119278524D01*
X166215121Y-119278523D01*
X166170559Y-119246147D01*
X166170550Y-119246141D01*
X165988231Y-119153244D01*
X165793617Y-119090009D01*
X165591517Y-119058000D01*
X165386883Y-119058000D01*
X165184782Y-119090009D01*
X164990168Y-119153244D01*
X164807844Y-119246143D01*
X164763277Y-119278523D01*
X164763277Y-119278524D01*
X165442754Y-119958000D01*
X165436539Y-119958000D01*
X165334806Y-119985259D01*
X165243594Y-120037920D01*
X165169120Y-120112394D01*
X165116459Y-120203606D01*
X165089200Y-120305339D01*
X165089200Y-120311553D01*
X164409724Y-119632077D01*
X164409723Y-119632077D01*
X164377343Y-119676644D01*
X164284444Y-119858968D01*
X164221209Y-120053582D01*
X164189200Y-120255682D01*
X159852562Y-120255682D01*
X159856406Y-120231417D01*
X159856406Y-120231415D01*
X159865700Y-120172737D01*
X159865700Y-119975263D01*
X159834810Y-119780236D01*
X159810761Y-119706221D01*
X159773791Y-119592439D01*
X159684144Y-119416499D01*
X159671188Y-119398667D01*
X159671188Y-119398665D01*
X159568084Y-119256753D01*
X159428446Y-119117115D01*
X159268705Y-119001058D01*
X159262319Y-118997804D01*
X159098793Y-118914482D01*
X159048000Y-118866510D01*
X159031205Y-118798689D01*
X159053742Y-118732554D01*
X159098793Y-118693517D01*
X159268701Y-118606944D01*
X159317873Y-118571219D01*
X159428446Y-118490884D01*
X159428448Y-118490881D01*
X159428452Y-118490879D01*
X159568079Y-118351252D01*
X159568081Y-118351248D01*
X159568084Y-118351246D01*
X159618979Y-118281192D01*
X159684144Y-118191501D01*
X159773791Y-118015561D01*
X159834810Y-117827763D01*
X159855251Y-117698706D01*
X159865700Y-117632736D01*
X159865700Y-117435263D01*
X159834810Y-117240236D01*
X159775110Y-117056500D01*
X159773791Y-117052439D01*
X159684144Y-116876499D01*
X159676686Y-116866234D01*
X159568084Y-116716753D01*
X159428446Y-116577115D01*
X159268705Y-116461058D01*
X159222686Y-116437610D01*
X159098793Y-116374482D01*
X159048000Y-116326510D01*
X159031205Y-116258689D01*
X159053742Y-116192554D01*
X159098793Y-116153517D01*
X159268701Y-116066944D01*
X159289112Y-116052114D01*
X159428446Y-115950884D01*
X159428448Y-115950881D01*
X159428452Y-115950879D01*
X159568079Y-115811252D01*
X159568081Y-115811248D01*
X159568084Y-115811246D01*
X159618979Y-115741192D01*
X159684144Y-115651501D01*
X159773791Y-115475561D01*
X159834810Y-115287763D01*
X159839718Y-115256776D01*
X159865700Y-115092736D01*
X159865700Y-114895263D01*
X159834810Y-114700236D01*
X159786249Y-114550781D01*
X159773791Y-114512439D01*
X159684144Y-114336499D01*
X159676686Y-114326234D01*
X159568084Y-114176753D01*
X159428452Y-114037121D01*
X159418984Y-114030242D01*
X159342989Y-113975029D01*
X159342988Y-113975027D01*
X159268704Y-113921058D01*
X159268703Y-113921057D01*
X159268701Y-113921056D01*
X159187295Y-113879577D01*
X161424700Y-113879577D01*
X161424700Y-114076422D01*
X161455490Y-114270826D01*
X161516317Y-114458029D01*
X161563577Y-114550781D01*
X161605676Y-114633405D01*
X161721372Y-114792646D01*
X161860554Y-114931828D01*
X162019795Y-115047524D01*
X162072515Y-115074386D01*
X162195170Y-115136882D01*
X162195172Y-115136882D01*
X162195175Y-115136884D01*
X162295517Y-115169487D01*
X162382373Y-115197709D01*
X162576778Y-115228500D01*
X162576783Y-115228500D01*
X162773622Y-115228500D01*
X162968026Y-115197709D01*
X163017256Y-115181713D01*
X163155225Y-115136884D01*
X163330605Y-115047524D01*
X163489846Y-114931828D01*
X163629028Y-114792646D01*
X163672499Y-114732813D01*
X163727828Y-114690149D01*
X163772816Y-114681700D01*
X164882354Y-114681700D01*
X164911793Y-114690344D01*
X164941779Y-114696867D01*
X164946795Y-114700622D01*
X164949393Y-114701385D01*
X164970020Y-114718007D01*
X164970035Y-114718018D01*
X165040617Y-114788600D01*
X165040619Y-114788601D01*
X165047688Y-114795670D01*
X165791936Y-115539920D01*
X165791958Y-115539940D01*
X168001775Y-117749757D01*
X168035260Y-117811080D01*
X168036567Y-117856836D01*
X168018700Y-117969642D01*
X168018700Y-118174351D01*
X168050722Y-118376534D01*
X168113981Y-118571223D01*
X168171259Y-118683635D01*
X168196184Y-118732554D01*
X168206915Y-118753613D01*
X168327228Y-118919213D01*
X168471986Y-119063971D01*
X168616709Y-119169116D01*
X168637590Y-119184287D01*
X168753807Y-119243503D01*
X168819976Y-119277218D01*
X168819978Y-119277218D01*
X168819981Y-119277220D01*
X168924337Y-119311127D01*
X169014665Y-119340477D01*
X169115757Y-119356488D01*
X169216848Y-119372500D01*
X169216849Y-119372500D01*
X169421551Y-119372500D01*
X169421552Y-119372500D01*
X169623734Y-119340477D01*
X169818419Y-119277220D01*
X170000810Y-119184287D01*
X170093790Y-119116732D01*
X170166413Y-119063971D01*
X170166415Y-119063968D01*
X170166419Y-119063966D01*
X170311166Y-118919219D01*
X170311168Y-118919215D01*
X170311171Y-118919213D01*
X170363932Y-118846590D01*
X170431487Y-118753610D01*
X170458715Y-118700171D01*
X170506690Y-118649376D01*
X170574511Y-118632581D01*
X170640646Y-118655118D01*
X170679684Y-118700171D01*
X170696184Y-118732554D01*
X170706915Y-118753613D01*
X170827228Y-118919213D01*
X170971986Y-119063971D01*
X171116709Y-119169116D01*
X171137590Y-119184287D01*
X171253807Y-119243503D01*
X171319976Y-119277218D01*
X171319978Y-119277218D01*
X171319981Y-119277220D01*
X171424337Y-119311127D01*
X171514665Y-119340477D01*
X171615757Y-119356488D01*
X171716848Y-119372500D01*
X171716849Y-119372500D01*
X171921551Y-119372500D01*
X171921552Y-119372500D01*
X172123734Y-119340477D01*
X172318419Y-119277220D01*
X172500810Y-119184287D01*
X172593790Y-119116732D01*
X172666413Y-119063971D01*
X172666415Y-119063968D01*
X172666419Y-119063966D01*
X172811166Y-118919219D01*
X172811168Y-118919215D01*
X172811171Y-118919213D01*
X172863932Y-118846590D01*
X172931487Y-118753610D01*
X173024420Y-118571219D01*
X173087677Y-118376534D01*
X173119700Y-118174352D01*
X173119700Y-117969648D01*
X173087677Y-117767466D01*
X173024420Y-117572781D01*
X173024418Y-117572778D01*
X173024418Y-117572776D01*
X172958715Y-117443828D01*
X172931487Y-117390390D01*
X172923756Y-117379749D01*
X172811171Y-117224786D01*
X172666413Y-117080028D01*
X172500812Y-116959714D01*
X172318423Y-116866781D01*
X172123734Y-116803522D01*
X171949195Y-116775878D01*
X171921552Y-116771500D01*
X171716848Y-116771500D01*
X171692529Y-116775351D01*
X171514665Y-116803522D01*
X171319976Y-116866781D01*
X171137588Y-116959714D01*
X170971986Y-117080028D01*
X170827228Y-117224786D01*
X170706913Y-117390388D01*
X170679684Y-117443828D01*
X170631710Y-117494623D01*
X170563888Y-117511418D01*
X170497754Y-117488880D01*
X170458716Y-117443828D01*
X170431486Y-117390388D01*
X170311171Y-117224786D01*
X170166413Y-117080028D01*
X170000812Y-116959714D01*
X169818423Y-116866781D01*
X169623734Y-116803522D01*
X169449195Y-116775878D01*
X169421552Y-116771500D01*
X169216848Y-116771500D01*
X169216843Y-116771500D01*
X169104036Y-116789367D01*
X169034743Y-116780413D01*
X168996957Y-116754575D01*
X166787140Y-114544758D01*
X166787120Y-114544736D01*
X166229219Y-113986835D01*
X166214515Y-113959907D01*
X166197923Y-113934089D01*
X166197031Y-113927888D01*
X166195734Y-113925512D01*
X166192900Y-113899154D01*
X166192900Y-113897419D01*
X166212585Y-113830380D01*
X166244015Y-113797101D01*
X166336415Y-113729969D01*
X166336415Y-113729968D01*
X166336419Y-113729966D01*
X166481166Y-113585219D01*
X166481168Y-113585215D01*
X166481171Y-113585213D01*
X166544552Y-113497975D01*
X166601487Y-113419610D01*
X166694420Y-113237219D01*
X166757677Y-113042534D01*
X166789700Y-112840352D01*
X166789700Y-112635648D01*
X166769405Y-112507514D01*
X166757677Y-112433465D01*
X166736911Y-112369556D01*
X166694420Y-112238781D01*
X166694417Y-112238775D01*
X166694416Y-112238772D01*
X166626187Y-112104867D01*
X166601487Y-112056390D01*
X166552974Y-111989617D01*
X166481171Y-111890786D01*
X166336413Y-111746028D01*
X166170813Y-111625715D01*
X166170812Y-111625714D01*
X166170810Y-111625713D01*
X166112466Y-111595985D01*
X165988423Y-111532781D01*
X165793734Y-111469522D01*
X165619195Y-111441878D01*
X165591552Y-111437500D01*
X165386848Y-111437500D01*
X165362529Y-111441351D01*
X165184665Y-111469522D01*
X164989976Y-111532781D01*
X164807586Y-111625715D01*
X164641986Y-111746028D01*
X164497228Y-111890786D01*
X164376915Y-112056386D01*
X164283984Y-112238772D01*
X164283982Y-112238775D01*
X164283980Y-112238781D01*
X164256869Y-112322220D01*
X164220722Y-112433465D01*
X164188700Y-112635648D01*
X164188700Y-112840351D01*
X164220722Y-113042534D01*
X164243288Y-113111981D01*
X164245283Y-113181822D01*
X164209203Y-113241655D01*
X164146503Y-113272484D01*
X164125357Y-113274300D01*
X163772816Y-113274300D01*
X163705777Y-113254615D01*
X163672498Y-113223186D01*
X163629028Y-113163354D01*
X163489846Y-113024172D01*
X163330605Y-112908476D01*
X163299413Y-112892583D01*
X163155229Y-112819117D01*
X162968026Y-112758290D01*
X162773622Y-112727500D01*
X162773617Y-112727500D01*
X162576783Y-112727500D01*
X162576778Y-112727500D01*
X162382373Y-112758290D01*
X162195170Y-112819117D01*
X162019794Y-112908476D01*
X161928941Y-112974485D01*
X161860554Y-113024172D01*
X161860552Y-113024174D01*
X161860551Y-113024174D01*
X161721374Y-113163351D01*
X161721374Y-113163352D01*
X161721372Y-113163354D01*
X161677901Y-113223186D01*
X161605676Y-113322594D01*
X161516317Y-113497970D01*
X161455490Y-113685173D01*
X161424700Y-113879577D01*
X159187295Y-113879577D01*
X159098793Y-113834482D01*
X159048000Y-113786510D01*
X159031205Y-113718689D01*
X159053742Y-113652554D01*
X159098793Y-113613517D01*
X159268701Y-113526944D01*
X159416431Y-113419613D01*
X159428446Y-113410884D01*
X159428448Y-113410881D01*
X159428452Y-113410879D01*
X159568079Y-113271252D01*
X159568081Y-113271248D01*
X159568084Y-113271246D01*
X159646473Y-113163351D01*
X159684144Y-113111501D01*
X159773791Y-112935561D01*
X159834810Y-112747763D01*
X159838019Y-112727500D01*
X159865700Y-112552736D01*
X159865700Y-112355263D01*
X159834810Y-112160236D01*
X159798875Y-112049641D01*
X159773791Y-111972439D01*
X159684144Y-111796499D01*
X159660667Y-111764185D01*
X159568084Y-111636753D01*
X159428446Y-111497115D01*
X159268705Y-111381058D01*
X159262319Y-111377804D01*
X159098793Y-111294482D01*
X159048000Y-111246510D01*
X159031205Y-111178689D01*
X159053742Y-111112554D01*
X159098793Y-111073517D01*
X159268701Y-110986944D01*
X159340608Y-110934701D01*
X159428446Y-110870884D01*
X159428448Y-110870881D01*
X159428452Y-110870879D01*
X159568079Y-110731252D01*
X159568081Y-110731248D01*
X159568084Y-110731246D01*
X159618979Y-110661192D01*
X159684144Y-110571501D01*
X159773791Y-110395561D01*
X159834810Y-110207763D01*
X159840163Y-110173966D01*
X159865700Y-110012736D01*
X159865700Y-109815263D01*
X159834810Y-109620236D01*
X159791367Y-109486534D01*
X159773791Y-109432439D01*
X159684144Y-109256499D01*
X159654338Y-109215474D01*
X159568084Y-109096753D01*
X159428452Y-108957121D01*
X159342990Y-108895030D01*
X159342988Y-108895027D01*
X159268704Y-108841058D01*
X159268703Y-108841057D01*
X159268701Y-108841056D01*
X159187295Y-108799577D01*
X161932700Y-108799577D01*
X161932700Y-108996422D01*
X161963490Y-109190826D01*
X162024317Y-109378029D01*
X162109201Y-109544622D01*
X162113676Y-109553405D01*
X162229372Y-109712646D01*
X162368554Y-109851828D01*
X162527795Y-109967524D01*
X162610655Y-110009743D01*
X162703170Y-110056882D01*
X162703172Y-110056882D01*
X162703175Y-110056884D01*
X162803517Y-110089487D01*
X162890373Y-110117709D01*
X163084778Y-110148500D01*
X163084783Y-110148500D01*
X163281622Y-110148500D01*
X163476026Y-110117709D01*
X163663225Y-110056884D01*
X163838605Y-109967524D01*
X163997846Y-109851828D01*
X164137028Y-109712646D01*
X164252724Y-109553405D01*
X164342084Y-109378025D01*
X164402909Y-109190826D01*
X164417682Y-109097555D01*
X164420518Y-109079648D01*
X166601700Y-109079648D01*
X166601700Y-109284351D01*
X166633722Y-109486534D01*
X166696981Y-109681223D01*
X166750513Y-109786284D01*
X166783908Y-109851825D01*
X166789915Y-109863613D01*
X166910228Y-110029213D01*
X167054986Y-110173971D01*
X167148669Y-110242034D01*
X167220590Y-110294287D01*
X167336807Y-110353503D01*
X167402976Y-110387218D01*
X167402978Y-110387218D01*
X167402981Y-110387220D01*
X167507337Y-110421127D01*
X167597665Y-110450477D01*
X167698757Y-110466488D01*
X167799848Y-110482500D01*
X167799849Y-110482500D01*
X168004551Y-110482500D01*
X168004552Y-110482500D01*
X168206734Y-110450477D01*
X168401419Y-110387220D01*
X168583810Y-110294287D01*
X168702901Y-110207763D01*
X168749413Y-110173971D01*
X168749415Y-110173968D01*
X168749419Y-110173966D01*
X168894166Y-110029219D01*
X168894168Y-110029215D01*
X168894171Y-110029213D01*
X168957187Y-109942477D01*
X169014487Y-109863610D01*
X169107420Y-109681219D01*
X169170677Y-109486534D01*
X169202700Y-109284352D01*
X169202700Y-109079648D01*
X169175579Y-108908414D01*
X169170677Y-108877465D01*
X169130718Y-108754485D01*
X169107420Y-108682781D01*
X169107418Y-108682778D01*
X169107418Y-108682776D01*
X169076996Y-108623071D01*
X169067877Y-108605174D01*
X169050795Y-108571648D01*
X171300700Y-108571648D01*
X171300700Y-108776352D01*
X171305078Y-108803995D01*
X171332722Y-108978534D01*
X171395981Y-109173223D01*
X171488915Y-109355613D01*
X171609228Y-109521213D01*
X171753986Y-109665971D01*
X171903295Y-109774448D01*
X171919590Y-109786287D01*
X172035807Y-109845503D01*
X172101976Y-109879218D01*
X172101978Y-109879218D01*
X172101981Y-109879220D01*
X172206337Y-109913127D01*
X172296665Y-109942477D01*
X172397757Y-109958488D01*
X172498848Y-109974500D01*
X172498849Y-109974500D01*
X172703551Y-109974500D01*
X172703552Y-109974500D01*
X172905734Y-109942477D01*
X173100419Y-109879220D01*
X173282810Y-109786287D01*
X173384169Y-109712646D01*
X173448413Y-109665971D01*
X173448415Y-109665968D01*
X173448419Y-109665966D01*
X173593166Y-109521219D01*
X173593168Y-109521215D01*
X173593171Y-109521213D01*
X173666626Y-109420109D01*
X173713487Y-109355610D01*
X173806420Y-109173219D01*
X173869677Y-108978534D01*
X173901700Y-108776352D01*
X173901700Y-108571648D01*
X173877360Y-108417975D01*
X173869677Y-108369465D01*
X173827064Y-108238317D01*
X173806420Y-108174781D01*
X173806418Y-108174778D01*
X173806418Y-108174776D01*
X173768921Y-108101185D01*
X173713487Y-107992390D01*
X173705652Y-107981606D01*
X173593171Y-107826786D01*
X173448413Y-107682028D01*
X173282813Y-107561715D01*
X173282812Y-107561714D01*
X173282810Y-107561713D01*
X173225853Y-107532691D01*
X173100423Y-107468781D01*
X172905734Y-107405522D01*
X172731195Y-107377878D01*
X172703552Y-107373500D01*
X172498848Y-107373500D01*
X172474529Y-107377351D01*
X172296665Y-107405522D01*
X172101976Y-107468781D01*
X171919586Y-107561715D01*
X171753986Y-107682028D01*
X171609228Y-107826786D01*
X171488915Y-107992386D01*
X171395981Y-108174776D01*
X171332722Y-108369465D01*
X171300700Y-108571648D01*
X169050795Y-108571648D01*
X169014487Y-108500390D01*
X169014485Y-108500387D01*
X169014484Y-108500385D01*
X168894171Y-108334786D01*
X168749413Y-108190028D01*
X168583813Y-108069715D01*
X168583812Y-108069714D01*
X168583810Y-108069713D01*
X168516663Y-108035500D01*
X168401423Y-107976781D01*
X168206734Y-107913522D01*
X168032195Y-107885878D01*
X168004552Y-107881500D01*
X167799848Y-107881500D01*
X167775529Y-107885351D01*
X167597665Y-107913522D01*
X167402976Y-107976781D01*
X167220586Y-108069715D01*
X167054986Y-108190028D01*
X166910228Y-108334786D01*
X166789915Y-108500386D01*
X166696981Y-108682776D01*
X166633722Y-108877465D01*
X166601700Y-109079648D01*
X164420518Y-109079648D01*
X164424362Y-109055378D01*
X164424362Y-109055377D01*
X164433700Y-108996421D01*
X164433700Y-108799577D01*
X164402909Y-108605173D01*
X164354465Y-108456080D01*
X164342084Y-108417975D01*
X164342082Y-108417972D01*
X164342082Y-108417970D01*
X164290809Y-108317342D01*
X164252724Y-108242595D01*
X164137028Y-108083354D01*
X163997846Y-107944172D01*
X163838605Y-107828476D01*
X163835278Y-107826781D01*
X163663229Y-107739117D01*
X163476026Y-107678290D01*
X163281622Y-107647500D01*
X163281617Y-107647500D01*
X163084783Y-107647500D01*
X163084778Y-107647500D01*
X162890373Y-107678290D01*
X162703170Y-107739117D01*
X162527794Y-107828476D01*
X162454814Y-107881500D01*
X162368554Y-107944172D01*
X162368552Y-107944174D01*
X162368551Y-107944174D01*
X162229374Y-108083351D01*
X162229374Y-108083352D01*
X162229372Y-108083354D01*
X162191123Y-108135999D01*
X162113676Y-108242594D01*
X162024317Y-108417970D01*
X161963490Y-108605173D01*
X161932700Y-108799577D01*
X159187295Y-108799577D01*
X159098793Y-108754482D01*
X159048000Y-108706510D01*
X159031205Y-108638689D01*
X159053742Y-108572554D01*
X159098793Y-108533517D01*
X159268701Y-108446944D01*
X159308581Y-108417970D01*
X159428446Y-108330884D01*
X159428448Y-108330881D01*
X159428452Y-108330879D01*
X159568079Y-108191252D01*
X159568081Y-108191248D01*
X159568084Y-108191246D01*
X159618979Y-108121192D01*
X159684144Y-108031501D01*
X159773791Y-107855561D01*
X159834810Y-107667763D01*
X159838019Y-107647500D01*
X159865700Y-107472736D01*
X159865700Y-107275263D01*
X159834810Y-107080236D01*
X159791982Y-106948426D01*
X159773791Y-106892439D01*
X159684144Y-106716499D01*
X159666648Y-106692417D01*
X159568084Y-106556753D01*
X159428446Y-106417115D01*
X159268705Y-106301058D01*
X159262319Y-106297804D01*
X159098793Y-106214482D01*
X159048000Y-106166510D01*
X159031205Y-106098689D01*
X159053742Y-106032554D01*
X159098793Y-105993517D01*
X159268701Y-105906944D01*
X159377402Y-105827969D01*
X159428446Y-105790884D01*
X159428448Y-105790881D01*
X159428452Y-105790879D01*
X159568079Y-105651252D01*
X159568081Y-105651248D01*
X159568084Y-105651246D01*
X159641699Y-105549922D01*
X159684144Y-105491501D01*
X159773791Y-105315561D01*
X159834810Y-105127763D01*
X159842188Y-105081179D01*
X159865700Y-104932736D01*
X159865700Y-104735263D01*
X159834810Y-104540236D01*
X159810380Y-104465048D01*
X159773791Y-104352439D01*
X159684144Y-104176499D01*
X159666707Y-104152499D01*
X159568084Y-104016753D01*
X159428446Y-103877115D01*
X159268705Y-103761058D01*
X159263534Y-103758423D01*
X159098243Y-103674202D01*
X159047450Y-103626230D01*
X159030655Y-103558409D01*
X159053192Y-103492275D01*
X159098246Y-103453235D01*
X159268441Y-103366516D01*
X159304188Y-103340543D01*
X159304188Y-103340541D01*
X158740610Y-102776962D01*
X158804193Y-102759925D01*
X158918207Y-102694099D01*
X159011299Y-102601007D01*
X159077125Y-102486993D01*
X159094162Y-102423409D01*
X159657741Y-102986988D01*
X159657743Y-102986988D01*
X159683716Y-102951241D01*
X159773326Y-102775373D01*
X159834323Y-102587646D01*
X159834323Y-102587645D01*
X159836355Y-102574818D01*
X159836355Y-102574817D01*
X159865200Y-102392697D01*
X159865200Y-102195302D01*
X159834323Y-102000353D01*
X159773326Y-101812626D01*
X159683720Y-101636768D01*
X159683712Y-101636755D01*
X159657742Y-101601010D01*
X159657741Y-101601009D01*
X159094162Y-102164589D01*
X159077125Y-102101007D01*
X159011299Y-101986993D01*
X158918207Y-101893901D01*
X158804193Y-101828075D01*
X158740609Y-101811037D01*
X159091965Y-101459682D01*
X166602200Y-101459682D01*
X166602200Y-101664317D01*
X166634209Y-101866417D01*
X166697444Y-102061031D01*
X166790341Y-102243350D01*
X166790347Y-102243359D01*
X166822723Y-102287921D01*
X166822724Y-102287922D01*
X167502200Y-101608446D01*
X167502200Y-101614661D01*
X167529459Y-101716394D01*
X167582120Y-101807606D01*
X167656594Y-101882080D01*
X167747806Y-101934741D01*
X167849539Y-101962000D01*
X167855753Y-101962000D01*
X167176276Y-102641474D01*
X167220850Y-102673859D01*
X167403168Y-102766755D01*
X167597782Y-102829990D01*
X167799883Y-102862000D01*
X168004517Y-102862000D01*
X168206617Y-102829990D01*
X168401231Y-102766755D01*
X168583549Y-102673859D01*
X168628121Y-102641474D01*
X167948647Y-101962000D01*
X167954861Y-101962000D01*
X168056594Y-101934741D01*
X168147806Y-101882080D01*
X168222280Y-101807606D01*
X168274941Y-101716394D01*
X168302200Y-101614661D01*
X168302200Y-101608448D01*
X168981674Y-102287922D01*
X168981674Y-102287921D01*
X169014059Y-102243349D01*
X169106955Y-102061031D01*
X169170190Y-101866417D01*
X169202200Y-101664317D01*
X169202200Y-101459682D01*
X169170190Y-101257582D01*
X169106955Y-101062968D01*
X169014059Y-100880650D01*
X168981674Y-100836077D01*
X168981674Y-100836076D01*
X168302200Y-101515551D01*
X168302200Y-101509339D01*
X168274941Y-101407606D01*
X168222280Y-101316394D01*
X168147806Y-101241920D01*
X168056594Y-101189259D01*
X167954861Y-101162000D01*
X167948646Y-101162000D01*
X168628122Y-100482524D01*
X168628121Y-100482523D01*
X168583559Y-100450147D01*
X168583550Y-100450141D01*
X168401231Y-100357244D01*
X168206617Y-100294009D01*
X168004517Y-100262000D01*
X167799883Y-100262000D01*
X167597782Y-100294009D01*
X167403168Y-100357244D01*
X167220844Y-100450143D01*
X167176277Y-100482523D01*
X167176277Y-100482524D01*
X167855754Y-101162000D01*
X167849539Y-101162000D01*
X167747806Y-101189259D01*
X167656594Y-101241920D01*
X167582120Y-101316394D01*
X167529459Y-101407606D01*
X167502200Y-101509339D01*
X167502200Y-101515553D01*
X166822724Y-100836077D01*
X166822723Y-100836077D01*
X166790343Y-100880644D01*
X166697444Y-101062968D01*
X166634209Y-101257582D01*
X166602200Y-101459682D01*
X159091965Y-101459682D01*
X159184512Y-101367135D01*
X159304189Y-101247457D01*
X159268436Y-101221481D01*
X159098245Y-101134763D01*
X159047450Y-101086789D01*
X159030655Y-101018968D01*
X159053193Y-100952833D01*
X159098242Y-100913798D01*
X159268701Y-100826944D01*
X159332747Y-100780412D01*
X159428446Y-100710884D01*
X159428448Y-100710881D01*
X159428452Y-100710879D01*
X159568079Y-100571252D01*
X159653444Y-100453757D01*
X159662101Y-100441841D01*
X159684144Y-100411501D01*
X159773791Y-100235561D01*
X159834810Y-100047763D01*
X159848016Y-99964383D01*
X159865700Y-99852736D01*
X159865700Y-99655271D01*
X159865335Y-99652967D01*
X159853626Y-99579039D01*
X159862580Y-99509748D01*
X159888415Y-99471965D01*
X161945563Y-97414819D01*
X162006886Y-97381334D01*
X162033244Y-97378500D01*
X163859724Y-97378500D01*
X163926763Y-97398185D01*
X163972518Y-97450989D01*
X163982462Y-97520147D01*
X163977655Y-97540817D01*
X163966724Y-97574457D01*
X163966723Y-97574464D01*
X163934700Y-97776648D01*
X163934700Y-97981351D01*
X163966722Y-98183534D01*
X164029981Y-98378223D01*
X164122915Y-98560613D01*
X164243228Y-98726213D01*
X164387986Y-98870971D01*
X164533733Y-98976860D01*
X164553590Y-98991287D01*
X164663847Y-99047466D01*
X164735976Y-99084218D01*
X164735978Y-99084218D01*
X164735981Y-99084220D01*
X164792192Y-99102484D01*
X164930665Y-99147477D01*
X165020029Y-99161631D01*
X165132848Y-99179500D01*
X165132849Y-99179500D01*
X165337551Y-99179500D01*
X165337552Y-99179500D01*
X165539734Y-99147477D01*
X165734419Y-99084220D01*
X165916810Y-98991287D01*
X166058123Y-98888618D01*
X166082413Y-98870971D01*
X166082415Y-98870968D01*
X166082419Y-98870966D01*
X166227166Y-98726219D01*
X166227168Y-98726215D01*
X166227171Y-98726213D01*
X166279932Y-98653590D01*
X166347487Y-98560610D01*
X166440420Y-98378219D01*
X166503677Y-98183534D01*
X166535700Y-97981352D01*
X166535700Y-97776648D01*
X166503677Y-97574466D01*
X166503675Y-97574462D01*
X166503675Y-97574457D01*
X166492745Y-97540817D01*
X166490750Y-97470976D01*
X166526831Y-97411144D01*
X166589532Y-97380316D01*
X166610676Y-97378500D01*
X171479724Y-97378500D01*
X171546763Y-97398185D01*
X171592518Y-97450989D01*
X171602462Y-97520147D01*
X171597655Y-97540817D01*
X171586724Y-97574457D01*
X171586723Y-97574464D01*
X171554700Y-97776648D01*
X171554700Y-97981357D01*
X171572567Y-98094162D01*
X171563613Y-98163455D01*
X171537775Y-98201241D01*
X171239517Y-98499500D01*
X170948420Y-98790597D01*
X170948417Y-98790600D01*
X170899408Y-98839609D01*
X170850399Y-98888617D01*
X170850398Y-98888618D01*
X170791438Y-98976860D01*
X170773390Y-99003870D01*
X170773386Y-99003877D01*
X170720343Y-99131935D01*
X170720341Y-99131943D01*
X170693299Y-99267889D01*
X170693299Y-99412621D01*
X170693300Y-99412642D01*
X170693300Y-101478352D01*
X170693299Y-101478378D01*
X170693299Y-101622105D01*
X170698807Y-101649792D01*
X170713533Y-101723825D01*
X170713534Y-101723827D01*
X170713534Y-101723829D01*
X170720341Y-101758050D01*
X170720344Y-101758062D01*
X170773386Y-101886119D01*
X170850401Y-102001381D01*
X170952736Y-102103716D01*
X170952758Y-102103736D01*
X174635181Y-105786159D01*
X174668666Y-105847482D01*
X174671500Y-105873840D01*
X174671500Y-112369556D01*
X174671499Y-112369582D01*
X174671499Y-112513309D01*
X174693063Y-112621712D01*
X174693063Y-112621714D01*
X174698541Y-112649254D01*
X174698544Y-112649266D01*
X174751586Y-112777323D01*
X174828601Y-112892585D01*
X174930936Y-112994920D01*
X174930958Y-112994940D01*
X175347775Y-113411757D01*
X175381260Y-113473080D01*
X175382567Y-113518836D01*
X175364700Y-113631642D01*
X175364700Y-113836351D01*
X175396722Y-114038534D01*
X175459981Y-114233223D01*
X175552915Y-114415613D01*
X175673228Y-114581213D01*
X175817986Y-114725971D01*
X175972949Y-114838556D01*
X175983590Y-114846287D01*
X176090240Y-114900628D01*
X176095906Y-114903515D01*
X176146702Y-114951490D01*
X176163497Y-115019311D01*
X176140960Y-115085446D01*
X176095906Y-115124485D01*
X175983586Y-115181715D01*
X175817986Y-115302028D01*
X175673228Y-115446786D01*
X175552915Y-115612386D01*
X175459981Y-115794776D01*
X175396722Y-115989465D01*
X175364700Y-116191648D01*
X175364700Y-116396351D01*
X175396722Y-116598534D01*
X175459981Y-116793223D01*
X175552915Y-116975613D01*
X175673228Y-117141213D01*
X175817986Y-117285971D01*
X175961704Y-117390386D01*
X175983590Y-117406287D01*
X176099807Y-117465503D01*
X176165976Y-117499218D01*
X176165978Y-117499218D01*
X176165981Y-117499220D01*
X176203523Y-117511418D01*
X176360665Y-117562477D01*
X176461757Y-117578488D01*
X176562848Y-117594500D01*
X176562849Y-117594500D01*
X176767551Y-117594500D01*
X176767552Y-117594500D01*
X176969734Y-117562477D01*
X176969739Y-117562475D01*
X176969741Y-117562475D01*
X177003380Y-117551545D01*
X177073221Y-117549548D01*
X177133054Y-117585628D01*
X177163884Y-117648328D01*
X177165700Y-117669475D01*
X177165700Y-120735756D01*
X177165699Y-120735782D01*
X177165699Y-120879510D01*
X177186366Y-120983405D01*
X177186366Y-120983406D01*
X177192740Y-121015455D01*
X177192743Y-121015464D01*
X177245786Y-121143523D01*
X177322801Y-121258785D01*
X177425136Y-121361120D01*
X177425158Y-121361140D01*
X179137775Y-123073757D01*
X179171260Y-123135080D01*
X179172567Y-123180836D01*
X179154700Y-123293642D01*
X179154700Y-123293648D01*
X179154700Y-123498352D01*
X179159078Y-123525995D01*
X179186722Y-123700534D01*
X179249981Y-123895223D01*
X179306474Y-124006094D01*
X179338217Y-124068394D01*
X179342915Y-124077613D01*
X179463228Y-124243213D01*
X179607986Y-124387971D01*
X179773585Y-124508284D01*
X179773587Y-124508285D01*
X179773590Y-124508287D01*
X179827578Y-124535795D01*
X179878374Y-124583769D01*
X179895169Y-124651590D01*
X179872632Y-124717725D01*
X179827578Y-124756765D01*
X179773844Y-124784143D01*
X179729277Y-124816523D01*
X179729277Y-124816524D01*
X180408754Y-125496000D01*
X180402539Y-125496000D01*
X180300806Y-125523259D01*
X180209594Y-125575920D01*
X180135120Y-125650394D01*
X180082459Y-125741606D01*
X180055200Y-125843339D01*
X180055200Y-125849553D01*
X179375724Y-125170077D01*
X179375723Y-125170077D01*
X179343343Y-125214644D01*
X179250444Y-125396968D01*
X179187209Y-125591582D01*
X179155200Y-125793682D01*
X179155200Y-125998317D01*
X179187209Y-126200417D01*
X179250444Y-126395031D01*
X179343341Y-126577350D01*
X179343347Y-126577359D01*
X179375723Y-126621921D01*
X179375724Y-126621922D01*
X180055200Y-125942446D01*
X180055200Y-125948661D01*
X180082459Y-126050394D01*
X180135120Y-126141606D01*
X180209594Y-126216080D01*
X180300806Y-126268741D01*
X180402539Y-126296000D01*
X180408753Y-126296000D01*
X179729276Y-126975474D01*
X179773850Y-127007859D01*
X179956168Y-127100755D01*
X180150782Y-127163990D01*
X180352883Y-127196000D01*
X180557517Y-127196000D01*
X180759617Y-127163990D01*
X180954231Y-127100755D01*
X181136549Y-127007859D01*
X181181121Y-126975474D01*
X180501647Y-126296000D01*
X180507861Y-126296000D01*
X180609594Y-126268741D01*
X180700806Y-126216080D01*
X180775280Y-126141606D01*
X180827941Y-126050394D01*
X180855200Y-125948661D01*
X180855200Y-125942447D01*
X181534674Y-126621921D01*
X181567059Y-126577349D01*
X181659955Y-126395031D01*
X181723190Y-126200417D01*
X181755200Y-125998317D01*
X181755200Y-125793682D01*
X181723190Y-125591582D01*
X181659955Y-125396968D01*
X181567059Y-125214650D01*
X181534674Y-125170077D01*
X181534674Y-125170076D01*
X180855200Y-125849551D01*
X180855200Y-125843339D01*
X180827941Y-125741606D01*
X180775280Y-125650394D01*
X180700806Y-125575920D01*
X180609594Y-125523259D01*
X180507861Y-125496000D01*
X180501646Y-125496000D01*
X181181122Y-124816524D01*
X181181121Y-124816523D01*
X181136559Y-124784147D01*
X181136550Y-124784141D01*
X181082821Y-124756765D01*
X181032025Y-124708791D01*
X181015230Y-124640970D01*
X181037767Y-124574835D01*
X181082821Y-124535795D01*
X181136810Y-124508287D01*
X181267920Y-124413031D01*
X181302413Y-124387971D01*
X181302415Y-124387968D01*
X181302419Y-124387966D01*
X181447166Y-124243219D01*
X181447168Y-124243215D01*
X181447171Y-124243213D01*
X181539557Y-124116052D01*
X181567487Y-124077610D01*
X181660420Y-123895219D01*
X181723677Y-123700534D01*
X181755700Y-123498352D01*
X181755700Y-123293648D01*
X181723677Y-123091466D01*
X181720766Y-123082508D01*
X181679559Y-122955685D01*
X181660420Y-122896781D01*
X181660418Y-122896778D01*
X181660418Y-122896776D01*
X181612198Y-122802141D01*
X181567487Y-122714390D01*
X181533808Y-122668034D01*
X181447171Y-122548786D01*
X181320368Y-122421983D01*
X182610700Y-122421983D01*
X182610700Y-123822001D01*
X182610701Y-123822018D01*
X182621200Y-123924796D01*
X182621201Y-123924799D01*
X182668784Y-124068394D01*
X182676386Y-124091334D01*
X182768488Y-124240656D01*
X182892544Y-124364712D01*
X183041866Y-124456814D01*
X183208403Y-124511999D01*
X183311191Y-124522500D01*
X184711208Y-124522499D01*
X184813997Y-124511999D01*
X184980534Y-124456814D01*
X185129856Y-124364712D01*
X185253912Y-124240656D01*
X185346014Y-124091334D01*
X185401199Y-123924797D01*
X185411700Y-123822009D01*
X185411699Y-122421992D01*
X185408586Y-122391522D01*
X185401199Y-122319203D01*
X185401198Y-122319200D01*
X185374527Y-122238712D01*
X185346014Y-122152666D01*
X185253912Y-122003344D01*
X185129856Y-121879288D01*
X184980534Y-121787186D01*
X184813997Y-121732001D01*
X184813995Y-121732000D01*
X184711210Y-121721500D01*
X183311198Y-121721500D01*
X183311181Y-121721501D01*
X183208403Y-121732000D01*
X183208400Y-121732001D01*
X183041868Y-121787185D01*
X183041863Y-121787187D01*
X182892542Y-121879289D01*
X182768489Y-122003342D01*
X182676387Y-122152663D01*
X182676386Y-122152666D01*
X182621201Y-122319203D01*
X182621201Y-122319204D01*
X182621200Y-122319204D01*
X182610700Y-122421983D01*
X181320368Y-122421983D01*
X181302413Y-122404028D01*
X181136813Y-122283715D01*
X181136812Y-122283714D01*
X181136810Y-122283713D01*
X181048489Y-122238711D01*
X180954423Y-122190781D01*
X180759734Y-122127522D01*
X180585195Y-122099878D01*
X180557552Y-122095500D01*
X180352848Y-122095500D01*
X180352843Y-122095500D01*
X180240036Y-122113367D01*
X180170743Y-122104413D01*
X180132957Y-122078575D01*
X178609419Y-120555037D01*
X178575934Y-120493714D01*
X178573100Y-120467356D01*
X178573100Y-119485778D01*
X178820700Y-119485778D01*
X178820700Y-119706222D01*
X178821100Y-119708746D01*
X178855185Y-119923952D01*
X178923303Y-120133603D01*
X178923304Y-120133606D01*
X178979609Y-120244108D01*
X179010808Y-120305339D01*
X179023387Y-120330025D01*
X179152952Y-120508358D01*
X179152956Y-120508363D01*
X179308836Y-120664243D01*
X179308841Y-120664247D01*
X179464392Y-120777260D01*
X179487178Y-120793815D01*
X179611245Y-120857031D01*
X179683593Y-120893895D01*
X179683596Y-120893896D01*
X179788421Y-120927955D01*
X179893249Y-120962015D01*
X180110978Y-120996500D01*
X180110979Y-120996500D01*
X180331421Y-120996500D01*
X180331422Y-120996500D01*
X180549151Y-120962015D01*
X180758806Y-120893895D01*
X180955222Y-120793815D01*
X181133565Y-120664242D01*
X181289442Y-120508365D01*
X181419015Y-120330022D01*
X181519095Y-120133606D01*
X181587215Y-119923951D01*
X181621700Y-119706222D01*
X181621700Y-119485778D01*
X181587215Y-119268049D01*
X181520907Y-119063971D01*
X181519096Y-119058396D01*
X181519095Y-119058393D01*
X181448181Y-118919219D01*
X181419015Y-118861978D01*
X181388153Y-118819500D01*
X181289447Y-118683641D01*
X181289443Y-118683636D01*
X181133563Y-118527756D01*
X181133558Y-118527752D01*
X180955225Y-118398187D01*
X180955224Y-118398186D01*
X180955222Y-118398185D01*
X180863100Y-118351246D01*
X180758806Y-118298104D01*
X180758803Y-118298103D01*
X180549152Y-118229985D01*
X180440286Y-118212742D01*
X180331422Y-118195500D01*
X180110978Y-118195500D01*
X180038401Y-118206995D01*
X179893247Y-118229985D01*
X179683596Y-118298103D01*
X179683593Y-118298104D01*
X179487174Y-118398187D01*
X179308841Y-118527752D01*
X179308836Y-118527756D01*
X179152956Y-118683636D01*
X179152952Y-118683641D01*
X179023387Y-118861974D01*
X178923304Y-119058393D01*
X178923303Y-119058396D01*
X178855185Y-119268047D01*
X178838377Y-119374172D01*
X178820700Y-119485778D01*
X178573100Y-119485778D01*
X178573100Y-115653648D01*
X186266700Y-115653648D01*
X186266700Y-115858351D01*
X186298722Y-116060534D01*
X186361981Y-116255223D01*
X186421182Y-116371409D01*
X186433890Y-116396351D01*
X186454915Y-116437613D01*
X186575228Y-116603213D01*
X186719986Y-116747971D01*
X186874949Y-116860556D01*
X186885590Y-116868287D01*
X187001807Y-116927503D01*
X187067976Y-116961218D01*
X187067978Y-116961218D01*
X187067981Y-116961220D01*
X187172337Y-116995127D01*
X187262665Y-117024477D01*
X187363757Y-117040488D01*
X187464848Y-117056500D01*
X187464849Y-117056500D01*
X187669551Y-117056500D01*
X187669552Y-117056500D01*
X187871734Y-117024477D01*
X188066419Y-116961220D01*
X188248810Y-116868287D01*
X188357435Y-116789367D01*
X188414413Y-116747971D01*
X188414415Y-116747968D01*
X188414419Y-116747966D01*
X188559166Y-116603219D01*
X188559168Y-116603215D01*
X188559171Y-116603213D01*
X188662451Y-116461058D01*
X188679487Y-116437610D01*
X188772420Y-116255219D01*
X188835677Y-116060534D01*
X188867700Y-115858352D01*
X188867700Y-115653648D01*
X188835677Y-115451466D01*
X188834156Y-115446786D01*
X188806327Y-115361137D01*
X188772420Y-115256781D01*
X188772418Y-115256778D01*
X188772418Y-115256776D01*
X188711328Y-115136882D01*
X188679487Y-115074390D01*
X188659967Y-115047523D01*
X188559171Y-114908786D01*
X188414413Y-114764028D01*
X188248813Y-114643715D01*
X188248812Y-114643714D01*
X188248810Y-114643713D01*
X188191853Y-114614691D01*
X188066423Y-114550781D01*
X187871734Y-114487522D01*
X187685494Y-114458025D01*
X187669552Y-114455500D01*
X187464848Y-114455500D01*
X187448906Y-114458025D01*
X187262665Y-114487522D01*
X187067976Y-114550781D01*
X186885586Y-114643715D01*
X186719986Y-114764028D01*
X186575228Y-114908786D01*
X186454915Y-115074386D01*
X186361981Y-115256776D01*
X186298722Y-115451465D01*
X186266700Y-115653648D01*
X178573100Y-115653648D01*
X178573100Y-112851778D01*
X182610700Y-112851778D01*
X182610700Y-113072221D01*
X182645185Y-113289952D01*
X182713303Y-113499603D01*
X182713304Y-113499606D01*
X182813387Y-113696025D01*
X182942952Y-113874358D01*
X182942956Y-113874363D01*
X183098836Y-114030243D01*
X183098841Y-114030247D01*
X183254392Y-114143260D01*
X183277178Y-114159815D01*
X183405575Y-114225237D01*
X183473593Y-114259895D01*
X183473596Y-114259896D01*
X183578421Y-114293955D01*
X183683249Y-114328015D01*
X183900978Y-114362500D01*
X183900979Y-114362500D01*
X184121421Y-114362500D01*
X184121422Y-114362500D01*
X184339151Y-114328015D01*
X184548806Y-114259895D01*
X184745222Y-114159815D01*
X184923565Y-114030242D01*
X185079442Y-113874365D01*
X185209015Y-113696022D01*
X185309095Y-113499606D01*
X185377215Y-113289951D01*
X185411700Y-113072222D01*
X185411700Y-112851778D01*
X185377215Y-112634049D01*
X185338093Y-112513643D01*
X185309096Y-112424396D01*
X185309095Y-112424393D01*
X185214519Y-112238781D01*
X185209015Y-112227978D01*
X185119575Y-112104873D01*
X185079447Y-112049641D01*
X185079443Y-112049636D01*
X184923563Y-111893756D01*
X184923558Y-111893752D01*
X184745225Y-111764187D01*
X184745224Y-111764186D01*
X184745222Y-111764185D01*
X184682296Y-111732122D01*
X184548806Y-111664104D01*
X184548803Y-111664103D01*
X184339152Y-111595985D01*
X184230286Y-111578742D01*
X184121422Y-111561500D01*
X183900978Y-111561500D01*
X183828401Y-111572995D01*
X183683247Y-111595985D01*
X183473596Y-111664103D01*
X183473593Y-111664104D01*
X183277174Y-111764187D01*
X183098841Y-111893752D01*
X183098836Y-111893756D01*
X182942956Y-112049636D01*
X182942952Y-112049641D01*
X182813387Y-112227974D01*
X182713304Y-112424393D01*
X182713303Y-112424396D01*
X182645185Y-112634047D01*
X182610700Y-112851778D01*
X178573100Y-112851778D01*
X178573100Y-112513643D01*
X178573101Y-112513622D01*
X178573101Y-112368889D01*
X178546058Y-112232943D01*
X178546056Y-112232935D01*
X178493014Y-112104879D01*
X178493012Y-112104875D01*
X178493011Y-112104873D01*
X178448686Y-112038536D01*
X178416000Y-111989617D01*
X178317983Y-111891600D01*
X178317979Y-111891597D01*
X177982623Y-111556241D01*
X177949138Y-111494918D01*
X177947831Y-111449167D01*
X177965700Y-111336352D01*
X177965700Y-111131648D01*
X177956980Y-111076591D01*
X177933677Y-110929465D01*
X177903470Y-110836498D01*
X177870420Y-110734781D01*
X177870418Y-110734778D01*
X177870418Y-110734776D01*
X177836703Y-110668607D01*
X177777487Y-110552390D01*
X177769756Y-110541749D01*
X177657171Y-110386786D01*
X177512417Y-110242032D01*
X177512412Y-110242028D01*
X177420015Y-110174898D01*
X177377349Y-110119569D01*
X177368900Y-110074580D01*
X177368900Y-108735983D01*
X178820700Y-108735983D01*
X178820700Y-110136001D01*
X178820701Y-110136018D01*
X178831200Y-110238796D01*
X178831201Y-110238799D01*
X178886385Y-110405331D01*
X178886386Y-110405334D01*
X178978488Y-110554656D01*
X179102544Y-110678712D01*
X179251866Y-110770814D01*
X179418403Y-110825999D01*
X179521191Y-110836500D01*
X180921208Y-110836499D01*
X181023997Y-110825999D01*
X181190534Y-110770814D01*
X181339856Y-110678712D01*
X181463912Y-110554656D01*
X181556014Y-110405334D01*
X181611199Y-110238797D01*
X181621700Y-110136009D01*
X181621699Y-108735992D01*
X181617769Y-108697524D01*
X181611199Y-108633203D01*
X181611198Y-108633200D01*
X181607842Y-108623071D01*
X181556014Y-108466666D01*
X181463912Y-108317344D01*
X181339856Y-108193288D01*
X181274009Y-108152674D01*
X181244310Y-108134355D01*
X181190534Y-108101186D01*
X181023997Y-108046001D01*
X181023995Y-108046000D01*
X180921210Y-108035500D01*
X179521198Y-108035500D01*
X179521181Y-108035501D01*
X179418403Y-108046000D01*
X179418400Y-108046001D01*
X179251868Y-108101185D01*
X179251863Y-108101187D01*
X179102542Y-108193289D01*
X178978489Y-108317342D01*
X178886387Y-108466663D01*
X178886385Y-108466668D01*
X178875212Y-108500386D01*
X178831201Y-108633203D01*
X178831201Y-108633204D01*
X178831200Y-108633204D01*
X178820700Y-108735983D01*
X177368900Y-108735983D01*
X177368900Y-108033682D01*
X186267200Y-108033682D01*
X186267200Y-108238317D01*
X186299209Y-108440417D01*
X186362444Y-108635031D01*
X186455341Y-108817350D01*
X186455347Y-108817359D01*
X186487723Y-108861921D01*
X186487724Y-108861922D01*
X187167200Y-108182446D01*
X187167200Y-108188661D01*
X187194459Y-108290394D01*
X187247120Y-108381606D01*
X187321594Y-108456080D01*
X187412806Y-108508741D01*
X187514539Y-108536000D01*
X187520753Y-108536000D01*
X186841276Y-109215474D01*
X186885850Y-109247859D01*
X187068168Y-109340755D01*
X187262782Y-109403990D01*
X187464883Y-109436000D01*
X187669517Y-109436000D01*
X187871617Y-109403990D01*
X188066231Y-109340755D01*
X188248549Y-109247859D01*
X188293121Y-109215474D01*
X187613647Y-108536000D01*
X187619861Y-108536000D01*
X187721594Y-108508741D01*
X187812806Y-108456080D01*
X187887280Y-108381606D01*
X187939941Y-108290394D01*
X187967200Y-108188661D01*
X187967200Y-108182448D01*
X188646674Y-108861922D01*
X188646674Y-108861921D01*
X188679059Y-108817349D01*
X188771955Y-108635031D01*
X188835190Y-108440417D01*
X188867200Y-108238317D01*
X188867200Y-108033682D01*
X188835190Y-107831582D01*
X188771955Y-107636968D01*
X188679059Y-107454650D01*
X188646674Y-107410077D01*
X188646674Y-107410076D01*
X187967200Y-108089551D01*
X187967200Y-108083339D01*
X187939941Y-107981606D01*
X187887280Y-107890394D01*
X187812806Y-107815920D01*
X187721594Y-107763259D01*
X187619861Y-107736000D01*
X187613646Y-107736000D01*
X188293122Y-107056524D01*
X188293121Y-107056523D01*
X188248559Y-107024147D01*
X188248550Y-107024141D01*
X188099952Y-106948426D01*
X188049156Y-106900451D01*
X188032361Y-106832630D01*
X188054899Y-106766495D01*
X188099953Y-106727456D01*
X188222341Y-106665097D01*
X188257325Y-106639678D01*
X188257326Y-106639678D01*
X187567201Y-105949553D01*
X187567200Y-105949553D01*
X186877073Y-106639677D01*
X186877073Y-106639678D01*
X186912060Y-106665097D01*
X187034447Y-106727456D01*
X187085244Y-106775430D01*
X187102039Y-106843251D01*
X187079502Y-106909386D01*
X187034448Y-106948426D01*
X186885844Y-107024143D01*
X186841277Y-107056523D01*
X186841277Y-107056524D01*
X187520754Y-107736000D01*
X187514539Y-107736000D01*
X187412806Y-107763259D01*
X187321594Y-107815920D01*
X187247120Y-107890394D01*
X187194459Y-107981606D01*
X187167200Y-108083339D01*
X187167200Y-108089553D01*
X186487724Y-107410077D01*
X186487723Y-107410077D01*
X186455343Y-107454644D01*
X186362444Y-107636968D01*
X186299209Y-107831582D01*
X186267200Y-108033682D01*
X177368900Y-108033682D01*
X177368900Y-106285648D01*
X180952700Y-106285648D01*
X180952700Y-106490351D01*
X180984722Y-106692534D01*
X181047981Y-106887223D01*
X181110294Y-107009516D01*
X181140785Y-107069359D01*
X181140915Y-107069613D01*
X181261228Y-107235213D01*
X181405986Y-107379971D01*
X181526426Y-107467474D01*
X181571590Y-107500287D01*
X181661939Y-107546322D01*
X181753976Y-107593218D01*
X181753978Y-107593218D01*
X181753981Y-107593220D01*
X181858337Y-107627127D01*
X181948665Y-107656477D01*
X182019922Y-107667763D01*
X182150848Y-107688500D01*
X182150849Y-107688500D01*
X182355551Y-107688500D01*
X182355552Y-107688500D01*
X182557734Y-107656477D01*
X182752419Y-107593220D01*
X182934810Y-107500287D01*
X183027790Y-107432732D01*
X183100413Y-107379971D01*
X183100415Y-107379968D01*
X183100419Y-107379966D01*
X183245166Y-107235219D01*
X183245168Y-107235215D01*
X183245171Y-107235213D01*
X183365486Y-107069611D01*
X183365615Y-107069359D01*
X183392995Y-107015621D01*
X183440969Y-106964826D01*
X183508789Y-106948030D01*
X183574925Y-106970567D01*
X183613965Y-107015621D01*
X183641341Y-107069350D01*
X183641347Y-107069359D01*
X183673723Y-107113921D01*
X183673724Y-107113922D01*
X184353200Y-106434446D01*
X184353200Y-106440661D01*
X184380459Y-106542394D01*
X184433120Y-106633606D01*
X184507594Y-106708080D01*
X184598806Y-106760741D01*
X184700539Y-106788000D01*
X184706753Y-106788000D01*
X184027276Y-107467474D01*
X184071850Y-107499859D01*
X184254168Y-107592755D01*
X184448782Y-107655990D01*
X184650883Y-107688000D01*
X184855517Y-107688000D01*
X185057617Y-107655990D01*
X185252231Y-107592755D01*
X185434549Y-107499859D01*
X185479121Y-107467474D01*
X184799647Y-106788000D01*
X184805861Y-106788000D01*
X184907594Y-106760741D01*
X184998806Y-106708080D01*
X185073280Y-106633606D01*
X185125941Y-106542394D01*
X185153200Y-106440661D01*
X185153200Y-106434448D01*
X185832674Y-107113922D01*
X185832674Y-107113921D01*
X185865061Y-107069347D01*
X185865062Y-107069345D01*
X185876200Y-107047487D01*
X185876200Y-107047486D01*
X185957954Y-106887034D01*
X186021190Y-106692417D01*
X186053200Y-106490317D01*
X186053200Y-106285682D01*
X186021190Y-106083582D01*
X185957955Y-105888968D01*
X185865059Y-105706650D01*
X185832674Y-105662077D01*
X185832674Y-105662076D01*
X185153200Y-106341551D01*
X185153200Y-106335339D01*
X185125941Y-106233606D01*
X185073280Y-106142394D01*
X184998806Y-106067920D01*
X184907594Y-106015259D01*
X184805861Y-105988000D01*
X184799646Y-105988000D01*
X185290030Y-105497617D01*
X186317200Y-105497617D01*
X186317200Y-105694382D01*
X186347978Y-105888705D01*
X186408781Y-106075835D01*
X186498105Y-106251145D01*
X186523519Y-106286125D01*
X186523520Y-106286125D01*
X187213646Y-105596000D01*
X187213646Y-105595999D01*
X187167569Y-105549922D01*
X187217200Y-105549922D01*
X187217200Y-105642078D01*
X187241052Y-105731095D01*
X187287130Y-105810905D01*
X187352295Y-105876070D01*
X187432105Y-105922148D01*
X187521122Y-105946000D01*
X187613278Y-105946000D01*
X187702295Y-105922148D01*
X187782105Y-105876070D01*
X187847270Y-105810905D01*
X187893348Y-105731095D01*
X187917200Y-105642078D01*
X187917200Y-105595999D01*
X187920753Y-105595999D01*
X187920753Y-105596001D01*
X188610878Y-106286126D01*
X188610878Y-106286125D01*
X188636295Y-106251143D01*
X188725618Y-106075835D01*
X188786421Y-105888705D01*
X188817200Y-105694382D01*
X188817200Y-105497617D01*
X188786421Y-105303294D01*
X188725618Y-105116164D01*
X188636296Y-104940858D01*
X188610878Y-104905873D01*
X188610877Y-104905873D01*
X187920753Y-105595999D01*
X187917200Y-105595999D01*
X187917200Y-105549922D01*
X187893348Y-105460905D01*
X187847270Y-105381095D01*
X187782105Y-105315930D01*
X187702295Y-105269852D01*
X187613278Y-105246000D01*
X187521122Y-105246000D01*
X187432105Y-105269852D01*
X187352295Y-105315930D01*
X187287130Y-105381095D01*
X187241052Y-105460905D01*
X187217200Y-105549922D01*
X187167569Y-105549922D01*
X186523520Y-104905872D01*
X186523520Y-104905873D01*
X186498102Y-104940859D01*
X186498099Y-104940863D01*
X186408782Y-105116161D01*
X186347978Y-105303294D01*
X186317200Y-105497617D01*
X185290030Y-105497617D01*
X185382577Y-105405070D01*
X185479122Y-105308524D01*
X185479121Y-105308523D01*
X185434559Y-105276147D01*
X185434550Y-105276141D01*
X185252231Y-105183244D01*
X185057617Y-105120009D01*
X184855517Y-105088000D01*
X184650883Y-105088000D01*
X184448782Y-105120009D01*
X184254168Y-105183244D01*
X184071844Y-105276143D01*
X184027277Y-105308523D01*
X184027277Y-105308524D01*
X184706754Y-105988000D01*
X184700539Y-105988000D01*
X184598806Y-106015259D01*
X184507594Y-106067920D01*
X184433120Y-106142394D01*
X184380459Y-106233606D01*
X184353200Y-106335339D01*
X184353200Y-106341553D01*
X183673724Y-105662077D01*
X183673723Y-105662077D01*
X183641343Y-105706644D01*
X183613965Y-105760378D01*
X183565990Y-105811174D01*
X183498169Y-105827969D01*
X183432034Y-105805431D01*
X183392995Y-105760378D01*
X183384504Y-105743713D01*
X183365487Y-105706390D01*
X183365485Y-105706387D01*
X183365484Y-105706385D01*
X183245171Y-105540786D01*
X183100413Y-105396028D01*
X182934813Y-105275715D01*
X182934812Y-105275714D01*
X182934810Y-105275713D01*
X182869520Y-105242446D01*
X182752423Y-105182781D01*
X182557734Y-105119522D01*
X182383195Y-105091878D01*
X182355552Y-105087500D01*
X182150848Y-105087500D01*
X182126529Y-105091351D01*
X181948665Y-105119522D01*
X181753976Y-105182781D01*
X181571586Y-105275715D01*
X181405986Y-105396028D01*
X181261228Y-105540786D01*
X181140915Y-105706386D01*
X181047981Y-105888776D01*
X180984722Y-106083465D01*
X180952700Y-106285648D01*
X177368900Y-106285648D01*
X177368900Y-105193443D01*
X177368901Y-105193422D01*
X177368901Y-105048689D01*
X177341858Y-104912743D01*
X177341856Y-104912735D01*
X177288812Y-104784676D01*
X177288811Y-104784673D01*
X177225878Y-104690486D01*
X177217498Y-104677944D01*
X177217496Y-104677942D01*
X177211800Y-104669417D01*
X177113783Y-104571400D01*
X177113779Y-104571397D01*
X177094702Y-104552320D01*
X186877072Y-104552320D01*
X187567200Y-105242446D01*
X187567201Y-105242446D01*
X188257325Y-104552320D01*
X188257325Y-104552319D01*
X188222345Y-104526905D01*
X188047035Y-104437581D01*
X187859905Y-104376778D01*
X187665582Y-104346000D01*
X187468818Y-104346000D01*
X187274494Y-104376778D01*
X187087361Y-104437582D01*
X186912063Y-104526899D01*
X186912059Y-104526902D01*
X186877073Y-104552320D01*
X186877072Y-104552320D01*
X177094702Y-104552320D01*
X175501288Y-102958906D01*
X175467803Y-102897583D01*
X175472787Y-102827891D01*
X175514659Y-102771958D01*
X175580123Y-102747541D01*
X175645266Y-102760742D01*
X175657972Y-102767216D01*
X175657975Y-102767217D01*
X175657981Y-102767220D01*
X175807500Y-102815801D01*
X175852665Y-102830477D01*
X175953757Y-102846488D01*
X176054848Y-102862500D01*
X176054849Y-102862500D01*
X176259551Y-102862500D01*
X176259552Y-102862500D01*
X176461734Y-102830477D01*
X176656419Y-102767220D01*
X176838810Y-102674287D01*
X176958062Y-102587646D01*
X177004413Y-102553971D01*
X177004415Y-102553968D01*
X177004419Y-102553966D01*
X177149166Y-102409219D01*
X177149168Y-102409215D01*
X177149171Y-102409213D01*
X177232876Y-102294001D01*
X177269487Y-102243610D01*
X177362420Y-102061219D01*
X177425677Y-101866534D01*
X177457700Y-101664352D01*
X177457700Y-101459648D01*
X177438292Y-101337115D01*
X177425677Y-101257465D01*
X177385718Y-101134485D01*
X177362420Y-101062781D01*
X177362418Y-101062778D01*
X177362418Y-101062776D01*
X177310951Y-100961768D01*
X177269487Y-100880390D01*
X177237292Y-100836077D01*
X177149171Y-100714786D01*
X177004413Y-100570028D01*
X176838813Y-100449715D01*
X176838812Y-100449714D01*
X176838810Y-100449713D01*
X176763815Y-100411501D01*
X176656423Y-100356781D01*
X176461734Y-100293522D01*
X176287195Y-100265878D01*
X176259552Y-100261500D01*
X176054848Y-100261500D01*
X176030529Y-100265351D01*
X175852665Y-100293522D01*
X175657976Y-100356781D01*
X175475586Y-100449715D01*
X175309986Y-100570028D01*
X175165228Y-100714786D01*
X175044915Y-100880386D01*
X174951981Y-101062776D01*
X174888722Y-101257465D01*
X174856700Y-101459648D01*
X174856700Y-101664351D01*
X174888722Y-101866534D01*
X174951981Y-102061223D01*
X174958459Y-102073935D01*
X174971355Y-102142604D01*
X174945079Y-102207345D01*
X174887972Y-102247602D01*
X174818167Y-102250594D01*
X174760293Y-102217911D01*
X173918623Y-101376241D01*
X173885138Y-101314918D01*
X173883831Y-101269167D01*
X173901700Y-101156352D01*
X173901700Y-100951648D01*
X173879661Y-100812499D01*
X173869677Y-100749465D01*
X173840327Y-100659137D01*
X173806420Y-100554781D01*
X173806418Y-100554778D01*
X173806418Y-100554776D01*
X173764691Y-100472884D01*
X173713487Y-100372390D01*
X173702483Y-100357244D01*
X173593171Y-100206786D01*
X173448413Y-100062028D01*
X173282813Y-99941715D01*
X173282812Y-99941714D01*
X173282810Y-99941713D01*
X173181736Y-99890213D01*
X173100423Y-99848781D01*
X172905734Y-99785522D01*
X172731195Y-99757878D01*
X172703552Y-99753500D01*
X172498848Y-99753500D01*
X172447480Y-99761636D01*
X172296664Y-99785523D01*
X172265267Y-99795724D01*
X172195425Y-99797718D01*
X172135593Y-99761636D01*
X172104767Y-99698934D01*
X172112733Y-99629520D01*
X172139268Y-99590113D01*
X172532959Y-99196421D01*
X172594280Y-99162938D01*
X172640031Y-99161631D01*
X172752848Y-99179500D01*
X172752850Y-99179500D01*
X172957551Y-99179500D01*
X172957552Y-99179500D01*
X173159734Y-99147477D01*
X173354419Y-99084220D01*
X173536810Y-98991287D01*
X173678123Y-98888618D01*
X173702413Y-98870971D01*
X173702415Y-98870968D01*
X173702419Y-98870966D01*
X173847166Y-98726219D01*
X173847168Y-98726215D01*
X173847171Y-98726213D01*
X173899932Y-98653590D01*
X173967487Y-98560610D01*
X174060420Y-98378219D01*
X174123677Y-98183534D01*
X174155700Y-97981352D01*
X174155700Y-97776648D01*
X174123677Y-97574466D01*
X174123675Y-97574462D01*
X174123675Y-97574457D01*
X174112745Y-97540817D01*
X174111941Y-97512698D01*
X174107938Y-97484853D01*
X174110957Y-97478241D01*
X174110750Y-97470976D01*
X174125276Y-97446887D01*
X174136963Y-97421297D01*
X174143078Y-97417366D01*
X174146831Y-97411144D01*
X174172073Y-97398733D01*
X174195741Y-97383523D01*
X174206013Y-97382046D01*
X174209532Y-97380316D01*
X174230676Y-97378500D01*
X174243449Y-97378500D01*
X174310488Y-97398185D01*
X174331130Y-97414819D01*
X178589604Y-101673294D01*
X178623089Y-101734617D01*
X178618106Y-101804306D01*
X178603108Y-101844517D01*
X178596701Y-101904116D01*
X178596700Y-101904135D01*
X178596700Y-103699870D01*
X178596701Y-103699876D01*
X178603108Y-103759483D01*
X178653402Y-103894328D01*
X178653406Y-103894335D01*
X178739652Y-104009544D01*
X178739655Y-104009547D01*
X178854864Y-104095793D01*
X178854871Y-104095797D01*
X178989717Y-104146091D01*
X178989716Y-104146091D01*
X178996644Y-104146835D01*
X179049327Y-104152500D01*
X180845072Y-104152499D01*
X180904683Y-104146091D01*
X181039531Y-104095796D01*
X181154746Y-104009546D01*
X181240996Y-103894331D01*
X181290010Y-103762916D01*
X181331881Y-103706984D01*
X181397345Y-103682566D01*
X181465618Y-103697417D01*
X181493873Y-103718569D01*
X181607413Y-103832109D01*
X181779379Y-103957048D01*
X181779381Y-103957049D01*
X181779384Y-103957051D01*
X181968788Y-104053557D01*
X182170957Y-104119246D01*
X182380913Y-104152500D01*
X182380914Y-104152500D01*
X182593486Y-104152500D01*
X182593487Y-104152500D01*
X182803443Y-104119246D01*
X183005612Y-104053557D01*
X183195016Y-103957051D01*
X183235815Y-103927409D01*
X183366986Y-103832109D01*
X183366988Y-103832106D01*
X183366992Y-103832104D01*
X183517304Y-103681792D01*
X183517306Y-103681788D01*
X183517309Y-103681786D01*
X183642248Y-103509820D01*
X183642247Y-103509820D01*
X183642251Y-103509816D01*
X183738757Y-103320412D01*
X183804446Y-103118243D01*
X183837700Y-102908287D01*
X183837700Y-102695713D01*
X183813533Y-102543131D01*
X183822487Y-102473841D01*
X183848322Y-102436058D01*
X184774363Y-101510019D01*
X184835686Y-101476534D01*
X184862044Y-101473700D01*
X189263584Y-101473700D01*
X189330623Y-101493385D01*
X189363900Y-101524812D01*
X189407372Y-101584646D01*
X189546554Y-101723828D01*
X189705795Y-101839524D01*
X189788655Y-101881743D01*
X189881170Y-101928882D01*
X189881172Y-101928882D01*
X189881175Y-101928884D01*
X189981517Y-101961487D01*
X190068373Y-101989709D01*
X190262778Y-102020500D01*
X190262783Y-102020500D01*
X190459622Y-102020500D01*
X190654026Y-101989709D01*
X190662385Y-101986993D01*
X190841225Y-101928884D01*
X191016605Y-101839524D01*
X191175846Y-101723828D01*
X191315028Y-101584646D01*
X191430724Y-101425405D01*
X191520084Y-101250025D01*
X191580909Y-101062826D01*
X191580917Y-101062776D01*
X191611700Y-100868422D01*
X191611700Y-100671577D01*
X191580909Y-100477173D01*
X191548559Y-100377611D01*
X191520084Y-100289975D01*
X191520082Y-100289972D01*
X191520082Y-100289970D01*
X191452307Y-100156954D01*
X191430724Y-100114595D01*
X191315028Y-99955354D01*
X191175846Y-99816172D01*
X191016605Y-99700476D01*
X190976703Y-99680145D01*
X190841229Y-99611117D01*
X190654026Y-99550290D01*
X190459622Y-99519500D01*
X190459617Y-99519500D01*
X190262783Y-99519500D01*
X190262778Y-99519500D01*
X190068373Y-99550290D01*
X189881170Y-99611117D01*
X189705794Y-99700476D01*
X189639809Y-99748418D01*
X189546554Y-99816172D01*
X189546552Y-99816174D01*
X189546551Y-99816174D01*
X189407374Y-99955351D01*
X189363902Y-100015186D01*
X189308572Y-100057851D01*
X189263584Y-100066300D01*
X184594643Y-100066300D01*
X184594623Y-100066299D01*
X184588509Y-100066299D01*
X184449892Y-100066299D01*
X184449890Y-100066299D01*
X184313943Y-100093341D01*
X184313935Y-100093343D01*
X184185876Y-100146386D01*
X184070614Y-100223401D01*
X184070613Y-100223402D01*
X184049381Y-100244635D01*
X183988058Y-100278120D01*
X183918366Y-100273136D01*
X183862433Y-100231264D01*
X183838016Y-100165800D01*
X183837700Y-100156954D01*
X183837700Y-100155713D01*
X183831410Y-100115998D01*
X183804446Y-99945757D01*
X183738757Y-99743588D01*
X183642251Y-99554184D01*
X183642249Y-99554181D01*
X183642248Y-99554179D01*
X183517309Y-99382213D01*
X183366986Y-99231890D01*
X183195020Y-99106951D01*
X183194315Y-99106591D01*
X183186254Y-99102485D01*
X183135459Y-99054512D01*
X183118663Y-98986692D01*
X183141199Y-98920556D01*
X183186254Y-98881515D01*
X183195016Y-98877051D01*
X183305031Y-98797121D01*
X183366986Y-98752109D01*
X183366988Y-98752106D01*
X183366992Y-98752104D01*
X183517304Y-98601792D01*
X183517306Y-98601788D01*
X183517309Y-98601786D01*
X183642248Y-98429820D01*
X183642247Y-98429820D01*
X183642251Y-98429816D01*
X183738757Y-98240412D01*
X183804446Y-98038243D01*
X183837700Y-97828287D01*
X183837700Y-97615713D01*
X183813533Y-97463131D01*
X183822487Y-97393841D01*
X183848322Y-97356058D01*
X187314363Y-93890019D01*
X187375686Y-93856534D01*
X187402044Y-93853700D01*
X188247584Y-93853700D01*
X188314623Y-93873385D01*
X188347900Y-93904812D01*
X188391372Y-93964646D01*
X188530554Y-94103828D01*
X188689795Y-94219524D01*
X188772655Y-94261743D01*
X188865170Y-94308882D01*
X188865172Y-94308882D01*
X188865175Y-94308884D01*
X188965517Y-94341487D01*
X189052373Y-94369709D01*
X189246778Y-94400500D01*
X189246783Y-94400500D01*
X189443622Y-94400500D01*
X189638026Y-94369709D01*
X189825225Y-94308884D01*
X190000605Y-94219524D01*
X190159846Y-94103828D01*
X190299028Y-93964646D01*
X190407384Y-93815506D01*
X190462713Y-93772843D01*
X190532327Y-93766864D01*
X190594121Y-93799470D01*
X190621079Y-93838179D01*
X191413710Y-95627825D01*
X192160261Y-97313430D01*
X192167184Y-97329060D01*
X192176279Y-97359877D01*
X192279289Y-98010257D01*
X192279838Y-98014114D01*
X192336027Y-98458895D01*
X192336690Y-98465607D01*
X192649746Y-102851172D01*
X192650061Y-102860001D01*
X192650061Y-103898633D01*
X192650000Y-103902528D01*
X192613020Y-105079245D01*
X192612836Y-105083136D01*
X192600479Y-105279533D01*
X192596000Y-105305646D01*
X188036635Y-121347978D01*
X188026021Y-121373816D01*
X187716252Y-121937286D01*
X187714322Y-121940670D01*
X187115032Y-122954014D01*
X187113006Y-122957319D01*
X187099635Y-122978390D01*
X187033558Y-123082508D01*
X187025427Y-123093853D01*
X181186708Y-130341920D01*
X181175027Y-130354523D01*
X180361562Y-131118417D01*
X180358681Y-131121039D01*
X179672011Y-131726419D01*
X179654668Y-131739212D01*
X171325704Y-136829136D01*
X171294847Y-136842633D01*
X157176108Y-140842942D01*
X157150091Y-140847393D01*
X156828339Y-140867636D01*
X156824448Y-140867820D01*
X155647728Y-140904800D01*
X155643833Y-140904861D01*
X154715182Y-140904861D01*
X154692781Y-140902821D01*
X143650325Y-138874614D01*
X143603943Y-138855828D01*
X133014028Y-131795885D01*
X132866566Y-131697577D01*
X136950700Y-131697577D01*
X136950700Y-131894422D01*
X136981490Y-132088826D01*
X137042317Y-132276029D01*
X137131676Y-132451405D01*
X137247372Y-132610646D01*
X137386554Y-132749828D01*
X137545795Y-132865524D01*
X137628655Y-132907743D01*
X137721170Y-132954882D01*
X137721172Y-132954882D01*
X137721175Y-132954884D01*
X137821517Y-132987487D01*
X137908373Y-133015709D01*
X138102778Y-133046500D01*
X138102783Y-133046500D01*
X138299622Y-133046500D01*
X138494026Y-133015709D01*
X138681225Y-132954884D01*
X138856605Y-132865524D01*
X139015846Y-132749828D01*
X139155028Y-132610646D01*
X139270724Y-132451405D01*
X139360084Y-132276025D01*
X139420909Y-132088826D01*
X139451700Y-131894422D01*
X139451700Y-131697577D01*
X157450700Y-131697577D01*
X157450700Y-131894422D01*
X157481490Y-132088826D01*
X157542317Y-132276029D01*
X157631676Y-132451405D01*
X157747372Y-132610646D01*
X157886554Y-132749828D01*
X158045795Y-132865524D01*
X158128655Y-132907743D01*
X158221170Y-132954882D01*
X158221172Y-132954882D01*
X158221175Y-132954884D01*
X158321517Y-132987487D01*
X158408373Y-133015709D01*
X158602778Y-133046500D01*
X158602783Y-133046500D01*
X158799622Y-133046500D01*
X158994026Y-133015709D01*
X159181225Y-132954884D01*
X159356605Y-132865524D01*
X159515846Y-132749828D01*
X159655028Y-132610646D01*
X159770724Y-132451405D01*
X159860084Y-132276025D01*
X159920909Y-132088826D01*
X159951700Y-131894422D01*
X159951700Y-131697577D01*
X159920909Y-131503173D01*
X159860082Y-131315970D01*
X159770723Y-131140594D01*
X159655028Y-130981354D01*
X159515846Y-130842172D01*
X159356605Y-130726476D01*
X159181229Y-130637117D01*
X158994026Y-130576290D01*
X158799622Y-130545500D01*
X158799617Y-130545500D01*
X158602783Y-130545500D01*
X158602778Y-130545500D01*
X158408373Y-130576290D01*
X158221170Y-130637117D01*
X158045794Y-130726476D01*
X157954941Y-130792485D01*
X157886554Y-130842172D01*
X157886552Y-130842174D01*
X157886551Y-130842174D01*
X157747374Y-130981351D01*
X157747374Y-130981352D01*
X157747372Y-130981354D01*
X157709518Y-131033455D01*
X157631676Y-131140594D01*
X157542317Y-131315970D01*
X157481490Y-131503173D01*
X157450700Y-131697577D01*
X139451700Y-131697577D01*
X139420909Y-131503173D01*
X139360082Y-131315970D01*
X139270723Y-131140594D01*
X139155028Y-130981354D01*
X139015846Y-130842172D01*
X138856605Y-130726476D01*
X138681229Y-130637117D01*
X138494026Y-130576290D01*
X138299622Y-130545500D01*
X138299617Y-130545500D01*
X138102783Y-130545500D01*
X138102778Y-130545500D01*
X137908373Y-130576290D01*
X137721170Y-130637117D01*
X137545794Y-130726476D01*
X137454941Y-130792485D01*
X137386554Y-130842172D01*
X137386552Y-130842174D01*
X137386551Y-130842174D01*
X137247374Y-130981351D01*
X137247374Y-130981352D01*
X137247372Y-130981354D01*
X137209518Y-131033455D01*
X137131676Y-131140594D01*
X137042317Y-131315970D01*
X136981490Y-131503173D01*
X136950700Y-131697577D01*
X132866566Y-131697577D01*
X130256941Y-129957827D01*
X130108267Y-129858711D01*
X170222700Y-129858711D01*
X170222700Y-130101288D01*
X170254361Y-130341785D01*
X170317147Y-130576104D01*
X170409973Y-130800205D01*
X170409976Y-130800212D01*
X170531264Y-131010289D01*
X170531266Y-131010292D01*
X170531267Y-131010293D01*
X170678933Y-131202736D01*
X170678939Y-131202743D01*
X170850456Y-131374260D01*
X170850462Y-131374265D01*
X171042911Y-131521936D01*
X171252988Y-131643224D01*
X171477100Y-131736054D01*
X171711411Y-131798838D01*
X171891786Y-131822584D01*
X171951911Y-131830500D01*
X171951912Y-131830500D01*
X172194489Y-131830500D01*
X172242588Y-131824167D01*
X172434989Y-131798838D01*
X172669300Y-131736054D01*
X172893412Y-131643224D01*
X173103489Y-131521936D01*
X173295938Y-131374265D01*
X173467465Y-131202738D01*
X173615136Y-131010289D01*
X173736424Y-130800212D01*
X173829254Y-130576100D01*
X173892038Y-130341789D01*
X173923700Y-130101288D01*
X173923700Y-129858712D01*
X173892038Y-129618211D01*
X173829254Y-129383900D01*
X173736424Y-129159788D01*
X173615136Y-128949711D01*
X173467465Y-128757262D01*
X173467460Y-128757256D01*
X173295943Y-128585739D01*
X173295936Y-128585733D01*
X173103493Y-128438067D01*
X173103492Y-128438066D01*
X173103489Y-128438064D01*
X172893412Y-128316776D01*
X172893405Y-128316773D01*
X172669304Y-128223947D01*
X172434985Y-128161161D01*
X172194489Y-128129500D01*
X172194488Y-128129500D01*
X171951912Y-128129500D01*
X171951911Y-128129500D01*
X171711414Y-128161161D01*
X171477095Y-128223947D01*
X171252994Y-128316773D01*
X171252985Y-128316777D01*
X171042906Y-128438067D01*
X170850463Y-128585733D01*
X170850456Y-128585739D01*
X170678939Y-128757256D01*
X170678933Y-128757263D01*
X170531267Y-128949706D01*
X170409977Y-129159785D01*
X170409973Y-129159794D01*
X170317147Y-129383895D01*
X170254361Y-129618214D01*
X170222700Y-129858711D01*
X130108267Y-129858711D01*
X128412599Y-128728266D01*
X128370473Y-128680546D01*
X128355642Y-128650884D01*
X125149555Y-122238711D01*
X127804700Y-122238711D01*
X127804700Y-122481288D01*
X127836361Y-122721785D01*
X127899147Y-122956104D01*
X127955216Y-123091465D01*
X127991976Y-123180212D01*
X128113264Y-123390289D01*
X128113266Y-123390292D01*
X128113267Y-123390293D01*
X128260933Y-123582736D01*
X128260939Y-123582743D01*
X128432456Y-123754260D01*
X128432463Y-123754266D01*
X128520737Y-123822001D01*
X128624911Y-123901936D01*
X128834988Y-124023224D01*
X129059100Y-124116054D01*
X129293411Y-124178838D01*
X129432287Y-124197121D01*
X129533911Y-124210500D01*
X129533912Y-124210500D01*
X129776489Y-124210500D01*
X129824588Y-124204167D01*
X130016989Y-124178838D01*
X130251300Y-124116054D01*
X130475412Y-124023224D01*
X130685489Y-123901936D01*
X130877938Y-123754265D01*
X131049465Y-123582738D01*
X131197136Y-123390289D01*
X131318424Y-123180212D01*
X131411254Y-122956100D01*
X131474038Y-122721789D01*
X131505700Y-122481288D01*
X131505700Y-122238712D01*
X131474038Y-121998211D01*
X131411254Y-121763900D01*
X131318424Y-121539788D01*
X131197136Y-121329711D01*
X131056892Y-121146941D01*
X131049466Y-121137263D01*
X131049460Y-121137256D01*
X130877943Y-120965739D01*
X130877936Y-120965733D01*
X130685493Y-120818067D01*
X130685492Y-120818066D01*
X130685489Y-120818064D01*
X130475412Y-120696776D01*
X130430276Y-120678080D01*
X130251304Y-120603947D01*
X130016985Y-120541161D01*
X129776489Y-120509500D01*
X129776488Y-120509500D01*
X129533912Y-120509500D01*
X129533911Y-120509500D01*
X129293414Y-120541161D01*
X129059095Y-120603947D01*
X128834994Y-120696773D01*
X128834985Y-120696777D01*
X128624906Y-120818067D01*
X128432463Y-120965733D01*
X128432456Y-120965739D01*
X128260939Y-121137256D01*
X128260933Y-121137263D01*
X128113267Y-121329706D01*
X127991977Y-121539785D01*
X127991973Y-121539794D01*
X127899147Y-121763895D01*
X127836361Y-121998214D01*
X127804700Y-122238711D01*
X125149555Y-122238711D01*
X120776063Y-113491726D01*
X120763337Y-113445782D01*
X120741612Y-113163352D01*
X119584716Y-98123713D01*
X121954700Y-98123713D01*
X121954700Y-98336287D01*
X121960081Y-98370259D01*
X121980550Y-98499500D01*
X121987954Y-98546243D01*
X122031758Y-98681058D01*
X122053644Y-98748414D01*
X122150151Y-98937820D01*
X122275090Y-99109786D01*
X122425413Y-99260109D01*
X122597382Y-99385050D01*
X122606146Y-99389516D01*
X122656942Y-99437491D01*
X122673736Y-99505312D01*
X122651198Y-99571447D01*
X122606146Y-99610484D01*
X122597382Y-99614949D01*
X122425413Y-99739890D01*
X122275090Y-99890213D01*
X122150151Y-100062179D01*
X122053644Y-100251585D01*
X121987953Y-100453760D01*
X121954700Y-100663713D01*
X121954700Y-100876286D01*
X121984267Y-101062968D01*
X121987954Y-101086243D01*
X122041170Y-101250025D01*
X122053644Y-101288414D01*
X122150151Y-101477820D01*
X122275090Y-101649786D01*
X122425413Y-101800109D01*
X122597382Y-101925050D01*
X122606146Y-101929516D01*
X122656942Y-101977491D01*
X122673736Y-102045312D01*
X122651198Y-102111447D01*
X122606146Y-102150484D01*
X122597382Y-102154949D01*
X122425413Y-102279890D01*
X122275090Y-102430213D01*
X122150151Y-102602179D01*
X122053644Y-102791585D01*
X121987953Y-102993760D01*
X121954700Y-103203713D01*
X121954700Y-103416286D01*
X121980550Y-103579500D01*
X121987954Y-103626243D01*
X122032362Y-103762917D01*
X122053644Y-103828414D01*
X122150151Y-104017820D01*
X122275090Y-104189786D01*
X122425413Y-104340109D01*
X122597382Y-104465050D01*
X122606146Y-104469516D01*
X122656942Y-104517491D01*
X122673736Y-104585312D01*
X122651198Y-104651447D01*
X122606146Y-104690484D01*
X122597382Y-104694949D01*
X122425413Y-104819890D01*
X122275090Y-104970213D01*
X122150151Y-105142179D01*
X122053644Y-105331585D01*
X121987953Y-105533760D01*
X121954700Y-105743713D01*
X121954700Y-105956286D01*
X121984176Y-106142394D01*
X121987954Y-106166243D01*
X122031758Y-106301058D01*
X122053644Y-106368414D01*
X122150151Y-106557820D01*
X122275090Y-106729786D01*
X122425413Y-106880109D01*
X122597379Y-107005048D01*
X122597381Y-107005049D01*
X122597384Y-107005051D01*
X122606693Y-107009794D01*
X122657490Y-107057766D01*
X122674287Y-107125587D01*
X122651752Y-107191722D01*
X122606705Y-107230760D01*
X122597646Y-107235376D01*
X122597640Y-107235380D01*
X122543482Y-107274727D01*
X122543482Y-107274728D01*
X123175791Y-107907037D01*
X123112207Y-107924075D01*
X122998193Y-107989901D01*
X122905101Y-108082993D01*
X122839275Y-108197007D01*
X122822237Y-108260591D01*
X122189928Y-107628282D01*
X122189927Y-107628282D01*
X122150580Y-107682439D01*
X122054104Y-107871782D01*
X121988442Y-108073869D01*
X121988442Y-108073872D01*
X121955200Y-108283753D01*
X121955200Y-108496246D01*
X121988442Y-108706127D01*
X121988442Y-108706130D01*
X122054104Y-108908217D01*
X122150575Y-109097550D01*
X122189928Y-109151716D01*
X122822237Y-108519408D01*
X122839275Y-108582993D01*
X122905101Y-108697007D01*
X122998193Y-108790099D01*
X123112207Y-108855925D01*
X123175790Y-108872962D01*
X122543482Y-109505269D01*
X122543482Y-109505270D01*
X122597649Y-109544624D01*
X122786982Y-109641095D01*
X122989070Y-109706757D01*
X123198954Y-109740000D01*
X123411446Y-109740000D01*
X123621327Y-109706757D01*
X123621330Y-109706757D01*
X123823417Y-109641095D01*
X124012754Y-109544622D01*
X124066916Y-109505270D01*
X124066917Y-109505270D01*
X123434608Y-108872962D01*
X123498193Y-108855925D01*
X123612207Y-108790099D01*
X123705299Y-108697007D01*
X123771125Y-108582993D01*
X123788162Y-108519408D01*
X124420470Y-109151717D01*
X124420470Y-109151716D01*
X124459822Y-109097555D01*
X124464432Y-109088507D01*
X124512405Y-109037709D01*
X124580225Y-109020912D01*
X124646361Y-109043447D01*
X124685404Y-109088504D01*
X124690149Y-109097817D01*
X124815090Y-109269786D01*
X124965413Y-109420109D01*
X125137379Y-109545048D01*
X125137381Y-109545049D01*
X125137384Y-109545051D01*
X125326788Y-109641557D01*
X125528957Y-109707246D01*
X125738913Y-109740500D01*
X125738914Y-109740500D01*
X125951486Y-109740500D01*
X125951487Y-109740500D01*
X126161443Y-109707246D01*
X126363612Y-109641557D01*
X126553016Y-109545051D01*
X126607772Y-109505269D01*
X126724986Y-109420109D01*
X126724988Y-109420106D01*
X126724992Y-109420104D01*
X126875304Y-109269792D01*
X126875306Y-109269788D01*
X126875309Y-109269786D01*
X127000248Y-109097820D01*
X127000250Y-109097817D01*
X127000251Y-109097816D01*
X127096757Y-108908412D01*
X127162446Y-108706243D01*
X127195700Y-108496287D01*
X127195700Y-108283713D01*
X127162446Y-108073757D01*
X127096757Y-107871588D01*
X127000251Y-107682184D01*
X127000249Y-107682181D01*
X127000248Y-107682179D01*
X126875309Y-107510213D01*
X126724986Y-107359890D01*
X126553020Y-107234951D01*
X126544800Y-107230763D01*
X126544254Y-107230485D01*
X126493459Y-107182512D01*
X126476663Y-107114692D01*
X126499199Y-107048556D01*
X126544254Y-107009515D01*
X126553016Y-107005051D01*
X126597690Y-106972594D01*
X126724986Y-106880109D01*
X126724988Y-106880106D01*
X126724992Y-106880104D01*
X126875304Y-106729792D01*
X126875306Y-106729788D01*
X126875309Y-106729786D01*
X127000248Y-106557820D01*
X127000247Y-106557820D01*
X127000251Y-106557816D01*
X127096757Y-106368412D01*
X127162446Y-106166243D01*
X127195700Y-105956287D01*
X127195700Y-105743713D01*
X127162446Y-105533757D01*
X127096757Y-105331588D01*
X127000251Y-105142184D01*
X127000249Y-105142181D01*
X127000248Y-105142179D01*
X126875309Y-104970213D01*
X126724986Y-104819890D01*
X126553020Y-104694951D01*
X126552315Y-104694591D01*
X126544254Y-104690485D01*
X126493459Y-104642512D01*
X126476663Y-104574692D01*
X126499199Y-104508556D01*
X126544254Y-104469515D01*
X126553016Y-104465051D01*
X126590824Y-104437582D01*
X126724986Y-104340109D01*
X126724988Y-104340106D01*
X126724992Y-104340104D01*
X126875304Y-104189792D01*
X126875306Y-104189788D01*
X126875309Y-104189786D01*
X126943598Y-104095793D01*
X127000251Y-104017816D01*
X127004466Y-104009544D01*
X127020435Y-103978205D01*
X127068409Y-103927409D01*
X127130919Y-103910500D01*
X128085103Y-103910500D01*
X128152142Y-103930185D01*
X128172784Y-103946819D01*
X131449431Y-107223466D01*
X131482916Y-107284789D01*
X131484223Y-107330544D01*
X131452700Y-107529576D01*
X131452700Y-107726422D01*
X131483490Y-107920826D01*
X131544317Y-108108029D01*
X131612882Y-108242594D01*
X131633676Y-108283405D01*
X131749372Y-108442646D01*
X131888554Y-108581828D01*
X132047795Y-108697524D01*
X132123272Y-108735981D01*
X132223170Y-108786882D01*
X132223172Y-108786882D01*
X132223175Y-108786884D01*
X132316936Y-108817349D01*
X132410373Y-108847709D01*
X132604778Y-108878500D01*
X132604783Y-108878500D01*
X132801622Y-108878500D01*
X132996026Y-108847709D01*
X133183225Y-108786884D01*
X133358605Y-108697524D01*
X133517846Y-108581828D01*
X133657028Y-108442646D01*
X133772724Y-108283405D01*
X133862084Y-108108025D01*
X133922909Y-107920826D01*
X133930677Y-107871782D01*
X133953700Y-107726422D01*
X133953700Y-107529577D01*
X133922909Y-107335173D01*
X133890431Y-107235217D01*
X133862084Y-107147975D01*
X133862082Y-107147972D01*
X133862082Y-107147970D01*
X133794647Y-107015622D01*
X133772724Y-106972595D01*
X133657028Y-106813354D01*
X133517846Y-106674172D01*
X133358605Y-106558476D01*
X133327042Y-106542394D01*
X133183229Y-106469117D01*
X132996026Y-106408290D01*
X132801622Y-106377500D01*
X132801617Y-106377500D01*
X132604783Y-106377500D01*
X132604777Y-106377500D01*
X132405744Y-106409023D01*
X132336451Y-106400068D01*
X132298666Y-106374231D01*
X128872790Y-102948355D01*
X128872788Y-102948352D01*
X128753917Y-102829481D01*
X128753912Y-102829477D01*
X128646078Y-102767220D01*
X128646076Y-102767219D01*
X128646074Y-102767218D01*
X128616985Y-102750423D01*
X128464257Y-102709499D01*
X128306143Y-102709499D01*
X128298547Y-102709499D01*
X128298531Y-102709500D01*
X127130919Y-102709500D01*
X127063880Y-102689815D01*
X127020435Y-102641795D01*
X127000252Y-102602185D01*
X127000251Y-102602184D01*
X126875309Y-102430213D01*
X126724986Y-102279890D01*
X126553020Y-102154951D01*
X126552315Y-102154591D01*
X126544254Y-102150485D01*
X126493459Y-102102512D01*
X126476663Y-102034692D01*
X126499199Y-101968556D01*
X126544254Y-101929515D01*
X126553016Y-101925051D01*
X126612161Y-101882080D01*
X126724986Y-101800109D01*
X126724988Y-101800106D01*
X126724992Y-101800104D01*
X126875304Y-101649792D01*
X126875306Y-101649788D01*
X126875309Y-101649786D01*
X126999843Y-101478378D01*
X127000251Y-101477816D01*
X127096757Y-101288412D01*
X127162446Y-101086243D01*
X127195700Y-100876287D01*
X127195700Y-100663713D01*
X127171533Y-100511131D01*
X127180487Y-100441841D01*
X127206322Y-100404058D01*
X127547979Y-100062402D01*
X127547983Y-100062400D01*
X127646000Y-99964383D01*
X127723011Y-99849127D01*
X127749357Y-99785523D01*
X127776058Y-99721062D01*
X127803101Y-99585108D01*
X127803101Y-99446491D01*
X127803101Y-99441381D01*
X127803100Y-99441355D01*
X127803100Y-94080890D01*
X127793114Y-94030692D01*
X127793114Y-94030690D01*
X127781883Y-93974230D01*
X127776057Y-93944938D01*
X127723011Y-93816873D01*
X127709766Y-93797051D01*
X127709479Y-93796622D01*
X127645998Y-93701614D01*
X127544887Y-93600503D01*
X127544856Y-93600474D01*
X126356922Y-92412540D01*
X126323437Y-92351217D01*
X126322130Y-92305465D01*
X126333700Y-92232417D01*
X126333700Y-92035583D01*
X126333700Y-92035577D01*
X126302909Y-91841173D01*
X126286637Y-91791095D01*
X126284465Y-91784409D01*
X126275770Y-91757648D01*
X130386700Y-91757648D01*
X130386700Y-91962351D01*
X130418722Y-92164534D01*
X130481981Y-92359223D01*
X130537064Y-92467327D01*
X130571908Y-92535713D01*
X130574915Y-92541613D01*
X130695228Y-92707213D01*
X130839986Y-92851971D01*
X130974258Y-92949523D01*
X131005590Y-92972287D01*
X131119215Y-93030182D01*
X131187976Y-93065218D01*
X131187978Y-93065218D01*
X131187981Y-93065220D01*
X131269038Y-93091557D01*
X131382665Y-93128477D01*
X131468045Y-93142000D01*
X131584848Y-93160500D01*
X131584849Y-93160500D01*
X131789551Y-93160500D01*
X131789552Y-93160500D01*
X131991734Y-93128477D01*
X132186419Y-93065220D01*
X132368810Y-92972287D01*
X132509541Y-92870041D01*
X132534413Y-92851971D01*
X132534415Y-92851968D01*
X132534419Y-92851966D01*
X132679166Y-92707219D01*
X132679168Y-92707215D01*
X132679171Y-92707213D01*
X132754594Y-92603400D01*
X132799487Y-92541610D01*
X132892420Y-92359219D01*
X132955677Y-92164534D01*
X132987700Y-91962352D01*
X132987700Y-91757648D01*
X132955677Y-91555466D01*
X132953948Y-91550146D01*
X132905153Y-91399970D01*
X132892420Y-91360781D01*
X132892418Y-91360778D01*
X132892418Y-91360776D01*
X132857374Y-91292000D01*
X132799487Y-91178390D01*
X132763318Y-91128607D01*
X132679171Y-91012786D01*
X132534413Y-90868028D01*
X132392668Y-90765046D01*
X132392663Y-90765043D01*
X132368810Y-90747713D01*
X132312085Y-90718810D01*
X132309406Y-90717273D01*
X132287270Y-90694182D01*
X132264025Y-90672228D01*
X132263259Y-90669135D01*
X132261055Y-90666836D01*
X132254918Y-90635451D01*
X132247231Y-90604407D01*
X132248258Y-90601391D01*
X132247647Y-90598264D01*
X132259454Y-90568538D01*
X132269769Y-90538272D01*
X132272373Y-90536015D01*
X132273440Y-90533330D01*
X132285155Y-90524939D01*
X132314824Y-90499233D01*
X132368549Y-90471859D01*
X132413121Y-90439474D01*
X131733647Y-89760000D01*
X131739861Y-89760000D01*
X131841594Y-89732741D01*
X131932806Y-89680080D01*
X132007280Y-89605606D01*
X132059941Y-89514394D01*
X132087200Y-89412661D01*
X132087200Y-89406447D01*
X132766674Y-90085921D01*
X132799059Y-90041349D01*
X132891955Y-89859031D01*
X132955190Y-89664417D01*
X132987200Y-89462317D01*
X132987200Y-89257682D01*
X132955190Y-89055582D01*
X132891955Y-88860968D01*
X132799059Y-88678650D01*
X132766674Y-88634077D01*
X132766674Y-88634076D01*
X132087200Y-89313551D01*
X132087200Y-89307339D01*
X132059941Y-89205606D01*
X132007280Y-89114394D01*
X131932806Y-89039920D01*
X131841594Y-88987259D01*
X131739861Y-88960000D01*
X131733646Y-88960000D01*
X132413122Y-88280524D01*
X132413121Y-88280523D01*
X132368559Y-88248147D01*
X132368550Y-88248141D01*
X132186231Y-88155244D01*
X131991617Y-88092009D01*
X131789517Y-88060000D01*
X131584883Y-88060000D01*
X131382782Y-88092009D01*
X131188168Y-88155244D01*
X131005844Y-88248143D01*
X130961277Y-88280523D01*
X130961277Y-88280524D01*
X131640754Y-88960000D01*
X131634539Y-88960000D01*
X131532806Y-88987259D01*
X131441594Y-89039920D01*
X131367120Y-89114394D01*
X131314459Y-89205606D01*
X131287200Y-89307339D01*
X131287200Y-89313553D01*
X130607724Y-88634077D01*
X130607723Y-88634077D01*
X130575343Y-88678644D01*
X130482444Y-88860968D01*
X130419209Y-89055582D01*
X130387200Y-89257682D01*
X130387200Y-89462317D01*
X130419209Y-89664417D01*
X130482444Y-89859031D01*
X130575341Y-90041350D01*
X130575347Y-90041359D01*
X130607723Y-90085921D01*
X130607724Y-90085922D01*
X131287200Y-89406446D01*
X131287200Y-89412661D01*
X131314459Y-89514394D01*
X131367120Y-89605606D01*
X131441594Y-89680080D01*
X131532806Y-89732741D01*
X131634539Y-89760000D01*
X131640753Y-89760000D01*
X130961276Y-90439474D01*
X131005852Y-90471861D01*
X131059576Y-90499234D01*
X131110372Y-90547208D01*
X131127168Y-90615028D01*
X131104631Y-90681164D01*
X131059579Y-90720203D01*
X131005586Y-90747714D01*
X130839986Y-90868028D01*
X130695228Y-91012786D01*
X130574915Y-91178386D01*
X130481981Y-91360776D01*
X130418722Y-91555465D01*
X130386700Y-91757648D01*
X126275770Y-91757648D01*
X126242084Y-91653975D01*
X126152724Y-91478595D01*
X126037028Y-91319354D01*
X125897846Y-91180172D01*
X125738605Y-91064476D01*
X125563229Y-90975117D01*
X125376026Y-90914290D01*
X125181622Y-90883500D01*
X125181617Y-90883500D01*
X124984783Y-90883500D01*
X124984778Y-90883500D01*
X124790373Y-90914290D01*
X124603170Y-90975117D01*
X124427794Y-91064476D01*
X124384435Y-91095979D01*
X124268554Y-91180172D01*
X124268552Y-91180174D01*
X124268551Y-91180174D01*
X124129374Y-91319351D01*
X124129374Y-91319352D01*
X124129372Y-91319354D01*
X124089457Y-91374292D01*
X124013676Y-91478594D01*
X123924317Y-91653970D01*
X123863490Y-91841173D01*
X123832700Y-92035577D01*
X123832700Y-92232422D01*
X123863490Y-92426826D01*
X123924317Y-92614029D01*
X123992725Y-92748286D01*
X124013676Y-92789405D01*
X124129372Y-92948646D01*
X124268554Y-93087828D01*
X124427795Y-93203524D01*
X124510655Y-93245743D01*
X124603170Y-93292882D01*
X124603172Y-93292882D01*
X124603175Y-93292884D01*
X124703517Y-93325487D01*
X124790373Y-93353709D01*
X124984778Y-93384500D01*
X124984783Y-93384500D01*
X125181615Y-93384500D01*
X125181617Y-93384500D01*
X125254663Y-93372930D01*
X125323953Y-93381884D01*
X125361740Y-93407722D01*
X126359381Y-94405363D01*
X126392866Y-94466686D01*
X126395700Y-94493044D01*
X126395700Y-96755500D01*
X126376015Y-96822539D01*
X126323211Y-96868294D01*
X126271700Y-96879500D01*
X124947329Y-96879500D01*
X124947323Y-96879501D01*
X124887716Y-96885908D01*
X124752871Y-96936202D01*
X124752864Y-96936206D01*
X124637655Y-97022452D01*
X124637652Y-97022455D01*
X124551406Y-97137664D01*
X124551403Y-97137669D01*
X124502389Y-97269083D01*
X124460517Y-97325016D01*
X124395053Y-97349433D01*
X124326780Y-97334581D01*
X124298526Y-97313430D01*
X124184986Y-97199890D01*
X124013020Y-97074951D01*
X123823614Y-96978444D01*
X123823613Y-96978443D01*
X123823612Y-96978443D01*
X123621443Y-96912754D01*
X123621441Y-96912753D01*
X123621440Y-96912753D01*
X123460157Y-96887208D01*
X123411487Y-96879500D01*
X123198913Y-96879500D01*
X123150242Y-96887208D01*
X122988960Y-96912753D01*
X122786785Y-96978444D01*
X122597379Y-97074951D01*
X122425413Y-97199890D01*
X122275090Y-97350213D01*
X122150151Y-97522179D01*
X122053644Y-97711585D01*
X121987953Y-97913760D01*
X121972059Y-98014114D01*
X121954700Y-98123713D01*
X119584716Y-98123713D01*
X119496970Y-96983016D01*
X119501834Y-96937885D01*
X123296789Y-84288035D01*
X123325259Y-84238687D01*
X124614648Y-82868711D01*
X127804700Y-82868711D01*
X127804700Y-83111288D01*
X127836361Y-83351785D01*
X127899147Y-83586104D01*
X127973784Y-83766293D01*
X127991976Y-83810212D01*
X128113264Y-84020289D01*
X128113266Y-84020292D01*
X128113267Y-84020293D01*
X128260933Y-84212736D01*
X128260939Y-84212743D01*
X128432456Y-84384260D01*
X128432463Y-84384266D01*
X128545521Y-84471018D01*
X128624911Y-84531936D01*
X128834988Y-84653224D01*
X129059100Y-84746054D01*
X129293411Y-84808838D01*
X129473786Y-84832584D01*
X129533911Y-84840500D01*
X129533912Y-84840500D01*
X129776489Y-84840500D01*
X129824588Y-84834167D01*
X130016989Y-84808838D01*
X130251300Y-84746054D01*
X130475412Y-84653224D01*
X130685489Y-84531936D01*
X130877938Y-84384265D01*
X131049465Y-84212738D01*
X131197136Y-84020289D01*
X131318424Y-83810212D01*
X131411254Y-83586100D01*
X131474038Y-83351789D01*
X131505700Y-83111288D01*
X131505700Y-82868712D01*
X131474038Y-82628211D01*
X131470421Y-82614711D01*
X178604700Y-82614711D01*
X178604700Y-82857288D01*
X178636361Y-83097785D01*
X178699147Y-83332104D01*
X178707301Y-83351789D01*
X178791976Y-83556212D01*
X178913264Y-83766289D01*
X178913266Y-83766292D01*
X178913267Y-83766293D01*
X179060933Y-83958736D01*
X179060939Y-83958743D01*
X179232456Y-84130260D01*
X179232462Y-84130265D01*
X179424911Y-84277936D01*
X179634988Y-84399224D01*
X179859100Y-84492054D01*
X180093411Y-84554838D01*
X180273786Y-84578584D01*
X180333911Y-84586500D01*
X180333912Y-84586500D01*
X180576489Y-84586500D01*
X180624588Y-84580167D01*
X180816989Y-84554838D01*
X181051300Y-84492054D01*
X181275412Y-84399224D01*
X181485489Y-84277936D01*
X181677938Y-84130265D01*
X181849465Y-83958738D01*
X181997136Y-83766289D01*
X182118424Y-83556212D01*
X182211254Y-83332100D01*
X182274038Y-83097789D01*
X182305700Y-82857288D01*
X182305700Y-82614712D01*
X182274038Y-82374211D01*
X182211254Y-82139900D01*
X182118424Y-81915788D01*
X181997136Y-81705711D01*
X181849465Y-81513262D01*
X181849460Y-81513256D01*
X181677943Y-81341739D01*
X181677936Y-81341733D01*
X181485493Y-81194067D01*
X181485492Y-81194066D01*
X181485489Y-81194064D01*
X181275412Y-81072776D01*
X181275405Y-81072773D01*
X181051304Y-80979947D01*
X180816985Y-80917161D01*
X180576489Y-80885500D01*
X180576488Y-80885500D01*
X180333912Y-80885500D01*
X180333911Y-80885500D01*
X180093414Y-80917161D01*
X179859095Y-80979947D01*
X179634994Y-81072773D01*
X179634985Y-81072777D01*
X179424906Y-81194067D01*
X179232463Y-81341733D01*
X179232456Y-81341739D01*
X179060939Y-81513256D01*
X179060933Y-81513263D01*
X178913267Y-81705706D01*
X178791977Y-81915785D01*
X178791973Y-81915794D01*
X178699147Y-82139895D01*
X178636361Y-82374214D01*
X178604700Y-82614711D01*
X131470421Y-82614711D01*
X131411254Y-82393900D01*
X131318424Y-82169788D01*
X131197136Y-81959711D01*
X131049465Y-81767262D01*
X131049460Y-81767256D01*
X130877943Y-81595739D01*
X130877936Y-81595733D01*
X130685493Y-81448067D01*
X130685492Y-81448066D01*
X130685489Y-81448064D01*
X130475412Y-81326776D01*
X130475405Y-81326773D01*
X130251304Y-81233947D01*
X130016985Y-81171161D01*
X129776489Y-81139500D01*
X129776488Y-81139500D01*
X129533912Y-81139500D01*
X129533911Y-81139500D01*
X129293414Y-81171161D01*
X129059095Y-81233947D01*
X128834994Y-81326773D01*
X128834985Y-81326777D01*
X128624906Y-81448067D01*
X128432463Y-81595733D01*
X128432456Y-81595739D01*
X128260939Y-81767256D01*
X128260933Y-81767263D01*
X128113267Y-81959706D01*
X127991977Y-82169785D01*
X127991973Y-82169794D01*
X127899147Y-82393895D01*
X127836361Y-82628214D01*
X127804700Y-82868711D01*
X124614648Y-82868711D01*
X132305127Y-74697577D01*
X136950700Y-74697577D01*
X136950700Y-74894422D01*
X136981490Y-75088826D01*
X137042317Y-75276029D01*
X137127452Y-75443114D01*
X137131676Y-75451405D01*
X137247372Y-75610646D01*
X137386554Y-75749828D01*
X137545795Y-75865524D01*
X137628655Y-75907743D01*
X137721170Y-75954882D01*
X137721172Y-75954882D01*
X137721175Y-75954884D01*
X137821517Y-75987487D01*
X137908373Y-76015709D01*
X138102778Y-76046500D01*
X138102783Y-76046500D01*
X138299622Y-76046500D01*
X138494026Y-76015709D01*
X138681225Y-75954884D01*
X138856605Y-75865524D01*
X139015846Y-75749828D01*
X139155028Y-75610646D01*
X139270724Y-75451405D01*
X139360084Y-75276025D01*
X139420909Y-75088826D01*
X139447509Y-74920880D01*
X139451700Y-74894422D01*
X139451700Y-74697577D01*
X157450700Y-74697577D01*
X157450700Y-74894422D01*
X157481490Y-75088826D01*
X157542317Y-75276029D01*
X157627452Y-75443114D01*
X157631676Y-75451405D01*
X157747372Y-75610646D01*
X157886554Y-75749828D01*
X158045795Y-75865524D01*
X158128655Y-75907743D01*
X158221170Y-75954882D01*
X158221172Y-75954882D01*
X158221175Y-75954884D01*
X158321517Y-75987487D01*
X158408373Y-76015709D01*
X158602778Y-76046500D01*
X158602783Y-76046500D01*
X158799622Y-76046500D01*
X158994026Y-76015709D01*
X159181225Y-75954884D01*
X159356605Y-75865524D01*
X159515846Y-75749828D01*
X159655028Y-75610646D01*
X159770724Y-75451405D01*
X159860084Y-75276025D01*
X159920909Y-75088826D01*
X159947511Y-74920872D01*
X165754700Y-74920872D01*
X165754700Y-75183127D01*
X165766931Y-75276025D01*
X165788930Y-75443116D01*
X165833820Y-75610647D01*
X165856802Y-75696418D01*
X165856805Y-75696428D01*
X165957153Y-75938690D01*
X165957158Y-75938700D01*
X166088275Y-76165803D01*
X166247918Y-76373851D01*
X166247926Y-76373860D01*
X166433340Y-76559274D01*
X166433348Y-76559281D01*
X166641396Y-76718924D01*
X166868499Y-76850041D01*
X166868509Y-76850046D01*
X167110771Y-76950394D01*
X167110781Y-76950398D01*
X167364084Y-77018270D01*
X167624080Y-77052500D01*
X167624087Y-77052500D01*
X167886313Y-77052500D01*
X167886320Y-77052500D01*
X168146316Y-77018270D01*
X168399619Y-76950398D01*
X168641897Y-76850043D01*
X168869003Y-76718924D01*
X169077051Y-76559282D01*
X169077055Y-76559277D01*
X169077060Y-76559274D01*
X169262474Y-76373860D01*
X169262477Y-76373855D01*
X169262482Y-76373851D01*
X169422124Y-76165803D01*
X169553243Y-75938697D01*
X169653598Y-75696419D01*
X169721470Y-75443116D01*
X169755700Y-75183120D01*
X169755700Y-74920880D01*
X169721470Y-74660884D01*
X169653598Y-74407581D01*
X169653594Y-74407571D01*
X169553246Y-74165309D01*
X169553241Y-74165299D01*
X169422124Y-73938196D01*
X169262481Y-73730148D01*
X169262474Y-73730140D01*
X169077060Y-73544726D01*
X169077051Y-73544718D01*
X168869003Y-73385075D01*
X168641900Y-73253958D01*
X168641890Y-73253953D01*
X168399628Y-73153605D01*
X168399621Y-73153603D01*
X168399619Y-73153602D01*
X168146316Y-73085730D01*
X168088539Y-73078123D01*
X167886327Y-73051500D01*
X167886320Y-73051500D01*
X167624080Y-73051500D01*
X167624072Y-73051500D01*
X167392972Y-73081926D01*
X167364084Y-73085730D01*
X167110781Y-73153602D01*
X167110771Y-73153605D01*
X166868509Y-73253953D01*
X166868499Y-73253958D01*
X166641396Y-73385075D01*
X166433348Y-73544718D01*
X166247918Y-73730148D01*
X166088275Y-73938196D01*
X165957158Y-74165299D01*
X165957153Y-74165309D01*
X165856805Y-74407571D01*
X165856802Y-74407581D01*
X165788930Y-74660885D01*
X165754700Y-74920872D01*
X159947511Y-74920872D01*
X159951225Y-74897423D01*
X159951700Y-74894421D01*
X159951700Y-74697577D01*
X159920909Y-74503173D01*
X159889849Y-74407581D01*
X159860084Y-74315975D01*
X159860082Y-74315972D01*
X159860082Y-74315970D01*
X159770723Y-74140594D01*
X159655028Y-73981354D01*
X159515846Y-73842172D01*
X159356605Y-73726476D01*
X159181229Y-73637117D01*
X158994026Y-73576290D01*
X158799622Y-73545500D01*
X158799617Y-73545500D01*
X158602783Y-73545500D01*
X158602778Y-73545500D01*
X158408373Y-73576290D01*
X158221170Y-73637117D01*
X158045794Y-73726476D01*
X157954941Y-73792485D01*
X157886554Y-73842172D01*
X157886552Y-73842174D01*
X157886551Y-73842174D01*
X157747374Y-73981351D01*
X157747374Y-73981352D01*
X157747372Y-73981354D01*
X157697685Y-74049741D01*
X157631676Y-74140594D01*
X157542317Y-74315970D01*
X157481490Y-74503173D01*
X157450700Y-74697577D01*
X139451700Y-74697577D01*
X139420909Y-74503173D01*
X139389849Y-74407581D01*
X139360084Y-74315975D01*
X139360082Y-74315972D01*
X139360082Y-74315970D01*
X139270723Y-74140594D01*
X139155028Y-73981354D01*
X139015846Y-73842172D01*
X138856605Y-73726476D01*
X138681229Y-73637117D01*
X138494026Y-73576290D01*
X138299622Y-73545500D01*
X138299617Y-73545500D01*
X138102783Y-73545500D01*
X138102778Y-73545500D01*
X137908373Y-73576290D01*
X137721170Y-73637117D01*
X137545794Y-73726476D01*
X137454941Y-73792485D01*
X137386554Y-73842172D01*
X137386552Y-73842174D01*
X137386551Y-73842174D01*
X137247374Y-73981351D01*
X137247374Y-73981352D01*
X137247372Y-73981354D01*
X137197685Y-74049741D01*
X137131676Y-74140594D01*
X137042317Y-74315970D01*
X136981490Y-74503173D01*
X136950700Y-74697577D01*
X132305127Y-74697577D01*
X133450086Y-73481058D01*
X133484924Y-73455137D01*
X142329018Y-69033091D01*
X142384472Y-69020000D01*
X166457104Y-69020000D01*
X166510550Y-69032109D01*
G37*
%TD.AperFunction*%
%TD*%
M02*
