%TF.GenerationSoftware,KiCad,Pcbnew,9.0.6*%
%TF.CreationDate,2026-03-18T12:59:56-04:00*%
%TF.ProjectId,SiPM_Board,5369504d-5f42-46f6-9172-642e6b696361,rev?*%
%TF.SameCoordinates,Original*%
%TF.FileFunction,Legend,Bot*%
%TF.FilePolarity,Positive*%
%FSLAX46Y46*%
G04 Gerber Fmt 4.6, Leading zero omitted, Abs format (unit mm)*
G04 Created by KiCad (PCBNEW 9.0.6) date 2026-03-18 12:59:56*
%MOMM*%
%LPD*%
G01*
G04 APERTURE LIST*
%ADD10C,0.150000*%
%ADD11C,0.250000*%
%ADD12C,0.120000*%
%ADD13C,0.200000*%
G04 APERTURE END LIST*
D10*
X223583330Y-110733330D02*
X223516670Y-110666670D01*
D11*
X204080950Y-128346430D02*
X204033330Y-128394050D01*
D12*
X224075000Y-113925000D02*
X224075000Y-114925000D01*
D10*
X223550000Y-111033330D02*
X223583330Y-111000000D01*
X219416670Y-139783330D02*
X219516670Y-139750000D01*
D11*
X204557140Y-127394050D02*
X204604760Y-127346430D01*
D10*
X216816670Y-110866670D02*
X216116670Y-110866670D01*
X222241670Y-118916670D02*
X222275000Y-118983330D01*
D11*
X203700000Y-127917860D02*
X203652380Y-127870240D01*
D10*
X219516670Y-139750000D02*
X219916670Y-139350000D01*
X223616670Y-110833330D02*
X223583330Y-110733330D01*
X218716670Y-109966670D02*
X218616670Y-109966670D01*
X219016670Y-110266670D02*
X219016670Y-110200000D01*
X218883330Y-111366670D02*
X218750000Y-111333330D01*
X216116670Y-110866670D02*
X216216670Y-110800000D01*
X217241670Y-120050000D02*
X217208330Y-119983330D01*
X216816670Y-111066670D02*
X216816670Y-110666670D01*
X223050000Y-111300000D02*
X223216670Y-111300000D01*
X222950000Y-111000000D02*
X222983330Y-111033330D01*
X218350000Y-111633330D02*
X218383330Y-111666670D01*
X218916670Y-110033330D02*
X218850000Y-110000000D01*
X220783330Y-110633330D02*
X220716670Y-110666670D01*
D11*
X203985710Y-128346430D02*
X204652380Y-128346430D01*
X204461900Y-124727380D02*
X204557140Y-124775000D01*
D10*
X218950000Y-111666670D02*
X218983330Y-111633330D01*
X220650000Y-111366670D02*
X220616670Y-111433330D01*
X222308330Y-119016670D02*
X222375000Y-119050000D01*
D11*
X204223810Y-125298810D02*
X204128570Y-125251190D01*
X204080950Y-124727380D02*
X204461900Y-124727380D01*
X204033330Y-127346430D02*
X204080950Y-127394050D01*
D10*
X223016670Y-110666670D02*
X222950000Y-110733330D01*
X216541670Y-119950000D02*
X216541670Y-120383330D01*
X222950000Y-110733330D02*
X222916670Y-110833330D01*
X218616670Y-109966670D02*
X218483330Y-110000000D01*
X222341670Y-119450000D02*
X222408330Y-119383330D01*
X219350000Y-139783330D02*
X219416670Y-139783330D01*
X222916670Y-110833330D02*
X222916670Y-110900000D01*
D13*
X219850000Y-127100000D02*
X219850000Y-127000000D01*
D10*
X222608330Y-118916670D02*
X222608330Y-118650000D01*
X221183330Y-111300000D02*
X221250000Y-111333330D01*
X219216670Y-139650000D02*
X219250000Y-139716670D01*
D12*
X221775000Y-113925000D02*
X221775000Y-114925000D01*
D11*
X204128570Y-125251190D02*
X204080950Y-125203570D01*
D10*
X220616670Y-110833330D02*
X220616670Y-110900000D01*
X220616670Y-110900000D02*
X220650000Y-111000000D01*
X221216670Y-110666670D02*
X221150000Y-110633330D01*
X221316670Y-111433330D02*
X221316670Y-111566670D01*
X222950000Y-111366670D02*
X222983330Y-111333330D01*
X216116670Y-110266670D02*
X216150000Y-110366670D01*
X218316670Y-111566670D02*
X218350000Y-111633330D01*
X216816670Y-111733330D02*
X216816670Y-111333330D01*
X222241670Y-119516670D02*
X222341670Y-119450000D01*
X223316670Y-111700000D02*
X223050000Y-111700000D01*
D11*
X203700000Y-127822620D02*
X203747620Y-127870240D01*
D10*
X221316670Y-110833330D02*
X221283330Y-110733330D01*
X217108330Y-120383330D02*
X217175000Y-120350000D01*
X220916670Y-111566670D02*
X220916670Y-111433330D01*
X218316670Y-110200000D02*
X218316670Y-110266670D01*
X223516670Y-110666670D02*
X223450000Y-110633330D01*
D11*
X204652380Y-127870240D02*
X203985710Y-127870240D01*
D12*
X220045000Y-118900000D02*
X220045000Y-120100000D01*
D10*
X220916670Y-111433330D02*
X220883330Y-111366670D01*
X218450000Y-111700000D02*
X218583330Y-111733330D01*
X216608330Y-119016670D02*
X216675000Y-119050000D01*
X223316670Y-111633330D02*
X223283330Y-111666670D01*
X222941670Y-120383330D02*
X222941670Y-119983330D01*
X216816670Y-110200000D02*
X216783330Y-110100000D01*
X217241670Y-118650000D02*
X216541670Y-118650000D01*
X222541670Y-119016670D02*
X222575000Y-118983330D01*
X217241670Y-119050000D02*
X216908330Y-118816670D01*
X216283330Y-110000000D02*
X216216670Y-110033330D01*
X223050000Y-111700000D02*
X222983330Y-111666670D01*
X221283330Y-111000000D02*
X221316670Y-110900000D01*
X220683330Y-111333330D02*
X220650000Y-111366670D01*
X223316670Y-111366670D02*
X223350000Y-111433330D01*
X220616670Y-111433330D02*
X220616670Y-111566670D01*
X216675000Y-119050000D02*
X216775000Y-119050000D01*
X216808330Y-120150000D02*
X216808330Y-120250000D01*
D12*
X217275000Y-113925000D02*
X217275000Y-114925000D01*
D10*
X216808330Y-120250000D02*
X216841670Y-120316670D01*
X216816670Y-110266670D02*
X216816670Y-110200000D01*
X220983330Y-111666670D02*
X220950000Y-111633330D01*
X216116670Y-111533330D02*
X216216670Y-111466670D01*
X222341670Y-120116670D02*
X222408330Y-120050000D01*
X216516670Y-109966670D02*
X216416670Y-109966670D01*
X222941670Y-120183330D02*
X222241670Y-120183330D01*
D11*
X204271430Y-125727380D02*
X204271430Y-126489290D01*
D10*
X223616670Y-111366670D02*
X223616670Y-111500000D01*
D11*
X203747620Y-127870240D02*
X203700000Y-127917860D01*
D10*
X220650000Y-111000000D02*
X220683330Y-111033330D01*
X216541670Y-118916670D02*
X216575000Y-118983330D01*
X220916670Y-111433330D02*
X220950000Y-111366670D01*
X220850000Y-111666670D02*
X220883330Y-111633330D01*
X221283330Y-111633330D02*
X221250000Y-111666670D01*
D11*
X204033330Y-128727380D02*
X204128570Y-128775000D01*
D12*
X217800000Y-114925000D02*
X217800000Y-113925000D01*
D10*
X223616670Y-110900000D02*
X223616670Y-110833330D01*
X223316670Y-110600000D02*
X223216670Y-110600000D01*
X220983330Y-111333330D02*
X221050000Y-111300000D01*
X218316670Y-110266670D02*
X218350000Y-110366670D01*
X223450000Y-110633330D02*
X223316670Y-110600000D01*
X219016670Y-111066670D02*
X219016670Y-110666670D01*
X219283330Y-138416670D02*
X219350000Y-138450000D01*
X219283330Y-139383330D02*
X219250000Y-139416670D01*
D11*
X204604760Y-124822620D02*
X204652380Y-124917860D01*
D12*
X220530000Y-135750000D02*
X220530000Y-134550000D01*
D11*
X204033330Y-126965480D02*
X203985710Y-127060710D01*
D13*
X219850000Y-127100000D02*
X219850000Y-127200000D01*
D10*
X223550000Y-111600000D02*
X223450000Y-111666670D01*
D11*
X204652380Y-127060710D02*
X204604760Y-126965480D01*
D10*
X219583330Y-138316670D02*
X219583330Y-138050000D01*
X219916670Y-139116670D02*
X219916670Y-138716670D01*
D12*
X220075000Y-114925000D02*
X220075000Y-113925000D01*
D10*
X216875000Y-120350000D02*
X216941670Y-120383330D01*
X220783330Y-111300000D02*
X220750000Y-111300000D01*
D11*
X204461900Y-127441670D02*
X204557140Y-127394050D01*
D10*
X216641670Y-119450000D02*
X216708330Y-119383330D01*
X219283330Y-139750000D02*
X219350000Y-139783330D01*
X218583330Y-111333330D02*
X218450000Y-111366670D01*
X223216670Y-111300000D02*
X223283330Y-111333330D01*
X216650000Y-110000000D02*
X216516670Y-109966670D01*
X218350000Y-111433330D02*
X218316670Y-111500000D01*
X223283330Y-111333330D02*
X223316670Y-111366670D01*
X216841670Y-119016670D02*
X216875000Y-118983330D01*
D12*
X222375000Y-114925000D02*
X222375000Y-113925000D01*
D10*
X216150000Y-110100000D02*
X216116670Y-110200000D01*
X220950000Y-111366670D02*
X220983330Y-111333330D01*
X216216670Y-110033330D02*
X216150000Y-110100000D01*
X216816670Y-111533330D02*
X216116670Y-111533330D01*
X222941670Y-119716670D02*
X222941670Y-119316670D01*
D11*
X204652380Y-125108330D02*
X204604760Y-125203570D01*
D10*
X220683330Y-111666670D02*
X220750000Y-111700000D01*
X217241670Y-119516670D02*
X216541670Y-119516670D01*
X222241670Y-118650000D02*
X222241670Y-118916670D01*
X222375000Y-119050000D02*
X222475000Y-119050000D01*
X217241670Y-120250000D02*
X217241670Y-120050000D01*
X218416670Y-110800000D02*
X218483330Y-110733330D01*
X223216670Y-110600000D02*
X223083330Y-110633330D01*
X216783330Y-110366670D02*
X216816670Y-110266670D01*
X223083330Y-110633330D02*
X223016670Y-110666670D01*
X218983330Y-110100000D02*
X218916670Y-110033330D01*
D11*
X204080950Y-125203570D02*
X204033330Y-125108330D01*
D10*
X223583330Y-111566670D02*
X223550000Y-111600000D01*
X216283330Y-111400000D02*
X216316670Y-111333330D01*
X223350000Y-111433330D02*
X223350000Y-111566670D01*
D12*
X217745000Y-118900000D02*
X217745000Y-120100000D01*
D10*
X218583330Y-111733330D02*
X218750000Y-111733330D01*
X222950000Y-111633330D02*
X222916670Y-111566670D01*
D11*
X203652380Y-125203570D02*
X203652380Y-125013100D01*
D10*
X216541670Y-120383330D02*
X216808330Y-120150000D01*
X216541670Y-119516670D02*
X216641670Y-119450000D01*
D11*
X203652380Y-127870240D02*
X203747620Y-127870240D01*
D13*
X219850000Y-127100000D02*
X219950000Y-127100000D01*
D10*
X218750000Y-111333330D02*
X218583330Y-111333330D01*
D11*
X204080950Y-127394050D02*
X204176190Y-127441670D01*
D12*
X219505000Y-120100000D02*
X219505000Y-118900000D01*
D10*
X218416670Y-110033330D02*
X218350000Y-110100000D01*
D11*
X204604760Y-127346430D02*
X204652380Y-127251190D01*
D10*
X218883330Y-111700000D02*
X218950000Y-111666670D01*
X218950000Y-110400000D02*
X218983330Y-110366670D01*
X222575000Y-118983330D02*
X222608330Y-118916670D01*
X219550000Y-138383330D02*
X219583330Y-138316670D01*
D11*
X203652380Y-125013100D02*
X203700000Y-124917860D01*
D10*
X220850000Y-111333330D02*
X220783330Y-111300000D01*
X221250000Y-111033330D02*
X221283330Y-111000000D01*
X221283330Y-110733330D02*
X221216670Y-110666670D01*
X222916670Y-110900000D02*
X222950000Y-111000000D01*
X222408330Y-120050000D02*
X222441670Y-119983330D01*
X218383330Y-111400000D02*
X218350000Y-111433330D01*
D11*
X204080950Y-124822620D02*
X204128570Y-124775000D01*
D10*
X218983330Y-110366670D02*
X219016670Y-110266670D01*
X218316670Y-111500000D02*
X218316670Y-111566670D01*
X216941670Y-120383330D02*
X217108330Y-120383330D01*
X219016670Y-110200000D02*
X218983330Y-110100000D01*
X216908330Y-118916670D02*
X216908330Y-118650000D01*
X222941670Y-119516670D02*
X222241670Y-119516670D01*
X218483330Y-110733330D02*
X218516670Y-110666670D01*
D11*
X203652380Y-127870240D02*
X203700000Y-127822620D01*
D10*
X218983330Y-111633330D02*
X219016670Y-111566670D01*
X218350000Y-110100000D02*
X218316670Y-110200000D01*
D11*
X204557140Y-124775000D02*
X204604760Y-124822620D01*
D10*
X220616670Y-111566670D02*
X220650000Y-111633330D01*
X220883330Y-111366670D02*
X220850000Y-111333330D01*
X216216670Y-110800000D02*
X216283330Y-110733330D01*
X219916670Y-138916670D02*
X219216670Y-138916670D01*
D11*
X203985710Y-126965480D02*
X204985710Y-126965480D01*
D10*
X219216670Y-138050000D02*
X219216670Y-138316670D01*
X216708330Y-119383330D02*
X216741670Y-119316670D01*
D11*
X203985710Y-127251190D02*
X204033330Y-127346430D01*
D10*
X220750000Y-111700000D02*
X220783330Y-111700000D01*
X216841670Y-120316670D02*
X216875000Y-120350000D01*
X222241670Y-120183330D02*
X222341670Y-120116670D01*
X216575000Y-118983330D02*
X216608330Y-119016670D01*
X219916670Y-138050000D02*
X219216670Y-138050000D01*
X219383330Y-138783330D02*
X219416670Y-138716670D01*
X216750000Y-110400000D02*
X216783330Y-110366670D01*
X219250000Y-139416670D02*
X219216670Y-139483330D01*
X218350000Y-110366670D02*
X218383330Y-110400000D01*
X223616670Y-111500000D02*
X223583330Y-111566670D01*
D11*
X203700000Y-124917860D02*
X203747620Y-124870240D01*
D10*
X219016670Y-111566670D02*
X219016670Y-111500000D01*
X217208330Y-120316670D02*
X217241670Y-120250000D01*
X221250000Y-111666670D02*
X221183330Y-111700000D01*
D12*
X218770000Y-134550000D02*
X218770000Y-135750000D01*
D10*
X218483330Y-110000000D02*
X218416670Y-110033330D01*
X219216670Y-138916670D02*
X219316670Y-138850000D01*
X216783330Y-110100000D02*
X216716670Y-110033330D01*
D12*
X215575000Y-114925000D02*
X215575000Y-113925000D01*
D10*
X220883330Y-111633330D02*
X220916670Y-111566670D01*
X223450000Y-111666670D02*
X223316670Y-111700000D01*
D11*
X203985710Y-127060710D02*
X203985710Y-127251190D01*
D10*
X216875000Y-118983330D02*
X216908330Y-118916670D01*
D11*
X203985710Y-128489290D02*
X203985710Y-128632140D01*
D10*
X220716670Y-110666670D02*
X220650000Y-110733330D01*
X223350000Y-111566670D02*
X223316670Y-111633330D01*
X220950000Y-111633330D02*
X220916670Y-111566670D01*
D11*
X204604760Y-125203570D02*
X204557140Y-125251190D01*
D10*
X222408330Y-119383330D02*
X222441670Y-119316670D01*
X221316670Y-110900000D02*
X221316670Y-110833330D01*
X220916670Y-110600000D02*
X220783330Y-110633330D01*
X218316670Y-110866670D02*
X218416670Y-110800000D01*
X222983330Y-111333330D02*
X223050000Y-111300000D01*
D11*
X204033330Y-124917860D02*
X204080950Y-124822620D01*
D10*
X222983330Y-111666670D02*
X222950000Y-111633330D01*
X222916670Y-111433330D02*
X222950000Y-111366670D01*
X219516670Y-138416670D02*
X219550000Y-138383330D01*
X217241670Y-119716670D02*
X217241670Y-119316670D01*
X217175000Y-120350000D02*
X217208330Y-120316670D01*
X221150000Y-110633330D02*
X221016670Y-110600000D01*
D11*
X204461900Y-125298810D02*
X204223810Y-125298810D01*
D10*
X221250000Y-111333330D02*
X221283330Y-111366670D01*
X219016670Y-111500000D02*
X218983330Y-111433330D01*
X216283330Y-110733330D02*
X216316670Y-110666670D01*
X216216670Y-111466670D02*
X216283330Y-111400000D01*
X216716670Y-110033330D02*
X216650000Y-110000000D01*
X221016670Y-110600000D02*
X220916670Y-110600000D01*
X219016670Y-110866670D02*
X218316670Y-110866670D01*
D13*
X219850000Y-127100000D02*
X220000000Y-127100000D01*
D10*
X218383330Y-111666670D02*
X218450000Y-111700000D01*
X219916670Y-138450000D02*
X219583330Y-138216670D01*
X220650000Y-111633330D02*
X220683330Y-111666670D01*
X219450000Y-138450000D02*
X219516670Y-138416670D01*
D11*
X204128570Y-128775000D02*
X204652380Y-128775000D01*
D10*
X219350000Y-138450000D02*
X219450000Y-138450000D01*
X216775000Y-119050000D02*
X216841670Y-119016670D01*
X219216670Y-138316670D02*
X219250000Y-138383330D01*
X222916670Y-111566670D02*
X222916670Y-111433330D01*
X221316670Y-111566670D02*
X221283330Y-111633330D01*
X216150000Y-110366670D02*
X216183330Y-110400000D01*
D12*
X219500000Y-113925000D02*
X219500000Y-114925000D01*
D11*
X204176190Y-127441670D02*
X204461900Y-127441670D01*
D10*
X220783330Y-111700000D02*
X220850000Y-111666670D01*
X218850000Y-110000000D02*
X218716670Y-109966670D01*
X219916670Y-139350000D02*
X219916670Y-139783330D01*
X216116670Y-110200000D02*
X216116670Y-110266670D01*
X222941670Y-119050000D02*
X222608330Y-118816670D01*
X218950000Y-111400000D02*
X218883330Y-111366670D01*
D13*
X219850000Y-127100000D02*
X219700000Y-127100000D01*
D10*
X219216670Y-139483330D02*
X219216670Y-139650000D01*
D12*
X221805000Y-120100000D02*
X221805000Y-118900000D01*
D11*
X204557140Y-125251190D02*
X204461900Y-125298810D01*
D10*
X216416670Y-109966670D02*
X216283330Y-110000000D01*
D11*
X204033330Y-125108330D02*
X204033330Y-124917860D01*
D10*
X222941670Y-118650000D02*
X222241670Y-118650000D01*
X218450000Y-111366670D02*
X218383330Y-111400000D01*
D11*
X204033330Y-128394050D02*
X203985710Y-128489290D01*
D10*
X220750000Y-111300000D02*
X220683330Y-111333330D01*
D11*
X204128570Y-124775000D02*
X204223810Y-124727380D01*
D10*
X221050000Y-111700000D02*
X220983330Y-111666670D01*
X217208330Y-119983330D02*
X217175000Y-119950000D01*
X218750000Y-111733330D02*
X218883330Y-111700000D01*
X222275000Y-118983330D02*
X222308330Y-119016670D01*
D11*
X204652380Y-127251190D02*
X204652380Y-127060710D01*
X203890480Y-124775000D02*
X204080950Y-124727380D01*
D10*
X221050000Y-111300000D02*
X221183330Y-111300000D01*
X221183330Y-111700000D02*
X221050000Y-111700000D01*
D11*
X203747620Y-124870240D02*
X203890480Y-124775000D01*
D10*
X219250000Y-138383330D02*
X219283330Y-138416670D01*
D11*
X204652380Y-124917860D02*
X204652380Y-125108330D01*
X203985710Y-128632140D02*
X204033330Y-128727380D01*
D10*
X223583330Y-111000000D02*
X223616670Y-110900000D01*
X216541670Y-118650000D02*
X216541670Y-118916670D01*
X223283330Y-111666670D02*
X223216670Y-111700000D01*
X218983330Y-111433330D02*
X218950000Y-111400000D01*
X219250000Y-139716670D02*
X219283330Y-139750000D01*
X219316670Y-138850000D02*
X219383330Y-138783330D01*
X222475000Y-119050000D02*
X222541670Y-119016670D01*
X220650000Y-110733330D02*
X220616670Y-110833330D01*
X221283330Y-111366670D02*
X221316670Y-111433330D01*
M02*
