<?xml version="1.0" standalone="no"?>
 <!DOCTYPE svg PUBLIC "-//W3C//DTD SVG 1.1//EN" 
 "http://www.w3.org/Graphics/SVG/1.1/DTD/svg11.dtd"> 
<svg
  xmlns:svg="http://www.w3.org/2000/svg"
  xmlns="http://www.w3.org/2000/svg"
  xmlns:xlink="http://www.w3.org/1999/xlink"
  version="1.1"
  width="297.0022mm" height="210.0072mm" viewBox="0.0000 0.0000 297.0022 210.0072">
<title>SVG Image created as SiPM_Board-PTH-drl_map.svg date 2026/03/18 12:59:58 </title>
  <desc>Image generated by PCBNEW </desc>
<g style="fill:#000000; fill-opacity:1.0000;stroke:#000000; stroke-opacity:1.0000;
stroke-linecap:round; stroke-linejoin:round;"
 transform="translate(0 0) scale(1 1)">
</g>
<g style="fill:none; 
stroke:#000000; stroke-width:0.1440; stroke-opacity:1; 
stroke-linecap:round; stroke-linejoin:round;">
<path d="M101.1201 5.6481
L90.8950 5.6481
" />
</g>
<g style="fill:none; 
stroke:#000000; stroke-width:0.2880; stroke-opacity:1; 
stroke-linecap:round; stroke-linejoin:round;">
<path d="M206.1072 15.4411
L206.1072 120.8603
" />
</g>
<g style="fill:none; 
stroke:#000000; stroke-width:0.1440; stroke-opacity:1; 
stroke-linecap:round; stroke-linejoin:round;">
<path d="M194.5860 5.6481
L206.1072 5.1440
" />
</g>
<g style="fill:none; 
stroke:#000000; stroke-width:0.2880; stroke-opacity:1; 
stroke-linecap:round; stroke-linejoin:round;">
<path d="M90.8950 120.8603
L206.1072 120.8603
" />
<path d="M90.8950 15.4411
L90.8950 43.9561
" />
<path d="M90.8950 120.8603
L90.8950 45.3963
" />
<path d="M150.8053 5.6481
L146.6289 5.6481
" />
<path d="M152.2455 5.6481
L150.8053 5.6481
" />
<path d="M194.5860 5.6481
L152.2455 5.6481
" />
<path d="M90.8950 45.3963
L90.8950 43.9561
" />
<path d="M90.8950 15.4411
L90.8950 12.1288
" />
<path d="M206.1072 5.1440
L206.1072 15.4411
" />
</g>
<g style="fill:none; 
stroke:#000000; stroke-width:0.1440; stroke-opacity:1; 
stroke-linecap:round; stroke-linejoin:round;">
<path d="M90.8950 12.1288
L90.8950 5.6481
" />
</g>
<g style="fill:none; 
stroke:#000000; stroke-width:0.2880; stroke-opacity:1; 
stroke-linecap:round; stroke-linejoin:round;">
<path d="M101.1201 5.6481
L146.6289 5.6481
" />
</g>
<g style="fill:none; 
stroke:#000000; stroke-width:0.2000; stroke-opacity:1; 
stroke-linecap:round; stroke-linejoin:round;">
<text x="92.7510" y="124.2043"
textLength="14.8667" font-size="2.6667" lengthAdjust="spacingAndGlyphs"
text-anchor="start" opacity="0" stroke-opacity="0">Drill Map:</text>
<g class="stroked-text"><desc>Drill Map:</desc>
<path d="M93.3587 124.1192
L93.3587 122.1192
" />
<path d="M93.3587 122.1192
L93.8349 122.1192
" />
<path d="M93.8349 122.1192
L94.1206 122.2144
" />
<path d="M94.1206 122.2144
L94.3111 122.4049
" />
<path d="M94.3111 122.4049
L94.4064 122.5953
" />
<path d="M94.4064 122.5953
L94.5016 122.9763
" />
<path d="M94.5016 122.9763
L94.5016 123.2620
" />
<path d="M94.5016 123.2620
L94.4064 123.6430
" />
<path d="M94.4064 123.6430
L94.3111 123.8334
" />
<path d="M94.3111 123.8334
L94.1206 124.0239
" />
<path d="M94.1206 124.0239
L93.8349 124.1192
" />
<path d="M93.8349 124.1192
L93.3587 124.1192
" />
<path d="M95.3587 124.1192
L95.3587 122.7858
" />
<path d="M95.3587 123.1668
L95.4540 122.9763
" />
<path d="M95.4540 122.9763
L95.5492 122.8811
" />
<path d="M95.5492 122.8811
L95.7397 122.7858
" />
<path d="M95.7397 122.7858
L95.9302 122.7858
" />
<path d="M96.5968 124.1192
L96.5968 122.7858
" />
<path d="M96.5968 122.1192
L96.5016 122.2144
" />
<path d="M96.5016 122.2144
L96.5968 122.3096
" />
<path d="M96.5968 122.3096
L96.6921 122.2144
" />
<path d="M96.6921 122.2144
L96.5968 122.1192
" />
<path d="M96.5968 122.1192
L96.5968 122.3096
" />
<path d="M97.8349 124.1192
L97.6445 124.0239
" />
<path d="M97.6445 124.0239
L97.5492 123.8334
" />
<path d="M97.5492 123.8334
L97.5492 122.1192
" />
<path d="M98.8825 124.1192
L98.6921 124.0239
" />
<path d="M98.6921 124.0239
L98.5968 123.8334
" />
<path d="M98.5968 123.8334
L98.5968 122.1192
" />
<path d="M101.1683 124.1192
L101.1683 122.1192
" />
<path d="M101.1683 122.1192
L101.8349 123.5477
" />
<path d="M101.8349 123.5477
L102.5016 122.1192
" />
<path d="M102.5016 122.1192
L102.5016 124.1192
" />
<path d="M104.3111 124.1192
L104.3111 123.0715
" />
<path d="M104.3111 123.0715
L104.2159 122.8811
" />
<path d="M104.2159 122.8811
L104.0254 122.7858
" />
<path d="M104.0254 122.7858
L103.6445 122.7858
" />
<path d="M103.6445 122.7858
L103.4540 122.8811
" />
<path d="M104.3111 124.0239
L104.1206 124.1192
" />
<path d="M104.1206 124.1192
L103.6445 124.1192
" />
<path d="M103.6445 124.1192
L103.4540 124.0239
" />
<path d="M103.4540 124.0239
L103.3587 123.8334
" />
<path d="M103.3587 123.8334
L103.3587 123.6430
" />
<path d="M103.3587 123.6430
L103.4540 123.4525
" />
<path d="M103.4540 123.4525
L103.6445 123.3573
" />
<path d="M103.6445 123.3573
L104.1206 123.3573
" />
<path d="M104.1206 123.3573
L104.3111 123.2620
" />
<path d="M105.2635 122.7858
L105.2635 124.7858
" />
<path d="M105.2635 122.8811
L105.4540 122.7858
" />
<path d="M105.4540 122.7858
L105.8349 122.7858
" />
<path d="M105.8349 122.7858
L106.0254 122.8811
" />
<path d="M106.0254 122.8811
L106.1206 122.9763
" />
<path d="M106.1206 122.9763
L106.2159 123.1668
" />
<path d="M106.2159 123.1668
L106.2159 123.7382
" />
<path d="M106.2159 123.7382
L106.1206 123.9287
" />
<path d="M106.1206 123.9287
L106.0254 124.0239
" />
<path d="M106.0254 124.0239
L105.8349 124.1192
" />
<path d="M105.8349 124.1192
L105.4540 124.1192
" />
<path d="M105.4540 124.1192
L105.2635 124.0239
" />
<path d="M107.0730 123.9287
L107.1683 124.0239
" />
<path d="M107.1683 124.0239
L107.0730 124.1192
" />
<path d="M107.0730 124.1192
L106.9778 124.0239
" />
<path d="M106.9778 124.0239
L107.0730 123.9287
" />
<path d="M107.0730 123.9287
L107.0730 124.1192
" />
<path d="M107.0730 122.8811
L107.1683 122.9763
" />
<path d="M107.1683 122.9763
L107.0730 123.0715
" />
<path d="M107.0730 123.0715
L106.9778 122.9763
" />
<path d="M106.9778 122.9763
L107.0730 122.8811
" />
<path d="M107.0730 122.8811
L107.0730 123.0715
" />
</g></g> 
</svg>
