%TF.GenerationSoftware,KiCad,Pcbnew,9.0.6*%
%TF.CreationDate,2026-03-18T12:59:56-04:00*%
%TF.ProjectId,SiPM_Board,5369504d-5f42-46f6-9172-642e6b696361,rev?*%
%TF.SameCoordinates,Original*%
%TF.FileFunction,Copper,L1,Top*%
%TF.FilePolarity,Positive*%
%FSLAX46Y46*%
G04 Gerber Fmt 4.6, Leading zero omitted, Abs format (unit mm)*
G04 Created by KiCad (PCBNEW 9.0.6) date 2026-03-18 12:59:56*
%MOMM*%
%LPD*%
G01*
G04 APERTURE LIST*
%TA.AperFunction,NonConductor*%
%ADD10C,2.000000*%
%TD*%
%TA.AperFunction,NonConductor*%
%ADD11C,0.000000*%
%TD*%
%TA.AperFunction,Conductor*%
%ADD12C,0.254000*%
%TD*%
G04 APERTURE END LIST*
D10*
X230850000Y-142100000D02*
G75*
G02*
X228850000Y-142100000I-1000000J0D01*
G01*
X228850000Y-142100000D02*
G75*
G02*
X230850000Y-142100000I1000000J0D01*
G01*
D11*
%TA.AperFunction,NonConductor*%
G36*
X217400000Y-124650000D02*
G01*
X215900000Y-124650000D01*
X215900000Y-123150000D01*
X217400000Y-123150000D01*
X217400000Y-124650000D01*
G37*
%TD.AperFunction*%
D10*
X230850000Y-112100000D02*
G75*
G02*
X228850000Y-112100000I-1000000J0D01*
G01*
X228850000Y-112100000D02*
G75*
G02*
X230850000Y-112100000I1000000J0D01*
G01*
D11*
%TA.AperFunction,NonConductor*%
G36*
X223800000Y-131050000D02*
G01*
X222300000Y-131050000D01*
X222300000Y-129550000D01*
X223800000Y-129550000D01*
X223800000Y-131050000D01*
G37*
%TD.AperFunction*%
%TA.AperFunction,NonConductor*%
G36*
X213890000Y-127735000D02*
G01*
X210210000Y-127735000D01*
X210210000Y-126465000D01*
X213890000Y-126465000D01*
X213890000Y-127735000D01*
G37*
%TD.AperFunction*%
D10*
X205850000Y-112100000D02*
G75*
G02*
X203850000Y-112100000I-1000000J0D01*
G01*
X203850000Y-112100000D02*
G75*
G02*
X205850000Y-112100000I1000000J0D01*
G01*
D11*
%TA.AperFunction,NonConductor*%
G36*
X203246940Y-107769390D02*
G01*
X203265710Y-107775090D01*
X203265720Y-107775090D01*
X203366350Y-107785000D01*
X203366360Y-107785000D01*
X203400000Y-107788310D01*
X203433640Y-107785000D01*
X235656220Y-107785000D01*
X235678140Y-107804720D01*
X235699950Y-107816720D01*
X235723690Y-107824240D01*
X235748430Y-107826990D01*
X236722180Y-107839010D01*
X236791390Y-107852780D01*
X237008610Y-107852780D01*
X237057030Y-107843150D01*
X239165000Y-107869170D01*
X239165000Y-110466340D01*
X239165000Y-110466350D01*
X239165000Y-146415000D01*
X200535000Y-146415000D01*
X200535000Y-143947500D01*
X203182110Y-143947500D01*
X203398230Y-144314260D01*
X203858110Y-144554940D01*
X204356100Y-144701280D01*
X204873070Y-144747650D01*
X205389160Y-144692270D01*
X205884530Y-144537280D01*
X206301770Y-144314260D01*
X206517890Y-143947500D01*
X228182110Y-143947500D01*
X228398230Y-144314260D01*
X228858110Y-144554940D01*
X229356100Y-144701280D01*
X229873070Y-144747650D01*
X230389160Y-144692270D01*
X230884530Y-144537280D01*
X231301770Y-144314260D01*
X231517890Y-143947500D01*
X233182110Y-143947500D01*
X233398230Y-144314260D01*
X233858110Y-144554940D01*
X234356100Y-144701280D01*
X234873070Y-144747650D01*
X235389160Y-144692270D01*
X235884530Y-144537280D01*
X236301770Y-144314260D01*
X236517890Y-143947500D01*
X234850000Y-142279610D01*
X233182110Y-143947500D01*
X231517890Y-143947500D01*
X229850000Y-142279610D01*
X228182110Y-143947500D01*
X206517890Y-143947500D01*
X204850000Y-142279610D01*
X203182110Y-143947500D01*
X200535000Y-143947500D01*
X200535000Y-142123070D01*
X202202350Y-142123070D01*
X202257730Y-142639160D01*
X202412720Y-143134530D01*
X202635740Y-143551770D01*
X203002500Y-143767890D01*
X204670400Y-142100000D01*
X205029610Y-142100000D01*
X206697500Y-143767890D01*
X207064260Y-143551770D01*
X207304940Y-143091900D01*
X207451280Y-142593900D01*
X207493510Y-142123070D01*
X227202350Y-142123070D01*
X227257730Y-142639160D01*
X227412720Y-143134530D01*
X227635740Y-143551770D01*
X228002500Y-143767890D01*
X229670400Y-142100000D01*
X230029610Y-142100000D01*
X231697500Y-143767890D01*
X232064260Y-143551770D01*
X232304940Y-143091900D01*
X232350680Y-142936240D01*
X232412720Y-143134530D01*
X232635740Y-143551770D01*
X233002500Y-143767890D01*
X234670400Y-142100000D01*
X235029610Y-142100000D01*
X236697500Y-143767890D01*
X237064260Y-143551770D01*
X237304940Y-143091900D01*
X237451280Y-142593900D01*
X237497650Y-142076930D01*
X237442270Y-141560840D01*
X237287280Y-141065470D01*
X237064260Y-140648230D01*
X236697500Y-140432110D01*
X235029610Y-142100000D01*
X234670400Y-142100000D01*
X233002500Y-140432110D01*
X232635740Y-140648230D01*
X232395060Y-141108110D01*
X232349320Y-141263760D01*
X232287280Y-141065470D01*
X232064260Y-140648230D01*
X231697500Y-140432110D01*
X230029610Y-142100000D01*
X229670400Y-142100000D01*
X228002500Y-140432110D01*
X227635740Y-140648230D01*
X227395060Y-141108110D01*
X227248730Y-141606100D01*
X227202350Y-142123070D01*
X207493510Y-142123070D01*
X207497650Y-142076930D01*
X207442270Y-141560840D01*
X207287280Y-141065470D01*
X207064260Y-140648230D01*
X206697500Y-140432110D01*
X205029610Y-142100000D01*
X204670400Y-142100000D01*
X203002500Y-140432110D01*
X202635740Y-140648230D01*
X202395060Y-141108110D01*
X202248730Y-141606100D01*
X202202350Y-142123070D01*
X200535000Y-142123070D01*
X200535000Y-140252500D01*
X203182110Y-140252500D01*
X204850000Y-141920400D01*
X206517890Y-140252500D01*
X228182110Y-140252500D01*
X229850000Y-141920400D01*
X231517890Y-140252500D01*
X233182110Y-140252500D01*
X234850000Y-141920400D01*
X236517890Y-140252500D01*
X236301770Y-139885740D01*
X235841900Y-139645060D01*
X235343900Y-139498730D01*
X234826930Y-139452350D01*
X234310840Y-139507730D01*
X233815470Y-139662720D01*
X233398230Y-139885740D01*
X233182110Y-140252500D01*
X231517890Y-140252500D01*
X231301770Y-139885740D01*
X230841900Y-139645060D01*
X230343900Y-139498730D01*
X229826930Y-139452350D01*
X229310840Y-139507730D01*
X228815470Y-139662720D01*
X228398230Y-139885740D01*
X228182110Y-140252500D01*
X206517890Y-140252500D01*
X206301770Y-139885740D01*
X205841900Y-139645060D01*
X205343900Y-139498730D01*
X204826930Y-139452350D01*
X204310840Y-139507730D01*
X203815470Y-139662720D01*
X203398230Y-139885740D01*
X203182110Y-140252500D01*
X200535000Y-140252500D01*
X200535000Y-132050000D01*
X214773000Y-132050000D01*
X214775440Y-132074780D01*
X214782670Y-132098600D01*
X214794400Y-132120560D01*
X214810200Y-132139800D01*
X214829440Y-132155600D01*
X214851400Y-132167330D01*
X214875220Y-132174560D01*
X214900000Y-132177000D01*
X224800000Y-132177000D01*
X224824780Y-132174560D01*
X224848600Y-132167330D01*
X224870560Y-132155600D01*
X224889800Y-132139800D01*
X224905600Y-132120560D01*
X224917330Y-132098600D01*
X224924560Y-132074780D01*
X224927000Y-132050000D01*
X224927000Y-122150000D01*
X224924560Y-122125220D01*
X224917330Y-122101400D01*
X224905600Y-122079440D01*
X224889800Y-122060200D01*
X224870560Y-122044400D01*
X224848600Y-122032670D01*
X224824780Y-122025440D01*
X224800000Y-122023000D01*
X214900000Y-122023000D01*
X214875220Y-122025440D01*
X214851400Y-122032670D01*
X214829440Y-122044400D01*
X214810200Y-122060200D01*
X214794400Y-122079440D01*
X214782670Y-122101400D01*
X214775440Y-122125220D01*
X214773000Y-122150000D01*
X214773000Y-132050000D01*
X200535000Y-132050000D01*
X200535000Y-127735000D01*
X205171930Y-127735000D01*
X205184190Y-127859480D01*
X205220500Y-127979180D01*
X205279460Y-128089490D01*
X205358820Y-128186190D01*
X205455510Y-128265540D01*
X205565820Y-128324500D01*
X205685520Y-128360810D01*
X205810000Y-128373070D01*
X207364250Y-128370000D01*
X207523000Y-128211250D01*
X207777000Y-128211250D01*
X207935750Y-128370000D01*
X209490000Y-128373070D01*
X209614480Y-128360810D01*
X209734180Y-128324500D01*
X209844490Y-128265540D01*
X209850000Y-128261020D01*
X209855510Y-128265540D01*
X209965820Y-128324500D01*
X210085520Y-128360810D01*
X210210000Y-128373070D01*
X211764250Y-128370000D01*
X211923000Y-128211250D01*
X212177000Y-128211250D01*
X212335750Y-128370000D01*
X213890000Y-128373070D01*
X214014480Y-128360810D01*
X214134180Y-128324500D01*
X214244490Y-128265540D01*
X214341190Y-128186190D01*
X214420540Y-128089490D01*
X214479500Y-127979180D01*
X214515810Y-127859480D01*
X214528070Y-127735000D01*
X214525000Y-127385750D01*
X214366250Y-127227000D01*
X212177000Y-127227000D01*
X212177000Y-128211250D01*
X211923000Y-128211250D01*
X211923000Y-127227000D01*
X207777000Y-127227000D01*
X207777000Y-128211250D01*
X207523000Y-128211250D01*
X207523000Y-127227000D01*
X205333750Y-127227000D01*
X205175000Y-127385750D01*
X205171930Y-127735000D01*
X200535000Y-127735000D01*
X200535000Y-126465000D01*
X205171930Y-126465000D01*
X205175000Y-126814250D01*
X205333750Y-126973000D01*
X207523000Y-126973000D01*
X207777000Y-126973000D01*
X211923000Y-126973000D01*
X212177000Y-126973000D01*
X214366250Y-126973000D01*
X214525000Y-126814250D01*
X214528070Y-126465000D01*
X214515810Y-126340520D01*
X214479500Y-126220820D01*
X214420540Y-126110510D01*
X214341190Y-126013820D01*
X214244490Y-125934460D01*
X214134180Y-125875500D01*
X214014480Y-125839190D01*
X213890000Y-125826930D01*
X212335750Y-125830000D01*
X212177000Y-125988750D01*
X212177000Y-126973000D01*
X211923000Y-126973000D01*
X211923000Y-125988750D01*
X211764250Y-125830000D01*
X210210000Y-125826930D01*
X210085520Y-125839190D01*
X209965820Y-125875500D01*
X209855510Y-125934460D01*
X209850000Y-125938980D01*
X209844490Y-125934460D01*
X209734180Y-125875500D01*
X209614480Y-125839190D01*
X209490000Y-125826930D01*
X207935750Y-125830000D01*
X207777000Y-125988750D01*
X207777000Y-126973000D01*
X207523000Y-126973000D01*
X207523000Y-125988750D01*
X207364250Y-125830000D01*
X205810000Y-125826930D01*
X205685520Y-125839190D01*
X205565820Y-125875500D01*
X205455510Y-125934460D01*
X205358820Y-126013820D01*
X205279460Y-126110510D01*
X205220500Y-126220820D01*
X205184190Y-126340520D01*
X205171930Y-126465000D01*
X200535000Y-126465000D01*
X200535000Y-122150000D01*
X200535000Y-113947500D01*
X203182110Y-113947500D01*
X203398230Y-114314260D01*
X203858110Y-114554940D01*
X204356100Y-114701280D01*
X204873070Y-114747650D01*
X205389160Y-114692270D01*
X205884530Y-114537280D01*
X206301770Y-114314260D01*
X206517890Y-113947500D01*
X228182110Y-113947500D01*
X228398230Y-114314260D01*
X228858110Y-114554940D01*
X229356100Y-114701280D01*
X229873070Y-114747650D01*
X230389160Y-114692270D01*
X230884530Y-114537280D01*
X231301770Y-114314260D01*
X231517890Y-113947500D01*
X233182110Y-113947500D01*
X233398230Y-114314260D01*
X233858110Y-114554940D01*
X234356100Y-114701280D01*
X234873070Y-114747650D01*
X235389160Y-114692270D01*
X235884530Y-114537280D01*
X236301770Y-114314260D01*
X236517890Y-113947500D01*
X234850000Y-112279610D01*
X233182110Y-113947500D01*
X231517890Y-113947500D01*
X229850000Y-112279610D01*
X228182110Y-113947500D01*
X206517890Y-113947500D01*
X204850000Y-112279610D01*
X203182110Y-113947500D01*
X200535000Y-113947500D01*
X200535000Y-112123070D01*
X202202350Y-112123070D01*
X202257730Y-112639160D01*
X202412720Y-113134530D01*
X202635740Y-113551770D01*
X203002500Y-113767890D01*
X204670400Y-112100000D01*
X205029610Y-112100000D01*
X206697500Y-113767890D01*
X207064260Y-113551770D01*
X207304940Y-113091900D01*
X207451280Y-112593900D01*
X207493510Y-112123070D01*
X227202350Y-112123070D01*
X227257730Y-112639160D01*
X227412720Y-113134530D01*
X227635740Y-113551770D01*
X228002500Y-113767890D01*
X229670400Y-112100000D01*
X230029610Y-112100000D01*
X231697500Y-113767890D01*
X232064260Y-113551770D01*
X232304940Y-113091900D01*
X232350680Y-112936240D01*
X232412720Y-113134530D01*
X232635740Y-113551770D01*
X233002500Y-113767890D01*
X234670400Y-112100000D01*
X235029610Y-112100000D01*
X236697500Y-113767890D01*
X237064260Y-113551770D01*
X237304940Y-113091900D01*
X237451280Y-112593900D01*
X237497650Y-112076930D01*
X237442270Y-111560840D01*
X237287280Y-111065470D01*
X237064260Y-110648230D01*
X236697500Y-110432110D01*
X235029610Y-112100000D01*
X234670400Y-112100000D01*
X233002500Y-110432110D01*
X232635740Y-110648230D01*
X232395060Y-111108110D01*
X232349320Y-111263760D01*
X232287280Y-111065470D01*
X232064260Y-110648230D01*
X231697500Y-110432110D01*
X230029610Y-112100000D01*
X229670400Y-112100000D01*
X228002500Y-110432110D01*
X227635740Y-110648230D01*
X227395060Y-111108110D01*
X227248730Y-111606100D01*
X227202350Y-112123070D01*
X207493510Y-112123070D01*
X207497650Y-112076930D01*
X207442270Y-111560840D01*
X207287280Y-111065470D01*
X207064260Y-110648230D01*
X206697500Y-110432110D01*
X205029610Y-112100000D01*
X204670400Y-112100000D01*
X203002500Y-110432110D01*
X202635740Y-110648230D01*
X202395060Y-111108110D01*
X202248730Y-111606100D01*
X202202350Y-112123070D01*
X200535000Y-112123070D01*
X200535000Y-110252500D01*
X203182110Y-110252500D01*
X204850000Y-111920400D01*
X206517890Y-110252500D01*
X228182110Y-110252500D01*
X229850000Y-111920400D01*
X231517890Y-110252500D01*
X233182110Y-110252500D01*
X234850000Y-111920400D01*
X236517890Y-110252500D01*
X236301770Y-109885740D01*
X235841900Y-109645060D01*
X235343900Y-109498730D01*
X234826930Y-109452350D01*
X234310840Y-109507730D01*
X233815470Y-109662720D01*
X233398230Y-109885740D01*
X233182110Y-110252500D01*
X231517890Y-110252500D01*
X231301770Y-109885740D01*
X230841900Y-109645060D01*
X230343900Y-109498730D01*
X229826930Y-109452350D01*
X229310840Y-109507730D01*
X228815470Y-109662720D01*
X228398230Y-109885740D01*
X228182110Y-110252500D01*
X206517890Y-110252500D01*
X206301770Y-109885740D01*
X205841900Y-109645060D01*
X205343900Y-109498730D01*
X204826930Y-109452350D01*
X204310840Y-109507730D01*
X203815470Y-109662720D01*
X203398230Y-109885740D01*
X203182110Y-110252500D01*
X200535000Y-110252500D01*
X200535000Y-109383640D01*
X200538310Y-109350000D01*
X200535000Y-109316360D01*
X200535000Y-109316350D01*
X200525090Y-109215720D01*
X200502000Y-109139610D01*
X200660000Y-109220000D01*
X202525000Y-107777000D01*
X202544730Y-107775460D01*
X202568820Y-107769200D01*
X202589040Y-107759420D01*
X203246940Y-107769390D01*
G37*
%TD.AperFunction*%
D10*
X235850000Y-112100000D02*
G75*
G02*
X233850000Y-112100000I-1000000J0D01*
G01*
X233850000Y-112100000D02*
G75*
G02*
X235850000Y-112100000I1000000J0D01*
G01*
X205850000Y-142100000D02*
G75*
G02*
X203850000Y-142100000I-1000000J0D01*
G01*
X203850000Y-142100000D02*
G75*
G02*
X205850000Y-142100000I1000000J0D01*
G01*
D11*
%TA.AperFunction,NonConductor*%
G36*
X209490000Y-127735000D02*
G01*
X205810000Y-127735000D01*
X205810000Y-126465000D01*
X209490000Y-126465000D01*
X209490000Y-127735000D01*
G37*
%TD.AperFunction*%
D10*
X235850000Y-142100000D02*
G75*
G02*
X233850000Y-142100000I-1000000J0D01*
G01*
X233850000Y-142100000D02*
G75*
G02*
X235850000Y-142100000I1000000J0D01*
G01*
D12*
%TO.N,*%
X231517890Y-143947500D02*
X233182110Y-143947500D01*
X237057030Y-107843150D02*
X239165000Y-107869170D01*
X207497650Y-142076930D02*
X207442270Y-141560840D01*
X239165000Y-110466350D02*
X239165000Y-146415000D01*
X233398230Y-144314260D02*
X233858110Y-144554940D01*
X206517890Y-113947500D02*
X228182110Y-113947500D01*
X212177000Y-125988750D02*
X212177000Y-126973000D01*
X206517890Y-143947500D02*
X228182110Y-143947500D01*
X200535000Y-122150000D02*
X200535000Y-113947500D01*
X228398230Y-109885740D02*
X228182110Y-110252500D01*
X229670400Y-112100000D02*
X230029610Y-112100000D01*
X204826930Y-109452350D02*
X204310840Y-109507730D01*
X205029610Y-112100000D02*
X204670400Y-112100000D01*
X232304940Y-143091900D02*
X232350680Y-142936240D01*
X203182110Y-143947500D02*
X200535000Y-143947500D01*
X234670400Y-142100000D02*
X233002500Y-140432110D01*
X224905600Y-132120560D02*
X224917330Y-132098600D01*
X200535000Y-142123070D02*
X202202350Y-142123070D01*
X203002500Y-110432110D02*
X202635740Y-110648230D01*
X202635740Y-113551770D02*
X203002500Y-113767890D01*
X224917330Y-132098600D02*
X224924560Y-132074780D01*
X231517890Y-140252500D02*
X233182110Y-140252500D01*
X200535000Y-112123070D02*
X200535000Y-110252500D01*
X224870560Y-122044400D02*
X224848600Y-122032670D01*
X230841900Y-139645060D02*
X230343900Y-139498730D01*
X214875220Y-122025440D02*
X214851400Y-122032670D01*
X207777000Y-125988750D02*
X207523000Y-125988750D01*
X235029610Y-112100000D02*
X234670400Y-112100000D01*
X205184190Y-126340520D02*
X205171930Y-126465000D01*
X210085520Y-125839190D02*
X209965820Y-125875500D01*
X202248730Y-141606100D02*
X202202350Y-142123070D01*
X232635740Y-140648230D02*
X232395060Y-141108110D01*
X202412720Y-143134530D02*
X202635740Y-143551770D01*
X203400000Y-107788310D02*
X203433640Y-107785000D01*
X203398230Y-144314260D02*
X203858110Y-144554940D01*
X234850000Y-112279610D02*
X233182110Y-113947500D01*
X234310840Y-109507730D02*
X233815470Y-109662720D01*
X239165000Y-107869170D02*
X239165000Y-110466340D01*
X207287280Y-141065470D02*
X207064260Y-140648230D01*
X228815470Y-109662720D02*
X228398230Y-109885740D01*
X230389160Y-144692270D02*
X230884530Y-144537280D01*
X209490000Y-125826930D02*
X207935750Y-125830000D01*
X233182110Y-143947500D02*
X231517890Y-143947500D01*
X237064260Y-110648230D02*
X236697500Y-110432110D01*
X231697500Y-113767890D02*
X232064260Y-113551770D01*
X230029610Y-142100000D02*
X231697500Y-143767890D01*
X203398230Y-109885740D02*
X203182110Y-110252500D01*
X207364250Y-125830000D02*
X205810000Y-125826930D01*
X212335750Y-128370000D02*
X213890000Y-128373070D01*
X211764250Y-128370000D02*
X211923000Y-128211250D01*
X205841900Y-139645060D02*
X205343900Y-139498730D01*
X211923000Y-125988750D02*
X211764250Y-125830000D01*
X203858110Y-144554940D02*
X204356100Y-144701280D01*
X229670400Y-142100000D02*
X230029610Y-142100000D01*
X237304940Y-113091900D02*
X237451280Y-112593900D01*
X228182110Y-143947500D02*
X228398230Y-144314260D01*
X205389160Y-114692270D02*
X205884530Y-114537280D01*
X227257730Y-142639160D02*
X227412720Y-143134530D01*
X206517890Y-140252500D02*
X206301770Y-139885740D01*
X206517890Y-110252500D02*
X206301770Y-109885740D01*
X207064260Y-110648230D02*
X206697500Y-110432110D01*
X200525090Y-109215720D02*
X200502000Y-109139610D01*
X232287280Y-141065470D02*
X232064260Y-140648230D01*
X202202350Y-112123070D02*
X200535000Y-112123070D01*
X205029610Y-142100000D02*
X204670400Y-142100000D01*
X232064260Y-110648230D02*
X231697500Y-110432110D01*
X224848600Y-132167330D02*
X224870560Y-132155600D01*
X227635740Y-110648230D02*
X227395060Y-111108110D01*
X236517890Y-113947500D02*
X234850000Y-112279610D01*
X200535000Y-110252500D02*
X200535000Y-109383640D01*
X205175000Y-127385750D02*
X205171930Y-127735000D01*
X214794400Y-132120560D02*
X214810200Y-132139800D01*
X212335750Y-125830000D02*
X212177000Y-125988750D01*
X202257730Y-112639160D02*
X202412720Y-113134530D01*
X233858110Y-144554940D02*
X234356100Y-144701280D01*
X214525000Y-127385750D02*
X214366250Y-127227000D01*
X236697500Y-143767890D02*
X237064260Y-143551770D01*
X236301770Y-109885740D02*
X235841900Y-109645060D01*
X239165000Y-110466340D02*
X239165000Y-110466350D01*
X236697500Y-113767890D02*
X237064260Y-113551770D01*
X203246940Y-107769390D02*
X203265710Y-107775090D01*
X235389160Y-114692270D02*
X235884530Y-114537280D01*
X234356100Y-144701280D02*
X234873070Y-144747650D01*
X233182110Y-140252500D02*
X234850000Y-141920400D01*
X224917330Y-122101400D02*
X224905600Y-122079440D01*
X207493510Y-142123070D02*
X227202350Y-142123070D01*
X229850000Y-142279610D02*
X228182110Y-143947500D01*
X224924560Y-122125220D02*
X224917330Y-122101400D01*
X200535000Y-127735000D02*
X200535000Y-126465000D01*
X235343900Y-109498730D02*
X234826930Y-109452350D01*
X202635740Y-140648230D02*
X202395060Y-141108110D01*
X236517890Y-143947500D02*
X234850000Y-142279610D01*
X209965820Y-128324500D02*
X210085520Y-128360810D01*
X200535000Y-109316360D02*
X200535000Y-109316350D01*
X200535000Y-109316350D02*
X200525090Y-109215720D01*
X227248730Y-141606100D02*
X227202350Y-142123070D01*
X204670400Y-112100000D02*
X205029610Y-112100000D01*
X200535000Y-127735000D02*
X205171930Y-127735000D01*
X214829440Y-122044400D02*
X214810200Y-122060200D01*
X209734180Y-128324500D02*
X209844490Y-128265540D01*
X214134180Y-128324500D02*
X214244490Y-128265540D01*
X203398230Y-114314260D02*
X203858110Y-114554940D01*
X230343900Y-139498730D02*
X229826930Y-139452350D01*
X227412720Y-113134530D02*
X227635740Y-113551770D01*
X202568820Y-107769200D02*
X202589040Y-107759420D01*
X224905600Y-122079440D02*
X224889800Y-122060200D01*
X204850000Y-111920400D02*
X206517890Y-110252500D01*
X230343900Y-109498730D02*
X229826930Y-109452350D01*
X205565820Y-125875500D02*
X205455510Y-125934460D01*
X200535000Y-112123070D02*
X202202350Y-112123070D01*
X202202350Y-142123070D02*
X202257730Y-142639160D01*
X207523000Y-128211250D02*
X207523000Y-127227000D01*
X214525000Y-126814250D02*
X214528070Y-126465000D01*
X202202350Y-142123070D02*
X200535000Y-142123070D01*
X205358820Y-128186190D02*
X205455510Y-128265540D01*
X205333750Y-127227000D02*
X205175000Y-127385750D01*
X214134180Y-125875500D02*
X214014480Y-125839190D01*
X210210000Y-128373070D02*
X211764250Y-128370000D01*
X235841900Y-139645060D02*
X235343900Y-139498730D01*
X214014480Y-128360810D02*
X214134180Y-128324500D01*
X200535000Y-146415000D02*
X200535000Y-143947500D01*
X231697500Y-143767890D02*
X232064260Y-143551770D01*
X229826930Y-109452350D02*
X229310840Y-109507730D01*
X235678140Y-107804720D02*
X235699950Y-107816720D01*
X214515810Y-126340520D02*
X214479500Y-126220820D01*
X229670400Y-112100000D02*
X228002500Y-110432110D01*
X211923000Y-128211250D02*
X211923000Y-127227000D01*
X236697500Y-140432110D02*
X235029610Y-142100000D01*
X207777000Y-127227000D02*
X207777000Y-128211250D01*
X237451280Y-112593900D02*
X237497650Y-112076930D01*
X206301770Y-114314260D02*
X206517890Y-113947500D01*
X205171930Y-126465000D02*
X200535000Y-126465000D01*
X232412720Y-143134530D02*
X232635740Y-143551770D01*
X234850000Y-142279610D02*
X233182110Y-143947500D01*
X206517890Y-113947500D02*
X204850000Y-112279610D01*
X214366250Y-126973000D02*
X214525000Y-126814250D01*
X214900000Y-122023000D02*
X214875220Y-122025440D01*
X233182110Y-110252500D02*
X234850000Y-111920400D01*
X207935750Y-125830000D02*
X207777000Y-125988750D01*
X230884530Y-144537280D02*
X231301770Y-144314260D01*
X227412720Y-143134530D02*
X227635740Y-143551770D01*
X227395060Y-111108110D02*
X227248730Y-111606100D01*
X230029610Y-142100000D02*
X229670400Y-142100000D01*
X233815470Y-109662720D02*
X233398230Y-109885740D01*
X233182110Y-143947500D02*
X233398230Y-144314260D01*
X214851400Y-122032670D02*
X214829440Y-122044400D01*
X205175000Y-126814250D02*
X205333750Y-126973000D01*
X205841900Y-109645060D02*
X205343900Y-109498730D01*
X230389160Y-114692270D02*
X230884530Y-114537280D01*
X210210000Y-125826930D02*
X210085520Y-125839190D01*
X203182110Y-140252500D02*
X200535000Y-140252500D01*
X214528070Y-127735000D02*
X214525000Y-127385750D01*
X227257730Y-112639160D02*
X227412720Y-113134530D01*
X224800000Y-122023000D02*
X214900000Y-122023000D01*
X214810200Y-132139800D02*
X214829440Y-132155600D01*
X233002500Y-143767890D02*
X234670400Y-142100000D01*
X207777000Y-126973000D02*
X211923000Y-126973000D01*
X209850000Y-125938980D02*
X209844490Y-125934460D01*
X235343900Y-139498730D02*
X234826930Y-139452350D01*
X232304940Y-113091900D02*
X232350680Y-112936240D01*
X204850000Y-112279610D02*
X203182110Y-113947500D01*
X205220500Y-127979180D02*
X205279460Y-128089490D01*
X200535000Y-110252500D02*
X203182110Y-110252500D01*
X203182110Y-113947500D02*
X200535000Y-113947500D01*
X205343900Y-109498730D02*
X204826930Y-109452350D01*
X214528070Y-126465000D02*
X214515810Y-126340520D01*
X228182110Y-110252500D02*
X206517890Y-110252500D01*
X211923000Y-126973000D02*
X211923000Y-125988750D01*
X206301770Y-109885740D02*
X205841900Y-109645060D01*
X229873070Y-144747650D02*
X230389160Y-144692270D01*
X214773000Y-122150000D02*
X200535000Y-122150000D01*
X205029610Y-112100000D02*
X206697500Y-113767890D01*
X204850000Y-141920400D02*
X206517890Y-140252500D01*
X230841900Y-109645060D02*
X230343900Y-109498730D01*
X233815470Y-139662720D02*
X233398230Y-139885740D01*
X205685520Y-128360810D02*
X205810000Y-128373070D01*
X233002500Y-113767890D02*
X234670400Y-112100000D01*
X228002500Y-113767890D02*
X229670400Y-112100000D01*
X233182110Y-110252500D02*
X231517890Y-110252500D01*
X204670400Y-112100000D02*
X203002500Y-110432110D01*
X203182110Y-110252500D02*
X204850000Y-111920400D01*
X206697500Y-110432110D02*
X205029610Y-112100000D01*
X209844490Y-125934460D02*
X209734180Y-125875500D01*
X214782670Y-122101400D02*
X214775440Y-122125220D01*
X203433640Y-107785000D02*
X235656220Y-107785000D01*
X214773000Y-132050000D02*
X214775440Y-132074780D01*
X205333750Y-126973000D02*
X207523000Y-126973000D01*
X235748430Y-107826990D02*
X236722180Y-107839010D01*
X237287280Y-141065470D02*
X237064260Y-140648230D01*
X228858110Y-114554940D02*
X229356100Y-114701280D01*
X204310840Y-139507730D02*
X203815470Y-139662720D01*
X203182110Y-140252500D02*
X204850000Y-141920400D01*
X209614480Y-125839190D02*
X209490000Y-125826930D01*
X213890000Y-125826930D02*
X212335750Y-125830000D01*
X237287280Y-111065470D02*
X237064260Y-110648230D01*
X232349320Y-111263760D02*
X232287280Y-111065470D01*
X207777000Y-125988750D02*
X207777000Y-126973000D01*
X232395060Y-141108110D02*
X232349320Y-141263760D01*
X232350680Y-142936240D02*
X232412720Y-143134530D01*
X232349320Y-141263760D02*
X232287280Y-141065470D01*
X203398230Y-139885740D02*
X203182110Y-140252500D01*
X210085520Y-128360810D02*
X210210000Y-128373070D01*
X205565820Y-128324500D02*
X205685520Y-128360810D01*
X204873070Y-144747650D02*
X205389160Y-144692270D01*
X207442270Y-111560840D02*
X207287280Y-111065470D01*
X205220500Y-126220820D02*
X205184190Y-126340520D01*
X206517890Y-143947500D02*
X204850000Y-142279610D01*
X234670400Y-142100000D02*
X235029610Y-142100000D01*
X233002500Y-140432110D02*
X232635740Y-140648230D01*
X234310840Y-139507730D02*
X233815470Y-139662720D01*
X234850000Y-111920400D02*
X236517890Y-110252500D01*
X231301770Y-144314260D02*
X231517890Y-143947500D01*
X203366360Y-107785000D02*
X203400000Y-107788310D01*
X227635740Y-140648230D02*
X227395060Y-141108110D01*
X227202350Y-112123070D02*
X227257730Y-112639160D01*
X212177000Y-127227000D02*
X211923000Y-127227000D01*
X235656220Y-107785000D02*
X235678140Y-107804720D01*
X206301770Y-139885740D02*
X205841900Y-139645060D01*
X237497650Y-142076930D02*
X237442270Y-141560840D01*
X228858110Y-144554940D02*
X229356100Y-144701280D01*
X214900000Y-132177000D02*
X224800000Y-132177000D01*
X232635740Y-113551770D02*
X233002500Y-113767890D01*
X231517890Y-143947500D02*
X229850000Y-142279610D01*
X203182110Y-110252500D02*
X200535000Y-110252500D01*
X205279460Y-128089490D02*
X205358820Y-128186190D01*
X202257730Y-142639160D02*
X202412720Y-143134530D01*
X237008610Y-107852780D02*
X237057030Y-107843150D01*
X229850000Y-112279610D02*
X228182110Y-113947500D01*
X231697500Y-140432110D02*
X230029610Y-142100000D01*
X204356100Y-144701280D02*
X204873070Y-144747650D01*
X214515810Y-127859480D02*
X214528070Y-127735000D01*
X237064260Y-143551770D02*
X237304940Y-143091900D01*
X205884530Y-114537280D02*
X206301770Y-114314260D01*
X211764250Y-125830000D02*
X210210000Y-125826930D01*
X231697500Y-110432110D02*
X230029610Y-112100000D01*
X207523000Y-127227000D02*
X205333750Y-127227000D01*
X204356100Y-114701280D02*
X204873070Y-114747650D01*
X228002500Y-140432110D02*
X227635740Y-140648230D01*
X203002500Y-143767890D02*
X204670400Y-142100000D01*
X228815470Y-139662720D02*
X228398230Y-139885740D01*
X224824780Y-132174560D02*
X224848600Y-132167330D01*
X204826930Y-139452350D02*
X204310840Y-139507730D01*
X235029610Y-112100000D02*
X236697500Y-113767890D01*
X207935750Y-128370000D02*
X209490000Y-128373070D01*
X234356100Y-114701280D02*
X234873070Y-114747650D01*
X235029610Y-142100000D02*
X236697500Y-143767890D01*
X229310840Y-109507730D02*
X228815470Y-109662720D01*
X207451280Y-112593900D02*
X207493510Y-112123070D01*
X204873070Y-114747650D02*
X205389160Y-114692270D01*
X232350680Y-112936240D02*
X232412720Y-113134530D01*
X214829440Y-132155600D02*
X214851400Y-132167330D01*
X207523000Y-125988750D02*
X207364250Y-125830000D01*
X235029610Y-142100000D02*
X234670400Y-142100000D01*
X202202350Y-112123070D02*
X202257730Y-112639160D01*
X235723690Y-107824240D02*
X235748430Y-107826990D01*
X207523000Y-127227000D02*
X207777000Y-127227000D01*
X212177000Y-127227000D02*
X212177000Y-128211250D01*
X232412720Y-113134530D02*
X232635740Y-113551770D01*
X203858110Y-114554940D02*
X204356100Y-114701280D01*
X228182110Y-113947500D02*
X206517890Y-113947500D01*
X236301770Y-144314260D02*
X236517890Y-143947500D01*
X235884530Y-144537280D02*
X236301770Y-144314260D01*
X229356100Y-114701280D02*
X229873070Y-114747650D01*
X228398230Y-139885740D02*
X228182110Y-140252500D01*
X202544730Y-107775460D02*
X202568820Y-107769200D01*
X233182110Y-113947500D02*
X233398230Y-114314260D01*
X214014480Y-125839190D02*
X213890000Y-125826930D01*
X236517890Y-110252500D02*
X236301770Y-109885740D01*
X214851400Y-132167330D02*
X214875220Y-132174560D01*
X200535000Y-113947500D02*
X203182110Y-113947500D01*
X206697500Y-113767890D02*
X207064260Y-113551770D01*
X239165000Y-146415000D02*
X200535000Y-146415000D01*
X235389160Y-144692270D02*
X235884530Y-144537280D01*
X228398230Y-144314260D02*
X228858110Y-144554940D01*
X227635740Y-113551770D02*
X228002500Y-113767890D01*
X214479500Y-127979180D02*
X214515810Y-127859480D01*
X209734180Y-125875500D02*
X209614480Y-125839190D01*
X214775440Y-132074780D02*
X214782670Y-132098600D01*
X203002500Y-140432110D02*
X202635740Y-140648230D01*
X227248730Y-111606100D02*
X227202350Y-112123070D01*
X224889800Y-122060200D02*
X224870560Y-122044400D01*
X207493510Y-142123070D02*
X207497650Y-142076930D01*
X204310840Y-109507730D02*
X203815470Y-109662720D01*
X200535000Y-122150000D02*
X214773000Y-122150000D01*
X228182110Y-140252500D02*
X206517890Y-140252500D01*
X200535000Y-126465000D02*
X205171930Y-126465000D01*
X214782670Y-132098600D02*
X214794400Y-132120560D01*
X205389160Y-144692270D02*
X205884530Y-144537280D01*
X209614480Y-128360810D02*
X209734180Y-128324500D01*
X237064260Y-113551770D02*
X237304940Y-113091900D01*
X228182110Y-113947500D02*
X228398230Y-114314260D01*
X202635740Y-110648230D02*
X202395060Y-111108110D01*
X207497650Y-112076930D02*
X207442270Y-111560840D01*
X205810000Y-125826930D02*
X205685520Y-125839190D01*
X228182110Y-143947500D02*
X206517890Y-143947500D01*
X228182110Y-140252500D02*
X229850000Y-141920400D01*
X235699950Y-107816720D02*
X235723690Y-107824240D01*
X234850000Y-141920400D02*
X236517890Y-140252500D01*
X200535000Y-142123070D02*
X200535000Y-140252500D01*
X202589040Y-107759420D02*
X203246940Y-107769390D01*
X207442270Y-141560840D02*
X207287280Y-141065470D01*
X209855510Y-128265540D02*
X209965820Y-128324500D01*
X204670400Y-142100000D02*
X205029610Y-142100000D01*
X236301770Y-139885740D02*
X235841900Y-139645060D01*
X237442270Y-141560840D02*
X237287280Y-141065470D01*
X224848600Y-122032670D02*
X224824780Y-122025440D01*
X230029610Y-112100000D02*
X229670400Y-112100000D01*
X211923000Y-125988750D02*
X212177000Y-125988750D01*
X205343900Y-139498730D02*
X204826930Y-139452350D01*
X230029610Y-112100000D02*
X231697500Y-113767890D01*
X203002500Y-113767890D02*
X204670400Y-112100000D01*
X229850000Y-111920400D02*
X231517890Y-110252500D01*
X234670400Y-112100000D02*
X235029610Y-112100000D01*
X212177000Y-126973000D02*
X214366250Y-126973000D01*
X207364250Y-128370000D02*
X207523000Y-128211250D01*
X232064260Y-143551770D02*
X232304940Y-143091900D01*
X224927000Y-132050000D02*
X224927000Y-122150000D01*
X207064260Y-140648230D02*
X206697500Y-140432110D01*
X209490000Y-128373070D02*
X209614480Y-128360810D01*
X224824780Y-122025440D02*
X224800000Y-122023000D01*
X234873070Y-144747650D02*
X235389160Y-144692270D01*
X233398230Y-109885740D02*
X233182110Y-110252500D01*
X206697500Y-140432110D02*
X205029610Y-142100000D01*
X231517890Y-113947500D02*
X229850000Y-112279610D01*
X214875220Y-132174560D02*
X214900000Y-132177000D01*
X235841900Y-109645060D02*
X235343900Y-109498730D01*
X200535000Y-143947500D02*
X200535000Y-142123070D01*
X229356100Y-144701280D02*
X229873070Y-144747650D01*
X231517890Y-140252500D02*
X231301770Y-139885740D01*
X205184190Y-127859480D02*
X205220500Y-127979180D01*
X203366350Y-107785000D02*
X203366360Y-107785000D01*
X233858110Y-114554940D02*
X234356100Y-114701280D01*
X200535000Y-143947500D02*
X203182110Y-143947500D01*
X205171930Y-126465000D02*
X205175000Y-126814250D01*
X205358820Y-126013820D02*
X205279460Y-126110510D01*
X204670400Y-142100000D02*
X203002500Y-140432110D01*
X214775440Y-122125220D02*
X214773000Y-122150000D01*
X232064260Y-113551770D02*
X232304940Y-113091900D01*
X228398230Y-114314260D02*
X228858110Y-114554940D01*
X228002500Y-143767890D02*
X229670400Y-142100000D01*
X227635740Y-143551770D02*
X228002500Y-143767890D01*
X205029610Y-142100000D02*
X206697500Y-143767890D01*
X207777000Y-128211250D02*
X207935750Y-128370000D01*
X207451280Y-142593900D02*
X207493510Y-142123070D01*
X205171930Y-127735000D02*
X205184190Y-127859480D01*
X203265720Y-107775090D02*
X203366350Y-107785000D01*
X214810200Y-122060200D02*
X214794400Y-122079440D01*
X205455510Y-125934460D02*
X205358820Y-126013820D01*
X212177000Y-128211250D02*
X212335750Y-128370000D01*
X227395060Y-141108110D02*
X227248730Y-141606100D01*
X227202350Y-142123070D02*
X207493510Y-142123070D01*
X207064260Y-143551770D02*
X207304940Y-143091900D01*
X214366250Y-127227000D02*
X212177000Y-127227000D01*
X204850000Y-142279610D02*
X203182110Y-143947500D01*
X224870560Y-132155600D02*
X224889800Y-132139800D01*
X237304940Y-143091900D02*
X237451280Y-142593900D01*
X233398230Y-139885740D02*
X233182110Y-140252500D01*
X207493510Y-112123070D02*
X227202350Y-112123070D01*
X209965820Y-125875500D02*
X209855510Y-125934460D01*
X233398230Y-114314260D02*
X233858110Y-114554940D01*
X205455510Y-128265540D02*
X205565820Y-128324500D01*
X224800000Y-132177000D02*
X224824780Y-132174560D01*
X236791390Y-107852780D02*
X237008610Y-107852780D01*
X211923000Y-127227000D02*
X212177000Y-127227000D01*
X207287280Y-111065470D02*
X207064260Y-110648230D01*
X232064260Y-140648230D02*
X231697500Y-140432110D01*
X234873070Y-114747650D02*
X235389160Y-114692270D01*
X200538310Y-109350000D02*
X200535000Y-109316360D01*
X207493510Y-112123070D02*
X207497650Y-112076930D01*
X200535000Y-140252500D02*
X203182110Y-140252500D01*
X207304940Y-113091900D02*
X207451280Y-112593900D01*
X205685520Y-125839190D02*
X205565820Y-125875500D01*
X227202350Y-142123070D02*
X227257730Y-142639160D01*
X214420540Y-126110510D02*
X214341190Y-126013820D01*
X214420540Y-128089490D02*
X214479500Y-127979180D01*
X205171930Y-127735000D02*
X200535000Y-127735000D01*
X229310840Y-139507730D02*
X228815470Y-139662720D01*
X214479500Y-126220820D02*
X214420540Y-126110510D01*
X200535000Y-113947500D02*
X200535000Y-112123070D01*
X224927000Y-122150000D02*
X224924560Y-122125220D01*
X214341190Y-126013820D02*
X214244490Y-125934460D01*
X235884530Y-114537280D02*
X236301770Y-114314260D01*
X205810000Y-128373070D02*
X207364250Y-128370000D01*
X203265710Y-107775090D02*
X203265720Y-107775090D01*
X237442270Y-111560840D02*
X237287280Y-111065470D01*
X214341190Y-128186190D02*
X214420540Y-128089490D01*
X206301770Y-144314260D02*
X206517890Y-143947500D01*
X232287280Y-111065470D02*
X232064260Y-110648230D01*
X211923000Y-127227000D02*
X207777000Y-127227000D01*
X203815470Y-139662720D02*
X203398230Y-139885740D01*
X233002500Y-110432110D02*
X232635740Y-110648230D01*
X228182110Y-110252500D02*
X229850000Y-111920400D01*
X202395060Y-111108110D02*
X202248730Y-111606100D01*
X224924560Y-132074780D02*
X224927000Y-132050000D01*
X236517890Y-140252500D02*
X236301770Y-139885740D01*
X207304940Y-143091900D02*
X207451280Y-142593900D01*
X205279460Y-126110510D02*
X205220500Y-126220820D01*
X209844490Y-128265540D02*
X209850000Y-128261020D01*
X227202350Y-112123070D02*
X207493510Y-112123070D01*
X236301770Y-114314260D02*
X236517890Y-113947500D01*
X203815470Y-109662720D02*
X203398230Y-109885740D01*
X200535000Y-140252500D02*
X200535000Y-127735000D01*
X200535000Y-109383640D02*
X200538310Y-109350000D01*
X231301770Y-139885740D02*
X230841900Y-139645060D01*
X231517890Y-110252500D02*
X231301770Y-109885740D01*
X236697500Y-110432110D02*
X235029610Y-112100000D01*
X232635740Y-110648230D02*
X232395060Y-111108110D01*
X213890000Y-128373070D02*
X214014480Y-128360810D01*
X234826930Y-139452350D02*
X234310840Y-139507730D01*
X232395060Y-111108110D02*
X232349320Y-111263760D01*
X234826930Y-109452350D02*
X234310840Y-109507730D01*
X202412720Y-113134530D02*
X202635740Y-113551770D01*
X209855510Y-125934460D02*
X209850000Y-125938980D01*
X229826930Y-139452350D02*
X229310840Y-139507730D01*
X229873070Y-114747650D02*
X230389160Y-114692270D01*
X237451280Y-142593900D02*
X237497650Y-142076930D01*
X202395060Y-141108110D02*
X202248730Y-141606100D01*
X231301770Y-109885740D02*
X230841900Y-109645060D01*
X214244490Y-125934460D02*
X214134180Y-125875500D01*
X206517890Y-140252500D02*
X228182110Y-140252500D01*
X202248730Y-111606100D02*
X202202350Y-112123070D01*
X233182110Y-140252500D02*
X231517890Y-140252500D01*
X209850000Y-128261020D02*
X209855510Y-128265540D01*
X237497650Y-112076930D02*
X237442270Y-111560840D01*
X207777000Y-127227000D02*
X207523000Y-127227000D01*
X231517890Y-113947500D02*
X233182110Y-113947500D01*
X203182110Y-143947500D02*
X203398230Y-144314260D01*
X228002500Y-110432110D02*
X227635740Y-110648230D01*
X214773000Y-122150000D02*
X214773000Y-132050000D01*
X206697500Y-143767890D02*
X207064260Y-143551770D01*
X200535000Y-126465000D02*
X200535000Y-122150000D01*
X233182110Y-113947500D02*
X231517890Y-113947500D01*
X232635740Y-143551770D02*
X233002500Y-143767890D01*
X237064260Y-140648230D02*
X236697500Y-140432110D01*
X202635740Y-143551770D02*
X203002500Y-143767890D01*
X214244490Y-128265540D02*
X214341190Y-128186190D01*
X224889800Y-132139800D02*
X224905600Y-132120560D01*
X203182110Y-113947500D02*
X203398230Y-114314260D01*
X207523000Y-125988750D02*
X207777000Y-125988750D01*
X205884530Y-144537280D02*
X206301770Y-144314260D01*
X230884530Y-114537280D02*
X231301770Y-114314260D01*
X229850000Y-141920400D02*
X231517890Y-140252500D01*
X231517890Y-110252500D02*
X233182110Y-110252500D01*
X212177000Y-125988750D02*
X211923000Y-125988750D01*
X229670400Y-142100000D02*
X228002500Y-140432110D01*
X206517890Y-110252500D02*
X228182110Y-110252500D01*
X207523000Y-126973000D02*
X207523000Y-125988750D01*
X214794400Y-122079440D02*
X214782670Y-122101400D01*
X236722180Y-107839010D02*
X236791390Y-107852780D01*
X231301770Y-114314260D02*
X231517890Y-113947500D01*
X207064260Y-113551770D02*
X207304940Y-113091900D01*
X234670400Y-112100000D02*
X233002500Y-110432110D01*
%TD*%
M02*
