%TF.GenerationSoftware,KiCad,Pcbnew,9.0.6*%
%TF.CreationDate,2026-03-18T12:59:56-04:00*%
%TF.ProjectId,SiPM_Board,5369504d-5f42-46f6-9172-642e6b696361,rev?*%
%TF.SameCoordinates,Original*%
%TF.FileFunction,Soldermask,Bot*%
%TF.FilePolarity,Negative*%
%FSLAX46Y46*%
G04 Gerber Fmt 4.6, Leading zero omitted, Abs format (unit mm)*
G04 Created by KiCad (PCBNEW 9.0.6) date 2026-03-18 12:59:56*
%MOMM*%
%LPD*%
G01*
G04 APERTURE LIST*
%ADD10C,0.000000*%
%ADD11C,2.000000*%
G04 APERTURE END LIST*
D10*
G36*
X213890000Y-125195000D02*
G01*
X210210000Y-125195000D01*
X210210000Y-123925000D01*
X213890000Y-123925000D01*
X213890000Y-125195000D01*
G37*
D11*
X235850000Y-142100000D02*
G75*
G02*
X233850000Y-142100000I-1000000J0D01*
G01*
X233850000Y-142100000D02*
G75*
G02*
X235850000Y-142100000I1000000J0D01*
G01*
D10*
G36*
X209490000Y-125195000D02*
G01*
X205810000Y-125195000D01*
X205810000Y-123925000D01*
X209490000Y-123925000D01*
X209490000Y-125195000D01*
G37*
G36*
X221550000Y-113925000D02*
G01*
X220300000Y-113925000D01*
X220300000Y-112425000D01*
X221550000Y-112425000D01*
X221550000Y-113925000D01*
G37*
G36*
X219275000Y-118900000D02*
G01*
X217975000Y-118900000D01*
X217975000Y-117400000D01*
X219275000Y-117400000D01*
X219275000Y-118900000D01*
G37*
G36*
X219275000Y-113925000D02*
G01*
X218025000Y-113925000D01*
X218025000Y-112425000D01*
X219275000Y-112425000D01*
X219275000Y-113925000D01*
G37*
G36*
X223800000Y-131050000D02*
G01*
X222300000Y-131050000D01*
X222300000Y-129550000D01*
X223800000Y-129550000D01*
X223800000Y-131050000D01*
G37*
G36*
X209490000Y-130275000D02*
G01*
X205810000Y-130275000D01*
X205810000Y-129005000D01*
X209490000Y-129005000D01*
X209490000Y-130275000D01*
G37*
G36*
X209490000Y-127735000D02*
G01*
X205810000Y-127735000D01*
X205810000Y-126465000D01*
X209490000Y-126465000D01*
X209490000Y-127735000D01*
G37*
D11*
X230850000Y-112100000D02*
G75*
G02*
X228850000Y-112100000I-1000000J0D01*
G01*
X228850000Y-112100000D02*
G75*
G02*
X230850000Y-112100000I1000000J0D01*
G01*
D10*
G36*
X213890000Y-127735000D02*
G01*
X210210000Y-127735000D01*
X210210000Y-126465000D01*
X213890000Y-126465000D01*
X213890000Y-127735000D01*
G37*
D11*
X205850000Y-142100000D02*
G75*
G02*
X203850000Y-142100000I-1000000J0D01*
G01*
X203850000Y-142100000D02*
G75*
G02*
X205850000Y-142100000I1000000J0D01*
G01*
X205850000Y-112100000D02*
G75*
G02*
X203850000Y-112100000I-1000000J0D01*
G01*
X203850000Y-112100000D02*
G75*
G02*
X205850000Y-112100000I1000000J0D01*
G01*
D10*
G36*
X219275000Y-121600000D02*
G01*
X217975000Y-121600000D01*
X217975000Y-120100000D01*
X219275000Y-120100000D01*
X219275000Y-121600000D01*
G37*
G36*
X217050000Y-113925000D02*
G01*
X215800000Y-113925000D01*
X215800000Y-112425000D01*
X217050000Y-112425000D01*
X217050000Y-113925000D01*
G37*
G36*
X223850000Y-116425000D02*
G01*
X222600000Y-116425000D01*
X222600000Y-114925000D01*
X223850000Y-114925000D01*
X223850000Y-116425000D01*
G37*
G36*
X221550000Y-116425000D02*
G01*
X220300000Y-116425000D01*
X220300000Y-114925000D01*
X221550000Y-114925000D01*
X221550000Y-116425000D01*
G37*
G36*
X221575000Y-121600000D02*
G01*
X220275000Y-121600000D01*
X220275000Y-120100000D01*
X221575000Y-120100000D01*
X221575000Y-121600000D01*
G37*
D11*
X235850000Y-112100000D02*
G75*
G02*
X233850000Y-112100000I-1000000J0D01*
G01*
X233850000Y-112100000D02*
G75*
G02*
X235850000Y-112100000I1000000J0D01*
G01*
D10*
G36*
X223850000Y-113925000D02*
G01*
X222600000Y-113925000D01*
X222600000Y-112425000D01*
X223850000Y-112425000D01*
X223850000Y-113925000D01*
G37*
G36*
X220300000Y-134550000D02*
G01*
X219000000Y-134550000D01*
X219000000Y-133050000D01*
X220300000Y-133050000D01*
X220300000Y-134550000D01*
G37*
G36*
X217050000Y-116425000D02*
G01*
X215800000Y-116425000D01*
X215800000Y-114925000D01*
X217050000Y-114925000D01*
X217050000Y-116425000D01*
G37*
G36*
X220300000Y-137250000D02*
G01*
X219000000Y-137250000D01*
X219000000Y-135750000D01*
X220300000Y-135750000D01*
X220300000Y-137250000D01*
G37*
G36*
X221575000Y-118900000D02*
G01*
X220275000Y-118900000D01*
X220275000Y-117400000D01*
X221575000Y-117400000D01*
X221575000Y-118900000D01*
G37*
G36*
X213890000Y-130275000D02*
G01*
X210210000Y-130275000D01*
X210210000Y-129005000D01*
X213890000Y-129005000D01*
X213890000Y-130275000D01*
G37*
D11*
X230850000Y-142100000D02*
G75*
G02*
X228850000Y-142100000I-1000000J0D01*
G01*
X228850000Y-142100000D02*
G75*
G02*
X230850000Y-142100000I1000000J0D01*
G01*
D10*
G36*
X219275000Y-116425000D02*
G01*
X218025000Y-116425000D01*
X218025000Y-114925000D01*
X219275000Y-114925000D01*
X219275000Y-116425000D01*
G37*
G36*
X217400000Y-124650000D02*
G01*
X215900000Y-124650000D01*
X215900000Y-123150000D01*
X217400000Y-123150000D01*
X217400000Y-124650000D01*
G37*
M02*
