%TF.GenerationSoftware,KiCad,Pcbnew,9.0.6*%
%TF.CreationDate,2026-03-18T12:59:56-04:00*%
%TF.ProjectId,SiPM_Board,5369504d-5f42-46f6-9172-642e6b696361,rev?*%
%TF.SameCoordinates,Original*%
%TF.FileFunction,Legend,Top*%
%TF.FilePolarity,Positive*%
%FSLAX46Y46*%
G04 Gerber Fmt 4.6, Leading zero omitted, Abs format (unit mm)*
G04 Created by KiCad (PCBNEW 9.0.6) date 2026-03-18 12:59:56*
%MOMM*%
%LPD*%
G01*
G04 APERTURE LIST*
%ADD10C,0.150000*%
G04 APERTURE END LIST*
D10*
X218725000Y-127058330D02*
X218758330Y-127125000D01*
X217850000Y-125100000D02*
X216350000Y-125100000D01*
X218458330Y-127725000D02*
X218425000Y-127691670D01*
X218891670Y-128025000D02*
X218825000Y-128058330D01*
X218425000Y-127758330D02*
X218458330Y-127725000D01*
X221850000Y-130600000D02*
X217850000Y-130600000D01*
X218391670Y-126225000D02*
X219091670Y-126225000D01*
X219091670Y-127725000D02*
X218625000Y-127725000D01*
X217850000Y-125100000D02*
X217850000Y-123600000D01*
X218658330Y-128391670D02*
X218591670Y-128425000D01*
X223350000Y-129100000D02*
X223350000Y-125100000D01*
X218391670Y-128125000D02*
X218425000Y-128025000D01*
X223350000Y-129100000D02*
X221850000Y-129100000D01*
X219091670Y-126691670D02*
X218391670Y-126691670D01*
X218391670Y-127725000D02*
X218425000Y-127758330D01*
X218525000Y-126991670D02*
X218625000Y-126991670D01*
X218391670Y-127125000D02*
X218425000Y-127058330D01*
X218591670Y-128425000D02*
X218525000Y-128425000D01*
X219025000Y-128058330D02*
X218958330Y-128025000D01*
X221850000Y-129100000D02*
X221850000Y-130600000D01*
X219058330Y-128091670D02*
X219025000Y-128058330D01*
X221850000Y-123600000D02*
X217850000Y-123600000D01*
X218391670Y-128291670D02*
X218391670Y-128125000D01*
X218391670Y-125725000D02*
X218491670Y-125791670D01*
X218391670Y-127391670D02*
X218391670Y-127125000D01*
X218891670Y-126458330D02*
X218391670Y-126225000D01*
X219058330Y-128425000D02*
X219091670Y-128325000D01*
X218758330Y-128158330D02*
X218725000Y-128291670D01*
X218391670Y-127725000D02*
X218458330Y-127725000D01*
X218691670Y-128358330D02*
X218658330Y-128391670D01*
X218425000Y-127058330D02*
X218458330Y-127025000D01*
X218391670Y-126691670D02*
X218891670Y-126458330D01*
X219091670Y-128158330D02*
X219058330Y-128091670D01*
X219091670Y-125525000D02*
X219091670Y-125925000D01*
X221850000Y-125100000D02*
X221850000Y-123600000D01*
X218425000Y-128358330D02*
X218391670Y-128291670D01*
X218491670Y-125791670D02*
X218558330Y-125858330D01*
X218525000Y-128425000D02*
X218458330Y-128391670D01*
X218458330Y-127025000D02*
X218525000Y-126991670D01*
X218558330Y-125858330D02*
X218591670Y-125925000D01*
X221850000Y-123600000D02*
X221850000Y-125100000D01*
X218425000Y-127691670D02*
X218391670Y-127725000D01*
X218625000Y-126991670D02*
X218691670Y-127025000D01*
X218691670Y-127025000D02*
X218725000Y-127058330D01*
X219091670Y-127391670D02*
X218391670Y-127391670D01*
X218958330Y-128025000D02*
X218891670Y-128025000D01*
X218458330Y-128391670D02*
X218425000Y-128358330D01*
X216350000Y-129100000D02*
X216350000Y-125100000D01*
X223350000Y-129100000D02*
X221850000Y-129100000D01*
X217850000Y-130600000D02*
X217850000Y-129100000D01*
X218825000Y-128058330D02*
X218791670Y-128091670D01*
X216350000Y-125100000D02*
X217850000Y-125100000D01*
X218758330Y-127125000D02*
X218758330Y-127391670D01*
X216350000Y-129100000D02*
X217850000Y-129100000D01*
X218725000Y-128291670D02*
X218691670Y-128358330D01*
X219091670Y-125725000D02*
X218391670Y-125725000D01*
X219091670Y-128325000D02*
X219091670Y-128158330D01*
X221850000Y-125100000D02*
X223350000Y-125100000D01*
X221650000Y-129900000D02*
G75*
G02*
X220650000Y-129900000I-500000J0D01*
G01*
X220650000Y-129900000D02*
G75*
G02*
X221650000Y-129900000I500000J0D01*
G01*
X218791670Y-128091670D02*
X218758330Y-128158330D01*
M02*
