<?xml version="1.0" standalone="no"?>
 <!DOCTYPE svg PUBLIC "-//W3C//DTD SVG 1.1//EN" 
 "http://www.w3.org/Graphics/SVG/1.1/DTD/svg11.dtd"> 
<svg
  xmlns:svg="http://www.w3.org/2000/svg"
  xmlns="http://www.w3.org/2000/svg"
  xmlns:xlink="http://www.w3.org/1999/xlink"
  version="1.1"
  width="297.0022mm" height="210.0072mm" viewBox="0.0000 0.0000 297.0022 210.0072">
<title>SVG Image created as Electrode-PTH-drl_map.svg date 2026/03/13 11:51:58 </title>
  <desc>Image generated by PCBNEW </desc>
<g style="fill:#000000; fill-opacity:1.0000;stroke:#000000; stroke-opacity:1.0000;
stroke-linecap:round; stroke-linejoin:round;"
 transform="translate(0 0) scale(1 1)">
<path style="fill:none; 
stroke:#000000; stroke-width:0.0652; stroke-opacity:1; 
stroke-linecap:round; stroke-linejoin:round;fill:none"
d="M 90.5315,5.0326
206.4707,5.0326
206.4707,120.9717
90.5315,120.9717
Z" /> 
</g>
<g style="fill:none; 
stroke:#000000; stroke-width:0.1304; stroke-opacity:1; 
stroke-linecap:round; stroke-linejoin:round;">
<path d="M148.3055 62.8065
L148.6967 63.1978
" />
<path d="M148.6967 62.8065
L148.3055 63.1978
" />
<path d="M204.6188 9.8058
L205.0100 10.1970
" />
<path d="M205.0100 9.8058
L204.6188 10.1970
" />
</g>
<g style="fill:none; 
stroke:#000000; stroke-width:0.2000; stroke-opacity:1; 
stroke-linecap:round; stroke-linejoin:round;">
<text x="92.4989" y="124.2043"
textLength="14.8667" font-size="2.6667" lengthAdjust="spacingAndGlyphs"
text-anchor="start" opacity="0" stroke-opacity="0">Drill Map:</text>
<g class="stroked-text"><desc>Drill Map:</desc>
<path d="M93.1067 124.1192
L93.1067 122.1192
" />
<path d="M93.1067 122.1192
L93.5829 122.1192
" />
<path d="M93.5829 122.1192
L93.8686 122.2144
" />
<path d="M93.8686 122.2144
L94.0591 122.4049
" />
<path d="M94.0591 122.4049
L94.1543 122.5953
" />
<path d="M94.1543 122.5953
L94.2496 122.9763
" />
<path d="M94.2496 122.9763
L94.2496 123.2620
" />
<path d="M94.2496 123.2620
L94.1543 123.6430
" />
<path d="M94.1543 123.6430
L94.0591 123.8334
" />
<path d="M94.0591 123.8334
L93.8686 124.0239
" />
<path d="M93.8686 124.0239
L93.5829 124.1192
" />
<path d="M93.5829 124.1192
L93.1067 124.1192
" />
<path d="M95.1067 124.1192
L95.1067 122.7858
" />
<path d="M95.1067 123.1668
L95.2019 122.9763
" />
<path d="M95.2019 122.9763
L95.2972 122.8811
" />
<path d="M95.2972 122.8811
L95.4877 122.7858
" />
<path d="M95.4877 122.7858
L95.6781 122.7858
" />
<path d="M96.3448 124.1192
L96.3448 122.7858
" />
<path d="M96.3448 122.1192
L96.2496 122.2144
" />
<path d="M96.2496 122.2144
L96.3448 122.3096
" />
<path d="M96.3448 122.3096
L96.4400 122.2144
" />
<path d="M96.4400 122.2144
L96.3448 122.1192
" />
<path d="M96.3448 122.1192
L96.3448 122.3096
" />
<path d="M97.5829 124.1192
L97.3924 124.0239
" />
<path d="M97.3924 124.0239
L97.2972 123.8334
" />
<path d="M97.2972 123.8334
L97.2972 122.1192
" />
<path d="M98.6305 124.1192
L98.4400 124.0239
" />
<path d="M98.4400 124.0239
L98.3448 123.8334
" />
<path d="M98.3448 123.8334
L98.3448 122.1192
" />
<path d="M100.9162 124.1192
L100.9162 122.1192
" />
<path d="M100.9162 122.1192
L101.5829 123.5477
" />
<path d="M101.5829 123.5477
L102.2496 122.1192
" />
<path d="M102.2496 122.1192
L102.2496 124.1192
" />
<path d="M104.0591 124.1192
L104.0591 123.0715
" />
<path d="M104.0591 123.0715
L103.9639 122.8811
" />
<path d="M103.9639 122.8811
L103.7734 122.7858
" />
<path d="M103.7734 122.7858
L103.3924 122.7858
" />
<path d="M103.3924 122.7858
L103.2020 122.8811
" />
<path d="M104.0591 124.0239
L103.8686 124.1192
" />
<path d="M103.8686 124.1192
L103.3924 124.1192
" />
<path d="M103.3924 124.1192
L103.2020 124.0239
" />
<path d="M103.2020 124.0239
L103.1067 123.8334
" />
<path d="M103.1067 123.8334
L103.1067 123.6430
" />
<path d="M103.1067 123.6430
L103.2020 123.4525
" />
<path d="M103.2020 123.4525
L103.3924 123.3573
" />
<path d="M103.3924 123.3573
L103.8686 123.3573
" />
<path d="M103.8686 123.3573
L104.0591 123.2620
" />
<path d="M105.0115 122.7858
L105.0115 124.7858
" />
<path d="M105.0115 122.8811
L105.2020 122.7858
" />
<path d="M105.2020 122.7858
L105.5829 122.7858
" />
<path d="M105.5829 122.7858
L105.7734 122.8811
" />
<path d="M105.7734 122.8811
L105.8686 122.9763
" />
<path d="M105.8686 122.9763
L105.9639 123.1668
" />
<path d="M105.9639 123.1668
L105.9639 123.7382
" />
<path d="M105.9639 123.7382
L105.8686 123.9287
" />
<path d="M105.8686 123.9287
L105.7734 124.0239
" />
<path d="M105.7734 124.0239
L105.5829 124.1192
" />
<path d="M105.5829 124.1192
L105.2020 124.1192
" />
<path d="M105.2020 124.1192
L105.0115 124.0239
" />
<path d="M106.8210 123.9287
L106.9162 124.0239
" />
<path d="M106.9162 124.0239
L106.8210 124.1192
" />
<path d="M106.8210 124.1192
L106.7258 124.0239
" />
<path d="M106.7258 124.0239
L106.8210 123.9287
" />
<path d="M106.8210 123.9287
L106.8210 124.1192
" />
<path d="M106.8210 122.8811
L106.9162 122.9763
" />
<path d="M106.9162 122.9763
L106.8210 123.0715
" />
<path d="M106.8210 123.0715
L106.7258 122.9763
" />
<path d="M106.7258 122.9763
L106.8210 122.8811
" />
<path d="M106.8210 122.8811
L106.8210 123.0715
" />
</g></g>
<g style="fill:none; 
stroke:#000000; stroke-width:0.1304; stroke-opacity:1; 
stroke-linecap:round; stroke-linejoin:round;">
<path d="M90.1077 127.2087
L90.4989 127.5999
" />
<path d="M90.4989 127.2087
L90.1077 127.5999
" />
</g>
<g style="fill:none; 
stroke:#000000; stroke-width:0.2000; stroke-opacity:1; 
stroke-linecap:round; stroke-linejoin:round;">
<text x="92.4989" y="128.4043"
textLength="46.8667" font-size="2.6667" lengthAdjust="spacingAndGlyphs"
text-anchor="start" opacity="0" stroke-opacity="0">0.300mm / 0.0118" (2 holes)</text>
<g class="stroked-text"><desc>0.300mm / 0.0118" (2 holes)</desc>
<path d="M93.4877 126.3192
L93.6781 126.3192
" />
<path d="M93.6781 126.3192
L93.8686 126.4144
" />
<path d="M93.8686 126.4144
L93.9639 126.5096
" />
<path d="M93.9639 126.5096
L94.0591 126.7001
" />
<path d="M94.0591 126.7001
L94.1543 127.0811
" />
<path d="M94.1543 127.0811
L94.1543 127.5573
" />
<path d="M94.1543 127.5573
L94.0591 127.9382
" />
<path d="M94.0591 127.9382
L93.9639 128.1287
" />
<path d="M93.9639 128.1287
L93.8686 128.2239
" />
<path d="M93.8686 128.2239
L93.6781 128.3192
" />
<path d="M93.6781 128.3192
L93.4877 128.3192
" />
<path d="M93.4877 128.3192
L93.2972 128.2239
" />
<path d="M93.2972 128.2239
L93.2019 128.1287
" />
<path d="M93.2019 128.1287
L93.1067 127.9382
" />
<path d="M93.1067 127.9382
L93.0115 127.5573
" />
<path d="M93.0115 127.5573
L93.0115 127.0811
" />
<path d="M93.0115 127.0811
L93.1067 126.7001
" />
<path d="M93.1067 126.7001
L93.2019 126.5096
" />
<path d="M93.2019 126.5096
L93.2972 126.4144
" />
<path d="M93.2972 126.4144
L93.4877 126.3192
" />
<path d="M95.0115 128.1287
L95.1067 128.2239
" />
<path d="M95.1067 128.2239
L95.0115 128.3192
" />
<path d="M95.0115 128.3192
L94.9162 128.2239
" />
<path d="M94.9162 128.2239
L95.0115 128.1287
" />
<path d="M95.0115 128.1287
L95.0115 128.3192
" />
<path d="M95.7734 126.3192
L97.0115 126.3192
" />
<path d="M97.0115 126.3192
L96.3448 127.0811
" />
<path d="M96.3448 127.0811
L96.6305 127.0811
" />
<path d="M96.6305 127.0811
L96.8210 127.1763
" />
<path d="M96.8210 127.1763
L96.9162 127.2715
" />
<path d="M96.9162 127.2715
L97.0115 127.4620
" />
<path d="M97.0115 127.4620
L97.0115 127.9382
" />
<path d="M97.0115 127.9382
L96.9162 128.1287
" />
<path d="M96.9162 128.1287
L96.8210 128.2239
" />
<path d="M96.8210 128.2239
L96.6305 128.3192
" />
<path d="M96.6305 128.3192
L96.0591 128.3192
" />
<path d="M96.0591 128.3192
L95.8686 128.2239
" />
<path d="M95.8686 128.2239
L95.7734 128.1287
" />
<path d="M98.2496 126.3192
L98.4400 126.3192
" />
<path d="M98.4400 126.3192
L98.6305 126.4144
" />
<path d="M98.6305 126.4144
L98.7258 126.5096
" />
<path d="M98.7258 126.5096
L98.8210 126.7001
" />
<path d="M98.8210 126.7001
L98.9162 127.0811
" />
<path d="M98.9162 127.0811
L98.9162 127.5573
" />
<path d="M98.9162 127.5573
L98.8210 127.9382
" />
<path d="M98.8210 127.9382
L98.7258 128.1287
" />
<path d="M98.7258 128.1287
L98.6305 128.2239
" />
<path d="M98.6305 128.2239
L98.4400 128.3192
" />
<path d="M98.4400 128.3192
L98.2496 128.3192
" />
<path d="M98.2496 128.3192
L98.0591 128.2239
" />
<path d="M98.0591 128.2239
L97.9639 128.1287
" />
<path d="M97.9639 128.1287
L97.8686 127.9382
" />
<path d="M97.8686 127.9382
L97.7734 127.5573
" />
<path d="M97.7734 127.5573
L97.7734 127.0811
" />
<path d="M97.7734 127.0811
L97.8686 126.7001
" />
<path d="M97.8686 126.7001
L97.9639 126.5096
" />
<path d="M97.9639 126.5096
L98.0591 126.4144
" />
<path d="M98.0591 126.4144
L98.2496 126.3192
" />
<path d="M100.1543 126.3192
L100.3448 126.3192
" />
<path d="M100.3448 126.3192
L100.5353 126.4144
" />
<path d="M100.5353 126.4144
L100.6305 126.5096
" />
<path d="M100.6305 126.5096
L100.7258 126.7001
" />
<path d="M100.7258 126.7001
L100.8210 127.0811
" />
<path d="M100.8210 127.0811
L100.8210 127.5573
" />
<path d="M100.8210 127.5573
L100.7258 127.9382
" />
<path d="M100.7258 127.9382
L100.6305 128.1287
" />
<path d="M100.6305 128.1287
L100.5353 128.2239
" />
<path d="M100.5353 128.2239
L100.3448 128.3192
" />
<path d="M100.3448 128.3192
L100.1543 128.3192
" />
<path d="M100.1543 128.3192
L99.9639 128.2239
" />
<path d="M99.9639 128.2239
L99.8686 128.1287
" />
<path d="M99.8686 128.1287
L99.7734 127.9382
" />
<path d="M99.7734 127.9382
L99.6781 127.5573
" />
<path d="M99.6781 127.5573
L99.6781 127.0811
" />
<path d="M99.6781 127.0811
L99.7734 126.7001
" />
<path d="M99.7734 126.7001
L99.8686 126.5096
" />
<path d="M99.8686 126.5096
L99.9639 126.4144
" />
<path d="M99.9639 126.4144
L100.1543 126.3192
" />
<path d="M101.6781 128.3192
L101.6781 126.9858
" />
<path d="M101.6781 127.1763
L101.7734 127.0811
" />
<path d="M101.7734 127.0811
L101.9639 126.9858
" />
<path d="M101.9639 126.9858
L102.2496 126.9858
" />
<path d="M102.2496 126.9858
L102.4400 127.0811
" />
<path d="M102.4400 127.0811
L102.5353 127.2715
" />
<path d="M102.5353 127.2715
L102.5353 128.3192
" />
<path d="M102.5353 127.2715
L102.6305 127.0811
" />
<path d="M102.6305 127.0811
L102.8210 126.9858
" />
<path d="M102.8210 126.9858
L103.1067 126.9858
" />
<path d="M103.1067 126.9858
L103.2972 127.0811
" />
<path d="M103.2972 127.0811
L103.3924 127.2715
" />
<path d="M103.3924 127.2715
L103.3924 128.3192
" />
<path d="M104.3448 128.3192
L104.3448 126.9858
" />
<path d="M104.3448 127.1763
L104.4400 127.0811
" />
<path d="M104.4400 127.0811
L104.6305 126.9858
" />
<path d="M104.6305 126.9858
L104.9162 126.9858
" />
<path d="M104.9162 126.9858
L105.1067 127.0811
" />
<path d="M105.1067 127.0811
L105.2020 127.2715
" />
<path d="M105.2020 127.2715
L105.2020 128.3192
" />
<path d="M105.2020 127.2715
L105.2972 127.0811
" />
<path d="M105.2972 127.0811
L105.4877 126.9858
" />
<path d="M105.4877 126.9858
L105.7734 126.9858
" />
<path d="M105.7734 126.9858
L105.9639 127.0811
" />
<path d="M105.9639 127.0811
L106.0591 127.2715
" />
<path d="M106.0591 127.2715
L106.0591 128.3192
" />
<path d="M109.9639 126.2239
L108.2496 128.7954
" />
<path d="M112.5353 126.3192
L112.7258 126.3192
" />
<path d="M112.7258 126.3192
L112.9162 126.4144
" />
<path d="M112.9162 126.4144
L113.0115 126.5096
" />
<path d="M113.0115 126.5096
L113.1067 126.7001
" />
<path d="M113.1067 126.7001
L113.2020 127.0811
" />
<path d="M113.2020 127.0811
L113.2020 127.5573
" />
<path d="M113.2020 127.5573
L113.1067 127.9382
" />
<path d="M113.1067 127.9382
L113.0115 128.1287
" />
<path d="M113.0115 128.1287
L112.9162 128.2239
" />
<path d="M112.9162 128.2239
L112.7258 128.3192
" />
<path d="M112.7258 128.3192
L112.5353 128.3192
" />
<path d="M112.5353 128.3192
L112.3448 128.2239
" />
<path d="M112.3448 128.2239
L112.2496 128.1287
" />
<path d="M112.2496 128.1287
L112.1543 127.9382
" />
<path d="M112.1543 127.9382
L112.0591 127.5573
" />
<path d="M112.0591 127.5573
L112.0591 127.0811
" />
<path d="M112.0591 127.0811
L112.1543 126.7001
" />
<path d="M112.1543 126.7001
L112.2496 126.5096
" />
<path d="M112.2496 126.5096
L112.3448 126.4144
" />
<path d="M112.3448 126.4144
L112.5353 126.3192
" />
<path d="M114.0591 128.1287
L114.1543 128.2239
" />
<path d="M114.1543 128.2239
L114.0591 128.3192
" />
<path d="M114.0591 128.3192
L113.9639 128.2239
" />
<path d="M113.9639 128.2239
L114.0591 128.1287
" />
<path d="M114.0591 128.1287
L114.0591 128.3192
" />
<path d="M115.3924 126.3192
L115.5829 126.3192
" />
<path d="M115.5829 126.3192
L115.7734 126.4144
" />
<path d="M115.7734 126.4144
L115.8686 126.5096
" />
<path d="M115.8686 126.5096
L115.9639 126.7001
" />
<path d="M115.9639 126.7001
L116.0591 127.0811
" />
<path d="M116.0591 127.0811
L116.0591 127.5573
" />
<path d="M116.0591 127.5573
L115.9639 127.9382
" />
<path d="M115.9639 127.9382
L115.8686 128.1287
" />
<path d="M115.8686 128.1287
L115.7734 128.2239
" />
<path d="M115.7734 128.2239
L115.5829 128.3192
" />
<path d="M115.5829 128.3192
L115.3924 128.3192
" />
<path d="M115.3924 128.3192
L115.2020 128.2239
" />
<path d="M115.2020 128.2239
L115.1067 128.1287
" />
<path d="M115.1067 128.1287
L115.0115 127.9382
" />
<path d="M115.0115 127.9382
L114.9162 127.5573
" />
<path d="M114.9162 127.5573
L114.9162 127.0811
" />
<path d="M114.9162 127.0811
L115.0115 126.7001
" />
<path d="M115.0115 126.7001
L115.1067 126.5096
" />
<path d="M115.1067 126.5096
L115.2020 126.4144
" />
<path d="M115.2020 126.4144
L115.3924 126.3192
" />
<path d="M117.9639 128.3192
L116.8210 128.3192
" />
<path d="M117.3924 128.3192
L117.3924 126.3192
" />
<path d="M117.3924 126.3192
L117.2020 126.6049
" />
<path d="M117.2020 126.6049
L117.0115 126.7953
" />
<path d="M117.0115 126.7953
L116.8210 126.8906
" />
<path d="M119.8686 128.3192
L118.7258 128.3192
" />
<path d="M119.2972 128.3192
L119.2972 126.3192
" />
<path d="M119.2972 126.3192
L119.1067 126.6049
" />
<path d="M119.1067 126.6049
L118.9162 126.7953
" />
<path d="M118.9162 126.7953
L118.7258 126.8906
" />
<path d="M121.0115 127.1763
L120.8210 127.0811
" />
<path d="M120.8210 127.0811
L120.7258 126.9858
" />
<path d="M120.7258 126.9858
L120.6305 126.7953
" />
<path d="M120.6305 126.7953
L120.6305 126.7001
" />
<path d="M120.6305 126.7001
L120.7258 126.5096
" />
<path d="M120.7258 126.5096
L120.8210 126.4144
" />
<path d="M120.8210 126.4144
L121.0115 126.3192
" />
<path d="M121.0115 126.3192
L121.3924 126.3192
" />
<path d="M121.3924 126.3192
L121.5829 126.4144
" />
<path d="M121.5829 126.4144
L121.6781 126.5096
" />
<path d="M121.6781 126.5096
L121.7734 126.7001
" />
<path d="M121.7734 126.7001
L121.7734 126.7953
" />
<path d="M121.7734 126.7953
L121.6781 126.9858
" />
<path d="M121.6781 126.9858
L121.5829 127.0811
" />
<path d="M121.5829 127.0811
L121.3924 127.1763
" />
<path d="M121.3924 127.1763
L121.0115 127.1763
" />
<path d="M121.0115 127.1763
L120.8210 127.2715
" />
<path d="M120.8210 127.2715
L120.7258 127.3668
" />
<path d="M120.7258 127.3668
L120.6305 127.5573
" />
<path d="M120.6305 127.5573
L120.6305 127.9382
" />
<path d="M120.6305 127.9382
L120.7258 128.1287
" />
<path d="M120.7258 128.1287
L120.8210 128.2239
" />
<path d="M120.8210 128.2239
L121.0115 128.3192
" />
<path d="M121.0115 128.3192
L121.3924 128.3192
" />
<path d="M121.3924 128.3192
L121.5829 128.2239
" />
<path d="M121.5829 128.2239
L121.6781 128.1287
" />
<path d="M121.6781 128.1287
L121.7734 127.9382
" />
<path d="M121.7734 127.9382
L121.7734 127.5573
" />
<path d="M121.7734 127.5573
L121.6781 127.3668
" />
<path d="M121.6781 127.3668
L121.5829 127.2715
" />
<path d="M121.5829 127.2715
L121.3924 127.1763
" />
<path d="M122.5353 126.3192
L122.5353 126.7001
" />
<path d="M123.2972 126.3192
L123.2972 126.7001
" />
<path d="M126.2496 129.0811
L126.1543 128.9858
" />
<path d="M126.1543 128.9858
L125.9639 128.7001
" />
<path d="M125.9639 128.7001
L125.8686 128.5096
" />
<path d="M125.8686 128.5096
L125.7734 128.2239
" />
<path d="M125.7734 128.2239
L125.6781 127.7477
" />
<path d="M125.6781 127.7477
L125.6781 127.3668
" />
<path d="M125.6781 127.3668
L125.7734 126.8906
" />
<path d="M125.7734 126.8906
L125.8686 126.6049
" />
<path d="M125.8686 126.6049
L125.9639 126.4144
" />
<path d="M125.9639 126.4144
L126.1543 126.1287
" />
<path d="M126.1543 126.1287
L126.2496 126.0334
" />
<path d="M126.9162 126.5096
L127.0115 126.4144
" />
<path d="M127.0115 126.4144
L127.2020 126.3192
" />
<path d="M127.2020 126.3192
L127.6781 126.3192
" />
<path d="M127.6781 126.3192
L127.8686 126.4144
" />
<path d="M127.8686 126.4144
L127.9639 126.5096
" />
<path d="M127.9639 126.5096
L128.0591 126.7001
" />
<path d="M128.0591 126.7001
L128.0591 126.8906
" />
<path d="M128.0591 126.8906
L127.9639 127.1763
" />
<path d="M127.9639 127.1763
L126.8210 128.3192
" />
<path d="M126.8210 128.3192
L128.0591 128.3192
" />
<path d="M130.4401 128.3192
L130.4401 126.3192
" />
<path d="M131.2972 128.3192
L131.2972 127.2715
" />
<path d="M131.2972 127.2715
L131.2020 127.0811
" />
<path d="M131.2020 127.0811
L131.0115 126.9858
" />
<path d="M131.0115 126.9858
L130.7258 126.9858
" />
<path d="M130.7258 126.9858
L130.5353 127.0811
" />
<path d="M130.5353 127.0811
L130.4401 127.1763
" />
<path d="M132.5353 128.3192
L132.3448 128.2239
" />
<path d="M132.3448 128.2239
L132.2496 128.1287
" />
<path d="M132.2496 128.1287
L132.1543 127.9382
" />
<path d="M132.1543 127.9382
L132.1543 127.3668
" />
<path d="M132.1543 127.3668
L132.2496 127.1763
" />
<path d="M132.2496 127.1763
L132.3448 127.0811
" />
<path d="M132.3448 127.0811
L132.5353 126.9858
" />
<path d="M132.5353 126.9858
L132.8210 126.9858
" />
<path d="M132.8210 126.9858
L133.0115 127.0811
" />
<path d="M133.0115 127.0811
L133.1067 127.1763
" />
<path d="M133.1067 127.1763
L133.2020 127.3668
" />
<path d="M133.2020 127.3668
L133.2020 127.9382
" />
<path d="M133.2020 127.9382
L133.1067 128.1287
" />
<path d="M133.1067 128.1287
L133.0115 128.2239
" />
<path d="M133.0115 128.2239
L132.8210 128.3192
" />
<path d="M132.8210 128.3192
L132.5353 128.3192
" />
<path d="M134.3448 128.3192
L134.1543 128.2239
" />
<path d="M134.1543 128.2239
L134.0591 128.0334
" />
<path d="M134.0591 128.0334
L134.0591 126.3192
" />
<path d="M135.8686 128.2239
L135.6781 128.3192
" />
<path d="M135.6781 128.3192
L135.2972 128.3192
" />
<path d="M135.2972 128.3192
L135.1067 128.2239
" />
<path d="M135.1067 128.2239
L135.0115 128.0334
" />
<path d="M135.0115 128.0334
L135.0115 127.2715
" />
<path d="M135.0115 127.2715
L135.1067 127.0811
" />
<path d="M135.1067 127.0811
L135.2972 126.9858
" />
<path d="M135.2972 126.9858
L135.6781 126.9858
" />
<path d="M135.6781 126.9858
L135.8686 127.0811
" />
<path d="M135.8686 127.0811
L135.9639 127.2715
" />
<path d="M135.9639 127.2715
L135.9639 127.4620
" />
<path d="M135.9639 127.4620
L135.0115 127.6525
" />
<path d="M136.7258 128.2239
L136.9162 128.3192
" />
<path d="M136.9162 128.3192
L137.2972 128.3192
" />
<path d="M137.2972 128.3192
L137.4877 128.2239
" />
<path d="M137.4877 128.2239
L137.5829 128.0334
" />
<path d="M137.5829 128.0334
L137.5829 127.9382
" />
<path d="M137.5829 127.9382
L137.4877 127.7477
" />
<path d="M137.4877 127.7477
L137.2972 127.6525
" />
<path d="M137.2972 127.6525
L137.0115 127.6525
" />
<path d="M137.0115 127.6525
L136.8210 127.5573
" />
<path d="M136.8210 127.5573
L136.7258 127.3668
" />
<path d="M136.7258 127.3668
L136.7258 127.2715
" />
<path d="M136.7258 127.2715
L136.8210 127.0811
" />
<path d="M136.8210 127.0811
L137.0115 126.9858
" />
<path d="M137.0115 126.9858
L137.2972 126.9858
" />
<path d="M137.2972 126.9858
L137.4877 127.0811
" />
<path d="M138.2496 129.0811
L138.3448 128.9858
" />
<path d="M138.3448 128.9858
L138.5353 128.7001
" />
<path d="M138.5353 128.7001
L138.6305 128.5096
" />
<path d="M138.6305 128.5096
L138.7258 128.2239
" />
<path d="M138.7258 128.2239
L138.8210 127.7477
" />
<path d="M138.8210 127.7477
L138.8210 127.3668
" />
<path d="M138.8210 127.3668
L138.7258 126.8906
" />
<path d="M138.7258 126.8906
L138.6305 126.6049
" />
<path d="M138.6305 126.6049
L138.5353 126.4144
" />
<path d="M138.5353 126.4144
L138.3448 126.1287
" />
<path d="M138.3448 126.1287
L138.2496 126.0334
" />
</g></g> 
</svg>
